%TF.GenerationSoftware,KiCad,Pcbnew,9.0.2*%
%TF.CreationDate,2025-07-21T15:30:36-04:00*%
%TF.ProjectId,Three Phase Current Sensor,54687265-6520-4506-9861-736520437572,rev?*%
%TF.SameCoordinates,Original*%
%TF.FileFunction,Legend,Bot*%
%TF.FilePolarity,Positive*%
%FSLAX46Y46*%
G04 Gerber Fmt 4.6, Leading zero omitted, Abs format (unit mm)*
G04 Created by KiCad (PCBNEW 9.0.2) date 2025-07-21 15:30:36*
%MOMM*%
%LPD*%
G01*
G04 APERTURE LIST*
%ADD10C,0.150000*%
G04 APERTURE END LIST*
D10*
X89006077Y-52454819D02*
X88672744Y-53454819D01*
X88672744Y-53454819D02*
X88339411Y-52454819D01*
X88006077Y-53454819D02*
X88006077Y-52454819D01*
X88006077Y-52454819D02*
X87767982Y-52454819D01*
X87767982Y-52454819D02*
X87625125Y-52502438D01*
X87625125Y-52502438D02*
X87529887Y-52597676D01*
X87529887Y-52597676D02*
X87482268Y-52692914D01*
X87482268Y-52692914D02*
X87434649Y-52883390D01*
X87434649Y-52883390D02*
X87434649Y-53026247D01*
X87434649Y-53026247D02*
X87482268Y-53216723D01*
X87482268Y-53216723D02*
X87529887Y-53311961D01*
X87529887Y-53311961D02*
X87625125Y-53407200D01*
X87625125Y-53407200D02*
X87767982Y-53454819D01*
X87767982Y-53454819D02*
X88006077Y-53454819D01*
X87006077Y-53454819D02*
X87006077Y-52454819D01*
X87006077Y-52454819D02*
X86767982Y-52454819D01*
X86767982Y-52454819D02*
X86625125Y-52502438D01*
X86625125Y-52502438D02*
X86529887Y-52597676D01*
X86529887Y-52597676D02*
X86482268Y-52692914D01*
X86482268Y-52692914D02*
X86434649Y-52883390D01*
X86434649Y-52883390D02*
X86434649Y-53026247D01*
X86434649Y-53026247D02*
X86482268Y-53216723D01*
X86482268Y-53216723D02*
X86529887Y-53311961D01*
X86529887Y-53311961D02*
X86625125Y-53407200D01*
X86625125Y-53407200D02*
X86767982Y-53454819D01*
X86767982Y-53454819D02*
X87006077Y-53454819D01*
X88491792Y-70454819D02*
X88825125Y-69978628D01*
X89063220Y-70454819D02*
X89063220Y-69454819D01*
X89063220Y-69454819D02*
X88682268Y-69454819D01*
X88682268Y-69454819D02*
X88587030Y-69502438D01*
X88587030Y-69502438D02*
X88539411Y-69550057D01*
X88539411Y-69550057D02*
X88491792Y-69645295D01*
X88491792Y-69645295D02*
X88491792Y-69788152D01*
X88491792Y-69788152D02*
X88539411Y-69883390D01*
X88539411Y-69883390D02*
X88587030Y-69931009D01*
X88587030Y-69931009D02*
X88682268Y-69978628D01*
X88682268Y-69978628D02*
X89063220Y-69978628D01*
X87682268Y-70407200D02*
X87777506Y-70454819D01*
X87777506Y-70454819D02*
X87967982Y-70454819D01*
X87967982Y-70454819D02*
X88063220Y-70407200D01*
X88063220Y-70407200D02*
X88110839Y-70311961D01*
X88110839Y-70311961D02*
X88110839Y-69931009D01*
X88110839Y-69931009D02*
X88063220Y-69835771D01*
X88063220Y-69835771D02*
X87967982Y-69788152D01*
X87967982Y-69788152D02*
X87777506Y-69788152D01*
X87777506Y-69788152D02*
X87682268Y-69835771D01*
X87682268Y-69835771D02*
X87634649Y-69931009D01*
X87634649Y-69931009D02*
X87634649Y-70026247D01*
X87634649Y-70026247D02*
X88110839Y-70121485D01*
X87348934Y-69788152D02*
X86967982Y-69788152D01*
X87206077Y-70454819D02*
X87206077Y-69597676D01*
X87206077Y-69597676D02*
X87158458Y-69502438D01*
X87158458Y-69502438D02*
X87063220Y-69454819D01*
X87063220Y-69454819D02*
X86967982Y-69454819D01*
X89206077Y-63454819D02*
X88872744Y-64454819D01*
X88872744Y-64454819D02*
X88539411Y-63454819D01*
X86872744Y-64359580D02*
X86920363Y-64407200D01*
X86920363Y-64407200D02*
X87063220Y-64454819D01*
X87063220Y-64454819D02*
X87158458Y-64454819D01*
X87158458Y-64454819D02*
X87301315Y-64407200D01*
X87301315Y-64407200D02*
X87396553Y-64311961D01*
X87396553Y-64311961D02*
X87444172Y-64216723D01*
X87444172Y-64216723D02*
X87491791Y-64026247D01*
X87491791Y-64026247D02*
X87491791Y-63883390D01*
X87491791Y-63883390D02*
X87444172Y-63692914D01*
X87444172Y-63692914D02*
X87396553Y-63597676D01*
X87396553Y-63597676D02*
X87301315Y-63502438D01*
X87301315Y-63502438D02*
X87158458Y-63454819D01*
X87158458Y-63454819D02*
X87063220Y-63454819D01*
X87063220Y-63454819D02*
X86920363Y-63502438D01*
X86920363Y-63502438D02*
X86872744Y-63550057D01*
X86015601Y-63788152D02*
X86015601Y-64454819D01*
X86444172Y-63788152D02*
X86444172Y-64311961D01*
X86444172Y-64311961D02*
X86396553Y-64407200D01*
X86396553Y-64407200D02*
X86301315Y-64454819D01*
X86301315Y-64454819D02*
X86158458Y-64454819D01*
X86158458Y-64454819D02*
X86063220Y-64407200D01*
X86063220Y-64407200D02*
X86015601Y-64359580D01*
X85539410Y-64454819D02*
X85539410Y-63788152D01*
X85539410Y-63978628D02*
X85491791Y-63883390D01*
X85491791Y-63883390D02*
X85444172Y-63835771D01*
X85444172Y-63835771D02*
X85348934Y-63788152D01*
X85348934Y-63788152D02*
X85253696Y-63788152D01*
X84920362Y-64454819D02*
X84920362Y-63788152D01*
X84920362Y-63978628D02*
X84872743Y-63883390D01*
X84872743Y-63883390D02*
X84825124Y-63835771D01*
X84825124Y-63835771D02*
X84729886Y-63788152D01*
X84729886Y-63788152D02*
X84634648Y-63788152D01*
X83920362Y-64407200D02*
X84015600Y-64454819D01*
X84015600Y-64454819D02*
X84206076Y-64454819D01*
X84206076Y-64454819D02*
X84301314Y-64407200D01*
X84301314Y-64407200D02*
X84348933Y-64311961D01*
X84348933Y-64311961D02*
X84348933Y-63931009D01*
X84348933Y-63931009D02*
X84301314Y-63835771D01*
X84301314Y-63835771D02*
X84206076Y-63788152D01*
X84206076Y-63788152D02*
X84015600Y-63788152D01*
X84015600Y-63788152D02*
X83920362Y-63835771D01*
X83920362Y-63835771D02*
X83872743Y-63931009D01*
X83872743Y-63931009D02*
X83872743Y-64026247D01*
X83872743Y-64026247D02*
X84348933Y-64121485D01*
X83444171Y-63788152D02*
X83444171Y-64454819D01*
X83444171Y-63883390D02*
X83396552Y-63835771D01*
X83396552Y-63835771D02*
X83301314Y-63788152D01*
X83301314Y-63788152D02*
X83158457Y-63788152D01*
X83158457Y-63788152D02*
X83063219Y-63835771D01*
X83063219Y-63835771D02*
X83015600Y-63931009D01*
X83015600Y-63931009D02*
X83015600Y-64454819D01*
X82682266Y-63788152D02*
X82301314Y-63788152D01*
X82539409Y-63454819D02*
X82539409Y-64311961D01*
X82539409Y-64311961D02*
X82491790Y-64407200D01*
X82491790Y-64407200D02*
X82396552Y-64454819D01*
X82396552Y-64454819D02*
X82301314Y-64454819D01*
X89158458Y-67454819D02*
X88920363Y-68454819D01*
X88920363Y-68454819D02*
X88729887Y-67740533D01*
X88729887Y-67740533D02*
X88539411Y-68454819D01*
X88539411Y-68454819D02*
X88301316Y-67454819D01*
X86587030Y-68359580D02*
X86634649Y-68407200D01*
X86634649Y-68407200D02*
X86777506Y-68454819D01*
X86777506Y-68454819D02*
X86872744Y-68454819D01*
X86872744Y-68454819D02*
X87015601Y-68407200D01*
X87015601Y-68407200D02*
X87110839Y-68311961D01*
X87110839Y-68311961D02*
X87158458Y-68216723D01*
X87158458Y-68216723D02*
X87206077Y-68026247D01*
X87206077Y-68026247D02*
X87206077Y-67883390D01*
X87206077Y-67883390D02*
X87158458Y-67692914D01*
X87158458Y-67692914D02*
X87110839Y-67597676D01*
X87110839Y-67597676D02*
X87015601Y-67502438D01*
X87015601Y-67502438D02*
X86872744Y-67454819D01*
X86872744Y-67454819D02*
X86777506Y-67454819D01*
X86777506Y-67454819D02*
X86634649Y-67502438D01*
X86634649Y-67502438D02*
X86587030Y-67550057D01*
X85729887Y-67788152D02*
X85729887Y-68454819D01*
X86158458Y-67788152D02*
X86158458Y-68311961D01*
X86158458Y-68311961D02*
X86110839Y-68407200D01*
X86110839Y-68407200D02*
X86015601Y-68454819D01*
X86015601Y-68454819D02*
X85872744Y-68454819D01*
X85872744Y-68454819D02*
X85777506Y-68407200D01*
X85777506Y-68407200D02*
X85729887Y-68359580D01*
X85253696Y-68454819D02*
X85253696Y-67788152D01*
X85253696Y-67978628D02*
X85206077Y-67883390D01*
X85206077Y-67883390D02*
X85158458Y-67835771D01*
X85158458Y-67835771D02*
X85063220Y-67788152D01*
X85063220Y-67788152D02*
X84967982Y-67788152D01*
X84634648Y-68454819D02*
X84634648Y-67788152D01*
X84634648Y-67978628D02*
X84587029Y-67883390D01*
X84587029Y-67883390D02*
X84539410Y-67835771D01*
X84539410Y-67835771D02*
X84444172Y-67788152D01*
X84444172Y-67788152D02*
X84348934Y-67788152D01*
X83634648Y-68407200D02*
X83729886Y-68454819D01*
X83729886Y-68454819D02*
X83920362Y-68454819D01*
X83920362Y-68454819D02*
X84015600Y-68407200D01*
X84015600Y-68407200D02*
X84063219Y-68311961D01*
X84063219Y-68311961D02*
X84063219Y-67931009D01*
X84063219Y-67931009D02*
X84015600Y-67835771D01*
X84015600Y-67835771D02*
X83920362Y-67788152D01*
X83920362Y-67788152D02*
X83729886Y-67788152D01*
X83729886Y-67788152D02*
X83634648Y-67835771D01*
X83634648Y-67835771D02*
X83587029Y-67931009D01*
X83587029Y-67931009D02*
X83587029Y-68026247D01*
X83587029Y-68026247D02*
X84063219Y-68121485D01*
X83158457Y-67788152D02*
X83158457Y-68454819D01*
X83158457Y-67883390D02*
X83110838Y-67835771D01*
X83110838Y-67835771D02*
X83015600Y-67788152D01*
X83015600Y-67788152D02*
X82872743Y-67788152D01*
X82872743Y-67788152D02*
X82777505Y-67835771D01*
X82777505Y-67835771D02*
X82729886Y-67931009D01*
X82729886Y-67931009D02*
X82729886Y-68454819D01*
X82396552Y-67788152D02*
X82015600Y-67788152D01*
X82253695Y-67454819D02*
X82253695Y-68311961D01*
X82253695Y-68311961D02*
X82206076Y-68407200D01*
X82206076Y-68407200D02*
X82110838Y-68454819D01*
X82110838Y-68454819D02*
X82015600Y-68454819D01*
X88491792Y-62454819D02*
X88825125Y-61978628D01*
X89063220Y-62454819D02*
X89063220Y-61454819D01*
X89063220Y-61454819D02*
X88682268Y-61454819D01*
X88682268Y-61454819D02*
X88587030Y-61502438D01*
X88587030Y-61502438D02*
X88539411Y-61550057D01*
X88539411Y-61550057D02*
X88491792Y-61645295D01*
X88491792Y-61645295D02*
X88491792Y-61788152D01*
X88491792Y-61788152D02*
X88539411Y-61883390D01*
X88539411Y-61883390D02*
X88587030Y-61931009D01*
X88587030Y-61931009D02*
X88682268Y-61978628D01*
X88682268Y-61978628D02*
X89063220Y-61978628D01*
X87682268Y-62407200D02*
X87777506Y-62454819D01*
X87777506Y-62454819D02*
X87967982Y-62454819D01*
X87967982Y-62454819D02*
X88063220Y-62407200D01*
X88063220Y-62407200D02*
X88110839Y-62311961D01*
X88110839Y-62311961D02*
X88110839Y-61931009D01*
X88110839Y-61931009D02*
X88063220Y-61835771D01*
X88063220Y-61835771D02*
X87967982Y-61788152D01*
X87967982Y-61788152D02*
X87777506Y-61788152D01*
X87777506Y-61788152D02*
X87682268Y-61835771D01*
X87682268Y-61835771D02*
X87634649Y-61931009D01*
X87634649Y-61931009D02*
X87634649Y-62026247D01*
X87634649Y-62026247D02*
X88110839Y-62121485D01*
X87348934Y-61788152D02*
X86967982Y-61788152D01*
X87206077Y-62454819D02*
X87206077Y-61597676D01*
X87206077Y-61597676D02*
X87158458Y-61502438D01*
X87158458Y-61502438D02*
X87063220Y-61454819D01*
X87063220Y-61454819D02*
X86967982Y-61454819D01*
X88491792Y-66454819D02*
X88825125Y-65978628D01*
X89063220Y-66454819D02*
X89063220Y-65454819D01*
X89063220Y-65454819D02*
X88682268Y-65454819D01*
X88682268Y-65454819D02*
X88587030Y-65502438D01*
X88587030Y-65502438D02*
X88539411Y-65550057D01*
X88539411Y-65550057D02*
X88491792Y-65645295D01*
X88491792Y-65645295D02*
X88491792Y-65788152D01*
X88491792Y-65788152D02*
X88539411Y-65883390D01*
X88539411Y-65883390D02*
X88587030Y-65931009D01*
X88587030Y-65931009D02*
X88682268Y-65978628D01*
X88682268Y-65978628D02*
X89063220Y-65978628D01*
X87682268Y-66407200D02*
X87777506Y-66454819D01*
X87777506Y-66454819D02*
X87967982Y-66454819D01*
X87967982Y-66454819D02*
X88063220Y-66407200D01*
X88063220Y-66407200D02*
X88110839Y-66311961D01*
X88110839Y-66311961D02*
X88110839Y-65931009D01*
X88110839Y-65931009D02*
X88063220Y-65835771D01*
X88063220Y-65835771D02*
X87967982Y-65788152D01*
X87967982Y-65788152D02*
X87777506Y-65788152D01*
X87777506Y-65788152D02*
X87682268Y-65835771D01*
X87682268Y-65835771D02*
X87634649Y-65931009D01*
X87634649Y-65931009D02*
X87634649Y-66026247D01*
X87634649Y-66026247D02*
X88110839Y-66121485D01*
X87348934Y-65788152D02*
X86967982Y-65788152D01*
X87206077Y-66454819D02*
X87206077Y-65597676D01*
X87206077Y-65597676D02*
X87158458Y-65502438D01*
X87158458Y-65502438D02*
X87063220Y-65454819D01*
X87063220Y-65454819D02*
X86967982Y-65454819D01*
X89063220Y-59454819D02*
X89063220Y-60264342D01*
X89063220Y-60264342D02*
X89015601Y-60359580D01*
X89015601Y-60359580D02*
X88967982Y-60407200D01*
X88967982Y-60407200D02*
X88872744Y-60454819D01*
X88872744Y-60454819D02*
X88682268Y-60454819D01*
X88682268Y-60454819D02*
X88587030Y-60407200D01*
X88587030Y-60407200D02*
X88539411Y-60359580D01*
X88539411Y-60359580D02*
X88491792Y-60264342D01*
X88491792Y-60264342D02*
X88491792Y-59454819D01*
X86682268Y-60359580D02*
X86729887Y-60407200D01*
X86729887Y-60407200D02*
X86872744Y-60454819D01*
X86872744Y-60454819D02*
X86967982Y-60454819D01*
X86967982Y-60454819D02*
X87110839Y-60407200D01*
X87110839Y-60407200D02*
X87206077Y-60311961D01*
X87206077Y-60311961D02*
X87253696Y-60216723D01*
X87253696Y-60216723D02*
X87301315Y-60026247D01*
X87301315Y-60026247D02*
X87301315Y-59883390D01*
X87301315Y-59883390D02*
X87253696Y-59692914D01*
X87253696Y-59692914D02*
X87206077Y-59597676D01*
X87206077Y-59597676D02*
X87110839Y-59502438D01*
X87110839Y-59502438D02*
X86967982Y-59454819D01*
X86967982Y-59454819D02*
X86872744Y-59454819D01*
X86872744Y-59454819D02*
X86729887Y-59502438D01*
X86729887Y-59502438D02*
X86682268Y-59550057D01*
X85825125Y-59788152D02*
X85825125Y-60454819D01*
X86253696Y-59788152D02*
X86253696Y-60311961D01*
X86253696Y-60311961D02*
X86206077Y-60407200D01*
X86206077Y-60407200D02*
X86110839Y-60454819D01*
X86110839Y-60454819D02*
X85967982Y-60454819D01*
X85967982Y-60454819D02*
X85872744Y-60407200D01*
X85872744Y-60407200D02*
X85825125Y-60359580D01*
X85348934Y-60454819D02*
X85348934Y-59788152D01*
X85348934Y-59978628D02*
X85301315Y-59883390D01*
X85301315Y-59883390D02*
X85253696Y-59835771D01*
X85253696Y-59835771D02*
X85158458Y-59788152D01*
X85158458Y-59788152D02*
X85063220Y-59788152D01*
X84729886Y-60454819D02*
X84729886Y-59788152D01*
X84729886Y-59978628D02*
X84682267Y-59883390D01*
X84682267Y-59883390D02*
X84634648Y-59835771D01*
X84634648Y-59835771D02*
X84539410Y-59788152D01*
X84539410Y-59788152D02*
X84444172Y-59788152D01*
X83729886Y-60407200D02*
X83825124Y-60454819D01*
X83825124Y-60454819D02*
X84015600Y-60454819D01*
X84015600Y-60454819D02*
X84110838Y-60407200D01*
X84110838Y-60407200D02*
X84158457Y-60311961D01*
X84158457Y-60311961D02*
X84158457Y-59931009D01*
X84158457Y-59931009D02*
X84110838Y-59835771D01*
X84110838Y-59835771D02*
X84015600Y-59788152D01*
X84015600Y-59788152D02*
X83825124Y-59788152D01*
X83825124Y-59788152D02*
X83729886Y-59835771D01*
X83729886Y-59835771D02*
X83682267Y-59931009D01*
X83682267Y-59931009D02*
X83682267Y-60026247D01*
X83682267Y-60026247D02*
X84158457Y-60121485D01*
X83253695Y-59788152D02*
X83253695Y-60454819D01*
X83253695Y-59883390D02*
X83206076Y-59835771D01*
X83206076Y-59835771D02*
X83110838Y-59788152D01*
X83110838Y-59788152D02*
X82967981Y-59788152D01*
X82967981Y-59788152D02*
X82872743Y-59835771D01*
X82872743Y-59835771D02*
X82825124Y-59931009D01*
X82825124Y-59931009D02*
X82825124Y-60454819D01*
X82491790Y-59788152D02*
X82110838Y-59788152D01*
X82348933Y-59454819D02*
X82348933Y-60311961D01*
X82348933Y-60311961D02*
X82301314Y-60407200D01*
X82301314Y-60407200D02*
X82206076Y-60454819D01*
X82206076Y-60454819D02*
X82110838Y-60454819D01*
X88539411Y-57502438D02*
X88634649Y-57454819D01*
X88634649Y-57454819D02*
X88777506Y-57454819D01*
X88777506Y-57454819D02*
X88920363Y-57502438D01*
X88920363Y-57502438D02*
X89015601Y-57597676D01*
X89015601Y-57597676D02*
X89063220Y-57692914D01*
X89063220Y-57692914D02*
X89110839Y-57883390D01*
X89110839Y-57883390D02*
X89110839Y-58026247D01*
X89110839Y-58026247D02*
X89063220Y-58216723D01*
X89063220Y-58216723D02*
X89015601Y-58311961D01*
X89015601Y-58311961D02*
X88920363Y-58407200D01*
X88920363Y-58407200D02*
X88777506Y-58454819D01*
X88777506Y-58454819D02*
X88682268Y-58454819D01*
X88682268Y-58454819D02*
X88539411Y-58407200D01*
X88539411Y-58407200D02*
X88491792Y-58359580D01*
X88491792Y-58359580D02*
X88491792Y-58026247D01*
X88491792Y-58026247D02*
X88682268Y-58026247D01*
X88063220Y-58454819D02*
X88063220Y-57454819D01*
X88063220Y-57454819D02*
X87491792Y-58454819D01*
X87491792Y-58454819D02*
X87491792Y-57454819D01*
X87015601Y-58454819D02*
X87015601Y-57454819D01*
X87015601Y-57454819D02*
X86777506Y-57454819D01*
X86777506Y-57454819D02*
X86634649Y-57502438D01*
X86634649Y-57502438D02*
X86539411Y-57597676D01*
X86539411Y-57597676D02*
X86491792Y-57692914D01*
X86491792Y-57692914D02*
X86444173Y-57883390D01*
X86444173Y-57883390D02*
X86444173Y-58026247D01*
X86444173Y-58026247D02*
X86491792Y-58216723D01*
X86491792Y-58216723D02*
X86539411Y-58311961D01*
X86539411Y-58311961D02*
X86634649Y-58407200D01*
X86634649Y-58407200D02*
X86777506Y-58454819D01*
X86777506Y-58454819D02*
X87015601Y-58454819D01*
X88539411Y-50102438D02*
X88634649Y-50054819D01*
X88634649Y-50054819D02*
X88777506Y-50054819D01*
X88777506Y-50054819D02*
X88920363Y-50102438D01*
X88920363Y-50102438D02*
X89015601Y-50197676D01*
X89015601Y-50197676D02*
X89063220Y-50292914D01*
X89063220Y-50292914D02*
X89110839Y-50483390D01*
X89110839Y-50483390D02*
X89110839Y-50626247D01*
X89110839Y-50626247D02*
X89063220Y-50816723D01*
X89063220Y-50816723D02*
X89015601Y-50911961D01*
X89015601Y-50911961D02*
X88920363Y-51007200D01*
X88920363Y-51007200D02*
X88777506Y-51054819D01*
X88777506Y-51054819D02*
X88682268Y-51054819D01*
X88682268Y-51054819D02*
X88539411Y-51007200D01*
X88539411Y-51007200D02*
X88491792Y-50959580D01*
X88491792Y-50959580D02*
X88491792Y-50626247D01*
X88491792Y-50626247D02*
X88682268Y-50626247D01*
X88063220Y-51054819D02*
X88063220Y-50054819D01*
X88063220Y-50054819D02*
X87491792Y-51054819D01*
X87491792Y-51054819D02*
X87491792Y-50054819D01*
X87015601Y-51054819D02*
X87015601Y-50054819D01*
X87015601Y-50054819D02*
X86777506Y-50054819D01*
X86777506Y-50054819D02*
X86634649Y-50102438D01*
X86634649Y-50102438D02*
X86539411Y-50197676D01*
X86539411Y-50197676D02*
X86491792Y-50292914D01*
X86491792Y-50292914D02*
X86444173Y-50483390D01*
X86444173Y-50483390D02*
X86444173Y-50626247D01*
X86444173Y-50626247D02*
X86491792Y-50816723D01*
X86491792Y-50816723D02*
X86539411Y-50911961D01*
X86539411Y-50911961D02*
X86634649Y-51007200D01*
X86634649Y-51007200D02*
X86777506Y-51054819D01*
X86777506Y-51054819D02*
X87015601Y-51054819D01*
X88539411Y-71502438D02*
X88634649Y-71454819D01*
X88634649Y-71454819D02*
X88777506Y-71454819D01*
X88777506Y-71454819D02*
X88920363Y-71502438D01*
X88920363Y-71502438D02*
X89015601Y-71597676D01*
X89015601Y-71597676D02*
X89063220Y-71692914D01*
X89063220Y-71692914D02*
X89110839Y-71883390D01*
X89110839Y-71883390D02*
X89110839Y-72026247D01*
X89110839Y-72026247D02*
X89063220Y-72216723D01*
X89063220Y-72216723D02*
X89015601Y-72311961D01*
X89015601Y-72311961D02*
X88920363Y-72407200D01*
X88920363Y-72407200D02*
X88777506Y-72454819D01*
X88777506Y-72454819D02*
X88682268Y-72454819D01*
X88682268Y-72454819D02*
X88539411Y-72407200D01*
X88539411Y-72407200D02*
X88491792Y-72359580D01*
X88491792Y-72359580D02*
X88491792Y-72026247D01*
X88491792Y-72026247D02*
X88682268Y-72026247D01*
X88063220Y-72454819D02*
X88063220Y-71454819D01*
X88063220Y-71454819D02*
X87491792Y-72454819D01*
X87491792Y-72454819D02*
X87491792Y-71454819D01*
X87015601Y-72454819D02*
X87015601Y-71454819D01*
X87015601Y-71454819D02*
X86777506Y-71454819D01*
X86777506Y-71454819D02*
X86634649Y-71502438D01*
X86634649Y-71502438D02*
X86539411Y-71597676D01*
X86539411Y-71597676D02*
X86491792Y-71692914D01*
X86491792Y-71692914D02*
X86444173Y-71883390D01*
X86444173Y-71883390D02*
X86444173Y-72026247D01*
X86444173Y-72026247D02*
X86491792Y-72216723D01*
X86491792Y-72216723D02*
X86539411Y-72311961D01*
X86539411Y-72311961D02*
X86634649Y-72407200D01*
X86634649Y-72407200D02*
X86777506Y-72454819D01*
X86777506Y-72454819D02*
X87015601Y-72454819D01*
M02*
