%TF.GenerationSoftware,KiCad,Pcbnew,9.0.2*%
%TF.CreationDate,2025-07-21T15:30:35-04:00*%
%TF.ProjectId,Three Phase Current Sensor,54687265-6520-4506-9861-736520437572,rev?*%
%TF.SameCoordinates,Original*%
%TF.FileFunction,Copper,L2,Bot*%
%TF.FilePolarity,Positive*%
%FSLAX46Y46*%
G04 Gerber Fmt 4.6, Leading zero omitted, Abs format (unit mm)*
G04 Created by KiCad (PCBNEW 9.0.2) date 2025-07-21 15:30:35*
%MOMM*%
%LPD*%
G01*
G04 APERTURE LIST*
G04 Aperture macros list*
%AMRoundRect*
0 Rectangle with rounded corners*
0 $1 Rounding radius*
0 $2 $3 $4 $5 $6 $7 $8 $9 X,Y pos of 4 corners*
0 Add a 4 corners polygon primitive as box body*
4,1,4,$2,$3,$4,$5,$6,$7,$8,$9,$2,$3,0*
0 Add four circle primitives for the rounded corners*
1,1,$1+$1,$2,$3*
1,1,$1+$1,$4,$5*
1,1,$1+$1,$6,$7*
1,1,$1+$1,$8,$9*
0 Add four rect primitives between the rounded corners*
20,1,$1+$1,$2,$3,$4,$5,0*
20,1,$1+$1,$4,$5,$6,$7,0*
20,1,$1+$1,$6,$7,$8,$9,0*
20,1,$1+$1,$8,$9,$2,$3,0*%
G04 Aperture macros list end*
%TA.AperFunction,ComponentPad*%
%ADD10RoundRect,0.250000X-1.050000X1.050000X-1.050000X-1.050000X1.050000X-1.050000X1.050000X1.050000X0*%
%TD*%
%TA.AperFunction,ComponentPad*%
%ADD11C,2.600000*%
%TD*%
%TA.AperFunction,ComponentPad*%
%ADD12RoundRect,0.250000X-0.845000X0.620000X-0.845000X-0.620000X0.845000X-0.620000X0.845000X0.620000X0*%
%TD*%
%TA.AperFunction,ComponentPad*%
%ADD13O,2.190000X1.740000*%
%TD*%
%TA.AperFunction,ComponentPad*%
%ADD14RoundRect,0.250000X-0.625000X0.350000X-0.625000X-0.350000X0.625000X-0.350000X0.625000X0.350000X0*%
%TD*%
%TA.AperFunction,ComponentPad*%
%ADD15O,1.750000X1.200000*%
%TD*%
%TA.AperFunction,ViaPad*%
%ADD16C,0.600000*%
%TD*%
%TA.AperFunction,Conductor*%
%ADD17C,0.750000*%
%TD*%
G04 APERTURE END LIST*
D10*
%TO.P,J2,1,Pin_1*%
%TO.N,/Sensor U/IN_+*%
X61227500Y-48455000D03*
D11*
%TO.P,J2,2,Pin_2*%
%TO.N,/Sensor U/IN_-*%
X61227500Y-53535000D03*
%TD*%
D12*
%TO.P,J5,1,Pin_1*%
%TO.N,GND*%
X92000000Y-50460000D03*
D13*
%TO.P,J5,2,Pin_2*%
%TO.N,+3V3*%
X92000000Y-53000000D03*
%TD*%
D14*
%TO.P,J1,1,Pin_1*%
%TO.N,GND*%
X92800000Y-58000000D03*
D15*
%TO.P,J1,2,Pin_2*%
%TO.N,OUT_U_+*%
X92800000Y-60000000D03*
%TO.P,J1,3,Pin_3*%
%TO.N,REF_OUT*%
X92800000Y-62000000D03*
%TO.P,J1,4,Pin_4*%
%TO.N,OUT_V_+*%
X92800000Y-64000000D03*
%TO.P,J1,5,Pin_5*%
%TO.N,REF_OUT*%
X92800000Y-66000000D03*
%TO.P,J1,6,Pin_6*%
%TO.N,OUT_W_+*%
X92800000Y-68000000D03*
%TO.P,J1,7,Pin_7*%
%TO.N,REF_OUT*%
X92800000Y-70000000D03*
%TO.P,J1,8,Pin_8*%
%TO.N,GND*%
X92800000Y-72000000D03*
%TD*%
D10*
%TO.P,J3,1,Pin_1*%
%TO.N,/Sensor V/IN_+*%
X61227500Y-60455000D03*
D11*
%TO.P,J3,2,Pin_2*%
%TO.N,/Sensor V/IN_-*%
X61227500Y-65535000D03*
%TD*%
D10*
%TO.P,J4,1,Pin_1*%
%TO.N,/Sensor W/IN_+*%
X61227500Y-72455000D03*
D11*
%TO.P,J4,2,Pin_2*%
%TO.N,/Sensor W/IN_-*%
X61227500Y-77535000D03*
%TD*%
D16*
%TO.N,GND*%
X82005331Y-62305331D03*
X76927500Y-55327500D03*
X85515000Y-71315000D03*
X78400000Y-58300000D03*
X78357500Y-70300000D03*
X72800000Y-46335000D03*
X76927500Y-79235000D03*
X74400000Y-55300000D03*
X74387500Y-67195000D03*
X74387500Y-79195000D03*
X76927500Y-67235000D03*
X80750000Y-65000000D03*
%TO.N,+3V3*%
X86000000Y-62000000D03*
X86000000Y-57200000D03*
%TO.N,/Sensor U/IN_-*%
X60000000Y-55650000D03*
X57000000Y-54650000D03*
X65000000Y-53650000D03*
X64000000Y-53650000D03*
X59000000Y-55650000D03*
X59000000Y-54650000D03*
X58000000Y-53650000D03*
X66000000Y-54650000D03*
X64000000Y-52650000D03*
X58000000Y-54650000D03*
X63000000Y-54650000D03*
X66000000Y-55650000D03*
X63000000Y-52650000D03*
X69000000Y-55650000D03*
X57000000Y-52650000D03*
X63000000Y-55650000D03*
X57000000Y-53650000D03*
X63000000Y-53650000D03*
X68000000Y-55650000D03*
X65000000Y-55650000D03*
X64000000Y-55650000D03*
X65000000Y-54650000D03*
X59000000Y-52650000D03*
X59000000Y-53650000D03*
X66000000Y-53650000D03*
X58000000Y-52650000D03*
X61000000Y-55650000D03*
X57000000Y-55650000D03*
X62000000Y-55650000D03*
X58000000Y-55650000D03*
X64000000Y-54650000D03*
X70000000Y-55650000D03*
X67000000Y-55650000D03*
%TO.N,/Sensor U/IN_+*%
X66000000Y-47100000D03*
X66000000Y-48100000D03*
X57000000Y-48100000D03*
X59000000Y-47100000D03*
X63000000Y-46100000D03*
X59000000Y-48100000D03*
X65000000Y-46100000D03*
X59000000Y-46100000D03*
X59000000Y-49100000D03*
X57000000Y-46100000D03*
X64000000Y-46100000D03*
X62000000Y-46100000D03*
X60000000Y-46100000D03*
X66000000Y-46100000D03*
X58000000Y-47100000D03*
X65000000Y-48100000D03*
X58000000Y-49100000D03*
X70000000Y-46100000D03*
X65000000Y-47100000D03*
X57000000Y-47100000D03*
X61000000Y-46100000D03*
X69000000Y-46100000D03*
X68000000Y-46100000D03*
X67000000Y-46100000D03*
X64000000Y-49100000D03*
X64000000Y-47100000D03*
X64000000Y-48100000D03*
X63000000Y-47100000D03*
X57000000Y-49100000D03*
X63000000Y-48100000D03*
X63000000Y-49100000D03*
X58000000Y-46100000D03*
X58000000Y-48100000D03*
%TO.N,/Sensor V/IN_-*%
X58000000Y-67800000D03*
X63000000Y-64800000D03*
X64000000Y-65800000D03*
X61000000Y-67800000D03*
X60000000Y-67800000D03*
X62000000Y-67800000D03*
X58000000Y-64800000D03*
X57000000Y-66800000D03*
X66000000Y-66800000D03*
X64000000Y-64800000D03*
X63000000Y-67800000D03*
X58000000Y-65800000D03*
X59000000Y-64800000D03*
X65000000Y-65800000D03*
X64000000Y-66800000D03*
X70000000Y-67800000D03*
X57000000Y-67800000D03*
X68000000Y-67800000D03*
X66000000Y-67800000D03*
X67000000Y-67800000D03*
X63000000Y-65800000D03*
X65000000Y-66800000D03*
X59000000Y-67800000D03*
X69000000Y-67800000D03*
X66000000Y-65800000D03*
X59000000Y-66800000D03*
X63000000Y-66800000D03*
X64000000Y-67800000D03*
X59000000Y-65800000D03*
X57000000Y-65800000D03*
X57000000Y-64800000D03*
X65000000Y-67800000D03*
X58000000Y-66800000D03*
%TO.N,/Sensor V/IN_+*%
X59000000Y-60200000D03*
X69000000Y-58200000D03*
X64000000Y-58200000D03*
X64000000Y-61200000D03*
X65000000Y-58200000D03*
X62000000Y-58200000D03*
X66000000Y-59200000D03*
X63000000Y-60200000D03*
X59000000Y-59200000D03*
X64000000Y-60200000D03*
X58000000Y-61200000D03*
X59000000Y-58200000D03*
X57000000Y-58200000D03*
X63000000Y-59200000D03*
X57000000Y-61200000D03*
X66000000Y-60200000D03*
X57000000Y-60200000D03*
X67000000Y-58200000D03*
X63000000Y-61200000D03*
X59000000Y-61200000D03*
X58000000Y-59200000D03*
X70000000Y-58200000D03*
X58000000Y-58200000D03*
X68000000Y-58200000D03*
X63000000Y-58200000D03*
X61000000Y-58200000D03*
X60000000Y-58200000D03*
X65000000Y-60200000D03*
X57000000Y-59200000D03*
X66000000Y-58200000D03*
X58000000Y-60200000D03*
X65000000Y-59200000D03*
X64000000Y-59200000D03*
%TO.N,/Sensor W/IN_-*%
X68000000Y-79800000D03*
X66000000Y-77800000D03*
X58000000Y-78800000D03*
X57000000Y-77800000D03*
X65000000Y-78800000D03*
X69000000Y-79800000D03*
X59000000Y-76800000D03*
X58000000Y-76800000D03*
X64000000Y-78800000D03*
X59000000Y-79800000D03*
X70000000Y-79800000D03*
X64000000Y-79800000D03*
X57000000Y-78800000D03*
X65000000Y-77800000D03*
X63000000Y-76800000D03*
X57000000Y-79800000D03*
X63000000Y-79800000D03*
X62000000Y-79800000D03*
X59000000Y-78800000D03*
X66000000Y-78800000D03*
X66000000Y-79800000D03*
X60000000Y-79800000D03*
X59000000Y-77800000D03*
X63000000Y-78800000D03*
X58000000Y-79800000D03*
X57000000Y-76800000D03*
X67000000Y-79800000D03*
X58000000Y-77800000D03*
X63000000Y-77800000D03*
X65000000Y-79800000D03*
X64000000Y-77800000D03*
X61000000Y-79800000D03*
X64000000Y-76800000D03*
%TO.N,/Sensor W/IN_+*%
X63000000Y-70200000D03*
X64000000Y-71200000D03*
X67000000Y-70200000D03*
X63000000Y-73200000D03*
X63000000Y-71200000D03*
X61000000Y-70200000D03*
X70000000Y-70200000D03*
X60000000Y-70200000D03*
X64000000Y-72200000D03*
X57000000Y-73200000D03*
X59000000Y-72200000D03*
X59000000Y-70200000D03*
X66000000Y-72200000D03*
X64000000Y-73200000D03*
X57000000Y-72200000D03*
X64000000Y-70200000D03*
X66000000Y-71200000D03*
X63000000Y-72200000D03*
X58000000Y-70200000D03*
X62000000Y-70200000D03*
X69000000Y-70200000D03*
X59000000Y-73200000D03*
X58000000Y-71200000D03*
X66000000Y-70200000D03*
X59000000Y-71200000D03*
X65000000Y-72200000D03*
X65000000Y-70200000D03*
X68000000Y-70200000D03*
X57000000Y-70200000D03*
X57000000Y-71200000D03*
X58000000Y-72200000D03*
X58000000Y-73200000D03*
X65000000Y-71200000D03*
%TD*%
D17*
%TO.N,+3V3*%
X90200000Y-53000000D02*
X92000000Y-53000000D01*
X86000000Y-57200000D02*
X90200000Y-53000000D01*
X86000000Y-62000000D02*
X86000000Y-57200000D01*
%TD*%
%TA.AperFunction,Conductor*%
%TO.N,/Sensor U/IN_+*%
G36*
X70302411Y-45719685D02*
G01*
X70329174Y-45742900D01*
X70434802Y-45865072D01*
X70463757Y-45928660D01*
X70465000Y-45946172D01*
X70465000Y-47976000D01*
X70445315Y-48043039D01*
X70392511Y-48088794D01*
X70341000Y-48100000D01*
X66965000Y-48100000D01*
X63437260Y-49818642D01*
X62680182Y-50187475D01*
X62625874Y-50200000D01*
X56689000Y-50200000D01*
X56621961Y-50180315D01*
X56576206Y-50127511D01*
X56565000Y-50076000D01*
X56565000Y-45824000D01*
X56584685Y-45756961D01*
X56637489Y-45711206D01*
X56689000Y-45700000D01*
X70235372Y-45700000D01*
X70302411Y-45719685D01*
G37*
%TD.AperFunction*%
%TD*%
%TA.AperFunction,Conductor*%
%TO.N,/Sensor V/IN_-*%
G36*
X62680182Y-63647525D02*
G01*
X66965000Y-65735000D01*
X70341000Y-65735000D01*
X70408039Y-65754685D01*
X70453794Y-65807489D01*
X70465000Y-65859000D01*
X70465000Y-67888827D01*
X70457573Y-67914118D01*
X70453851Y-67940214D01*
X70446581Y-67951552D01*
X70445315Y-67955866D01*
X70434802Y-67969926D01*
X70329174Y-68092099D01*
X70270438Y-68129939D01*
X70235372Y-68135000D01*
X56689000Y-68135000D01*
X56621961Y-68115315D01*
X56576206Y-68062511D01*
X56565000Y-68011000D01*
X56565000Y-63759000D01*
X56584685Y-63691961D01*
X56637489Y-63646206D01*
X56689000Y-63635000D01*
X62625874Y-63635000D01*
X62680182Y-63647525D01*
G37*
%TD.AperFunction*%
%TD*%
%TA.AperFunction,Conductor*%
%TO.N,/Sensor V/IN_+*%
G36*
X70302411Y-57854685D02*
G01*
X70329174Y-57877900D01*
X70434802Y-58000072D01*
X70463757Y-58063660D01*
X70465000Y-58081172D01*
X70465000Y-60111000D01*
X70445315Y-60178039D01*
X70392511Y-60223794D01*
X70341000Y-60235000D01*
X66965000Y-60235000D01*
X63437260Y-61953642D01*
X62680182Y-62322475D01*
X62625874Y-62335000D01*
X56689000Y-62335000D01*
X56621961Y-62315315D01*
X56576206Y-62262511D01*
X56565000Y-62211000D01*
X56565000Y-57959000D01*
X56584685Y-57891961D01*
X56637489Y-57846206D01*
X56689000Y-57835000D01*
X70235372Y-57835000D01*
X70302411Y-57854685D01*
G37*
%TD.AperFunction*%
%TD*%
%TA.AperFunction,Conductor*%
%TO.N,/Sensor W/IN_+*%
G36*
X70302411Y-69854685D02*
G01*
X70329174Y-69877900D01*
X70434802Y-70000072D01*
X70463757Y-70063660D01*
X70465000Y-70081172D01*
X70465000Y-72111000D01*
X70445315Y-72178039D01*
X70392511Y-72223794D01*
X70341000Y-72235000D01*
X66965000Y-72235000D01*
X63437260Y-73953642D01*
X62680182Y-74322475D01*
X62625874Y-74335000D01*
X56689000Y-74335000D01*
X56621961Y-74315315D01*
X56576206Y-74262511D01*
X56565000Y-74211000D01*
X56565000Y-69959000D01*
X56584685Y-69891961D01*
X56637489Y-69846206D01*
X56689000Y-69835000D01*
X70235372Y-69835000D01*
X70302411Y-69854685D01*
G37*
%TD.AperFunction*%
%TD*%
%TA.AperFunction,Conductor*%
%TO.N,/Sensor U/IN_-*%
G36*
X62680182Y-51512525D02*
G01*
X66965000Y-53600000D01*
X70341000Y-53600000D01*
X70408039Y-53619685D01*
X70453794Y-53672489D01*
X70465000Y-53724000D01*
X70465000Y-55753827D01*
X70457573Y-55779118D01*
X70453851Y-55805214D01*
X70446581Y-55816552D01*
X70445315Y-55820866D01*
X70434802Y-55834926D01*
X70329174Y-55957099D01*
X70270438Y-55994939D01*
X70235372Y-56000000D01*
X56689000Y-56000000D01*
X56621961Y-55980315D01*
X56576206Y-55927511D01*
X56565000Y-55876000D01*
X56565000Y-51624000D01*
X56584685Y-51556961D01*
X56637489Y-51511206D01*
X56689000Y-51500000D01*
X62625874Y-51500000D01*
X62680182Y-51512525D01*
G37*
%TD.AperFunction*%
%TD*%
%TA.AperFunction,Conductor*%
%TO.N,/Sensor W/IN_-*%
G36*
X62680182Y-75647525D02*
G01*
X66965000Y-77735000D01*
X70341000Y-77735000D01*
X70408039Y-77754685D01*
X70453794Y-77807489D01*
X70465000Y-77859000D01*
X70465000Y-79888827D01*
X70457573Y-79914118D01*
X70453851Y-79940214D01*
X70446581Y-79951552D01*
X70445315Y-79955866D01*
X70434802Y-79969926D01*
X70329174Y-80092099D01*
X70270438Y-80129939D01*
X70235372Y-80135000D01*
X56689000Y-80135000D01*
X56621961Y-80115315D01*
X56576206Y-80062511D01*
X56565000Y-80011000D01*
X56565000Y-75759000D01*
X56584685Y-75691961D01*
X56637489Y-75646206D01*
X56689000Y-75635000D01*
X62625874Y-75635000D01*
X62680182Y-75647525D01*
G37*
%TD.AperFunction*%
%TD*%
%TA.AperFunction,Conductor*%
%TO.N,GND*%
G36*
X91603032Y-38700648D02*
G01*
X91936929Y-38717052D01*
X91949037Y-38718245D01*
X92052146Y-38733539D01*
X92276699Y-38766849D01*
X92288617Y-38769219D01*
X92609951Y-38849709D01*
X92621588Y-38853240D01*
X92692806Y-38878722D01*
X92933467Y-38964832D01*
X92944688Y-38969479D01*
X93244163Y-39111120D01*
X93254871Y-39116844D01*
X93538988Y-39287137D01*
X93549106Y-39293897D01*
X93815170Y-39491224D01*
X93824576Y-39498944D01*
X94070013Y-39721395D01*
X94078604Y-39729986D01*
X94265755Y-39936475D01*
X94301055Y-39975423D01*
X94308775Y-39984829D01*
X94506102Y-40250893D01*
X94512862Y-40261011D01*
X94641776Y-40476092D01*
X94683148Y-40545116D01*
X94688885Y-40555848D01*
X94830514Y-40855297D01*
X94835170Y-40866540D01*
X94946759Y-41178411D01*
X94950292Y-41190055D01*
X95030777Y-41511369D01*
X95033151Y-41523305D01*
X95081754Y-41850962D01*
X95082947Y-41863071D01*
X95099351Y-42196966D01*
X95099500Y-42203051D01*
X95099500Y-83796948D01*
X95099351Y-83803033D01*
X95082947Y-84136928D01*
X95081754Y-84149037D01*
X95033151Y-84476694D01*
X95030777Y-84488630D01*
X94950292Y-84809944D01*
X94946759Y-84821588D01*
X94835170Y-85133459D01*
X94830514Y-85144702D01*
X94688885Y-85444151D01*
X94683148Y-85454883D01*
X94512862Y-85738988D01*
X94506102Y-85749106D01*
X94308775Y-86015170D01*
X94301055Y-86024576D01*
X94078611Y-86270006D01*
X94070006Y-86278611D01*
X93824576Y-86501055D01*
X93815170Y-86508775D01*
X93549106Y-86706102D01*
X93538988Y-86712862D01*
X93254883Y-86883148D01*
X93244151Y-86888885D01*
X92944702Y-87030514D01*
X92933459Y-87035170D01*
X92621588Y-87146759D01*
X92609944Y-87150292D01*
X92288630Y-87230777D01*
X92276694Y-87233151D01*
X91949037Y-87281754D01*
X91936928Y-87282947D01*
X91621989Y-87298419D01*
X91603031Y-87299351D01*
X91596949Y-87299500D01*
X59803051Y-87299500D01*
X59796968Y-87299351D01*
X59776900Y-87298365D01*
X59463071Y-87282947D01*
X59450962Y-87281754D01*
X59123305Y-87233151D01*
X59111369Y-87230777D01*
X58790055Y-87150292D01*
X58778411Y-87146759D01*
X58466540Y-87035170D01*
X58455301Y-87030515D01*
X58155844Y-86888883D01*
X58145121Y-86883150D01*
X57861011Y-86712862D01*
X57850893Y-86706102D01*
X57584829Y-86508775D01*
X57575423Y-86501055D01*
X57536475Y-86465755D01*
X57329986Y-86278604D01*
X57321395Y-86270013D01*
X57098944Y-86024576D01*
X57091224Y-86015170D01*
X56893897Y-85749106D01*
X56887137Y-85738988D01*
X56716844Y-85454871D01*
X56711120Y-85444163D01*
X56569479Y-85144688D01*
X56564829Y-85133459D01*
X56535523Y-85051555D01*
X56453240Y-84821588D01*
X56449707Y-84809944D01*
X56417106Y-84679792D01*
X56369219Y-84488617D01*
X56366848Y-84476694D01*
X56318245Y-84149037D01*
X56317052Y-84136927D01*
X56300649Y-83803032D01*
X56300500Y-83796948D01*
X56300500Y-83693713D01*
X58449500Y-83693713D01*
X58449500Y-83906287D01*
X58482754Y-84116243D01*
X58493409Y-84149037D01*
X58548444Y-84318414D01*
X58644951Y-84507820D01*
X58769890Y-84679786D01*
X58920213Y-84830109D01*
X59092179Y-84955048D01*
X59092181Y-84955049D01*
X59092184Y-84955051D01*
X59281588Y-85051557D01*
X59483757Y-85117246D01*
X59693713Y-85150500D01*
X59693714Y-85150500D01*
X59906286Y-85150500D01*
X59906287Y-85150500D01*
X60116243Y-85117246D01*
X60318412Y-85051557D01*
X60507816Y-84955051D01*
X60529789Y-84939086D01*
X60679786Y-84830109D01*
X60679788Y-84830106D01*
X60679792Y-84830104D01*
X60830104Y-84679792D01*
X60830106Y-84679788D01*
X60830109Y-84679786D01*
X60955048Y-84507820D01*
X60955047Y-84507820D01*
X60955051Y-84507816D01*
X61051557Y-84318412D01*
X61117246Y-84116243D01*
X61150500Y-83906287D01*
X61150500Y-83693713D01*
X90249500Y-83693713D01*
X90249500Y-83906287D01*
X90282754Y-84116243D01*
X90293409Y-84149037D01*
X90348444Y-84318414D01*
X90444951Y-84507820D01*
X90569890Y-84679786D01*
X90720213Y-84830109D01*
X90892179Y-84955048D01*
X90892181Y-84955049D01*
X90892184Y-84955051D01*
X91081588Y-85051557D01*
X91283757Y-85117246D01*
X91493713Y-85150500D01*
X91493714Y-85150500D01*
X91706286Y-85150500D01*
X91706287Y-85150500D01*
X91916243Y-85117246D01*
X92118412Y-85051557D01*
X92307816Y-84955051D01*
X92329789Y-84939086D01*
X92479786Y-84830109D01*
X92479788Y-84830106D01*
X92479792Y-84830104D01*
X92630104Y-84679792D01*
X92630106Y-84679788D01*
X92630109Y-84679786D01*
X92755048Y-84507820D01*
X92755047Y-84507820D01*
X92755051Y-84507816D01*
X92851557Y-84318412D01*
X92917246Y-84116243D01*
X92950500Y-83906287D01*
X92950500Y-83693713D01*
X92917246Y-83483757D01*
X92851557Y-83281588D01*
X92755051Y-83092184D01*
X92755049Y-83092181D01*
X92755048Y-83092179D01*
X92630109Y-82920213D01*
X92479786Y-82769890D01*
X92307820Y-82644951D01*
X92118414Y-82548444D01*
X92118413Y-82548443D01*
X92118412Y-82548443D01*
X91916243Y-82482754D01*
X91916241Y-82482753D01*
X91916240Y-82482753D01*
X91754957Y-82457208D01*
X91706287Y-82449500D01*
X91493713Y-82449500D01*
X91445042Y-82457208D01*
X91283760Y-82482753D01*
X91081585Y-82548444D01*
X90892179Y-82644951D01*
X90720213Y-82769890D01*
X90569890Y-82920213D01*
X90444951Y-83092179D01*
X90348444Y-83281585D01*
X90282753Y-83483760D01*
X90249500Y-83693713D01*
X61150500Y-83693713D01*
X61117246Y-83483757D01*
X61051557Y-83281588D01*
X60955051Y-83092184D01*
X60955049Y-83092181D01*
X60955048Y-83092179D01*
X60830109Y-82920213D01*
X60679786Y-82769890D01*
X60507820Y-82644951D01*
X60318414Y-82548444D01*
X60318413Y-82548443D01*
X60318412Y-82548443D01*
X60116243Y-82482754D01*
X60116241Y-82482753D01*
X60116240Y-82482753D01*
X59954957Y-82457208D01*
X59906287Y-82449500D01*
X59693713Y-82449500D01*
X59645042Y-82457208D01*
X59483760Y-82482753D01*
X59281585Y-82548444D01*
X59092179Y-82644951D01*
X58920213Y-82769890D01*
X58769890Y-82920213D01*
X58644951Y-83092179D01*
X58548444Y-83281585D01*
X58482753Y-83483760D01*
X58449500Y-83693713D01*
X56300500Y-83693713D01*
X56300500Y-80711520D01*
X56320185Y-80644481D01*
X56372989Y-80598726D01*
X56442147Y-80588782D01*
X56476016Y-80598728D01*
X56479541Y-80600338D01*
X56546580Y-80620023D01*
X56546584Y-80620024D01*
X56689000Y-80640500D01*
X56689003Y-80640500D01*
X70235364Y-80640500D01*
X70235372Y-80640500D01*
X70299496Y-80635896D01*
X70307583Y-80635316D01*
X70307589Y-80635314D01*
X70342648Y-80630255D01*
X70413395Y-80614804D01*
X70544206Y-80554887D01*
X70602942Y-80517047D01*
X70711570Y-80422710D01*
X70711577Y-80422702D01*
X70817178Y-80300561D01*
X70817188Y-80300548D01*
X70817198Y-80300537D01*
X70839644Y-80272636D01*
X70850157Y-80258576D01*
X70870610Y-80229096D01*
X70874317Y-80220975D01*
X70879386Y-80213070D01*
X70913907Y-80149688D01*
X70926464Y-80106743D01*
X70930172Y-80098618D01*
X70930175Y-80098616D01*
X70930182Y-80098598D01*
X70930360Y-80098209D01*
X70931626Y-80093895D01*
X70931625Y-80093894D01*
X70933073Y-80088962D01*
X70933080Y-80088940D01*
X70942591Y-80056549D01*
X70942592Y-80056550D01*
X70950019Y-80031259D01*
X70950024Y-80031243D01*
X70950833Y-80025611D01*
X70951763Y-80021328D01*
X70952294Y-80020354D01*
X70953931Y-80012808D01*
X70954285Y-80011596D01*
X70954287Y-80011590D01*
X70958009Y-79985494D01*
X70958007Y-79985493D01*
X70963706Y-79945541D01*
X70964148Y-79933002D01*
X70970500Y-79888824D01*
X70970500Y-77859010D01*
X70970500Y-77859000D01*
X70958947Y-77751544D01*
X70947741Y-77700033D01*
X70947637Y-77699722D01*
X70913616Y-77597502D01*
X70913613Y-77597496D01*
X70835828Y-77476462D01*
X70835825Y-77476457D01*
X70835820Y-77476451D01*
X70790076Y-77423659D01*
X70790072Y-77423656D01*
X70790070Y-77423653D01*
X70681336Y-77329433D01*
X70681333Y-77329431D01*
X70681331Y-77329430D01*
X70550465Y-77269664D01*
X70550460Y-77269662D01*
X70550459Y-77269662D01*
X70483420Y-77249977D01*
X70483422Y-77249977D01*
X70483417Y-77249976D01*
X70435944Y-77243150D01*
X70341000Y-77229500D01*
X70340998Y-77229500D01*
X67110184Y-77229500D01*
X67055876Y-77216975D01*
X62901576Y-75193086D01*
X62793785Y-75154955D01*
X62739480Y-75142431D01*
X62739478Y-75142430D01*
X62739475Y-75142430D01*
X62625874Y-75129500D01*
X56689000Y-75129500D01*
X56688991Y-75129500D01*
X56688990Y-75129501D01*
X56581549Y-75141052D01*
X56581537Y-75141054D01*
X56530032Y-75152259D01*
X56463658Y-75174350D01*
X56435116Y-75175369D01*
X56406853Y-75179433D01*
X56400648Y-75176599D01*
X56393833Y-75176843D01*
X56369274Y-75162271D01*
X56343297Y-75150408D01*
X56339609Y-75144670D01*
X56333744Y-75141190D01*
X56320961Y-75115653D01*
X56305523Y-75091630D01*
X56304147Y-75082060D01*
X56302470Y-75078710D01*
X56300500Y-75056695D01*
X56300500Y-74911520D01*
X56320185Y-74844481D01*
X56372989Y-74798726D01*
X56442147Y-74788782D01*
X56476016Y-74798728D01*
X56479541Y-74800338D01*
X56546580Y-74820023D01*
X56546584Y-74820024D01*
X56689000Y-74840500D01*
X56689003Y-74840500D01*
X62625870Y-74840500D01*
X62625874Y-74840500D01*
X62739475Y-74827570D01*
X62793783Y-74815045D01*
X62901576Y-74776914D01*
X67055876Y-72753025D01*
X67110184Y-72740500D01*
X70340990Y-72740500D01*
X70341000Y-72740500D01*
X70448456Y-72728947D01*
X70499967Y-72717741D01*
X70534197Y-72706347D01*
X70602497Y-72683616D01*
X70602501Y-72683613D01*
X70602504Y-72683613D01*
X70723543Y-72605825D01*
X70776347Y-72560070D01*
X70870567Y-72451336D01*
X70930338Y-72320459D01*
X70950023Y-72253420D01*
X70950024Y-72253416D01*
X70970500Y-72111000D01*
X70970500Y-70081172D01*
X70970417Y-70078844D01*
X70969231Y-70045391D01*
X70969231Y-70045382D01*
X70967988Y-70027870D01*
X70964191Y-69992271D01*
X70943394Y-69921153D01*
X91724500Y-69921153D01*
X91724500Y-70078846D01*
X91755261Y-70233489D01*
X91755264Y-70233501D01*
X91815602Y-70379172D01*
X91815609Y-70379185D01*
X91903210Y-70510288D01*
X91903213Y-70510292D01*
X92014707Y-70621786D01*
X92014711Y-70621789D01*
X92145814Y-70709390D01*
X92145827Y-70709397D01*
X92291498Y-70769735D01*
X92291503Y-70769737D01*
X92446153Y-70800499D01*
X92446156Y-70800500D01*
X92446158Y-70800500D01*
X93153844Y-70800500D01*
X93153845Y-70800499D01*
X93308497Y-70769737D01*
X93454179Y-70709394D01*
X93585289Y-70621789D01*
X93696789Y-70510289D01*
X93784394Y-70379179D01*
X93844737Y-70233497D01*
X93875500Y-70078842D01*
X93875500Y-69921158D01*
X93875500Y-69921155D01*
X93875499Y-69921153D01*
X93862175Y-69854168D01*
X93844737Y-69766503D01*
X93804541Y-69669460D01*
X93784397Y-69620827D01*
X93784390Y-69620814D01*
X93696789Y-69489711D01*
X93696786Y-69489707D01*
X93585292Y-69378213D01*
X93585288Y-69378210D01*
X93454185Y-69290609D01*
X93454172Y-69290602D01*
X93308501Y-69230264D01*
X93308489Y-69230261D01*
X93153845Y-69199500D01*
X93153842Y-69199500D01*
X92446158Y-69199500D01*
X92446155Y-69199500D01*
X92291510Y-69230261D01*
X92291498Y-69230264D01*
X92145827Y-69290602D01*
X92145814Y-69290609D01*
X92014711Y-69378210D01*
X92014707Y-69378213D01*
X91903213Y-69489707D01*
X91903210Y-69489711D01*
X91815609Y-69620814D01*
X91815602Y-69620827D01*
X91755264Y-69766498D01*
X91755261Y-69766510D01*
X91724500Y-69921153D01*
X70943394Y-69921153D01*
X70923807Y-69854175D01*
X70894852Y-69790587D01*
X70894851Y-69790585D01*
X70879416Y-69766510D01*
X70817196Y-69669459D01*
X70817193Y-69669455D01*
X70711569Y-69547288D01*
X70711566Y-69547284D01*
X70660411Y-69496045D01*
X70660404Y-69496039D01*
X70633646Y-69472828D01*
X70633638Y-69472822D01*
X70575712Y-69429435D01*
X70444834Y-69369663D01*
X70377789Y-69349976D01*
X70315719Y-69341052D01*
X70235372Y-69329500D01*
X56689000Y-69329500D01*
X56688991Y-69329500D01*
X56688990Y-69329501D01*
X56581549Y-69341052D01*
X56581537Y-69341054D01*
X56530032Y-69352259D01*
X56463658Y-69374350D01*
X56393833Y-69376843D01*
X56333744Y-69341190D01*
X56302470Y-69278710D01*
X56300500Y-69256695D01*
X56300500Y-68711520D01*
X56320185Y-68644481D01*
X56372989Y-68598726D01*
X56442147Y-68588782D01*
X56476016Y-68598728D01*
X56479541Y-68600338D01*
X56546580Y-68620023D01*
X56546584Y-68620024D01*
X56689000Y-68640500D01*
X56689003Y-68640500D01*
X70235364Y-68640500D01*
X70235372Y-68640500D01*
X70299496Y-68635896D01*
X70307583Y-68635316D01*
X70307589Y-68635314D01*
X70342648Y-68630255D01*
X70413395Y-68614804D01*
X70544206Y-68554887D01*
X70602942Y-68517047D01*
X70711570Y-68422710D01*
X70749212Y-68379172D01*
X70817178Y-68300561D01*
X70817188Y-68300548D01*
X70817198Y-68300537D01*
X70839644Y-68272636D01*
X70850157Y-68258576D01*
X70870610Y-68229096D01*
X70874317Y-68220975D01*
X70879386Y-68213070D01*
X70913907Y-68149688D01*
X70926464Y-68106743D01*
X70930172Y-68098618D01*
X70930175Y-68098616D01*
X70930182Y-68098598D01*
X70930360Y-68098209D01*
X70931626Y-68093895D01*
X70931625Y-68093894D01*
X70933073Y-68088962D01*
X70933080Y-68088940D01*
X70942591Y-68056549D01*
X70942592Y-68056550D01*
X70950019Y-68031259D01*
X70950024Y-68031243D01*
X70950833Y-68025611D01*
X70951763Y-68021328D01*
X70952294Y-68020354D01*
X70953931Y-68012808D01*
X70954285Y-68011596D01*
X70954287Y-68011590D01*
X70958009Y-67985494D01*
X70958007Y-67985493D01*
X70963706Y-67945540D01*
X70964148Y-67933004D01*
X70965852Y-67921153D01*
X91724500Y-67921153D01*
X91724500Y-68078846D01*
X91755261Y-68233489D01*
X91755264Y-68233501D01*
X91815602Y-68379172D01*
X91815609Y-68379185D01*
X91903210Y-68510288D01*
X91903213Y-68510292D01*
X92014707Y-68621786D01*
X92014711Y-68621789D01*
X92145814Y-68709390D01*
X92145827Y-68709397D01*
X92291498Y-68769735D01*
X92291503Y-68769737D01*
X92446153Y-68800499D01*
X92446156Y-68800500D01*
X92446158Y-68800500D01*
X93153844Y-68800500D01*
X93153845Y-68800499D01*
X93308497Y-68769737D01*
X93421166Y-68723067D01*
X93454172Y-68709397D01*
X93454172Y-68709396D01*
X93454179Y-68709394D01*
X93585289Y-68621789D01*
X93696789Y-68510289D01*
X93784394Y-68379179D01*
X93844737Y-68233497D01*
X93875500Y-68078842D01*
X93875500Y-67921158D01*
X93875500Y-67921155D01*
X93875499Y-67921153D01*
X93869069Y-67888827D01*
X93844737Y-67766503D01*
X93844735Y-67766498D01*
X93784397Y-67620827D01*
X93784390Y-67620814D01*
X93696789Y-67489711D01*
X93696786Y-67489707D01*
X93585292Y-67378213D01*
X93585288Y-67378210D01*
X93454185Y-67290609D01*
X93454172Y-67290602D01*
X93308501Y-67230264D01*
X93308489Y-67230261D01*
X93153845Y-67199500D01*
X93153842Y-67199500D01*
X92446158Y-67199500D01*
X92446155Y-67199500D01*
X92291510Y-67230261D01*
X92291498Y-67230264D01*
X92145827Y-67290602D01*
X92145814Y-67290609D01*
X92014711Y-67378210D01*
X92014707Y-67378213D01*
X91903213Y-67489707D01*
X91903210Y-67489711D01*
X91815609Y-67620814D01*
X91815602Y-67620827D01*
X91755264Y-67766498D01*
X91755261Y-67766510D01*
X91724500Y-67921153D01*
X70965852Y-67921153D01*
X70969264Y-67897420D01*
X70970500Y-67888827D01*
X70970500Y-65921153D01*
X91724500Y-65921153D01*
X91724500Y-66078846D01*
X91755261Y-66233489D01*
X91755264Y-66233501D01*
X91815602Y-66379172D01*
X91815609Y-66379185D01*
X91903210Y-66510288D01*
X91903213Y-66510292D01*
X92014707Y-66621786D01*
X92014711Y-66621789D01*
X92145814Y-66709390D01*
X92145827Y-66709397D01*
X92291498Y-66769735D01*
X92291503Y-66769737D01*
X92446153Y-66800499D01*
X92446156Y-66800500D01*
X92446158Y-66800500D01*
X93153844Y-66800500D01*
X93153845Y-66800499D01*
X93308497Y-66769737D01*
X93454179Y-66709394D01*
X93585289Y-66621789D01*
X93696789Y-66510289D01*
X93784394Y-66379179D01*
X93844737Y-66233497D01*
X93875500Y-66078842D01*
X93875500Y-65921158D01*
X93875500Y-65921155D01*
X93875499Y-65921153D01*
X93844738Y-65766510D01*
X93844737Y-65766503D01*
X93838538Y-65751537D01*
X93784397Y-65620827D01*
X93784390Y-65620814D01*
X93696789Y-65489711D01*
X93696786Y-65489707D01*
X93585292Y-65378213D01*
X93585288Y-65378210D01*
X93454185Y-65290609D01*
X93454172Y-65290602D01*
X93308501Y-65230264D01*
X93308489Y-65230261D01*
X93153845Y-65199500D01*
X93153842Y-65199500D01*
X92446158Y-65199500D01*
X92446155Y-65199500D01*
X92291510Y-65230261D01*
X92291498Y-65230264D01*
X92145827Y-65290602D01*
X92145814Y-65290609D01*
X92014711Y-65378210D01*
X92014707Y-65378213D01*
X91903213Y-65489707D01*
X91903210Y-65489711D01*
X91815609Y-65620814D01*
X91815602Y-65620827D01*
X91755264Y-65766498D01*
X91755261Y-65766510D01*
X91724500Y-65921153D01*
X70970500Y-65921153D01*
X70970500Y-65859000D01*
X70958947Y-65751544D01*
X70947741Y-65700033D01*
X70947637Y-65699722D01*
X70913616Y-65597502D01*
X70913613Y-65597496D01*
X70835828Y-65476462D01*
X70835825Y-65476457D01*
X70835820Y-65476451D01*
X70790076Y-65423659D01*
X70790072Y-65423656D01*
X70790070Y-65423653D01*
X70681336Y-65329433D01*
X70681333Y-65329431D01*
X70681331Y-65329430D01*
X70550465Y-65269664D01*
X70550460Y-65269662D01*
X70550459Y-65269662D01*
X70483420Y-65249977D01*
X70483422Y-65249977D01*
X70483417Y-65249976D01*
X70435944Y-65243150D01*
X70341000Y-65229500D01*
X70340998Y-65229500D01*
X67110184Y-65229500D01*
X67055876Y-65216975D01*
X64612353Y-64026541D01*
X64396030Y-63921153D01*
X91724500Y-63921153D01*
X91724500Y-64078846D01*
X91755261Y-64233489D01*
X91755264Y-64233501D01*
X91815602Y-64379172D01*
X91815609Y-64379185D01*
X91903210Y-64510288D01*
X91903213Y-64510292D01*
X92014707Y-64621786D01*
X92014711Y-64621789D01*
X92145814Y-64709390D01*
X92145827Y-64709397D01*
X92291498Y-64769735D01*
X92291503Y-64769737D01*
X92446153Y-64800499D01*
X92446156Y-64800500D01*
X92446158Y-64800500D01*
X93153844Y-64800500D01*
X93153845Y-64800499D01*
X93308497Y-64769737D01*
X93454179Y-64709394D01*
X93585289Y-64621789D01*
X93696789Y-64510289D01*
X93784394Y-64379179D01*
X93844737Y-64233497D01*
X93875500Y-64078842D01*
X93875500Y-63921158D01*
X93875500Y-63921155D01*
X93875499Y-63921153D01*
X93844738Y-63766510D01*
X93844737Y-63766503D01*
X93844735Y-63766498D01*
X93784397Y-63620827D01*
X93784390Y-63620814D01*
X93696789Y-63489711D01*
X93696786Y-63489707D01*
X93585292Y-63378213D01*
X93585288Y-63378210D01*
X93454185Y-63290609D01*
X93454172Y-63290602D01*
X93308501Y-63230264D01*
X93308489Y-63230261D01*
X93153845Y-63199500D01*
X93153842Y-63199500D01*
X92446158Y-63199500D01*
X92446155Y-63199500D01*
X92291510Y-63230261D01*
X92291498Y-63230264D01*
X92145827Y-63290602D01*
X92145814Y-63290609D01*
X92014711Y-63378210D01*
X92014707Y-63378213D01*
X91903213Y-63489707D01*
X91903210Y-63489711D01*
X91815609Y-63620814D01*
X91815602Y-63620827D01*
X91755264Y-63766498D01*
X91755261Y-63766510D01*
X91724500Y-63921153D01*
X64396030Y-63921153D01*
X62901576Y-63193086D01*
X62793785Y-63154955D01*
X62739480Y-63142431D01*
X62739478Y-63142430D01*
X62739475Y-63142430D01*
X62625874Y-63129500D01*
X56689000Y-63129500D01*
X56688991Y-63129500D01*
X56688990Y-63129501D01*
X56581549Y-63141052D01*
X56581537Y-63141054D01*
X56530032Y-63152259D01*
X56463658Y-63174350D01*
X56435116Y-63175369D01*
X56406853Y-63179433D01*
X56400648Y-63176599D01*
X56393833Y-63176843D01*
X56369274Y-63162271D01*
X56343297Y-63150408D01*
X56339609Y-63144670D01*
X56333744Y-63141190D01*
X56320961Y-63115653D01*
X56305523Y-63091630D01*
X56304147Y-63082060D01*
X56302470Y-63078710D01*
X56300500Y-63056695D01*
X56300500Y-62911520D01*
X56320185Y-62844481D01*
X56372989Y-62798726D01*
X56442147Y-62788782D01*
X56476016Y-62798728D01*
X56479541Y-62800338D01*
X56546580Y-62820023D01*
X56546584Y-62820024D01*
X56689000Y-62840500D01*
X56689003Y-62840500D01*
X62625870Y-62840500D01*
X62625874Y-62840500D01*
X62739475Y-62827570D01*
X62793783Y-62815045D01*
X62901576Y-62776914D01*
X67055876Y-60753025D01*
X67110184Y-60740500D01*
X70340990Y-60740500D01*
X70341000Y-60740500D01*
X70448456Y-60728947D01*
X70499967Y-60717741D01*
X70534197Y-60706347D01*
X70602497Y-60683616D01*
X70602501Y-60683613D01*
X70602504Y-60683613D01*
X70723543Y-60605825D01*
X70776347Y-60560070D01*
X70870567Y-60451336D01*
X70930338Y-60320459D01*
X70950023Y-60253420D01*
X70950024Y-60253416D01*
X70970500Y-60111000D01*
X70970500Y-58081172D01*
X70969231Y-58045382D01*
X70967988Y-58027870D01*
X70964191Y-57992271D01*
X70923807Y-57854175D01*
X70894852Y-57790587D01*
X70894851Y-57790585D01*
X70817197Y-57669460D01*
X70711569Y-57547288D01*
X70711566Y-57547284D01*
X70660411Y-57496045D01*
X70660404Y-57496039D01*
X70633646Y-57472828D01*
X70633638Y-57472822D01*
X70575712Y-57429435D01*
X70560971Y-57422703D01*
X70460555Y-57376843D01*
X70444834Y-57369663D01*
X70377789Y-57349976D01*
X70315719Y-57341052D01*
X70235372Y-57329500D01*
X56689000Y-57329500D01*
X56688991Y-57329500D01*
X56688990Y-57329501D01*
X56581549Y-57341052D01*
X56581537Y-57341054D01*
X56530032Y-57352259D01*
X56463658Y-57374350D01*
X56393833Y-57376843D01*
X56333744Y-57341190D01*
X56302470Y-57278710D01*
X56300500Y-57256695D01*
X56300500Y-57124234D01*
X85424500Y-57124234D01*
X85424500Y-62075766D01*
X85444109Y-62148950D01*
X85463719Y-62222136D01*
X85470281Y-62233501D01*
X85539485Y-62353365D01*
X85646635Y-62460515D01*
X85777865Y-62536281D01*
X85924234Y-62575500D01*
X85924236Y-62575500D01*
X86075764Y-62575500D01*
X86075766Y-62575500D01*
X86222135Y-62536281D01*
X86353365Y-62460515D01*
X86460515Y-62353365D01*
X86536281Y-62222135D01*
X86575500Y-62075766D01*
X86575500Y-61921153D01*
X91724500Y-61921153D01*
X91724500Y-62078846D01*
X91755261Y-62233489D01*
X91755264Y-62233501D01*
X91815602Y-62379172D01*
X91815609Y-62379185D01*
X91903210Y-62510288D01*
X91903213Y-62510292D01*
X92014707Y-62621786D01*
X92014711Y-62621789D01*
X92145814Y-62709390D01*
X92145827Y-62709397D01*
X92291498Y-62769735D01*
X92291503Y-62769737D01*
X92437240Y-62798726D01*
X92446153Y-62800499D01*
X92446156Y-62800500D01*
X92446158Y-62800500D01*
X93153844Y-62800500D01*
X93153845Y-62800499D01*
X93308497Y-62769737D01*
X93454179Y-62709394D01*
X93585289Y-62621789D01*
X93696789Y-62510289D01*
X93784394Y-62379179D01*
X93844737Y-62233497D01*
X93875500Y-62078842D01*
X93875500Y-61921158D01*
X93875500Y-61921155D01*
X93875499Y-61921153D01*
X93844738Y-61766510D01*
X93844737Y-61766503D01*
X93844735Y-61766498D01*
X93784397Y-61620827D01*
X93784390Y-61620814D01*
X93696789Y-61489711D01*
X93696786Y-61489707D01*
X93585292Y-61378213D01*
X93585288Y-61378210D01*
X93454185Y-61290609D01*
X93454172Y-61290602D01*
X93308501Y-61230264D01*
X93308489Y-61230261D01*
X93153845Y-61199500D01*
X93153842Y-61199500D01*
X92446158Y-61199500D01*
X92446155Y-61199500D01*
X92291510Y-61230261D01*
X92291498Y-61230264D01*
X92145827Y-61290602D01*
X92145814Y-61290609D01*
X92014711Y-61378210D01*
X92014707Y-61378213D01*
X91903213Y-61489707D01*
X91903210Y-61489711D01*
X91815609Y-61620814D01*
X91815602Y-61620827D01*
X91755264Y-61766498D01*
X91755261Y-61766510D01*
X91724500Y-61921153D01*
X86575500Y-61921153D01*
X86575500Y-59921153D01*
X91724500Y-59921153D01*
X91724500Y-60078846D01*
X91755261Y-60233489D01*
X91755264Y-60233501D01*
X91815602Y-60379172D01*
X91815609Y-60379185D01*
X91903210Y-60510288D01*
X91903213Y-60510292D01*
X92014707Y-60621786D01*
X92014711Y-60621789D01*
X92145814Y-60709390D01*
X92145827Y-60709397D01*
X92251156Y-60753025D01*
X92291503Y-60769737D01*
X92446153Y-60800499D01*
X92446156Y-60800500D01*
X92446158Y-60800500D01*
X93153844Y-60800500D01*
X93153845Y-60800499D01*
X93308497Y-60769737D01*
X93421166Y-60723067D01*
X93454172Y-60709397D01*
X93454172Y-60709396D01*
X93454179Y-60709394D01*
X93585289Y-60621789D01*
X93696789Y-60510289D01*
X93784394Y-60379179D01*
X93844737Y-60233497D01*
X93875500Y-60078842D01*
X93875500Y-59921158D01*
X93875500Y-59921155D01*
X93875499Y-59921153D01*
X93844738Y-59766510D01*
X93844737Y-59766503D01*
X93844735Y-59766498D01*
X93784397Y-59620827D01*
X93784390Y-59620814D01*
X93696789Y-59489711D01*
X93696786Y-59489707D01*
X93585292Y-59378213D01*
X93585288Y-59378210D01*
X93454185Y-59290609D01*
X93454172Y-59290602D01*
X93308501Y-59230264D01*
X93308489Y-59230261D01*
X93153845Y-59199500D01*
X93153842Y-59199500D01*
X92446158Y-59199500D01*
X92446155Y-59199500D01*
X92291510Y-59230261D01*
X92291498Y-59230264D01*
X92145827Y-59290602D01*
X92145814Y-59290609D01*
X92014711Y-59378210D01*
X92014707Y-59378213D01*
X91903213Y-59489707D01*
X91903210Y-59489711D01*
X91815609Y-59620814D01*
X91815602Y-59620827D01*
X91755264Y-59766498D01*
X91755261Y-59766510D01*
X91724500Y-59921153D01*
X86575500Y-59921153D01*
X86575500Y-57489742D01*
X86595185Y-57422703D01*
X86611819Y-57402061D01*
X90402061Y-53611819D01*
X90463384Y-53578334D01*
X90489742Y-53575500D01*
X90805778Y-53575500D01*
X90872817Y-53595185D01*
X90908879Y-53630608D01*
X90931798Y-53664908D01*
X90943489Y-53682406D01*
X91092592Y-53831509D01*
X91092596Y-53831512D01*
X91267921Y-53948661D01*
X91267927Y-53948664D01*
X91267928Y-53948665D01*
X91462747Y-54029362D01*
X91669560Y-54070499D01*
X91669564Y-54070500D01*
X91669565Y-54070500D01*
X92330436Y-54070500D01*
X92330437Y-54070499D01*
X92537253Y-54029362D01*
X92732072Y-53948665D01*
X92907404Y-53831512D01*
X93056512Y-53682404D01*
X93173665Y-53507072D01*
X93254362Y-53312253D01*
X93295500Y-53105435D01*
X93295500Y-52894565D01*
X93254362Y-52687747D01*
X93173665Y-52492928D01*
X93173664Y-52492927D01*
X93173661Y-52492921D01*
X93056512Y-52317596D01*
X93056509Y-52317592D01*
X92907407Y-52168490D01*
X92907403Y-52168487D01*
X92732078Y-52051338D01*
X92732069Y-52051333D01*
X92537253Y-51970638D01*
X92537245Y-51970636D01*
X92330439Y-51929500D01*
X92330435Y-51929500D01*
X91669565Y-51929500D01*
X91669560Y-51929500D01*
X91462754Y-51970636D01*
X91462746Y-51970638D01*
X91267930Y-52051333D01*
X91267921Y-52051338D01*
X91092596Y-52168487D01*
X91092592Y-52168490D01*
X90943489Y-52317593D01*
X90922595Y-52348864D01*
X90908879Y-52369391D01*
X90855269Y-52414195D01*
X90805778Y-52424500D01*
X90124234Y-52424500D01*
X89977863Y-52463719D01*
X89846635Y-52539485D01*
X89846632Y-52539487D01*
X85539487Y-56846632D01*
X85539485Y-56846635D01*
X85463719Y-56977863D01*
X85424500Y-57124234D01*
X56300500Y-57124234D01*
X56300500Y-56576520D01*
X56320185Y-56509481D01*
X56372989Y-56463726D01*
X56442147Y-56453782D01*
X56476016Y-56463728D01*
X56479541Y-56465338D01*
X56546580Y-56485023D01*
X56546584Y-56485024D01*
X56689000Y-56505500D01*
X56689003Y-56505500D01*
X70235364Y-56505500D01*
X70235372Y-56505500D01*
X70299496Y-56500896D01*
X70307583Y-56500316D01*
X70307589Y-56500314D01*
X70342648Y-56495255D01*
X70413395Y-56479804D01*
X70544206Y-56419887D01*
X70602942Y-56382047D01*
X70711570Y-56287710D01*
X70711577Y-56287702D01*
X70817178Y-56165561D01*
X70817188Y-56165548D01*
X70817198Y-56165537D01*
X70839644Y-56137636D01*
X70850157Y-56123576D01*
X70870610Y-56094096D01*
X70874317Y-56085975D01*
X70879386Y-56078070D01*
X70913907Y-56014688D01*
X70926464Y-55971743D01*
X70930172Y-55963618D01*
X70930175Y-55963616D01*
X70930182Y-55963598D01*
X70930360Y-55963209D01*
X70931626Y-55958895D01*
X70931625Y-55958894D01*
X70933073Y-55953962D01*
X70933080Y-55953940D01*
X70942591Y-55921549D01*
X70942592Y-55921550D01*
X70950019Y-55896259D01*
X70950024Y-55896243D01*
X70950833Y-55890611D01*
X70951763Y-55886328D01*
X70952294Y-55885354D01*
X70953931Y-55877808D01*
X70954285Y-55876596D01*
X70954287Y-55876590D01*
X70958009Y-55850494D01*
X70958007Y-55850493D01*
X70963706Y-55810541D01*
X70964148Y-55798002D01*
X70970500Y-55753824D01*
X70970500Y-53724010D01*
X70970500Y-53724000D01*
X70958947Y-53616544D01*
X70947741Y-53565033D01*
X70947637Y-53564722D01*
X70913616Y-53462502D01*
X70913613Y-53462496D01*
X70835828Y-53341462D01*
X70835825Y-53341457D01*
X70810513Y-53312245D01*
X70790076Y-53288659D01*
X70790072Y-53288656D01*
X70790070Y-53288653D01*
X70681336Y-53194433D01*
X70681333Y-53194431D01*
X70681331Y-53194430D01*
X70550465Y-53134664D01*
X70550460Y-53134662D01*
X70550459Y-53134662D01*
X70483420Y-53114977D01*
X70483422Y-53114977D01*
X70483417Y-53114976D01*
X70435944Y-53108150D01*
X70341000Y-53094500D01*
X70340998Y-53094500D01*
X67110184Y-53094500D01*
X67055876Y-53081975D01*
X62901576Y-51058086D01*
X62793785Y-51019955D01*
X62739480Y-51007431D01*
X62739478Y-51007430D01*
X62739475Y-51007430D01*
X62625874Y-50994500D01*
X56689000Y-50994500D01*
X56688991Y-50994500D01*
X56688990Y-50994501D01*
X56581549Y-51006052D01*
X56581537Y-51006054D01*
X56530032Y-51017259D01*
X56463658Y-51039350D01*
X56435116Y-51040369D01*
X56406853Y-51044433D01*
X56400648Y-51041599D01*
X56393833Y-51041843D01*
X56369274Y-51027271D01*
X56343297Y-51015408D01*
X56339609Y-51009670D01*
X56333744Y-51006190D01*
X56320961Y-50980653D01*
X56305523Y-50956630D01*
X56304147Y-50947060D01*
X56302470Y-50943710D01*
X56300500Y-50921695D01*
X56300500Y-50776520D01*
X56320185Y-50709481D01*
X56372989Y-50663726D01*
X56442147Y-50653782D01*
X56476016Y-50663728D01*
X56479541Y-50665338D01*
X56546580Y-50685023D01*
X56546584Y-50685024D01*
X56689000Y-50705500D01*
X56689003Y-50705500D01*
X62625870Y-50705500D01*
X62625874Y-50705500D01*
X62739475Y-50692570D01*
X62793783Y-50680045D01*
X62901576Y-50641914D01*
X67055876Y-48618025D01*
X67110184Y-48605500D01*
X70340990Y-48605500D01*
X70341000Y-48605500D01*
X70448456Y-48593947D01*
X70499967Y-48582741D01*
X70534197Y-48571347D01*
X70602497Y-48548616D01*
X70602501Y-48548613D01*
X70602504Y-48548613D01*
X70723543Y-48470825D01*
X70776347Y-48425070D01*
X70870567Y-48316336D01*
X70930338Y-48185459D01*
X70950023Y-48118420D01*
X70950024Y-48118416D01*
X70970500Y-47976000D01*
X70970500Y-45946172D01*
X70969231Y-45910382D01*
X70967988Y-45892870D01*
X70964191Y-45857271D01*
X70923807Y-45719175D01*
X70894852Y-45655587D01*
X70894851Y-45655585D01*
X70817197Y-45534460D01*
X70711569Y-45412288D01*
X70711566Y-45412284D01*
X70660411Y-45361045D01*
X70660404Y-45361039D01*
X70633646Y-45337828D01*
X70633638Y-45337822D01*
X70575712Y-45294435D01*
X70444834Y-45234663D01*
X70377789Y-45214976D01*
X70315719Y-45206052D01*
X70235372Y-45194500D01*
X56689000Y-45194500D01*
X56688991Y-45194500D01*
X56688990Y-45194501D01*
X56581549Y-45206052D01*
X56581537Y-45206054D01*
X56530032Y-45217259D01*
X56463658Y-45239350D01*
X56393833Y-45241843D01*
X56333744Y-45206190D01*
X56302470Y-45143710D01*
X56300500Y-45121695D01*
X56300500Y-42203051D01*
X56300649Y-42196966D01*
X56305722Y-42093713D01*
X58449500Y-42093713D01*
X58449500Y-42306286D01*
X58482753Y-42516239D01*
X58548444Y-42718414D01*
X58644951Y-42907820D01*
X58769890Y-43079786D01*
X58920213Y-43230109D01*
X59092179Y-43355048D01*
X59092181Y-43355049D01*
X59092184Y-43355051D01*
X59281588Y-43451557D01*
X59483757Y-43517246D01*
X59693713Y-43550500D01*
X59693714Y-43550500D01*
X59906286Y-43550500D01*
X59906287Y-43550500D01*
X60116243Y-43517246D01*
X60318412Y-43451557D01*
X60507816Y-43355051D01*
X60529789Y-43339086D01*
X60679786Y-43230109D01*
X60679788Y-43230106D01*
X60679792Y-43230104D01*
X60830104Y-43079792D01*
X60830106Y-43079788D01*
X60830109Y-43079786D01*
X60955048Y-42907820D01*
X60955047Y-42907820D01*
X60955051Y-42907816D01*
X61051557Y-42718412D01*
X61117246Y-42516243D01*
X61150500Y-42306287D01*
X61150500Y-42093713D01*
X90249500Y-42093713D01*
X90249500Y-42306286D01*
X90282753Y-42516239D01*
X90348444Y-42718414D01*
X90444951Y-42907820D01*
X90569890Y-43079786D01*
X90720213Y-43230109D01*
X90892179Y-43355048D01*
X90892181Y-43355049D01*
X90892184Y-43355051D01*
X91081588Y-43451557D01*
X91283757Y-43517246D01*
X91493713Y-43550500D01*
X91493714Y-43550500D01*
X91706286Y-43550500D01*
X91706287Y-43550500D01*
X91916243Y-43517246D01*
X92118412Y-43451557D01*
X92307816Y-43355051D01*
X92329789Y-43339086D01*
X92479786Y-43230109D01*
X92479788Y-43230106D01*
X92479792Y-43230104D01*
X92630104Y-43079792D01*
X92630106Y-43079788D01*
X92630109Y-43079786D01*
X92755048Y-42907820D01*
X92755047Y-42907820D01*
X92755051Y-42907816D01*
X92851557Y-42718412D01*
X92917246Y-42516243D01*
X92950500Y-42306287D01*
X92950500Y-42093713D01*
X92917246Y-41883757D01*
X92851557Y-41681588D01*
X92755051Y-41492184D01*
X92755049Y-41492181D01*
X92755048Y-41492179D01*
X92630109Y-41320213D01*
X92479786Y-41169890D01*
X92307820Y-41044951D01*
X92118414Y-40948444D01*
X92118413Y-40948443D01*
X92118412Y-40948443D01*
X91916243Y-40882754D01*
X91916241Y-40882753D01*
X91916240Y-40882753D01*
X91754957Y-40857208D01*
X91706287Y-40849500D01*
X91493713Y-40849500D01*
X91445042Y-40857208D01*
X91283760Y-40882753D01*
X91081585Y-40948444D01*
X90892179Y-41044951D01*
X90720213Y-41169890D01*
X90569890Y-41320213D01*
X90444951Y-41492179D01*
X90348444Y-41681585D01*
X90282753Y-41883760D01*
X90249500Y-42093713D01*
X61150500Y-42093713D01*
X61117246Y-41883757D01*
X61051557Y-41681588D01*
X60955051Y-41492184D01*
X60955049Y-41492181D01*
X60955048Y-41492179D01*
X60830109Y-41320213D01*
X60679786Y-41169890D01*
X60507820Y-41044951D01*
X60318414Y-40948444D01*
X60318413Y-40948443D01*
X60318412Y-40948443D01*
X60116243Y-40882754D01*
X60116241Y-40882753D01*
X60116240Y-40882753D01*
X59954957Y-40857208D01*
X59906287Y-40849500D01*
X59693713Y-40849500D01*
X59645042Y-40857208D01*
X59483760Y-40882753D01*
X59281585Y-40948444D01*
X59092179Y-41044951D01*
X58920213Y-41169890D01*
X58769890Y-41320213D01*
X58644951Y-41492179D01*
X58548444Y-41681585D01*
X58482753Y-41883760D01*
X58449500Y-42093713D01*
X56305722Y-42093713D01*
X56306260Y-42082756D01*
X56306260Y-42082755D01*
X56317052Y-41863072D01*
X56318245Y-41850962D01*
X56343370Y-41681585D01*
X56366849Y-41523296D01*
X56369218Y-41511385D01*
X56449710Y-41190043D01*
X56453240Y-41178411D01*
X56500993Y-41044951D01*
X56564835Y-40866525D01*
X56569476Y-40855318D01*
X56711124Y-40555828D01*
X56716840Y-40545136D01*
X56887145Y-40260998D01*
X56893888Y-40250905D01*
X57091232Y-39984818D01*
X57098935Y-39975433D01*
X57321405Y-39729975D01*
X57329975Y-39721405D01*
X57575433Y-39498935D01*
X57584818Y-39491232D01*
X57850905Y-39293888D01*
X57860998Y-39287145D01*
X58145136Y-39116840D01*
X58155828Y-39111124D01*
X58455318Y-38969476D01*
X58466525Y-38964835D01*
X58778412Y-38853239D01*
X58790043Y-38849710D01*
X59111385Y-38769218D01*
X59123296Y-38766849D01*
X59450962Y-38718244D01*
X59463068Y-38717052D01*
X59796967Y-38700648D01*
X59803051Y-38700500D01*
X59865892Y-38700500D01*
X91534108Y-38700500D01*
X91596949Y-38700500D01*
X91603032Y-38700648D01*
G37*
%TD.AperFunction*%
%TD*%
M02*
