%TF.GenerationSoftware,KiCad,Pcbnew,9.0.2*%
%TF.CreationDate,2025-07-21T15:30:36-04:00*%
%TF.ProjectId,Three Phase Current Sensor,54687265-6520-4506-9861-736520437572,rev?*%
%TF.SameCoordinates,Original*%
%TF.FileFunction,Legend,Top*%
%TF.FilePolarity,Positive*%
%FSLAX46Y46*%
G04 Gerber Fmt 4.6, Leading zero omitted, Abs format (unit mm)*
G04 Created by KiCad (PCBNEW 9.0.2) date 2025-07-21 15:30:36*
%MOMM*%
%LPD*%
G01*
G04 APERTURE LIST*
%ADD10C,0.150000*%
%ADD11C,0.200000*%
%ADD12C,0.120000*%
G04 APERTURE END LIST*
D10*
X75396554Y-41750057D02*
X75444173Y-41702438D01*
X75444173Y-41702438D02*
X75539411Y-41654819D01*
X75539411Y-41654819D02*
X75777506Y-41654819D01*
X75777506Y-41654819D02*
X75872744Y-41702438D01*
X75872744Y-41702438D02*
X75920363Y-41750057D01*
X75920363Y-41750057D02*
X75967982Y-41845295D01*
X75967982Y-41845295D02*
X75967982Y-41940533D01*
X75967982Y-41940533D02*
X75920363Y-42083390D01*
X75920363Y-42083390D02*
X75348935Y-42654819D01*
X75348935Y-42654819D02*
X75967982Y-42654819D01*
X76920363Y-42654819D02*
X76348935Y-42654819D01*
X76634649Y-42654819D02*
X76634649Y-41654819D01*
X76634649Y-41654819D02*
X76539411Y-41797676D01*
X76539411Y-41797676D02*
X76444173Y-41892914D01*
X76444173Y-41892914D02*
X76348935Y-41940533D01*
X77348935Y-42273866D02*
X78110840Y-42273866D01*
X78777506Y-41654819D02*
X78872744Y-41654819D01*
X78872744Y-41654819D02*
X78967982Y-41702438D01*
X78967982Y-41702438D02*
X79015601Y-41750057D01*
X79015601Y-41750057D02*
X79063220Y-41845295D01*
X79063220Y-41845295D02*
X79110839Y-42035771D01*
X79110839Y-42035771D02*
X79110839Y-42273866D01*
X79110839Y-42273866D02*
X79063220Y-42464342D01*
X79063220Y-42464342D02*
X79015601Y-42559580D01*
X79015601Y-42559580D02*
X78967982Y-42607200D01*
X78967982Y-42607200D02*
X78872744Y-42654819D01*
X78872744Y-42654819D02*
X78777506Y-42654819D01*
X78777506Y-42654819D02*
X78682268Y-42607200D01*
X78682268Y-42607200D02*
X78634649Y-42559580D01*
X78634649Y-42559580D02*
X78587030Y-42464342D01*
X78587030Y-42464342D02*
X78539411Y-42273866D01*
X78539411Y-42273866D02*
X78539411Y-42035771D01*
X78539411Y-42035771D02*
X78587030Y-41845295D01*
X78587030Y-41845295D02*
X78634649Y-41750057D01*
X78634649Y-41750057D02*
X78682268Y-41702438D01*
X78682268Y-41702438D02*
X78777506Y-41654819D01*
X79444173Y-41654819D02*
X80110839Y-41654819D01*
X80110839Y-41654819D02*
X79682268Y-42654819D01*
X80491792Y-42273866D02*
X81253697Y-42273866D01*
X81682268Y-41750057D02*
X81729887Y-41702438D01*
X81729887Y-41702438D02*
X81825125Y-41654819D01*
X81825125Y-41654819D02*
X82063220Y-41654819D01*
X82063220Y-41654819D02*
X82158458Y-41702438D01*
X82158458Y-41702438D02*
X82206077Y-41750057D01*
X82206077Y-41750057D02*
X82253696Y-41845295D01*
X82253696Y-41845295D02*
X82253696Y-41940533D01*
X82253696Y-41940533D02*
X82206077Y-42083390D01*
X82206077Y-42083390D02*
X81634649Y-42654819D01*
X81634649Y-42654819D02*
X82253696Y-42654819D01*
X82872744Y-41654819D02*
X82967982Y-41654819D01*
X82967982Y-41654819D02*
X83063220Y-41702438D01*
X83063220Y-41702438D02*
X83110839Y-41750057D01*
X83110839Y-41750057D02*
X83158458Y-41845295D01*
X83158458Y-41845295D02*
X83206077Y-42035771D01*
X83206077Y-42035771D02*
X83206077Y-42273866D01*
X83206077Y-42273866D02*
X83158458Y-42464342D01*
X83158458Y-42464342D02*
X83110839Y-42559580D01*
X83110839Y-42559580D02*
X83063220Y-42607200D01*
X83063220Y-42607200D02*
X82967982Y-42654819D01*
X82967982Y-42654819D02*
X82872744Y-42654819D01*
X82872744Y-42654819D02*
X82777506Y-42607200D01*
X82777506Y-42607200D02*
X82729887Y-42559580D01*
X82729887Y-42559580D02*
X82682268Y-42464342D01*
X82682268Y-42464342D02*
X82634649Y-42273866D01*
X82634649Y-42273866D02*
X82634649Y-42035771D01*
X82634649Y-42035771D02*
X82682268Y-41845295D01*
X82682268Y-41845295D02*
X82729887Y-41750057D01*
X82729887Y-41750057D02*
X82777506Y-41702438D01*
X82777506Y-41702438D02*
X82872744Y-41654819D01*
X83587030Y-41750057D02*
X83634649Y-41702438D01*
X83634649Y-41702438D02*
X83729887Y-41654819D01*
X83729887Y-41654819D02*
X83967982Y-41654819D01*
X83967982Y-41654819D02*
X84063220Y-41702438D01*
X84063220Y-41702438D02*
X84110839Y-41750057D01*
X84110839Y-41750057D02*
X84158458Y-41845295D01*
X84158458Y-41845295D02*
X84158458Y-41940533D01*
X84158458Y-41940533D02*
X84110839Y-42083390D01*
X84110839Y-42083390D02*
X83539411Y-42654819D01*
X83539411Y-42654819D02*
X84158458Y-42654819D01*
X85063220Y-41654819D02*
X84587030Y-41654819D01*
X84587030Y-41654819D02*
X84539411Y-42131009D01*
X84539411Y-42131009D02*
X84587030Y-42083390D01*
X84587030Y-42083390D02*
X84682268Y-42035771D01*
X84682268Y-42035771D02*
X84920363Y-42035771D01*
X84920363Y-42035771D02*
X85015601Y-42083390D01*
X85015601Y-42083390D02*
X85063220Y-42131009D01*
X85063220Y-42131009D02*
X85110839Y-42226247D01*
X85110839Y-42226247D02*
X85110839Y-42464342D01*
X85110839Y-42464342D02*
X85063220Y-42559580D01*
X85063220Y-42559580D02*
X85015601Y-42607200D01*
X85015601Y-42607200D02*
X84920363Y-42654819D01*
X84920363Y-42654819D02*
X84682268Y-42654819D01*
X84682268Y-42654819D02*
X84587030Y-42607200D01*
X84587030Y-42607200D02*
X84539411Y-42559580D01*
D11*
X67574435Y-56161028D02*
X68074435Y-57661028D01*
X68074435Y-57661028D02*
X68574435Y-56161028D01*
X69074434Y-57089600D02*
X70217292Y-57089600D01*
X69645863Y-57661028D02*
X69645863Y-56518171D01*
X67488720Y-44061028D02*
X67488720Y-45275314D01*
X67488720Y-45275314D02*
X67560149Y-45418171D01*
X67560149Y-45418171D02*
X67631578Y-45489600D01*
X67631578Y-45489600D02*
X67774435Y-45561028D01*
X67774435Y-45561028D02*
X68060149Y-45561028D01*
X68060149Y-45561028D02*
X68203006Y-45489600D01*
X68203006Y-45489600D02*
X68274435Y-45418171D01*
X68274435Y-45418171D02*
X68345863Y-45275314D01*
X68345863Y-45275314D02*
X68345863Y-44061028D01*
X69060149Y-44989600D02*
X70203007Y-44989600D01*
X69631578Y-45561028D02*
X69631578Y-44418171D01*
D10*
X90023809Y-48069819D02*
X90023809Y-47069819D01*
X90023809Y-47069819D02*
X90404761Y-47069819D01*
X90404761Y-47069819D02*
X90499999Y-47117438D01*
X90499999Y-47117438D02*
X90547618Y-47165057D01*
X90547618Y-47165057D02*
X90595237Y-47260295D01*
X90595237Y-47260295D02*
X90595237Y-47403152D01*
X90595237Y-47403152D02*
X90547618Y-47498390D01*
X90547618Y-47498390D02*
X90499999Y-47546009D01*
X90499999Y-47546009D02*
X90404761Y-47593628D01*
X90404761Y-47593628D02*
X90023809Y-47593628D01*
X91166666Y-48069819D02*
X91071428Y-48022200D01*
X91071428Y-48022200D02*
X91023809Y-47974580D01*
X91023809Y-47974580D02*
X90976190Y-47879342D01*
X90976190Y-47879342D02*
X90976190Y-47593628D01*
X90976190Y-47593628D02*
X91023809Y-47498390D01*
X91023809Y-47498390D02*
X91071428Y-47450771D01*
X91071428Y-47450771D02*
X91166666Y-47403152D01*
X91166666Y-47403152D02*
X91309523Y-47403152D01*
X91309523Y-47403152D02*
X91404761Y-47450771D01*
X91404761Y-47450771D02*
X91452380Y-47498390D01*
X91452380Y-47498390D02*
X91499999Y-47593628D01*
X91499999Y-47593628D02*
X91499999Y-47879342D01*
X91499999Y-47879342D02*
X91452380Y-47974580D01*
X91452380Y-47974580D02*
X91404761Y-48022200D01*
X91404761Y-48022200D02*
X91309523Y-48069819D01*
X91309523Y-48069819D02*
X91166666Y-48069819D01*
X91833333Y-47403152D02*
X92023809Y-48069819D01*
X92023809Y-48069819D02*
X92214285Y-47593628D01*
X92214285Y-47593628D02*
X92404761Y-48069819D01*
X92404761Y-48069819D02*
X92595237Y-47403152D01*
X93357142Y-48022200D02*
X93261904Y-48069819D01*
X93261904Y-48069819D02*
X93071428Y-48069819D01*
X93071428Y-48069819D02*
X92976190Y-48022200D01*
X92976190Y-48022200D02*
X92928571Y-47926961D01*
X92928571Y-47926961D02*
X92928571Y-47546009D01*
X92928571Y-47546009D02*
X92976190Y-47450771D01*
X92976190Y-47450771D02*
X93071428Y-47403152D01*
X93071428Y-47403152D02*
X93261904Y-47403152D01*
X93261904Y-47403152D02*
X93357142Y-47450771D01*
X93357142Y-47450771D02*
X93404761Y-47546009D01*
X93404761Y-47546009D02*
X93404761Y-47641247D01*
X93404761Y-47641247D02*
X92928571Y-47736485D01*
X93833333Y-48069819D02*
X93833333Y-47403152D01*
X93833333Y-47593628D02*
X93880952Y-47498390D01*
X93880952Y-47498390D02*
X93928571Y-47450771D01*
X93928571Y-47450771D02*
X94023809Y-47403152D01*
X94023809Y-47403152D02*
X94119047Y-47403152D01*
X67023808Y-83254819D02*
X67642855Y-83254819D01*
X67642855Y-83254819D02*
X67309522Y-83635771D01*
X67309522Y-83635771D02*
X67452379Y-83635771D01*
X67452379Y-83635771D02*
X67547617Y-83683390D01*
X67547617Y-83683390D02*
X67595236Y-83731009D01*
X67595236Y-83731009D02*
X67642855Y-83826247D01*
X67642855Y-83826247D02*
X67642855Y-84064342D01*
X67642855Y-84064342D02*
X67595236Y-84159580D01*
X67595236Y-84159580D02*
X67547617Y-84207200D01*
X67547617Y-84207200D02*
X67452379Y-84254819D01*
X67452379Y-84254819D02*
X67166665Y-84254819D01*
X67166665Y-84254819D02*
X67071427Y-84207200D01*
X67071427Y-84207200D02*
X67023808Y-84159580D01*
X68833332Y-84254819D02*
X68833332Y-83254819D01*
X68833332Y-83254819D02*
X69214284Y-83254819D01*
X69214284Y-83254819D02*
X69309522Y-83302438D01*
X69309522Y-83302438D02*
X69357141Y-83350057D01*
X69357141Y-83350057D02*
X69404760Y-83445295D01*
X69404760Y-83445295D02*
X69404760Y-83588152D01*
X69404760Y-83588152D02*
X69357141Y-83683390D01*
X69357141Y-83683390D02*
X69309522Y-83731009D01*
X69309522Y-83731009D02*
X69214284Y-83778628D01*
X69214284Y-83778628D02*
X68833332Y-83778628D01*
X69833332Y-84254819D02*
X69833332Y-83254819D01*
X70261903Y-84254819D02*
X70261903Y-83731009D01*
X70261903Y-83731009D02*
X70214284Y-83635771D01*
X70214284Y-83635771D02*
X70119046Y-83588152D01*
X70119046Y-83588152D02*
X69976189Y-83588152D01*
X69976189Y-83588152D02*
X69880951Y-83635771D01*
X69880951Y-83635771D02*
X69833332Y-83683390D01*
X71166665Y-84254819D02*
X71166665Y-83731009D01*
X71166665Y-83731009D02*
X71119046Y-83635771D01*
X71119046Y-83635771D02*
X71023808Y-83588152D01*
X71023808Y-83588152D02*
X70833332Y-83588152D01*
X70833332Y-83588152D02*
X70738094Y-83635771D01*
X71166665Y-84207200D02*
X71071427Y-84254819D01*
X71071427Y-84254819D02*
X70833332Y-84254819D01*
X70833332Y-84254819D02*
X70738094Y-84207200D01*
X70738094Y-84207200D02*
X70690475Y-84111961D01*
X70690475Y-84111961D02*
X70690475Y-84016723D01*
X70690475Y-84016723D02*
X70738094Y-83921485D01*
X70738094Y-83921485D02*
X70833332Y-83873866D01*
X70833332Y-83873866D02*
X71071427Y-83873866D01*
X71071427Y-83873866D02*
X71166665Y-83826247D01*
X71595237Y-84207200D02*
X71690475Y-84254819D01*
X71690475Y-84254819D02*
X71880951Y-84254819D01*
X71880951Y-84254819D02*
X71976189Y-84207200D01*
X71976189Y-84207200D02*
X72023808Y-84111961D01*
X72023808Y-84111961D02*
X72023808Y-84064342D01*
X72023808Y-84064342D02*
X71976189Y-83969104D01*
X71976189Y-83969104D02*
X71880951Y-83921485D01*
X71880951Y-83921485D02*
X71738094Y-83921485D01*
X71738094Y-83921485D02*
X71642856Y-83873866D01*
X71642856Y-83873866D02*
X71595237Y-83778628D01*
X71595237Y-83778628D02*
X71595237Y-83731009D01*
X71595237Y-83731009D02*
X71642856Y-83635771D01*
X71642856Y-83635771D02*
X71738094Y-83588152D01*
X71738094Y-83588152D02*
X71880951Y-83588152D01*
X71880951Y-83588152D02*
X71976189Y-83635771D01*
X72833332Y-84207200D02*
X72738094Y-84254819D01*
X72738094Y-84254819D02*
X72547618Y-84254819D01*
X72547618Y-84254819D02*
X72452380Y-84207200D01*
X72452380Y-84207200D02*
X72404761Y-84111961D01*
X72404761Y-84111961D02*
X72404761Y-83731009D01*
X72404761Y-83731009D02*
X72452380Y-83635771D01*
X72452380Y-83635771D02*
X72547618Y-83588152D01*
X72547618Y-83588152D02*
X72738094Y-83588152D01*
X72738094Y-83588152D02*
X72833332Y-83635771D01*
X72833332Y-83635771D02*
X72880951Y-83731009D01*
X72880951Y-83731009D02*
X72880951Y-83826247D01*
X72880951Y-83826247D02*
X72404761Y-83921485D01*
X74642856Y-84159580D02*
X74595237Y-84207200D01*
X74595237Y-84207200D02*
X74452380Y-84254819D01*
X74452380Y-84254819D02*
X74357142Y-84254819D01*
X74357142Y-84254819D02*
X74214285Y-84207200D01*
X74214285Y-84207200D02*
X74119047Y-84111961D01*
X74119047Y-84111961D02*
X74071428Y-84016723D01*
X74071428Y-84016723D02*
X74023809Y-83826247D01*
X74023809Y-83826247D02*
X74023809Y-83683390D01*
X74023809Y-83683390D02*
X74071428Y-83492914D01*
X74071428Y-83492914D02*
X74119047Y-83397676D01*
X74119047Y-83397676D02*
X74214285Y-83302438D01*
X74214285Y-83302438D02*
X74357142Y-83254819D01*
X74357142Y-83254819D02*
X74452380Y-83254819D01*
X74452380Y-83254819D02*
X74595237Y-83302438D01*
X74595237Y-83302438D02*
X74642856Y-83350057D01*
X75499999Y-83588152D02*
X75499999Y-84254819D01*
X75071428Y-83588152D02*
X75071428Y-84111961D01*
X75071428Y-84111961D02*
X75119047Y-84207200D01*
X75119047Y-84207200D02*
X75214285Y-84254819D01*
X75214285Y-84254819D02*
X75357142Y-84254819D01*
X75357142Y-84254819D02*
X75452380Y-84207200D01*
X75452380Y-84207200D02*
X75499999Y-84159580D01*
X75976190Y-84254819D02*
X75976190Y-83588152D01*
X75976190Y-83778628D02*
X76023809Y-83683390D01*
X76023809Y-83683390D02*
X76071428Y-83635771D01*
X76071428Y-83635771D02*
X76166666Y-83588152D01*
X76166666Y-83588152D02*
X76261904Y-83588152D01*
X76595238Y-84254819D02*
X76595238Y-83588152D01*
X76595238Y-83778628D02*
X76642857Y-83683390D01*
X76642857Y-83683390D02*
X76690476Y-83635771D01*
X76690476Y-83635771D02*
X76785714Y-83588152D01*
X76785714Y-83588152D02*
X76880952Y-83588152D01*
X77595238Y-84207200D02*
X77500000Y-84254819D01*
X77500000Y-84254819D02*
X77309524Y-84254819D01*
X77309524Y-84254819D02*
X77214286Y-84207200D01*
X77214286Y-84207200D02*
X77166667Y-84111961D01*
X77166667Y-84111961D02*
X77166667Y-83731009D01*
X77166667Y-83731009D02*
X77214286Y-83635771D01*
X77214286Y-83635771D02*
X77309524Y-83588152D01*
X77309524Y-83588152D02*
X77500000Y-83588152D01*
X77500000Y-83588152D02*
X77595238Y-83635771D01*
X77595238Y-83635771D02*
X77642857Y-83731009D01*
X77642857Y-83731009D02*
X77642857Y-83826247D01*
X77642857Y-83826247D02*
X77166667Y-83921485D01*
X78071429Y-83588152D02*
X78071429Y-84254819D01*
X78071429Y-83683390D02*
X78119048Y-83635771D01*
X78119048Y-83635771D02*
X78214286Y-83588152D01*
X78214286Y-83588152D02*
X78357143Y-83588152D01*
X78357143Y-83588152D02*
X78452381Y-83635771D01*
X78452381Y-83635771D02*
X78500000Y-83731009D01*
X78500000Y-83731009D02*
X78500000Y-84254819D01*
X78833334Y-83588152D02*
X79214286Y-83588152D01*
X78976191Y-83254819D02*
X78976191Y-84111961D01*
X78976191Y-84111961D02*
X79023810Y-84207200D01*
X79023810Y-84207200D02*
X79119048Y-84254819D01*
X79119048Y-84254819D02*
X79214286Y-84254819D01*
X80261906Y-84207200D02*
X80404763Y-84254819D01*
X80404763Y-84254819D02*
X80642858Y-84254819D01*
X80642858Y-84254819D02*
X80738096Y-84207200D01*
X80738096Y-84207200D02*
X80785715Y-84159580D01*
X80785715Y-84159580D02*
X80833334Y-84064342D01*
X80833334Y-84064342D02*
X80833334Y-83969104D01*
X80833334Y-83969104D02*
X80785715Y-83873866D01*
X80785715Y-83873866D02*
X80738096Y-83826247D01*
X80738096Y-83826247D02*
X80642858Y-83778628D01*
X80642858Y-83778628D02*
X80452382Y-83731009D01*
X80452382Y-83731009D02*
X80357144Y-83683390D01*
X80357144Y-83683390D02*
X80309525Y-83635771D01*
X80309525Y-83635771D02*
X80261906Y-83540533D01*
X80261906Y-83540533D02*
X80261906Y-83445295D01*
X80261906Y-83445295D02*
X80309525Y-83350057D01*
X80309525Y-83350057D02*
X80357144Y-83302438D01*
X80357144Y-83302438D02*
X80452382Y-83254819D01*
X80452382Y-83254819D02*
X80690477Y-83254819D01*
X80690477Y-83254819D02*
X80833334Y-83302438D01*
X81642858Y-84207200D02*
X81547620Y-84254819D01*
X81547620Y-84254819D02*
X81357144Y-84254819D01*
X81357144Y-84254819D02*
X81261906Y-84207200D01*
X81261906Y-84207200D02*
X81214287Y-84111961D01*
X81214287Y-84111961D02*
X81214287Y-83731009D01*
X81214287Y-83731009D02*
X81261906Y-83635771D01*
X81261906Y-83635771D02*
X81357144Y-83588152D01*
X81357144Y-83588152D02*
X81547620Y-83588152D01*
X81547620Y-83588152D02*
X81642858Y-83635771D01*
X81642858Y-83635771D02*
X81690477Y-83731009D01*
X81690477Y-83731009D02*
X81690477Y-83826247D01*
X81690477Y-83826247D02*
X81214287Y-83921485D01*
X82119049Y-83588152D02*
X82119049Y-84254819D01*
X82119049Y-83683390D02*
X82166668Y-83635771D01*
X82166668Y-83635771D02*
X82261906Y-83588152D01*
X82261906Y-83588152D02*
X82404763Y-83588152D01*
X82404763Y-83588152D02*
X82500001Y-83635771D01*
X82500001Y-83635771D02*
X82547620Y-83731009D01*
X82547620Y-83731009D02*
X82547620Y-84254819D01*
X82976192Y-84207200D02*
X83071430Y-84254819D01*
X83071430Y-84254819D02*
X83261906Y-84254819D01*
X83261906Y-84254819D02*
X83357144Y-84207200D01*
X83357144Y-84207200D02*
X83404763Y-84111961D01*
X83404763Y-84111961D02*
X83404763Y-84064342D01*
X83404763Y-84064342D02*
X83357144Y-83969104D01*
X83357144Y-83969104D02*
X83261906Y-83921485D01*
X83261906Y-83921485D02*
X83119049Y-83921485D01*
X83119049Y-83921485D02*
X83023811Y-83873866D01*
X83023811Y-83873866D02*
X82976192Y-83778628D01*
X82976192Y-83778628D02*
X82976192Y-83731009D01*
X82976192Y-83731009D02*
X83023811Y-83635771D01*
X83023811Y-83635771D02*
X83119049Y-83588152D01*
X83119049Y-83588152D02*
X83261906Y-83588152D01*
X83261906Y-83588152D02*
X83357144Y-83635771D01*
X83976192Y-84254819D02*
X83880954Y-84207200D01*
X83880954Y-84207200D02*
X83833335Y-84159580D01*
X83833335Y-84159580D02*
X83785716Y-84064342D01*
X83785716Y-84064342D02*
X83785716Y-83778628D01*
X83785716Y-83778628D02*
X83833335Y-83683390D01*
X83833335Y-83683390D02*
X83880954Y-83635771D01*
X83880954Y-83635771D02*
X83976192Y-83588152D01*
X83976192Y-83588152D02*
X84119049Y-83588152D01*
X84119049Y-83588152D02*
X84214287Y-83635771D01*
X84214287Y-83635771D02*
X84261906Y-83683390D01*
X84261906Y-83683390D02*
X84309525Y-83778628D01*
X84309525Y-83778628D02*
X84309525Y-84064342D01*
X84309525Y-84064342D02*
X84261906Y-84159580D01*
X84261906Y-84159580D02*
X84214287Y-84207200D01*
X84214287Y-84207200D02*
X84119049Y-84254819D01*
X84119049Y-84254819D02*
X83976192Y-84254819D01*
X84738097Y-84254819D02*
X84738097Y-83588152D01*
X84738097Y-83778628D02*
X84785716Y-83683390D01*
X84785716Y-83683390D02*
X84833335Y-83635771D01*
X84833335Y-83635771D02*
X84928573Y-83588152D01*
X84928573Y-83588152D02*
X85023811Y-83588152D01*
D11*
X67345863Y-68206028D02*
X67703006Y-69706028D01*
X67703006Y-69706028D02*
X67988720Y-68634600D01*
X67988720Y-68634600D02*
X68274435Y-69706028D01*
X68274435Y-69706028D02*
X68631578Y-68206028D01*
X69203006Y-69134600D02*
X70345864Y-69134600D01*
X69774435Y-69706028D02*
X69774435Y-68563171D01*
D10*
X81454819Y-60691792D02*
X80978628Y-61025125D01*
X81454819Y-61263220D02*
X80454819Y-61263220D01*
X80454819Y-61263220D02*
X80454819Y-60882268D01*
X80454819Y-60882268D02*
X80502438Y-60787030D01*
X80502438Y-60787030D02*
X80550057Y-60739411D01*
X80550057Y-60739411D02*
X80645295Y-60691792D01*
X80645295Y-60691792D02*
X80788152Y-60691792D01*
X80788152Y-60691792D02*
X80883390Y-60739411D01*
X80883390Y-60739411D02*
X80931009Y-60787030D01*
X80931009Y-60787030D02*
X80978628Y-60882268D01*
X80978628Y-60882268D02*
X80978628Y-61263220D01*
X80454819Y-59834649D02*
X80454819Y-60025125D01*
X80454819Y-60025125D02*
X80502438Y-60120363D01*
X80502438Y-60120363D02*
X80550057Y-60167982D01*
X80550057Y-60167982D02*
X80692914Y-60263220D01*
X80692914Y-60263220D02*
X80883390Y-60310839D01*
X80883390Y-60310839D02*
X81264342Y-60310839D01*
X81264342Y-60310839D02*
X81359580Y-60263220D01*
X81359580Y-60263220D02*
X81407200Y-60215601D01*
X81407200Y-60215601D02*
X81454819Y-60120363D01*
X81454819Y-60120363D02*
X81454819Y-59929887D01*
X81454819Y-59929887D02*
X81407200Y-59834649D01*
X81407200Y-59834649D02*
X81359580Y-59787030D01*
X81359580Y-59787030D02*
X81264342Y-59739411D01*
X81264342Y-59739411D02*
X81026247Y-59739411D01*
X81026247Y-59739411D02*
X80931009Y-59787030D01*
X80931009Y-59787030D02*
X80883390Y-59834649D01*
X80883390Y-59834649D02*
X80835771Y-59929887D01*
X80835771Y-59929887D02*
X80835771Y-60120363D01*
X80835771Y-60120363D02*
X80883390Y-60215601D01*
X80883390Y-60215601D02*
X80931009Y-60263220D01*
X80931009Y-60263220D02*
X81026247Y-60310839D01*
X85929580Y-52166666D02*
X85977200Y-52214285D01*
X85977200Y-52214285D02*
X86024819Y-52357142D01*
X86024819Y-52357142D02*
X86024819Y-52452380D01*
X86024819Y-52452380D02*
X85977200Y-52595237D01*
X85977200Y-52595237D02*
X85881961Y-52690475D01*
X85881961Y-52690475D02*
X85786723Y-52738094D01*
X85786723Y-52738094D02*
X85596247Y-52785713D01*
X85596247Y-52785713D02*
X85453390Y-52785713D01*
X85453390Y-52785713D02*
X85262914Y-52738094D01*
X85262914Y-52738094D02*
X85167676Y-52690475D01*
X85167676Y-52690475D02*
X85072438Y-52595237D01*
X85072438Y-52595237D02*
X85024819Y-52452380D01*
X85024819Y-52452380D02*
X85024819Y-52357142D01*
X85024819Y-52357142D02*
X85072438Y-52214285D01*
X85072438Y-52214285D02*
X85120057Y-52166666D01*
X85453390Y-51595237D02*
X85405771Y-51690475D01*
X85405771Y-51690475D02*
X85358152Y-51738094D01*
X85358152Y-51738094D02*
X85262914Y-51785713D01*
X85262914Y-51785713D02*
X85215295Y-51785713D01*
X85215295Y-51785713D02*
X85120057Y-51738094D01*
X85120057Y-51738094D02*
X85072438Y-51690475D01*
X85072438Y-51690475D02*
X85024819Y-51595237D01*
X85024819Y-51595237D02*
X85024819Y-51404761D01*
X85024819Y-51404761D02*
X85072438Y-51309523D01*
X85072438Y-51309523D02*
X85120057Y-51261904D01*
X85120057Y-51261904D02*
X85215295Y-51214285D01*
X85215295Y-51214285D02*
X85262914Y-51214285D01*
X85262914Y-51214285D02*
X85358152Y-51261904D01*
X85358152Y-51261904D02*
X85405771Y-51309523D01*
X85405771Y-51309523D02*
X85453390Y-51404761D01*
X85453390Y-51404761D02*
X85453390Y-51595237D01*
X85453390Y-51595237D02*
X85501009Y-51690475D01*
X85501009Y-51690475D02*
X85548628Y-51738094D01*
X85548628Y-51738094D02*
X85643866Y-51785713D01*
X85643866Y-51785713D02*
X85834342Y-51785713D01*
X85834342Y-51785713D02*
X85929580Y-51738094D01*
X85929580Y-51738094D02*
X85977200Y-51690475D01*
X85977200Y-51690475D02*
X86024819Y-51595237D01*
X86024819Y-51595237D02*
X86024819Y-51404761D01*
X86024819Y-51404761D02*
X85977200Y-51309523D01*
X85977200Y-51309523D02*
X85929580Y-51261904D01*
X85929580Y-51261904D02*
X85834342Y-51214285D01*
X85834342Y-51214285D02*
X85643866Y-51214285D01*
X85643866Y-51214285D02*
X85548628Y-51261904D01*
X85548628Y-51261904D02*
X85501009Y-51309523D01*
X85501009Y-51309523D02*
X85453390Y-51404761D01*
X83513332Y-61359580D02*
X83465713Y-61407200D01*
X83465713Y-61407200D02*
X83322856Y-61454819D01*
X83322856Y-61454819D02*
X83227618Y-61454819D01*
X83227618Y-61454819D02*
X83084761Y-61407200D01*
X83084761Y-61407200D02*
X82989523Y-61311961D01*
X82989523Y-61311961D02*
X82941904Y-61216723D01*
X82941904Y-61216723D02*
X82894285Y-61026247D01*
X82894285Y-61026247D02*
X82894285Y-60883390D01*
X82894285Y-60883390D02*
X82941904Y-60692914D01*
X82941904Y-60692914D02*
X82989523Y-60597676D01*
X82989523Y-60597676D02*
X83084761Y-60502438D01*
X83084761Y-60502438D02*
X83227618Y-60454819D01*
X83227618Y-60454819D02*
X83322856Y-60454819D01*
X83322856Y-60454819D02*
X83465713Y-60502438D01*
X83465713Y-60502438D02*
X83513332Y-60550057D01*
X83846666Y-60454819D02*
X84465713Y-60454819D01*
X84465713Y-60454819D02*
X84132380Y-60835771D01*
X84132380Y-60835771D02*
X84275237Y-60835771D01*
X84275237Y-60835771D02*
X84370475Y-60883390D01*
X84370475Y-60883390D02*
X84418094Y-60931009D01*
X84418094Y-60931009D02*
X84465713Y-61026247D01*
X84465713Y-61026247D02*
X84465713Y-61264342D01*
X84465713Y-61264342D02*
X84418094Y-61359580D01*
X84418094Y-61359580D02*
X84370475Y-61407200D01*
X84370475Y-61407200D02*
X84275237Y-61454819D01*
X84275237Y-61454819D02*
X83989523Y-61454819D01*
X83989523Y-61454819D02*
X83894285Y-61407200D01*
X83894285Y-61407200D02*
X83846666Y-61359580D01*
X77614819Y-67596904D02*
X78424342Y-67596904D01*
X78424342Y-67596904D02*
X78519580Y-67549285D01*
X78519580Y-67549285D02*
X78567200Y-67501666D01*
X78567200Y-67501666D02*
X78614819Y-67406428D01*
X78614819Y-67406428D02*
X78614819Y-67215952D01*
X78614819Y-67215952D02*
X78567200Y-67120714D01*
X78567200Y-67120714D02*
X78519580Y-67073095D01*
X78519580Y-67073095D02*
X78424342Y-67025476D01*
X78424342Y-67025476D02*
X77614819Y-67025476D01*
X77614819Y-66644523D02*
X77614819Y-66025476D01*
X77614819Y-66025476D02*
X77995771Y-66358809D01*
X77995771Y-66358809D02*
X77995771Y-66215952D01*
X77995771Y-66215952D02*
X78043390Y-66120714D01*
X78043390Y-66120714D02*
X78091009Y-66073095D01*
X78091009Y-66073095D02*
X78186247Y-66025476D01*
X78186247Y-66025476D02*
X78424342Y-66025476D01*
X78424342Y-66025476D02*
X78519580Y-66073095D01*
X78519580Y-66073095D02*
X78567200Y-66120714D01*
X78567200Y-66120714D02*
X78614819Y-66215952D01*
X78614819Y-66215952D02*
X78614819Y-66501666D01*
X78614819Y-66501666D02*
X78567200Y-66596904D01*
X78567200Y-66596904D02*
X78519580Y-66644523D01*
X76233333Y-69259580D02*
X76185714Y-69307200D01*
X76185714Y-69307200D02*
X76042857Y-69354819D01*
X76042857Y-69354819D02*
X75947619Y-69354819D01*
X75947619Y-69354819D02*
X75804762Y-69307200D01*
X75804762Y-69307200D02*
X75709524Y-69211961D01*
X75709524Y-69211961D02*
X75661905Y-69116723D01*
X75661905Y-69116723D02*
X75614286Y-68926247D01*
X75614286Y-68926247D02*
X75614286Y-68783390D01*
X75614286Y-68783390D02*
X75661905Y-68592914D01*
X75661905Y-68592914D02*
X75709524Y-68497676D01*
X75709524Y-68497676D02*
X75804762Y-68402438D01*
X75804762Y-68402438D02*
X75947619Y-68354819D01*
X75947619Y-68354819D02*
X76042857Y-68354819D01*
X76042857Y-68354819D02*
X76185714Y-68402438D01*
X76185714Y-68402438D02*
X76233333Y-68450057D01*
X76566667Y-68354819D02*
X77233333Y-68354819D01*
X77233333Y-68354819D02*
X76804762Y-69354819D01*
X77614819Y-55596904D02*
X78424342Y-55596904D01*
X78424342Y-55596904D02*
X78519580Y-55549285D01*
X78519580Y-55549285D02*
X78567200Y-55501666D01*
X78567200Y-55501666D02*
X78614819Y-55406428D01*
X78614819Y-55406428D02*
X78614819Y-55215952D01*
X78614819Y-55215952D02*
X78567200Y-55120714D01*
X78567200Y-55120714D02*
X78519580Y-55073095D01*
X78519580Y-55073095D02*
X78424342Y-55025476D01*
X78424342Y-55025476D02*
X77614819Y-55025476D01*
X77710057Y-54596904D02*
X77662438Y-54549285D01*
X77662438Y-54549285D02*
X77614819Y-54454047D01*
X77614819Y-54454047D02*
X77614819Y-54215952D01*
X77614819Y-54215952D02*
X77662438Y-54120714D01*
X77662438Y-54120714D02*
X77710057Y-54073095D01*
X77710057Y-54073095D02*
X77805295Y-54025476D01*
X77805295Y-54025476D02*
X77900533Y-54025476D01*
X77900533Y-54025476D02*
X78043390Y-54073095D01*
X78043390Y-54073095D02*
X78614819Y-54644523D01*
X78614819Y-54644523D02*
X78614819Y-54025476D01*
X81008458Y-69859580D02*
X80960839Y-69907200D01*
X80960839Y-69907200D02*
X80817982Y-69954819D01*
X80817982Y-69954819D02*
X80722744Y-69954819D01*
X80722744Y-69954819D02*
X80579887Y-69907200D01*
X80579887Y-69907200D02*
X80484649Y-69811961D01*
X80484649Y-69811961D02*
X80437030Y-69716723D01*
X80437030Y-69716723D02*
X80389411Y-69526247D01*
X80389411Y-69526247D02*
X80389411Y-69383390D01*
X80389411Y-69383390D02*
X80437030Y-69192914D01*
X80437030Y-69192914D02*
X80484649Y-69097676D01*
X80484649Y-69097676D02*
X80579887Y-69002438D01*
X80579887Y-69002438D02*
X80722744Y-68954819D01*
X80722744Y-68954819D02*
X80817982Y-68954819D01*
X80817982Y-68954819D02*
X80960839Y-69002438D01*
X80960839Y-69002438D02*
X81008458Y-69050057D01*
X81960839Y-69954819D02*
X81389411Y-69954819D01*
X81675125Y-69954819D02*
X81675125Y-68954819D01*
X81675125Y-68954819D02*
X81579887Y-69097676D01*
X81579887Y-69097676D02*
X81484649Y-69192914D01*
X81484649Y-69192914D02*
X81389411Y-69240533D01*
X81008458Y-68109580D02*
X80960839Y-68157200D01*
X80960839Y-68157200D02*
X80817982Y-68204819D01*
X80817982Y-68204819D02*
X80722744Y-68204819D01*
X80722744Y-68204819D02*
X80579887Y-68157200D01*
X80579887Y-68157200D02*
X80484649Y-68061961D01*
X80484649Y-68061961D02*
X80437030Y-67966723D01*
X80437030Y-67966723D02*
X80389411Y-67776247D01*
X80389411Y-67776247D02*
X80389411Y-67633390D01*
X80389411Y-67633390D02*
X80437030Y-67442914D01*
X80437030Y-67442914D02*
X80484649Y-67347676D01*
X80484649Y-67347676D02*
X80579887Y-67252438D01*
X80579887Y-67252438D02*
X80722744Y-67204819D01*
X80722744Y-67204819D02*
X80817982Y-67204819D01*
X80817982Y-67204819D02*
X80960839Y-67252438D01*
X80960839Y-67252438D02*
X81008458Y-67300057D01*
X81389411Y-67300057D02*
X81437030Y-67252438D01*
X81437030Y-67252438D02*
X81532268Y-67204819D01*
X81532268Y-67204819D02*
X81770363Y-67204819D01*
X81770363Y-67204819D02*
X81865601Y-67252438D01*
X81865601Y-67252438D02*
X81913220Y-67300057D01*
X81913220Y-67300057D02*
X81960839Y-67395295D01*
X81960839Y-67395295D02*
X81960839Y-67490533D01*
X81960839Y-67490533D02*
X81913220Y-67633390D01*
X81913220Y-67633390D02*
X81341792Y-68204819D01*
X81341792Y-68204819D02*
X81960839Y-68204819D01*
X72054819Y-63101666D02*
X71578628Y-63434999D01*
X72054819Y-63673094D02*
X71054819Y-63673094D01*
X71054819Y-63673094D02*
X71054819Y-63292142D01*
X71054819Y-63292142D02*
X71102438Y-63196904D01*
X71102438Y-63196904D02*
X71150057Y-63149285D01*
X71150057Y-63149285D02*
X71245295Y-63101666D01*
X71245295Y-63101666D02*
X71388152Y-63101666D01*
X71388152Y-63101666D02*
X71483390Y-63149285D01*
X71483390Y-63149285D02*
X71531009Y-63196904D01*
X71531009Y-63196904D02*
X71578628Y-63292142D01*
X71578628Y-63292142D02*
X71578628Y-63673094D01*
X71388152Y-62244523D02*
X72054819Y-62244523D01*
X71007200Y-62482618D02*
X71721485Y-62720713D01*
X71721485Y-62720713D02*
X71721485Y-62101666D01*
X76258333Y-57259580D02*
X76210714Y-57307200D01*
X76210714Y-57307200D02*
X76067857Y-57354819D01*
X76067857Y-57354819D02*
X75972619Y-57354819D01*
X75972619Y-57354819D02*
X75829762Y-57307200D01*
X75829762Y-57307200D02*
X75734524Y-57211961D01*
X75734524Y-57211961D02*
X75686905Y-57116723D01*
X75686905Y-57116723D02*
X75639286Y-56926247D01*
X75639286Y-56926247D02*
X75639286Y-56783390D01*
X75639286Y-56783390D02*
X75686905Y-56592914D01*
X75686905Y-56592914D02*
X75734524Y-56497676D01*
X75734524Y-56497676D02*
X75829762Y-56402438D01*
X75829762Y-56402438D02*
X75972619Y-56354819D01*
X75972619Y-56354819D02*
X76067857Y-56354819D01*
X76067857Y-56354819D02*
X76210714Y-56402438D01*
X76210714Y-56402438D02*
X76258333Y-56450057D01*
X77115476Y-56354819D02*
X76925000Y-56354819D01*
X76925000Y-56354819D02*
X76829762Y-56402438D01*
X76829762Y-56402438D02*
X76782143Y-56450057D01*
X76782143Y-56450057D02*
X76686905Y-56592914D01*
X76686905Y-56592914D02*
X76639286Y-56783390D01*
X76639286Y-56783390D02*
X76639286Y-57164342D01*
X76639286Y-57164342D02*
X76686905Y-57259580D01*
X76686905Y-57259580D02*
X76734524Y-57307200D01*
X76734524Y-57307200D02*
X76829762Y-57354819D01*
X76829762Y-57354819D02*
X77020238Y-57354819D01*
X77020238Y-57354819D02*
X77115476Y-57307200D01*
X77115476Y-57307200D02*
X77163095Y-57259580D01*
X77163095Y-57259580D02*
X77210714Y-57164342D01*
X77210714Y-57164342D02*
X77210714Y-56926247D01*
X77210714Y-56926247D02*
X77163095Y-56831009D01*
X77163095Y-56831009D02*
X77115476Y-56783390D01*
X77115476Y-56783390D02*
X77020238Y-56735771D01*
X77020238Y-56735771D02*
X76829762Y-56735771D01*
X76829762Y-56735771D02*
X76734524Y-56783390D01*
X76734524Y-56783390D02*
X76686905Y-56831009D01*
X76686905Y-56831009D02*
X76639286Y-56926247D01*
X81008458Y-71704819D02*
X80675125Y-71228628D01*
X80437030Y-71704819D02*
X80437030Y-70704819D01*
X80437030Y-70704819D02*
X80817982Y-70704819D01*
X80817982Y-70704819D02*
X80913220Y-70752438D01*
X80913220Y-70752438D02*
X80960839Y-70800057D01*
X80960839Y-70800057D02*
X81008458Y-70895295D01*
X81008458Y-70895295D02*
X81008458Y-71038152D01*
X81008458Y-71038152D02*
X80960839Y-71133390D01*
X80960839Y-71133390D02*
X80913220Y-71181009D01*
X80913220Y-71181009D02*
X80817982Y-71228628D01*
X80817982Y-71228628D02*
X80437030Y-71228628D01*
X81389411Y-70800057D02*
X81437030Y-70752438D01*
X81437030Y-70752438D02*
X81532268Y-70704819D01*
X81532268Y-70704819D02*
X81770363Y-70704819D01*
X81770363Y-70704819D02*
X81865601Y-70752438D01*
X81865601Y-70752438D02*
X81913220Y-70800057D01*
X81913220Y-70800057D02*
X81960839Y-70895295D01*
X81960839Y-70895295D02*
X81960839Y-70990533D01*
X81960839Y-70990533D02*
X81913220Y-71133390D01*
X81913220Y-71133390D02*
X81341792Y-71704819D01*
X81341792Y-71704819D02*
X81960839Y-71704819D01*
X85738095Y-64404820D02*
X85738095Y-65214343D01*
X85738095Y-65214343D02*
X85785714Y-65309581D01*
X85785714Y-65309581D02*
X85833333Y-65357201D01*
X85833333Y-65357201D02*
X85928571Y-65404820D01*
X85928571Y-65404820D02*
X86119047Y-65404820D01*
X86119047Y-65404820D02*
X86214285Y-65357201D01*
X86214285Y-65357201D02*
X86261904Y-65309581D01*
X86261904Y-65309581D02*
X86309523Y-65214343D01*
X86309523Y-65214343D02*
X86309523Y-64404820D01*
X87309523Y-65404820D02*
X86738095Y-65404820D01*
X87023809Y-65404820D02*
X87023809Y-64404820D01*
X87023809Y-64404820D02*
X86928571Y-64547677D01*
X86928571Y-64547677D02*
X86833333Y-64642915D01*
X86833333Y-64642915D02*
X86738095Y-64690534D01*
X72054819Y-51101666D02*
X71578628Y-51434999D01*
X72054819Y-51673094D02*
X71054819Y-51673094D01*
X71054819Y-51673094D02*
X71054819Y-51292142D01*
X71054819Y-51292142D02*
X71102438Y-51196904D01*
X71102438Y-51196904D02*
X71150057Y-51149285D01*
X71150057Y-51149285D02*
X71245295Y-51101666D01*
X71245295Y-51101666D02*
X71388152Y-51101666D01*
X71388152Y-51101666D02*
X71483390Y-51149285D01*
X71483390Y-51149285D02*
X71531009Y-51196904D01*
X71531009Y-51196904D02*
X71578628Y-51292142D01*
X71578628Y-51292142D02*
X71578628Y-51673094D01*
X71054819Y-50768332D02*
X71054819Y-50149285D01*
X71054819Y-50149285D02*
X71435771Y-50482618D01*
X71435771Y-50482618D02*
X71435771Y-50339761D01*
X71435771Y-50339761D02*
X71483390Y-50244523D01*
X71483390Y-50244523D02*
X71531009Y-50196904D01*
X71531009Y-50196904D02*
X71626247Y-50149285D01*
X71626247Y-50149285D02*
X71864342Y-50149285D01*
X71864342Y-50149285D02*
X71959580Y-50196904D01*
X71959580Y-50196904D02*
X72007200Y-50244523D01*
X72007200Y-50244523D02*
X72054819Y-50339761D01*
X72054819Y-50339761D02*
X72054819Y-50625475D01*
X72054819Y-50625475D02*
X72007200Y-50720713D01*
X72007200Y-50720713D02*
X71959580Y-50768332D01*
X72054819Y-75101666D02*
X71578628Y-75434999D01*
X72054819Y-75673094D02*
X71054819Y-75673094D01*
X71054819Y-75673094D02*
X71054819Y-75292142D01*
X71054819Y-75292142D02*
X71102438Y-75196904D01*
X71102438Y-75196904D02*
X71150057Y-75149285D01*
X71150057Y-75149285D02*
X71245295Y-75101666D01*
X71245295Y-75101666D02*
X71388152Y-75101666D01*
X71388152Y-75101666D02*
X71483390Y-75149285D01*
X71483390Y-75149285D02*
X71531009Y-75196904D01*
X71531009Y-75196904D02*
X71578628Y-75292142D01*
X71578628Y-75292142D02*
X71578628Y-75673094D01*
X71054819Y-74196904D02*
X71054819Y-74673094D01*
X71054819Y-74673094D02*
X71531009Y-74720713D01*
X71531009Y-74720713D02*
X71483390Y-74673094D01*
X71483390Y-74673094D02*
X71435771Y-74577856D01*
X71435771Y-74577856D02*
X71435771Y-74339761D01*
X71435771Y-74339761D02*
X71483390Y-74244523D01*
X71483390Y-74244523D02*
X71531009Y-74196904D01*
X71531009Y-74196904D02*
X71626247Y-74149285D01*
X71626247Y-74149285D02*
X71864342Y-74149285D01*
X71864342Y-74149285D02*
X71959580Y-74196904D01*
X71959580Y-74196904D02*
X72007200Y-74244523D01*
X72007200Y-74244523D02*
X72054819Y-74339761D01*
X72054819Y-74339761D02*
X72054819Y-74577856D01*
X72054819Y-74577856D02*
X72007200Y-74673094D01*
X72007200Y-74673094D02*
X71959580Y-74720713D01*
X74633333Y-45359580D02*
X74585714Y-45407200D01*
X74585714Y-45407200D02*
X74442857Y-45454819D01*
X74442857Y-45454819D02*
X74347619Y-45454819D01*
X74347619Y-45454819D02*
X74204762Y-45407200D01*
X74204762Y-45407200D02*
X74109524Y-45311961D01*
X74109524Y-45311961D02*
X74061905Y-45216723D01*
X74061905Y-45216723D02*
X74014286Y-45026247D01*
X74014286Y-45026247D02*
X74014286Y-44883390D01*
X74014286Y-44883390D02*
X74061905Y-44692914D01*
X74061905Y-44692914D02*
X74109524Y-44597676D01*
X74109524Y-44597676D02*
X74204762Y-44502438D01*
X74204762Y-44502438D02*
X74347619Y-44454819D01*
X74347619Y-44454819D02*
X74442857Y-44454819D01*
X74442857Y-44454819D02*
X74585714Y-44502438D01*
X74585714Y-44502438D02*
X74633333Y-44550057D01*
X75538095Y-44454819D02*
X75061905Y-44454819D01*
X75061905Y-44454819D02*
X75014286Y-44931009D01*
X75014286Y-44931009D02*
X75061905Y-44883390D01*
X75061905Y-44883390D02*
X75157143Y-44835771D01*
X75157143Y-44835771D02*
X75395238Y-44835771D01*
X75395238Y-44835771D02*
X75490476Y-44883390D01*
X75490476Y-44883390D02*
X75538095Y-44931009D01*
X75538095Y-44931009D02*
X75585714Y-45026247D01*
X75585714Y-45026247D02*
X75585714Y-45264342D01*
X75585714Y-45264342D02*
X75538095Y-45359580D01*
X75538095Y-45359580D02*
X75490476Y-45407200D01*
X75490476Y-45407200D02*
X75395238Y-45454819D01*
X75395238Y-45454819D02*
X75157143Y-45454819D01*
X75157143Y-45454819D02*
X75061905Y-45407200D01*
X75061905Y-45407200D02*
X75014286Y-45359580D01*
X77614819Y-79596904D02*
X78424342Y-79596904D01*
X78424342Y-79596904D02*
X78519580Y-79549285D01*
X78519580Y-79549285D02*
X78567200Y-79501666D01*
X78567200Y-79501666D02*
X78614819Y-79406428D01*
X78614819Y-79406428D02*
X78614819Y-79215952D01*
X78614819Y-79215952D02*
X78567200Y-79120714D01*
X78567200Y-79120714D02*
X78519580Y-79073095D01*
X78519580Y-79073095D02*
X78424342Y-79025476D01*
X78424342Y-79025476D02*
X77614819Y-79025476D01*
X77948152Y-78120714D02*
X78614819Y-78120714D01*
X77567200Y-78358809D02*
X78281485Y-78596904D01*
X78281485Y-78596904D02*
X78281485Y-77977857D01*
X79659580Y-62391792D02*
X79707200Y-62439411D01*
X79707200Y-62439411D02*
X79754819Y-62582268D01*
X79754819Y-62582268D02*
X79754819Y-62677506D01*
X79754819Y-62677506D02*
X79707200Y-62820363D01*
X79707200Y-62820363D02*
X79611961Y-62915601D01*
X79611961Y-62915601D02*
X79516723Y-62963220D01*
X79516723Y-62963220D02*
X79326247Y-63010839D01*
X79326247Y-63010839D02*
X79183390Y-63010839D01*
X79183390Y-63010839D02*
X78992914Y-62963220D01*
X78992914Y-62963220D02*
X78897676Y-62915601D01*
X78897676Y-62915601D02*
X78802438Y-62820363D01*
X78802438Y-62820363D02*
X78754819Y-62677506D01*
X78754819Y-62677506D02*
X78754819Y-62582268D01*
X78754819Y-62582268D02*
X78802438Y-62439411D01*
X78802438Y-62439411D02*
X78850057Y-62391792D01*
X79088152Y-61534649D02*
X79754819Y-61534649D01*
X78707200Y-61772744D02*
X79421485Y-62010839D01*
X79421485Y-62010839D02*
X79421485Y-61391792D01*
X81008458Y-73454819D02*
X80675125Y-72978628D01*
X80437030Y-73454819D02*
X80437030Y-72454819D01*
X80437030Y-72454819D02*
X80817982Y-72454819D01*
X80817982Y-72454819D02*
X80913220Y-72502438D01*
X80913220Y-72502438D02*
X80960839Y-72550057D01*
X80960839Y-72550057D02*
X81008458Y-72645295D01*
X81008458Y-72645295D02*
X81008458Y-72788152D01*
X81008458Y-72788152D02*
X80960839Y-72883390D01*
X80960839Y-72883390D02*
X80913220Y-72931009D01*
X80913220Y-72931009D02*
X80817982Y-72978628D01*
X80817982Y-72978628D02*
X80437030Y-72978628D01*
X81960839Y-73454819D02*
X81389411Y-73454819D01*
X81675125Y-73454819D02*
X81675125Y-72454819D01*
X81675125Y-72454819D02*
X81579887Y-72597676D01*
X81579887Y-72597676D02*
X81484649Y-72692914D01*
X81484649Y-72692914D02*
X81389411Y-72740533D01*
D12*
%TO.C,R6*%
X81522500Y-62837742D02*
X81522500Y-63312258D01*
X80477500Y-62837742D02*
X80477500Y-63312258D01*
%TO.C,C8*%
X86490000Y-52140580D02*
X86490000Y-51859420D01*
X87510000Y-52140580D02*
X87510000Y-51859420D01*
%TO.C,J2*%
X56507500Y-45795000D02*
X56507500Y-48155000D01*
X56507500Y-48755000D02*
X56507500Y-56195000D01*
X57127500Y-45795000D02*
X57127500Y-56195000D01*
X58627500Y-45795000D02*
X58627500Y-56195000D01*
X63527500Y-45795000D02*
X63527500Y-56195000D01*
X66547500Y-45795000D02*
X56507500Y-45795000D01*
X66547500Y-45795000D02*
X66547500Y-56195000D01*
X66547500Y-56195000D02*
X56507500Y-56195000D01*
X56507500Y-48455000D02*
X55897500Y-48895000D01*
X55897500Y-48015000D01*
X56507500Y-48455000D01*
G36*
X56507500Y-48455000D02*
G01*
X55897500Y-48895000D01*
X55897500Y-48015000D01*
X56507500Y-48455000D01*
G37*
%TO.C,C3*%
X83820579Y-61805000D02*
X83539419Y-61805000D01*
X83820579Y-62825000D02*
X83539419Y-62825000D01*
%TO.C,U3*%
X72462500Y-62935000D02*
X72462500Y-60985000D01*
X72462500Y-62935000D02*
X72462500Y-64885000D01*
X77582500Y-62935000D02*
X77582500Y-60985000D01*
X77582500Y-62935000D02*
X77582500Y-64885000D01*
X72557500Y-65635000D02*
X72227500Y-65875000D01*
X72227500Y-65395000D01*
X72557500Y-65635000D01*
G36*
X72557500Y-65635000D02*
G01*
X72227500Y-65875000D01*
X72227500Y-65395000D01*
X72557500Y-65635000D01*
G37*
%TO.C,C7*%
X76259420Y-69790000D02*
X76540580Y-69790000D01*
X76259420Y-70810000D02*
X76540580Y-70810000D01*
%TO.C,J5*%
X89010000Y-49080000D02*
X89010000Y-54380000D01*
X89010000Y-50460000D02*
X90010000Y-50460000D01*
X89010000Y-50710000D02*
X90010000Y-50710000D01*
X89010000Y-52750000D02*
X90010000Y-52750000D01*
X89010000Y-54380000D02*
X95030000Y-54380000D01*
X90010000Y-50460000D02*
X90010000Y-53000000D01*
X90010000Y-50460000D02*
X90540000Y-50710000D01*
X90010000Y-53000000D02*
X89010000Y-53000000D01*
X90540000Y-50710000D02*
X90540000Y-52750000D01*
X90540000Y-52750000D02*
X90010000Y-53000000D01*
X94000000Y-48790000D02*
X90000000Y-48790000D01*
X94430000Y-49660000D02*
X94430000Y-51260000D01*
X94430000Y-51260000D02*
X95030000Y-51260000D01*
X94430000Y-52200000D02*
X94430000Y-53800000D01*
X94430000Y-53800000D02*
X95030000Y-53800000D01*
X95030000Y-49080000D02*
X89010000Y-49080000D01*
X95030000Y-49660000D02*
X94430000Y-49660000D01*
X95030000Y-52200000D02*
X94430000Y-52200000D01*
X95030000Y-54380000D02*
X95030000Y-49080000D01*
%TO.C,U2*%
X72557500Y-53635000D02*
X72227500Y-53875000D01*
X72227500Y-53395000D01*
X72557500Y-53635000D01*
G36*
X72557500Y-53635000D02*
G01*
X72227500Y-53875000D01*
X72227500Y-53395000D01*
X72557500Y-53635000D01*
G37*
X77582500Y-50935000D02*
X77582500Y-52885000D01*
X77582500Y-50935000D02*
X77582500Y-48985000D01*
X72462500Y-50935000D02*
X72462500Y-52885000D01*
X72462500Y-50935000D02*
X72462500Y-48985000D01*
%TO.C,C1*%
X83514419Y-70025000D02*
X83795579Y-70025000D01*
X83514419Y-69005000D02*
X83795579Y-69005000D01*
%TO.C,C2*%
X83539419Y-67205000D02*
X83820579Y-67205000D01*
X83539419Y-68225000D02*
X83820579Y-68225000D01*
%TO.C,J1*%
X89890000Y-55940000D02*
X89890000Y-74060000D01*
X89890000Y-74060000D02*
X94610000Y-74060000D01*
X90500000Y-56550000D02*
X90500000Y-73450000D01*
X90500000Y-58900000D02*
X91000000Y-58900000D01*
X90500000Y-59000000D02*
X91000000Y-59000000D01*
X90500000Y-60900000D02*
X91000000Y-60900000D01*
X90500000Y-61000000D02*
X91000000Y-61000000D01*
X90500000Y-62900000D02*
X91000000Y-62900000D01*
X90500000Y-63000000D02*
X91000000Y-63000000D01*
X90500000Y-64900000D02*
X91000000Y-64900000D01*
X90500000Y-65000000D02*
X91000000Y-65000000D01*
X90500000Y-66900000D02*
X91000000Y-66900000D01*
X90500000Y-67000000D02*
X91000000Y-67000000D01*
X90500000Y-68900000D02*
X91000000Y-68900000D01*
X90500000Y-69000000D02*
X91000000Y-69000000D01*
X90500000Y-70900000D02*
X91000000Y-70900000D01*
X90500000Y-71000000D02*
X91000000Y-71000000D01*
X90500000Y-73450000D02*
X94000000Y-73450000D01*
X91000000Y-58900000D02*
X91000000Y-59100000D01*
X91000000Y-59100000D02*
X90500000Y-59100000D01*
X91000000Y-60900000D02*
X91000000Y-61100000D01*
X91000000Y-61100000D02*
X90500000Y-61100000D01*
X91000000Y-62900000D02*
X91000000Y-63100000D01*
X91000000Y-63100000D02*
X90500000Y-63100000D01*
X91000000Y-64900000D02*
X91000000Y-65100000D01*
X91000000Y-65100000D02*
X90500000Y-65100000D01*
X91000000Y-66900000D02*
X91000000Y-67100000D01*
X91000000Y-67100000D02*
X90500000Y-67100000D01*
X91000000Y-68900000D02*
X91000000Y-69100000D01*
X91000000Y-69100000D02*
X90500000Y-69100000D01*
X91000000Y-70900000D02*
X91000000Y-71100000D01*
X91000000Y-71100000D02*
X90500000Y-71100000D01*
X92000000Y-55940000D02*
X92000000Y-56550000D01*
X92000000Y-74060000D02*
X92000000Y-73450000D01*
X93300000Y-55940000D02*
X93300000Y-56550000D01*
X93300000Y-74060000D02*
X93300000Y-73450000D01*
X94000000Y-56550000D02*
X90500000Y-56550000D01*
X94000000Y-58500000D02*
X94000000Y-56550000D01*
X94000000Y-71500000D02*
X94610000Y-71500000D01*
X94000000Y-73450000D02*
X94000000Y-71500000D01*
X94610000Y-55940000D02*
X89890000Y-55940000D01*
X94610000Y-57700000D02*
X94810000Y-57700000D01*
X94610000Y-58500000D02*
X94000000Y-58500000D01*
X94610000Y-74060000D02*
X94610000Y-55940000D01*
X94710000Y-57700000D02*
X94710000Y-57400000D01*
X94810000Y-57400000D02*
X94610000Y-57400000D01*
X94810000Y-57700000D02*
X94810000Y-57400000D01*
X94910000Y-55640000D02*
X93660000Y-55640000D01*
X94910000Y-56890000D02*
X94910000Y-55640000D01*
%TO.C,R4*%
X67217500Y-60757936D02*
X67217500Y-65112064D01*
X70637500Y-60757936D02*
X70637500Y-65112064D01*
%TO.C,C6*%
X76284420Y-57790000D02*
X76565580Y-57790000D01*
X76284420Y-58810000D02*
X76565580Y-58810000D01*
%TO.C,R2*%
X83867257Y-71837500D02*
X83392741Y-71837500D01*
X83867257Y-70792500D02*
X83392741Y-70792500D01*
D10*
%TO.C,U1*%
X83324999Y-63425000D02*
X84075001Y-63425000D01*
X83324999Y-66475002D02*
X84075001Y-66475002D01*
X84575000Y-65225002D02*
X84575000Y-64675000D01*
D12*
%TO.C,J3*%
X56507500Y-57795000D02*
X56507500Y-60155000D01*
X56507500Y-60755000D02*
X56507500Y-68195000D01*
X57127500Y-57795000D02*
X57127500Y-68195000D01*
X58627500Y-57795000D02*
X58627500Y-68195000D01*
X63527500Y-57795000D02*
X63527500Y-68195000D01*
X66547500Y-57795000D02*
X56507500Y-57795000D01*
X66547500Y-57795000D02*
X66547500Y-68195000D01*
X66547500Y-68195000D02*
X56507500Y-68195000D01*
X56507500Y-60455000D02*
X55897500Y-60895000D01*
X55897500Y-60015000D01*
X56507500Y-60455000D01*
G36*
X56507500Y-60455000D02*
G01*
X55897500Y-60895000D01*
X55897500Y-60015000D01*
X56507500Y-60455000D01*
G37*
%TO.C,R3*%
X67217500Y-48757936D02*
X67217500Y-53112064D01*
X70637500Y-48757936D02*
X70637500Y-53112064D01*
%TO.C,R5*%
X67217500Y-72757936D02*
X67217500Y-77112064D01*
X70637500Y-72757936D02*
X70637500Y-77112064D01*
%TO.C,J4*%
X56507500Y-69795000D02*
X56507500Y-72155000D01*
X56507500Y-72755000D02*
X56507500Y-80195000D01*
X57127500Y-69795000D02*
X57127500Y-80195000D01*
X58627500Y-69795000D02*
X58627500Y-80195000D01*
X63527500Y-69795000D02*
X63527500Y-80195000D01*
X66547500Y-69795000D02*
X56507500Y-69795000D01*
X66547500Y-69795000D02*
X66547500Y-80195000D01*
X66547500Y-80195000D02*
X56507500Y-80195000D01*
X56507500Y-72455000D02*
X55897500Y-72895000D01*
X55897500Y-72015000D01*
X56507500Y-72455000D01*
G36*
X56507500Y-72455000D02*
G01*
X55897500Y-72895000D01*
X55897500Y-72015000D01*
X56507500Y-72455000D01*
G37*
%TO.C,C5*%
X74963080Y-45825000D02*
X74681920Y-45825000D01*
X74963080Y-46845000D02*
X74681920Y-46845000D01*
%TO.C,U4*%
X72462500Y-74935000D02*
X72462500Y-72985000D01*
X72462500Y-74935000D02*
X72462500Y-76885000D01*
X77582500Y-74935000D02*
X77582500Y-72985000D01*
X77582500Y-74935000D02*
X77582500Y-76885000D01*
X72557500Y-77635000D02*
X72227500Y-77875000D01*
X72227500Y-77395000D01*
X72557500Y-77635000D01*
G36*
X72557500Y-77635000D02*
G01*
X72227500Y-77875000D01*
X72227500Y-77395000D01*
X72557500Y-77635000D01*
G37*
%TO.C,C4*%
X79810000Y-64634420D02*
X79810000Y-64915580D01*
X78790000Y-64634420D02*
X78790000Y-64915580D01*
%TO.C,R1*%
X83392741Y-72592500D02*
X83867257Y-72592500D01*
X83392741Y-73637500D02*
X83867257Y-73637500D01*
%TD*%
M02*
