M48
; DRILL file {KiCad 9.0.2} date 2025-07-21T15:30:32-0400
; FORMAT={-:-/ absolute / inch / decimal}
; #@! TF.CreationDate,2025-07-21T15:30:32-04:00
; #@! TF.GenerationSoftware,Kicad,Pcbnew,9.0.2
; #@! TF.FileFunction,MixedPlating,1,2
FMAT,2
INCH
; #@! TA.AperFunction,Plated,PTH,ViaDrill
T1C0.0118
; #@! TA.AperFunction,Plated,PTH,ComponentDrill
T2C0.0295
; #@! TA.AperFunction,Plated,PTH,ComponentDrill
T3C0.0469
; #@! TA.AperFunction,Plated,PTH,ComponentDrill
T4C0.0512
; #@! TA.AperFunction,NonPlated,NPTH,ComponentDrill
T5C0.0866
%
G90
G05
T1
X2.2441Y-1.815
X2.2441Y-1.8543
X2.2441Y-1.8937
X2.2441Y-1.9331
X2.2441Y-2.0728
X2.2441Y-2.1122
X2.2441Y-2.1516
X2.2441Y-2.1909
X2.2441Y-2.2913
X2.2441Y-2.3307
X2.2441Y-2.3701
X2.2441Y-2.4094
X2.2441Y-2.5512
X2.2441Y-2.5906
X2.2441Y-2.6299
X2.2441Y-2.6693
X2.2441Y-2.7638
X2.2441Y-2.8031
X2.2441Y-2.8425
X2.2441Y-2.8819
X2.2441Y-3.0236
X2.2441Y-3.063
X2.2441Y-3.1024
X2.2441Y-3.1417
X2.2835Y-1.815
X2.2835Y-1.8543
X2.2835Y-1.8937
X2.2835Y-1.9331
X2.2835Y-2.0728
X2.2835Y-2.1122
X2.2835Y-2.1516
X2.2835Y-2.1909
X2.2835Y-2.2913
X2.2835Y-2.3307
X2.2835Y-2.3701
X2.2835Y-2.4094
X2.2835Y-2.5512
X2.2835Y-2.5906
X2.2835Y-2.6299
X2.2835Y-2.6693
X2.2835Y-2.7638
X2.2835Y-2.8031
X2.2835Y-2.8425
X2.2835Y-2.8819
X2.2835Y-3.0236
X2.2835Y-3.063
X2.2835Y-3.1024
X2.2835Y-3.1417
X2.3228Y-1.815
X2.3228Y-1.8543
X2.3228Y-1.8937
X2.3228Y-1.9331
X2.3228Y-2.0728
X2.3228Y-2.1122
X2.3228Y-2.1516
X2.3228Y-2.1909
X2.3228Y-2.2913
X2.3228Y-2.3307
X2.3228Y-2.3701
X2.3228Y-2.4094
X2.3228Y-2.5512
X2.3228Y-2.5906
X2.3228Y-2.6299
X2.3228Y-2.6693
X2.3228Y-2.7638
X2.3228Y-2.8031
X2.3228Y-2.8425
X2.3228Y-2.8819
X2.3228Y-3.0236
X2.3228Y-3.063
X2.3228Y-3.1024
X2.3228Y-3.1417
X2.3622Y-1.815
X2.3622Y-2.1909
X2.3622Y-2.2913
X2.3622Y-2.6693
X2.3622Y-2.7638
X2.3622Y-3.1417
X2.4016Y-1.815
X2.4016Y-2.1909
X2.4016Y-2.2913
X2.4016Y-2.6693
X2.4016Y-2.7638
X2.4016Y-3.1417
X2.4409Y-1.815
X2.4409Y-2.1909
X2.4409Y-2.2913
X2.4409Y-2.6693
X2.4409Y-2.7638
X2.4409Y-3.1417
X2.4803Y-1.815
X2.4803Y-1.8543
X2.4803Y-1.8937
X2.4803Y-1.9331
X2.4803Y-2.0728
X2.4803Y-2.1122
X2.4803Y-2.1516
X2.4803Y-2.1909
X2.4803Y-2.2913
X2.4803Y-2.3307
X2.4803Y-2.3701
X2.4803Y-2.4094
X2.4803Y-2.5512
X2.4803Y-2.5906
X2.4803Y-2.6299
X2.4803Y-2.6693
X2.4803Y-2.7638
X2.4803Y-2.8031
X2.4803Y-2.8425
X2.4803Y-2.8819
X2.4803Y-3.0236
X2.4803Y-3.063
X2.4803Y-3.1024
X2.4803Y-3.1417
X2.5197Y-1.815
X2.5197Y-1.8543
X2.5197Y-1.8937
X2.5197Y-1.9331
X2.5197Y-2.0728
X2.5197Y-2.1122
X2.5197Y-2.1516
X2.5197Y-2.1909
X2.5197Y-2.2913
X2.5197Y-2.3307
X2.5197Y-2.3701
X2.5197Y-2.4094
X2.5197Y-2.5512
X2.5197Y-2.5906
X2.5197Y-2.6299
X2.5197Y-2.6693
X2.5197Y-2.7638
X2.5197Y-2.8031
X2.5197Y-2.8425
X2.5197Y-2.8819
X2.5197Y-3.0236
X2.5197Y-3.063
X2.5197Y-3.1024
X2.5197Y-3.1417
X2.5591Y-1.815
X2.5591Y-1.8543
X2.5591Y-1.8937
X2.5591Y-2.1122
X2.5591Y-2.1516
X2.5591Y-2.1909
X2.5591Y-2.2913
X2.5591Y-2.3307
X2.5591Y-2.3701
X2.5591Y-2.5906
X2.5591Y-2.6299
X2.5591Y-2.6693
X2.5591Y-2.7638
X2.5591Y-2.8031
X2.5591Y-2.8425
X2.5591Y-3.063
X2.5591Y-3.1024
X2.5591Y-3.1417
X2.5984Y-1.815
X2.5984Y-1.8543
X2.5984Y-1.8937
X2.5984Y-2.1122
X2.5984Y-2.1516
X2.5984Y-2.1909
X2.5984Y-2.2913
X2.5984Y-2.3307
X2.5984Y-2.3701
X2.5984Y-2.5906
X2.5984Y-2.6299
X2.5984Y-2.6693
X2.5984Y-2.7638
X2.5984Y-2.8031
X2.5984Y-2.8425
X2.5984Y-3.063
X2.5984Y-3.1024
X2.5984Y-3.1417
X2.6378Y-1.815
X2.6378Y-2.1909
X2.6378Y-2.2913
X2.6378Y-2.6693
X2.6378Y-2.7638
X2.6378Y-3.1417
X2.6772Y-1.815
X2.6772Y-2.1909
X2.6772Y-2.2913
X2.6772Y-2.6693
X2.6772Y-2.7638
X2.6772Y-3.1417
X2.7165Y-1.815
X2.7165Y-2.1909
X2.7165Y-2.2913
X2.7165Y-2.6693
X2.7165Y-2.7638
X2.7165Y-3.1417
X2.7559Y-1.815
X2.7559Y-2.1909
X2.7559Y-2.2913
X2.7559Y-2.6693
X2.7559Y-2.7638
X2.7559Y-3.1417
X2.8661Y-1.8242
X2.9286Y-2.6455
X2.9286Y-3.1179
X2.9291Y-2.1772
X3.0286Y-2.1782
X3.0286Y-2.647
X3.0286Y-3.1195
X3.0849Y-2.7677
X3.0866Y-2.2953
X3.1791Y-2.5591
X3.2286Y-2.453
X3.3667Y-2.8077
X3.3858Y-2.252
X3.3858Y-2.4409
T2
X3.6535Y-2.2835
X3.6535Y-2.3622
X3.6535Y-2.4409
X3.6535Y-2.5197
X3.6535Y-2.5984
X3.6535Y-2.6772
X3.6535Y-2.7559
X3.6535Y-2.8346
T3
X3.622Y-1.9866
X3.622Y-2.0866
T4
X2.4105Y-1.9077
X2.4105Y-2.1077
X2.4105Y-2.3801
X2.4105Y-2.5801
X2.4105Y-2.8526
X2.4105Y-3.0526
T5
X2.3543Y-1.6614
X2.3543Y-3.2992
X3.6063Y-1.6614
X3.6063Y-3.2992
M30
