%TF.GenerationSoftware,KiCad,Pcbnew,9.0.2*%
%TF.CreationDate,2025-07-21T15:30:35-04:00*%
%TF.ProjectId,Three Phase Current Sensor,54687265-6520-4506-9861-736520437572,rev?*%
%TF.SameCoordinates,Original*%
%TF.FileFunction,Copper,L1,Top*%
%TF.FilePolarity,Positive*%
%FSLAX46Y46*%
G04 Gerber Fmt 4.6, Leading zero omitted, Abs format (unit mm)*
G04 Created by KiCad (PCBNEW 9.0.2) date 2025-07-21 15:30:35*
%MOMM*%
%LPD*%
G01*
G04 APERTURE LIST*
G04 Aperture macros list*
%AMRoundRect*
0 Rectangle with rounded corners*
0 $1 Rounding radius*
0 $2 $3 $4 $5 $6 $7 $8 $9 X,Y pos of 4 corners*
0 Add a 4 corners polygon primitive as box body*
4,1,4,$2,$3,$4,$5,$6,$7,$8,$9,$2,$3,0*
0 Add four circle primitives for the rounded corners*
1,1,$1+$1,$2,$3*
1,1,$1+$1,$4,$5*
1,1,$1+$1,$6,$7*
1,1,$1+$1,$8,$9*
0 Add four rect primitives between the rounded corners*
20,1,$1+$1,$2,$3,$4,$5,0*
20,1,$1+$1,$4,$5,$6,$7,0*
20,1,$1+$1,$6,$7,$8,$9,0*
20,1,$1+$1,$8,$9,$2,$3,0*%
G04 Aperture macros list end*
%TA.AperFunction,SMDPad,CuDef*%
%ADD10RoundRect,0.200000X-0.275000X0.200000X-0.275000X-0.200000X0.275000X-0.200000X0.275000X0.200000X0*%
%TD*%
%TA.AperFunction,SMDPad,CuDef*%
%ADD11RoundRect,0.225000X0.250000X-0.225000X0.250000X0.225000X-0.250000X0.225000X-0.250000X-0.225000X0*%
%TD*%
%TA.AperFunction,ComponentPad*%
%ADD12RoundRect,0.250000X-1.050000X1.050000X-1.050000X-1.050000X1.050000X-1.050000X1.050000X1.050000X0*%
%TD*%
%TA.AperFunction,ComponentPad*%
%ADD13C,2.600000*%
%TD*%
%TA.AperFunction,SMDPad,CuDef*%
%ADD14RoundRect,0.225000X0.225000X0.250000X-0.225000X0.250000X-0.225000X-0.250000X0.225000X-0.250000X0*%
%TD*%
%TA.AperFunction,SMDPad,CuDef*%
%ADD15RoundRect,0.150000X0.150000X-0.825000X0.150000X0.825000X-0.150000X0.825000X-0.150000X-0.825000X0*%
%TD*%
%TA.AperFunction,SMDPad,CuDef*%
%ADD16RoundRect,0.225000X-0.225000X-0.250000X0.225000X-0.250000X0.225000X0.250000X-0.225000X0.250000X0*%
%TD*%
%TA.AperFunction,ComponentPad*%
%ADD17RoundRect,0.250000X-0.845000X0.620000X-0.845000X-0.620000X0.845000X-0.620000X0.845000X0.620000X0*%
%TD*%
%TA.AperFunction,ComponentPad*%
%ADD18O,2.190000X1.740000*%
%TD*%
%TA.AperFunction,ComponentPad*%
%ADD19RoundRect,0.250000X-0.625000X0.350000X-0.625000X-0.350000X0.625000X-0.350000X0.625000X0.350000X0*%
%TD*%
%TA.AperFunction,ComponentPad*%
%ADD20O,1.750000X1.200000*%
%TD*%
%TA.AperFunction,SMDPad,CuDef*%
%ADD21RoundRect,0.250000X-1.425000X0.362500X-1.425000X-0.362500X1.425000X-0.362500X1.425000X0.362500X0*%
%TD*%
%TA.AperFunction,SMDPad,CuDef*%
%ADD22RoundRect,0.200000X0.200000X0.275000X-0.200000X0.275000X-0.200000X-0.275000X0.200000X-0.275000X0*%
%TD*%
%TA.AperFunction,SMDPad,CuDef*%
%ADD23R,1.100000X0.599999*%
%TD*%
%TA.AperFunction,SMDPad,CuDef*%
%ADD24RoundRect,0.225000X-0.250000X0.225000X-0.250000X-0.225000X0.250000X-0.225000X0.250000X0.225000X0*%
%TD*%
%TA.AperFunction,SMDPad,CuDef*%
%ADD25RoundRect,0.200000X-0.200000X-0.275000X0.200000X-0.275000X0.200000X0.275000X-0.200000X0.275000X0*%
%TD*%
%TA.AperFunction,ViaPad*%
%ADD26C,0.600000*%
%TD*%
%TA.AperFunction,Conductor*%
%ADD27C,0.500000*%
%TD*%
%TA.AperFunction,Conductor*%
%ADD28C,0.750000*%
%TD*%
%TA.AperFunction,Conductor*%
%ADD29C,0.250000*%
%TD*%
%TA.AperFunction,Conductor*%
%ADD30C,0.381000*%
%TD*%
G04 APERTURE END LIST*
D10*
%TO.P,R6,1*%
%TO.N,REF_OUT*%
X81000000Y-62250000D03*
%TO.P,R6,2*%
%TO.N,Net-(U1-IN-)*%
X81000000Y-63900000D03*
%TD*%
D11*
%TO.P,C8,1*%
%TO.N,+3V3*%
X87000000Y-52775000D03*
%TO.P,C8,2*%
%TO.N,GND*%
X87000000Y-51225000D03*
%TD*%
D12*
%TO.P,J2,1,Pin_1*%
%TO.N,/Sensor U/IN_+*%
X61227500Y-48455000D03*
D13*
%TO.P,J2,2,Pin_2*%
%TO.N,/Sensor U/IN_-*%
X61227500Y-53535000D03*
%TD*%
D14*
%TO.P,C3,1*%
%TO.N,+3V3*%
X84454999Y-62315000D03*
%TO.P,C3,2*%
%TO.N,GND*%
X82904999Y-62315000D03*
%TD*%
D15*
%TO.P,U3,1,-*%
%TO.N,/Sensor V/IN_-*%
X73117500Y-65410000D03*
%TO.P,U3,2,GND*%
%TO.N,GND*%
X74387500Y-65410000D03*
%TO.P,U3,3,REF2*%
%TO.N,REF_OUT*%
X75657500Y-65410000D03*
%TO.P,U3,4,GND*%
%TO.N,GND*%
X76927500Y-65410000D03*
%TO.P,U3,5*%
%TO.N,OUT_V_+*%
X76927500Y-60460000D03*
%TO.P,U3,6,V+*%
%TO.N,+3V3*%
X75657500Y-60460000D03*
%TO.P,U3,7,REF1*%
%TO.N,REF_OUT*%
X74387500Y-60460000D03*
%TO.P,U3,8,+*%
%TO.N,/Sensor V/IN_+*%
X73117500Y-60460000D03*
%TD*%
D16*
%TO.P,C7,1*%
%TO.N,+3V3*%
X75625000Y-70300000D03*
%TO.P,C7,2*%
%TO.N,GND*%
X77175000Y-70300000D03*
%TD*%
D17*
%TO.P,J5,1,Pin_1*%
%TO.N,GND*%
X92000000Y-50460000D03*
D18*
%TO.P,J5,2,Pin_2*%
%TO.N,+3V3*%
X92000000Y-53000000D03*
%TD*%
D15*
%TO.P,U2,8,+*%
%TO.N,/Sensor U/IN_+*%
X73117500Y-48460000D03*
%TO.P,U2,7,REF1*%
%TO.N,REF_OUT*%
X74387500Y-48460000D03*
%TO.P,U2,6,V+*%
%TO.N,+3V3*%
X75657500Y-48460000D03*
%TO.P,U2,5*%
%TO.N,OUT_U_+*%
X76927500Y-48460000D03*
%TO.P,U2,4,GND*%
%TO.N,GND*%
X76927500Y-53410000D03*
%TO.P,U2,3,REF2*%
%TO.N,REF_OUT*%
X75657500Y-53410000D03*
%TO.P,U2,2,GND*%
%TO.N,GND*%
X74387500Y-53410000D03*
%TO.P,U2,1,-*%
%TO.N,/Sensor U/IN_-*%
X73117500Y-53410000D03*
%TD*%
D16*
%TO.P,C1,2*%
%TO.N,GND*%
X84429999Y-69515000D03*
%TO.P,C1,1*%
%TO.N,Net-(U1-IN+)*%
X82879999Y-69515000D03*
%TD*%
%TO.P,C2,1*%
%TO.N,Net-(U1-IN+)*%
X82904999Y-67715000D03*
%TO.P,C2,2*%
%TO.N,GND*%
X84454999Y-67715000D03*
%TD*%
D19*
%TO.P,J1,1,Pin_1*%
%TO.N,GND*%
X92800000Y-58000000D03*
D20*
%TO.P,J1,2,Pin_2*%
%TO.N,OUT_U_+*%
X92800000Y-60000000D03*
%TO.P,J1,3,Pin_3*%
%TO.N,REF_OUT*%
X92800000Y-62000000D03*
%TO.P,J1,4,Pin_4*%
%TO.N,OUT_V_+*%
X92800000Y-64000000D03*
%TO.P,J1,5,Pin_5*%
%TO.N,REF_OUT*%
X92800000Y-66000000D03*
%TO.P,J1,6,Pin_6*%
%TO.N,OUT_W_+*%
X92800000Y-68000000D03*
%TO.P,J1,7,Pin_7*%
%TO.N,REF_OUT*%
X92800000Y-70000000D03*
%TO.P,J1,8,Pin_8*%
%TO.N,GND*%
X92800000Y-72000000D03*
%TD*%
D21*
%TO.P,R4,1*%
%TO.N,/Sensor V/IN_+*%
X68927500Y-59972500D03*
%TO.P,R4,2*%
%TO.N,/Sensor V/IN_-*%
X68927500Y-65897500D03*
%TD*%
D16*
%TO.P,C6,1*%
%TO.N,+3V3*%
X75650000Y-58300000D03*
%TO.P,C6,2*%
%TO.N,GND*%
X77200000Y-58300000D03*
%TD*%
D22*
%TO.P,R2,2*%
%TO.N,Net-(U1-IN+)*%
X82804999Y-71315000D03*
%TO.P,R2,1*%
%TO.N,GND*%
X84454999Y-71315000D03*
%TD*%
D23*
%TO.P,U1,1,OUT*%
%TO.N,Net-(U1-IN-)*%
X82400000Y-64000000D03*
%TO.P,U1,2,V-*%
%TO.N,GND*%
X82400000Y-64950001D03*
%TO.P,U1,3,IN+*%
%TO.N,Net-(U1-IN+)*%
X82400000Y-65900002D03*
%TO.P,U1,4,IN-*%
%TO.N,Net-(U1-IN-)*%
X85000000Y-65900002D03*
%TO.P,U1,5,V+*%
%TO.N,+3V3*%
X85000000Y-64000000D03*
%TD*%
D12*
%TO.P,J3,1,Pin_1*%
%TO.N,/Sensor V/IN_+*%
X61227500Y-60455000D03*
D13*
%TO.P,J3,2,Pin_2*%
%TO.N,/Sensor V/IN_-*%
X61227500Y-65535000D03*
%TD*%
D21*
%TO.P,R3,1*%
%TO.N,/Sensor U/IN_+*%
X68927500Y-47972500D03*
%TO.P,R3,2*%
%TO.N,/Sensor U/IN_-*%
X68927500Y-53897500D03*
%TD*%
%TO.P,R5,1*%
%TO.N,/Sensor W/IN_+*%
X68927500Y-71972500D03*
%TO.P,R5,2*%
%TO.N,/Sensor W/IN_-*%
X68927500Y-77897500D03*
%TD*%
D12*
%TO.P,J4,1,Pin_1*%
%TO.N,/Sensor W/IN_+*%
X61227500Y-72455000D03*
D13*
%TO.P,J4,2,Pin_2*%
%TO.N,/Sensor W/IN_-*%
X61227500Y-77535000D03*
%TD*%
D14*
%TO.P,C5,1*%
%TO.N,+3V3*%
X75597500Y-46335000D03*
%TO.P,C5,2*%
%TO.N,GND*%
X74047500Y-46335000D03*
%TD*%
D15*
%TO.P,U4,1,-*%
%TO.N,/Sensor W/IN_-*%
X73117500Y-77410000D03*
%TO.P,U4,2,GND*%
%TO.N,GND*%
X74387500Y-77410000D03*
%TO.P,U4,3,REF2*%
%TO.N,REF_OUT*%
X75657500Y-77410000D03*
%TO.P,U4,4,GND*%
%TO.N,GND*%
X76927500Y-77410000D03*
%TO.P,U4,5*%
%TO.N,OUT_W_+*%
X76927500Y-72460000D03*
%TO.P,U4,6,V+*%
%TO.N,+3V3*%
X75657500Y-72460000D03*
%TO.P,U4,7,REF1*%
%TO.N,REF_OUT*%
X74387500Y-72460000D03*
%TO.P,U4,8,+*%
%TO.N,/Sensor W/IN_+*%
X73117500Y-72460000D03*
%TD*%
D24*
%TO.P,C4,1*%
%TO.N,REF_OUT*%
X79300000Y-64000000D03*
%TO.P,C4,2*%
%TO.N,GND*%
X79300000Y-65550000D03*
%TD*%
D25*
%TO.P,R1,1*%
%TO.N,Net-(U1-IN+)*%
X82804999Y-73115000D03*
%TO.P,R1,2*%
%TO.N,+3V3*%
X84454999Y-73115000D03*
%TD*%
D26*
%TO.N,GND*%
X82005331Y-62305331D03*
X76927500Y-55327500D03*
X85515000Y-71315000D03*
X78400000Y-58300000D03*
X78357500Y-70300000D03*
X72800000Y-46335000D03*
X76927500Y-79235000D03*
X74400000Y-55300000D03*
X74387500Y-67195000D03*
X74387500Y-79195000D03*
X76927500Y-67235000D03*
X80750000Y-65000000D03*
%TO.N,+3V3*%
X86000000Y-62000000D03*
X86000000Y-57200000D03*
%TO.N,/Sensor U/IN_-*%
X60000000Y-55650000D03*
X57000000Y-54650000D03*
X65000000Y-53650000D03*
X64000000Y-53650000D03*
X59000000Y-55650000D03*
X59000000Y-54650000D03*
X58000000Y-53650000D03*
X66000000Y-54650000D03*
X64000000Y-52650000D03*
X58000000Y-54650000D03*
X63000000Y-54650000D03*
X66000000Y-55650000D03*
X63000000Y-52650000D03*
X69000000Y-55650000D03*
X57000000Y-52650000D03*
X63000000Y-55650000D03*
X57000000Y-53650000D03*
X63000000Y-53650000D03*
X68000000Y-55650000D03*
X65000000Y-55650000D03*
X64000000Y-55650000D03*
X65000000Y-54650000D03*
X59000000Y-52650000D03*
X59000000Y-53650000D03*
X66000000Y-53650000D03*
X58000000Y-52650000D03*
X61000000Y-55650000D03*
X57000000Y-55650000D03*
X62000000Y-55650000D03*
X58000000Y-55650000D03*
X64000000Y-54650000D03*
X70000000Y-55650000D03*
X67000000Y-55650000D03*
%TO.N,/Sensor U/IN_+*%
X66000000Y-47100000D03*
X66000000Y-48100000D03*
X57000000Y-48100000D03*
X59000000Y-47100000D03*
X63000000Y-46100000D03*
X59000000Y-48100000D03*
X65000000Y-46100000D03*
X59000000Y-46100000D03*
X59000000Y-49100000D03*
X57000000Y-46100000D03*
X64000000Y-46100000D03*
X62000000Y-46100000D03*
X60000000Y-46100000D03*
X66000000Y-46100000D03*
X58000000Y-47100000D03*
X65000000Y-48100000D03*
X58000000Y-49100000D03*
X70000000Y-46100000D03*
X65000000Y-47100000D03*
X57000000Y-47100000D03*
X61000000Y-46100000D03*
X69000000Y-46100000D03*
X68000000Y-46100000D03*
X67000000Y-46100000D03*
X64000000Y-49100000D03*
X64000000Y-47100000D03*
X64000000Y-48100000D03*
X63000000Y-47100000D03*
X57000000Y-49100000D03*
X63000000Y-48100000D03*
X63000000Y-49100000D03*
X58000000Y-46100000D03*
X58000000Y-48100000D03*
%TO.N,/Sensor V/IN_-*%
X58000000Y-67800000D03*
X63000000Y-64800000D03*
X64000000Y-65800000D03*
X61000000Y-67800000D03*
X60000000Y-67800000D03*
X62000000Y-67800000D03*
X58000000Y-64800000D03*
X57000000Y-66800000D03*
X66000000Y-66800000D03*
X64000000Y-64800000D03*
X63000000Y-67800000D03*
X58000000Y-65800000D03*
X59000000Y-64800000D03*
X65000000Y-65800000D03*
X64000000Y-66800000D03*
X70000000Y-67800000D03*
X57000000Y-67800000D03*
X68000000Y-67800000D03*
X66000000Y-67800000D03*
X67000000Y-67800000D03*
X63000000Y-65800000D03*
X65000000Y-66800000D03*
X59000000Y-67800000D03*
X69000000Y-67800000D03*
X66000000Y-65800000D03*
X59000000Y-66800000D03*
X63000000Y-66800000D03*
X64000000Y-67800000D03*
X59000000Y-65800000D03*
X57000000Y-65800000D03*
X57000000Y-64800000D03*
X65000000Y-67800000D03*
X58000000Y-66800000D03*
%TO.N,/Sensor V/IN_+*%
X59000000Y-60200000D03*
X69000000Y-58200000D03*
X64000000Y-58200000D03*
X64000000Y-61200000D03*
X65000000Y-58200000D03*
X62000000Y-58200000D03*
X66000000Y-59200000D03*
X63000000Y-60200000D03*
X59000000Y-59200000D03*
X64000000Y-60200000D03*
X58000000Y-61200000D03*
X59000000Y-58200000D03*
X57000000Y-58200000D03*
X63000000Y-59200000D03*
X57000000Y-61200000D03*
X66000000Y-60200000D03*
X57000000Y-60200000D03*
X67000000Y-58200000D03*
X63000000Y-61200000D03*
X59000000Y-61200000D03*
X58000000Y-59200000D03*
X70000000Y-58200000D03*
X58000000Y-58200000D03*
X68000000Y-58200000D03*
X63000000Y-58200000D03*
X61000000Y-58200000D03*
X60000000Y-58200000D03*
X65000000Y-60200000D03*
X57000000Y-59200000D03*
X66000000Y-58200000D03*
X58000000Y-60200000D03*
X65000000Y-59200000D03*
X64000000Y-59200000D03*
%TO.N,/Sensor W/IN_-*%
X68000000Y-79800000D03*
X66000000Y-77800000D03*
X58000000Y-78800000D03*
X57000000Y-77800000D03*
X65000000Y-78800000D03*
X69000000Y-79800000D03*
X59000000Y-76800000D03*
X58000000Y-76800000D03*
X64000000Y-78800000D03*
X59000000Y-79800000D03*
X70000000Y-79800000D03*
X64000000Y-79800000D03*
X57000000Y-78800000D03*
X65000000Y-77800000D03*
X63000000Y-76800000D03*
X57000000Y-79800000D03*
X63000000Y-79800000D03*
X62000000Y-79800000D03*
X59000000Y-78800000D03*
X66000000Y-78800000D03*
X66000000Y-79800000D03*
X60000000Y-79800000D03*
X59000000Y-77800000D03*
X63000000Y-78800000D03*
X58000000Y-79800000D03*
X57000000Y-76800000D03*
X67000000Y-79800000D03*
X58000000Y-77800000D03*
X63000000Y-77800000D03*
X65000000Y-79800000D03*
X64000000Y-77800000D03*
X61000000Y-79800000D03*
X64000000Y-76800000D03*
%TO.N,/Sensor W/IN_+*%
X63000000Y-70200000D03*
X64000000Y-71200000D03*
X67000000Y-70200000D03*
X63000000Y-73200000D03*
X63000000Y-71200000D03*
X61000000Y-70200000D03*
X70000000Y-70200000D03*
X60000000Y-70200000D03*
X64000000Y-72200000D03*
X57000000Y-73200000D03*
X59000000Y-72200000D03*
X59000000Y-70200000D03*
X66000000Y-72200000D03*
X64000000Y-73200000D03*
X57000000Y-72200000D03*
X64000000Y-70200000D03*
X66000000Y-71200000D03*
X63000000Y-72200000D03*
X58000000Y-70200000D03*
X62000000Y-70200000D03*
X69000000Y-70200000D03*
X59000000Y-73200000D03*
X58000000Y-71200000D03*
X66000000Y-70200000D03*
X59000000Y-71200000D03*
X65000000Y-72200000D03*
X65000000Y-70200000D03*
X68000000Y-70200000D03*
X57000000Y-70200000D03*
X57000000Y-71200000D03*
X58000000Y-72200000D03*
X58000000Y-73200000D03*
X65000000Y-71200000D03*
%TD*%
D27*
%TO.N,OUT_V_+*%
X92000000Y-64000000D02*
X92800000Y-64000000D01*
X87600000Y-59600000D02*
X92000000Y-64000000D01*
X77787500Y-59600000D02*
X87600000Y-59600000D01*
X76927500Y-60460000D02*
X77787500Y-59600000D01*
D28*
%TO.N,+3V3*%
X86075000Y-62075000D02*
X86000000Y-62075000D01*
X87000000Y-63000000D02*
X86075000Y-62075000D01*
X87000000Y-71200000D02*
X87000000Y-63000000D01*
D29*
%TO.N,/Sensor U/IN_-*%
X72507500Y-52800000D02*
X73117500Y-53410000D01*
X70025000Y-52800000D02*
X72507500Y-52800000D01*
X68927500Y-53897500D02*
X70025000Y-52800000D01*
%TO.N,/Sensor U/IN_+*%
X72577500Y-49000000D02*
X73117500Y-48460000D01*
X68927500Y-47972500D02*
X69955000Y-49000000D01*
X69955000Y-49000000D02*
X72577500Y-49000000D01*
D27*
%TO.N,GND*%
X80200000Y-65550000D02*
X80750000Y-65000000D01*
X79300000Y-65550000D02*
X80200000Y-65550000D01*
%TO.N,REF_OUT*%
X79284000Y-63984000D02*
X76108501Y-63984000D01*
X76108501Y-63984000D02*
X75657500Y-64435001D01*
X79300000Y-64000000D02*
X79284000Y-63984000D01*
X75657500Y-64435001D02*
X75657500Y-65410000D01*
X81000000Y-62300000D02*
X79300000Y-64000000D01*
X81000000Y-62250000D02*
X81000000Y-62300000D01*
%TO.N,GND*%
X82015000Y-62315000D02*
X82005331Y-62305331D01*
X82904999Y-62315000D02*
X82015000Y-62315000D01*
%TO.N,Net-(U1-IN-)*%
X83099998Y-64000000D02*
X82400000Y-64000000D01*
X85000000Y-65900002D02*
X83099998Y-64000000D01*
X81000000Y-63900000D02*
X82300000Y-63900000D01*
X82300000Y-63900000D02*
X82400000Y-64000000D01*
%TO.N,GND*%
X82879999Y-62340000D02*
X82904999Y-62315000D01*
X76927500Y-55327500D02*
X76927500Y-53410000D01*
X84454999Y-71315000D02*
X84454999Y-69540000D01*
D28*
X92000000Y-50460000D02*
X87765000Y-50460000D01*
D27*
X84454999Y-71315000D02*
X85515000Y-71315000D01*
X77200000Y-58300000D02*
X78400000Y-58300000D01*
X80799999Y-64950001D02*
X80750000Y-65000000D01*
X84454999Y-69540000D02*
X84429999Y-69515000D01*
X82400000Y-64950001D02*
X80799999Y-64950001D01*
X74387500Y-79195000D02*
X74387500Y-77410000D01*
X76927500Y-67235000D02*
X76927500Y-65410000D01*
X74387500Y-67195000D02*
X74387500Y-65410000D01*
D28*
X87765000Y-50460000D02*
X87000000Y-51225000D01*
D27*
X74047500Y-46335000D02*
X72800000Y-46335000D01*
X74387500Y-53410000D02*
X74387500Y-55287500D01*
D30*
X84454999Y-69490000D02*
X84429999Y-69515000D01*
D27*
X76927500Y-79235000D02*
X76927500Y-77410000D01*
X74387500Y-55287500D02*
X74400000Y-55300000D01*
X84429999Y-69515000D02*
X84429999Y-67740000D01*
X84429999Y-67740000D02*
X84454999Y-67715000D01*
X78357500Y-70300000D02*
X77175000Y-70300000D01*
%TO.N,+3V3*%
X80896600Y-73496600D02*
X80896600Y-71686812D01*
X75625000Y-70300000D02*
X75625000Y-72427500D01*
X86975000Y-52775000D02*
X80535000Y-46335000D01*
X75597500Y-72400000D02*
X75657500Y-72460000D01*
X86000000Y-57200000D02*
X76750000Y-57200000D01*
X75597500Y-46335000D02*
X75597500Y-48400000D01*
X87000000Y-53000000D02*
X87225000Y-52775000D01*
X75597500Y-48400000D02*
X75657500Y-48460000D01*
X86000000Y-62000000D02*
X84769999Y-62000000D01*
X78509788Y-69300000D02*
X76625000Y-69300000D01*
X75650000Y-60452500D02*
X75657500Y-60460000D01*
X75597500Y-60400000D02*
X75657500Y-60460000D01*
X84454999Y-73115000D02*
X82969999Y-74600000D01*
X84769999Y-62000000D02*
X84454999Y-62315000D01*
X84454999Y-62315000D02*
X84454999Y-63454999D01*
X80535000Y-46335000D02*
X75597500Y-46335000D01*
X82000000Y-74600000D02*
X80896600Y-73496600D01*
X80896600Y-71686812D02*
X78509788Y-69300000D01*
X76625000Y-69300000D02*
X75625000Y-70300000D01*
X75650000Y-58300000D02*
X75650000Y-60452500D01*
D28*
X87225000Y-53000000D02*
X87000000Y-52775000D01*
D27*
X87000000Y-52775000D02*
X87000000Y-53000000D01*
X76750000Y-57200000D02*
X75650000Y-58300000D01*
D28*
X92000000Y-53000000D02*
X87225000Y-53000000D01*
D27*
X87000000Y-52775000D02*
X86975000Y-52775000D01*
X84454999Y-63454999D02*
X85000000Y-64000000D01*
X82969999Y-74600000D02*
X82000000Y-74600000D01*
X75625000Y-72427500D02*
X75657500Y-72460000D01*
%TO.N,OUT_U_+*%
X76927500Y-48897074D02*
X76927500Y-48460000D01*
X78828140Y-48460000D02*
X90368140Y-60000000D01*
X90368140Y-60000000D02*
X92800000Y-60000000D01*
X76927500Y-48460000D02*
X78828140Y-48460000D01*
%TO.N,OUT_W_+*%
X92800000Y-68100000D02*
X92800000Y-68000000D01*
X84700000Y-76200000D02*
X92800000Y-68100000D01*
X76927500Y-72460000D02*
X80667500Y-76200000D01*
X80667500Y-76200000D02*
X84700000Y-76200000D01*
%TO.N,Net-(U1-IN+)*%
X82804999Y-71315000D02*
X82804999Y-69590000D01*
X82879999Y-69515000D02*
X82879999Y-67740000D01*
X82904999Y-66405001D02*
X82400000Y-65900002D01*
X82879999Y-67740000D02*
X82904999Y-67715000D01*
X82804999Y-73115000D02*
X82804999Y-71315000D01*
X82904999Y-67715000D02*
X82904999Y-66405001D01*
X82804999Y-69590000D02*
X82879999Y-69515000D01*
%TO.N,REF_OUT*%
X74387500Y-60460000D02*
X74387500Y-63580900D01*
X94600000Y-66200000D02*
X94600000Y-63800000D01*
X74387500Y-75580900D02*
X75657500Y-76850900D01*
X75657500Y-55742500D02*
X74387500Y-57012500D01*
X92800000Y-66000000D02*
X94400000Y-66000000D01*
X75657500Y-76850900D02*
X75657500Y-77410000D01*
X74387500Y-75000000D02*
X74387500Y-75580900D01*
X92800000Y-70000000D02*
X94600000Y-68200000D01*
X74387500Y-48460000D02*
X74387500Y-51580900D01*
X92800000Y-66000000D02*
X92700000Y-65900000D01*
X74387500Y-72460000D02*
X74387500Y-75000000D01*
X74387500Y-51580900D02*
X75657500Y-52850900D01*
X94600000Y-63800000D02*
X92800000Y-62000000D01*
X75657500Y-64850900D02*
X75657500Y-65410000D01*
%TO.N,Net-(U1-IN-)*%
X85000002Y-65900000D02*
X85000000Y-65900002D01*
%TO.N,REF_OUT*%
X74387500Y-63580900D02*
X75657500Y-64850900D01*
X75657500Y-53410000D02*
X75657500Y-55742500D01*
X75657500Y-52850900D02*
X75657500Y-53410000D01*
X74387500Y-69012500D02*
X74387500Y-72460000D01*
X75657500Y-65410000D02*
X75657500Y-67742500D01*
X94400000Y-66000000D02*
X94600000Y-66200000D01*
X74387500Y-57012500D02*
X74387500Y-60460000D01*
X75657500Y-67742500D02*
X74387500Y-69012500D01*
X94600000Y-68200000D02*
X94600000Y-66200000D01*
D29*
%TO.N,/Sensor V/IN_+*%
X69955000Y-61000000D02*
X72577500Y-61000000D01*
X68927500Y-59972500D02*
X69955000Y-61000000D01*
X72577500Y-61000000D02*
X73117500Y-60460000D01*
%TO.N,/Sensor V/IN_-*%
X68927500Y-65897500D02*
X70025000Y-64800000D01*
X70025000Y-64800000D02*
X72507500Y-64800000D01*
X72507500Y-64800000D02*
X73117500Y-65410000D01*
%TO.N,/Sensor W/IN_+*%
X69955000Y-73000000D02*
X72577500Y-73000000D01*
X68927500Y-71972500D02*
X69955000Y-73000000D01*
X72577500Y-73000000D02*
X73117500Y-72460000D01*
%TO.N,/Sensor W/IN_-*%
X68927500Y-77897500D02*
X70025000Y-76800000D01*
X70025000Y-76800000D02*
X72507500Y-76800000D01*
X72507500Y-76800000D02*
X73117500Y-77410000D01*
D28*
%TO.N,+3V3*%
X85085000Y-73115000D02*
X87000000Y-71200000D01*
X84454999Y-73115000D02*
X85085000Y-73115000D01*
D27*
%TO.N,REF_OUT*%
X86775000Y-60800000D02*
X91975000Y-66000000D01*
X82450000Y-60800000D02*
X86775000Y-60800000D01*
X91975000Y-66000000D02*
X92800000Y-66000000D01*
X81000000Y-62250000D02*
X82450000Y-60800000D01*
%TD*%
%TA.AperFunction,Conductor*%
%TO.N,/Sensor U/IN_+*%
G36*
X70302411Y-45719685D02*
G01*
X70329174Y-45742900D01*
X70434802Y-45865072D01*
X70463757Y-45928660D01*
X70465000Y-45946172D01*
X70465000Y-47976000D01*
X70445315Y-48043039D01*
X70392511Y-48088794D01*
X70341000Y-48100000D01*
X66965000Y-48100000D01*
X63437260Y-49818642D01*
X62680182Y-50187475D01*
X62625874Y-50200000D01*
X56689000Y-50200000D01*
X56621961Y-50180315D01*
X56576206Y-50127511D01*
X56565000Y-50076000D01*
X56565000Y-45824000D01*
X56584685Y-45756961D01*
X56637489Y-45711206D01*
X56689000Y-45700000D01*
X70235372Y-45700000D01*
X70302411Y-45719685D01*
G37*
%TD.AperFunction*%
%TD*%
%TA.AperFunction,Conductor*%
%TO.N,/Sensor V/IN_-*%
G36*
X62680182Y-63647525D02*
G01*
X66965000Y-65735000D01*
X70341000Y-65735000D01*
X70408039Y-65754685D01*
X70453794Y-65807489D01*
X70465000Y-65859000D01*
X70465000Y-67888827D01*
X70457573Y-67914118D01*
X70453851Y-67940214D01*
X70446581Y-67951552D01*
X70445315Y-67955866D01*
X70434802Y-67969926D01*
X70329174Y-68092099D01*
X70270438Y-68129939D01*
X70235372Y-68135000D01*
X56689000Y-68135000D01*
X56621961Y-68115315D01*
X56576206Y-68062511D01*
X56565000Y-68011000D01*
X56565000Y-63759000D01*
X56584685Y-63691961D01*
X56637489Y-63646206D01*
X56689000Y-63635000D01*
X62625874Y-63635000D01*
X62680182Y-63647525D01*
G37*
%TD.AperFunction*%
%TD*%
%TA.AperFunction,Conductor*%
%TO.N,/Sensor V/IN_+*%
G36*
X70302411Y-57854685D02*
G01*
X70329174Y-57877900D01*
X70434802Y-58000072D01*
X70463757Y-58063660D01*
X70465000Y-58081172D01*
X70465000Y-60111000D01*
X70445315Y-60178039D01*
X70392511Y-60223794D01*
X70341000Y-60235000D01*
X66965000Y-60235000D01*
X63437260Y-61953642D01*
X62680182Y-62322475D01*
X62625874Y-62335000D01*
X56689000Y-62335000D01*
X56621961Y-62315315D01*
X56576206Y-62262511D01*
X56565000Y-62211000D01*
X56565000Y-57959000D01*
X56584685Y-57891961D01*
X56637489Y-57846206D01*
X56689000Y-57835000D01*
X70235372Y-57835000D01*
X70302411Y-57854685D01*
G37*
%TD.AperFunction*%
%TD*%
%TA.AperFunction,Conductor*%
%TO.N,/Sensor W/IN_+*%
G36*
X70302411Y-69854685D02*
G01*
X70329174Y-69877900D01*
X70434802Y-70000072D01*
X70463757Y-70063660D01*
X70465000Y-70081172D01*
X70465000Y-72111000D01*
X70445315Y-72178039D01*
X70392511Y-72223794D01*
X70341000Y-72235000D01*
X66965000Y-72235000D01*
X63437260Y-73953642D01*
X62680182Y-74322475D01*
X62625874Y-74335000D01*
X56689000Y-74335000D01*
X56621961Y-74315315D01*
X56576206Y-74262511D01*
X56565000Y-74211000D01*
X56565000Y-69959000D01*
X56584685Y-69891961D01*
X56637489Y-69846206D01*
X56689000Y-69835000D01*
X70235372Y-69835000D01*
X70302411Y-69854685D01*
G37*
%TD.AperFunction*%
%TD*%
%TA.AperFunction,Conductor*%
%TO.N,/Sensor U/IN_-*%
G36*
X62680182Y-51512525D02*
G01*
X66965000Y-53600000D01*
X70341000Y-53600000D01*
X70408039Y-53619685D01*
X70453794Y-53672489D01*
X70465000Y-53724000D01*
X70465000Y-55753827D01*
X70457573Y-55779118D01*
X70453851Y-55805214D01*
X70446581Y-55816552D01*
X70445315Y-55820866D01*
X70434802Y-55834926D01*
X70329174Y-55957099D01*
X70270438Y-55994939D01*
X70235372Y-56000000D01*
X56689000Y-56000000D01*
X56621961Y-55980315D01*
X56576206Y-55927511D01*
X56565000Y-55876000D01*
X56565000Y-51624000D01*
X56584685Y-51556961D01*
X56637489Y-51511206D01*
X56689000Y-51500000D01*
X62625874Y-51500000D01*
X62680182Y-51512525D01*
G37*
%TD.AperFunction*%
%TD*%
%TA.AperFunction,Conductor*%
%TO.N,/Sensor W/IN_-*%
G36*
X62680182Y-75647525D02*
G01*
X66965000Y-77735000D01*
X70341000Y-77735000D01*
X70408039Y-77754685D01*
X70453794Y-77807489D01*
X70465000Y-77859000D01*
X70465000Y-79888827D01*
X70457573Y-79914118D01*
X70453851Y-79940214D01*
X70446581Y-79951552D01*
X70445315Y-79955866D01*
X70434802Y-79969926D01*
X70329174Y-80092099D01*
X70270438Y-80129939D01*
X70235372Y-80135000D01*
X56689000Y-80135000D01*
X56621961Y-80115315D01*
X56576206Y-80062511D01*
X56565000Y-80011000D01*
X56565000Y-75759000D01*
X56584685Y-75691961D01*
X56637489Y-75646206D01*
X56689000Y-75635000D01*
X62625874Y-75635000D01*
X62680182Y-75647525D01*
G37*
%TD.AperFunction*%
%TD*%
M02*
