%TF.GenerationSoftware,KiCad,Pcbnew,9.0.2*%
%TF.CreationDate,2025-07-05T12:49:50-04:00*%
%TF.ProjectId,Mainboard H7,4d61696e-626f-4617-9264-2048372e6b69,rev?*%
%TF.SameCoordinates,Original*%
%TF.FileFunction,Copper,L4,Bot*%
%TF.FilePolarity,Positive*%
%FSLAX46Y46*%
G04 Gerber Fmt 4.6, Leading zero omitted, Abs format (unit mm)*
G04 Created by KiCad (PCBNEW 9.0.2) date 2025-07-05 12:49:50*
%MOMM*%
%LPD*%
G01*
G04 APERTURE LIST*
G04 Aperture macros list*
%AMRoundRect*
0 Rectangle with rounded corners*
0 $1 Rounding radius*
0 $2 $3 $4 $5 $6 $7 $8 $9 X,Y pos of 4 corners*
0 Add a 4 corners polygon primitive as box body*
4,1,4,$2,$3,$4,$5,$6,$7,$8,$9,$2,$3,0*
0 Add four circle primitives for the rounded corners*
1,1,$1+$1,$2,$3*
1,1,$1+$1,$4,$5*
1,1,$1+$1,$6,$7*
1,1,$1+$1,$8,$9*
0 Add four rect primitives between the rounded corners*
20,1,$1+$1,$2,$3,$4,$5,0*
20,1,$1+$1,$4,$5,$6,$7,0*
20,1,$1+$1,$6,$7,$8,$9,0*
20,1,$1+$1,$8,$9,$2,$3,0*%
G04 Aperture macros list end*
%TA.AperFunction,ComponentPad*%
%ADD10C,1.700000*%
%TD*%
%TA.AperFunction,ComponentPad*%
%ADD11RoundRect,0.250000X0.625000X-0.350000X0.625000X0.350000X-0.625000X0.350000X-0.625000X-0.350000X0*%
%TD*%
%TA.AperFunction,ComponentPad*%
%ADD12O,1.750000X1.200000*%
%TD*%
%TA.AperFunction,ComponentPad*%
%ADD13RoundRect,0.250000X-0.350000X-0.625000X0.350000X-0.625000X0.350000X0.625000X-0.350000X0.625000X0*%
%TD*%
%TA.AperFunction,ComponentPad*%
%ADD14O,1.200000X1.750000*%
%TD*%
%TA.AperFunction,ComponentPad*%
%ADD15R,1.700000X1.700000*%
%TD*%
%TA.AperFunction,ViaPad*%
%ADD16C,1.200000*%
%TD*%
%TA.AperFunction,ViaPad*%
%ADD17C,0.600000*%
%TD*%
%TA.AperFunction,Conductor*%
%ADD18C,0.381000*%
%TD*%
G04 APERTURE END LIST*
D10*
%TO.P,U1,L1,5V*%
%TO.N,+5V*%
X133490000Y-69120000D03*
%TO.P,U1,L2,5V*%
X136030000Y-69120000D03*
%TO.P,U1,L3,3V3*%
%TO.N,+3V3*%
X133490000Y-71660000D03*
%TO.P,U1,L4,3V3*%
X136030000Y-71660000D03*
%TO.P,U1,L5,PA11*%
%TO.N,unconnected-(U1A-PA11-PadL5)*%
X133490000Y-74200000D03*
%TO.P,U1,L6,PA12*%
%TO.N,unconnected-(U1A-PA12-PadL6)*%
X136030000Y-74200000D03*
%TO.P,U1,L7,PC7*%
%TO.N,M2_INHB*%
X133490000Y-76740000D03*
%TO.P,U1,L8,PC6*%
%TO.N,M2_INHA*%
X136030000Y-76740000D03*
%TO.P,U1,L9,PA10*%
%TO.N,unconnected-(U1A-PA10-PadL9)*%
X133490000Y-79280000D03*
%TO.P,U1,L10,PA9*%
%TO.N,unconnected-(U1A-PA9-PadL10)*%
X136030000Y-79280000D03*
%TO.P,U1,L11,PC2*%
%TO.N,SPI2_MISO*%
X133490000Y-81820000D03*
%TO.P,U1,L12,PC3*%
%TO.N,ADC1_NCS*%
X136030000Y-81820000D03*
%TO.P,U1,L13,PC0*%
%TO.N,E_STOP*%
X133490000Y-84360000D03*
%TO.P,U1,L14,PC1*%
%TO.N,SPI2_MOSI*%
X136030000Y-84360000D03*
%TO.P,U1,L15,PD0*%
%TO.N,CAN_RX*%
X133490000Y-86900000D03*
%TO.P,U1,L16,PD1*%
%TO.N,CAN_TX*%
X136030000Y-86900000D03*
%TO.P,U1,L17,PD3*%
%TO.N,SPI2_SCK*%
X133490000Y-89440000D03*
%TO.P,U1,L18,PD4*%
%TO.N,ADC1_DRDY*%
X136030000Y-89440000D03*
%TO.P,U1,L19,PD5*%
%TO.N,USART_TX*%
X133490000Y-91980000D03*
%TO.P,U1,L20,PD6*%
%TO.N,USART_RX*%
X136030000Y-91980000D03*
%TO.P,U1,L21,PD7*%
%TO.N,ADC2_DRDY*%
X133490000Y-94520000D03*
%TO.P,U1,L22,PB3*%
%TO.N,E1_B*%
X136030000Y-94520000D03*
%TO.P,U1,L23,PB4*%
%TO.N,unconnected-(U1A-PB4-PadL23)*%
X133490000Y-97060000D03*
%TO.P,U1,L24,PB5*%
%TO.N,AUX_INT*%
X136030000Y-97060000D03*
%TO.P,U1,L25,PB7*%
%TO.N,I2C1_SDA*%
X133490000Y-99600000D03*
%TO.P,U1,L26,PB8*%
%TO.N,I2C1_SCL*%
X136030000Y-99600000D03*
%TO.P,U1,L27,PB9*%
%TO.N,unconnected-(U1A-PB9-PadL27)*%
X133490000Y-102140000D03*
%TO.P,U1,L28,PE0*%
%TO.N,ADC2_NCS*%
X136030000Y-102140000D03*
%TO.P,U1,L29,PE1*%
%TO.N,AUX_NCS*%
X133490000Y-104680000D03*
%TO.P,U1,L30,PA8*%
%TO.N,unconnected-(U1A-PA8-PadL30)*%
X136030000Y-104680000D03*
%TO.P,U1,L31,PE5*%
%TO.N,E2_NCS*%
X133490000Y-107220000D03*
%TO.P,U1,L32,PE6*%
%TO.N,M1_DRIVER_NCS*%
X136030000Y-107220000D03*
%TO.P,U1,L33,PE4*%
%TO.N,M2_DRIVER_EN*%
X133490000Y-109760000D03*
%TO.P,U1,L34,PE3*%
%TO.N,M2_DRIVER_NCS*%
X136030000Y-109760000D03*
%TO.P,U1,L35,PC8*%
%TO.N,M2_INHC*%
X133490000Y-112300000D03*
%TO.P,U1,L36,PC9*%
%TO.N,E1_NCS*%
X136030000Y-112300000D03*
%TO.P,U1,L37,PC10*%
%TO.N,SPI3_SCK*%
X133490000Y-114840000D03*
%TO.P,U1,L38,PC11*%
%TO.N,SPI3_MISO*%
X136030000Y-114840000D03*
%TO.P,U1,L39,PD2*%
%TO.N,PROBE_OUT*%
X133490000Y-117380000D03*
%TO.P,U1,L40,PC12*%
%TO.N,SPI3_MOSI*%
X136030000Y-117380000D03*
%TO.P,U1,R1,GND*%
%TO.N,GND*%
X163970000Y-69120000D03*
%TO.P,U1,R2,GND*%
X166510000Y-69120000D03*
%TO.P,U1,R3,PD14*%
%TO.N,unconnected-(U1B-PD14-PadR3)*%
X163970000Y-71660000D03*
%TO.P,U1,R4,PA15*%
%TO.N,E1_A*%
X166510000Y-71660000D03*
%TO.P,U1,R5,PD9*%
%TO.N,unconnected-(U1B-PD9-PadR5)*%
X163970000Y-74200000D03*
%TO.P,U1,R6,PD10*%
%TO.N,M1_nFAULT*%
X166510000Y-74200000D03*
%TO.P,U1,R7,PB15*%
%TO.N,M2_INLC*%
X163970000Y-76740000D03*
%TO.P,U1,R8,PD8*%
%TO.N,M1_nOCTW*%
X166510000Y-76740000D03*
%TO.P,U1,R9,PB13*%
%TO.N,M2_nFAULT*%
X163970000Y-79280000D03*
%TO.P,U1,R10,PB14*%
%TO.N,unconnected-(U1B-PB14-PadR10)*%
X166510000Y-79280000D03*
%TO.P,U1,R11,PB11*%
%TO.N,I2C2_SDA*%
X163970000Y-81820000D03*
%TO.P,U1,R12,PB12*%
%TO.N,M2_nOCTW*%
X166510000Y-81820000D03*
%TO.P,U1,R13,VBAT*%
%TO.N,unconnected-(U1B-VBAT-PadR13)*%
X163970000Y-84360000D03*
%TO.P,U1,R14,PB10*%
%TO.N,I2C2_SCL*%
X166510000Y-84360000D03*
%TO.P,U1,R15,PE13*%
%TO.N,M1_INHC*%
X163970000Y-86900000D03*
%TO.P,U1,R16,PE14*%
%TO.N,M1_DRIVER_EN*%
X166510000Y-86900000D03*
%TO.P,U1,R17,PE11*%
%TO.N,M1_INHB*%
X163970000Y-89440000D03*
%TO.P,U1,R18,PE12*%
%TO.N,M1_INLC*%
X166510000Y-89440000D03*
%TO.P,U1,R19,PE9*%
%TO.N,M1_INHA*%
X163970000Y-91980000D03*
%TO.P,U1,R20,PE10*%
%TO.N,M1_INLB*%
X166510000Y-91980000D03*
%TO.P,U1,R21,PE7*%
%TO.N,unconnected-(U1B-PE7-PadR21)*%
X163970000Y-94520000D03*
%TO.P,U1,R22,PE8*%
%TO.N,M1_INLA*%
X166510000Y-94520000D03*
%TO.P,U1,R23,PB0*%
%TO.N,M2_INLB*%
X163970000Y-97060000D03*
%TO.P,U1,R24,PB1*%
%TO.N,M2_IOutC*%
X166510000Y-97060000D03*
%TO.P,U1,R25,PC4*%
%TO.N,M1_IRef*%
X163970000Y-99600000D03*
%TO.P,U1,R26,PC5*%
%TO.N,M2_IOutB*%
X166510000Y-99600000D03*
%TO.P,U1,R27,PA6*%
%TO.N,M1_IOutA*%
X163970000Y-102140000D03*
%TO.P,U1,R28,PA7*%
%TO.N,M2_IOutA*%
X166510000Y-102140000D03*
%TO.P,U1,R29,PA4*%
%TO.N,M1_IOutB*%
X163970000Y-104680000D03*
%TO.P,U1,R30,PA5*%
%TO.N,M2_INLA*%
X166510000Y-104680000D03*
%TO.P,U1,R31,PA2*%
%TO.N,M1_IOutC*%
X163970000Y-107220000D03*
%TO.P,U1,R32,PA3*%
%TO.N,M2_IRef*%
X166510000Y-107220000D03*
%TO.P,U1,R33,PA0*%
%TO.N,E2_A*%
X163970000Y-109760000D03*
%TO.P,U1,R34,PA1*%
%TO.N,E2_B*%
X166510000Y-109760000D03*
%TO.P,U1,R35,PB2*%
%TO.N,unconnected-(U1B-PB2-PadR35)*%
X163970000Y-112300000D03*
%TO.P,U1,R36,PD13*%
%TO.N,unconnected-(U1B-PD13-PadR36)*%
X166510000Y-112300000D03*
%TO.P,U1,R37,PB6*%
%TO.N,unconnected-(U1B-PB6-PadR37)*%
X163970000Y-114840000D03*
%TO.P,U1,R38,PD11*%
%TO.N,unconnected-(U1B-PD11-PadR38)*%
X166510000Y-114840000D03*
%TO.P,U1,R39,PE2*%
%TO.N,unconnected-(U1B-PE2-PadR39)*%
X163970000Y-117380000D03*
%TO.P,U1,R40,PD12*%
%TO.N,unconnected-(U1B-PD12-PadR40)*%
X166510000Y-117380000D03*
%TD*%
D11*
%TO.P,J12,1,Pin_1*%
%TO.N,+3V3*%
X119000000Y-89000000D03*
D12*
%TO.P,J12,2,Pin_2*%
%TO.N,GND*%
X119000000Y-87000000D03*
%TO.P,J12,3,Pin_3*%
%TO.N,SPI2_MOSI*%
X119000000Y-85000000D03*
%TO.P,J12,4,Pin_4*%
%TO.N,GND*%
X119000000Y-83000000D03*
%TO.P,J12,5,Pin_5*%
%TO.N,SPI2_MISO*%
X119000000Y-81000000D03*
%TO.P,J12,6,Pin_6*%
%TO.N,GND*%
X119000000Y-79000000D03*
%TO.P,J12,7,Pin_7*%
%TO.N,SPI2_SCK*%
X119000000Y-77000000D03*
%TO.P,J12,8,Pin_8*%
%TO.N,GND*%
X119000000Y-75000000D03*
%TO.P,J12,9,Pin_9*%
%TO.N,ADC1_NCS*%
X119000000Y-73000000D03*
%TO.P,J12,10,Pin_10*%
%TO.N,ADC1_DRDY*%
X119000000Y-71000000D03*
%TD*%
D13*
%TO.P,J7,1,Pin_1*%
%TO.N,GND*%
X137100195Y-127899805D03*
D14*
%TO.P,J7,2,Pin_2*%
%TO.N,+3V3*%
X139100195Y-127899805D03*
%TO.P,J7,3,Pin_3*%
%TO.N,GND*%
X141100195Y-127899805D03*
%TO.P,J7,4,Pin_4*%
%TO.N,I2C1_SDA*%
X143100195Y-127899805D03*
%TO.P,J7,5,Pin_5*%
%TO.N,GND*%
X145100195Y-127899805D03*
%TO.P,J7,6,Pin_6*%
%TO.N,I2C1_SCL*%
X147100195Y-127899805D03*
%TD*%
D15*
%TO.P,J18,1,Pin_1*%
%TO.N,GND*%
X121460000Y-63000000D03*
D10*
%TO.P,J18,2,Pin_2*%
%TO.N,+5V*%
X124000000Y-63000000D03*
%TD*%
D15*
%TO.P,J17,1,Pin_1*%
%TO.N,unconnected-(J17-Pin_1-Pad1)*%
X110500000Y-87460000D03*
D10*
%TO.P,J17,2,Pin_2*%
%TO.N,GND*%
X110500000Y-90000000D03*
%TO.P,J17,3,Pin_3*%
%TO.N,USART_TX*%
X110500000Y-92540000D03*
%TO.P,J17,4,Pin_4*%
%TO.N,USART_RX*%
X110500000Y-95080000D03*
%TD*%
D11*
%TO.P,J9,1,Pin_1*%
%TO.N,+3V3*%
X119000000Y-118000000D03*
D12*
%TO.P,J9,2,Pin_2*%
%TO.N,GND*%
X119000000Y-116000000D03*
%TO.P,J9,3,Pin_3*%
%TO.N,SPI3_MOSI*%
X119000000Y-114000000D03*
%TO.P,J9,4,Pin_4*%
%TO.N,GND*%
X119000000Y-112000000D03*
%TO.P,J9,5,Pin_5*%
%TO.N,SPI3_MISO*%
X119000000Y-110000000D03*
%TO.P,J9,6,Pin_6*%
%TO.N,GND*%
X119000000Y-108000000D03*
%TO.P,J9,7,Pin_7*%
%TO.N,SPI3_SCK*%
X119000000Y-106000000D03*
%TO.P,J9,8,Pin_8*%
%TO.N,GND*%
X119000000Y-104000000D03*
%TO.P,J9,9,Pin_9*%
%TO.N,E1_NCS*%
X119000000Y-102000000D03*
%TD*%
D15*
%TO.P,J6,1,Pin_1*%
%TO.N,unconnected-(J6-Pin_1-Pad1)*%
X183003750Y-85840000D03*
D10*
%TO.P,J6,2,Pin_2*%
%TO.N,M2_DRIVER_EN*%
X185543750Y-85840000D03*
%TO.P,J6,3,Pin_3*%
%TO.N,M2_INHA*%
X183003750Y-88380000D03*
%TO.P,J6,4,Pin_4*%
%TO.N,M2_INLA*%
X185543750Y-88380000D03*
%TO.P,J6,5,Pin_5*%
%TO.N,M2_INHB*%
X183003750Y-90920000D03*
%TO.P,J6,6,Pin_6*%
%TO.N,M2_INLB*%
X185543750Y-90920000D03*
%TO.P,J6,7,Pin_7*%
%TO.N,M2_INHC*%
X183003750Y-93460000D03*
%TO.P,J6,8,Pin_8*%
%TO.N,M2_INLC*%
X185543750Y-93460000D03*
%TO.P,J6,9,Pin_9*%
%TO.N,GND*%
X183003750Y-96000000D03*
%TO.P,J6,10,Pin_10*%
X185543750Y-96000000D03*
%TO.P,J6,11,Pin_11*%
X183003750Y-98540000D03*
%TO.P,J6,12,Pin_12*%
X185543750Y-98540000D03*
%TD*%
D15*
%TO.P,J3,1,Pin_1*%
%TO.N,GND*%
X174460000Y-73840000D03*
D10*
%TO.P,J3,2,Pin_2*%
%TO.N,unconnected-(J3-Pin_2-Pad2)*%
X177000000Y-73840000D03*
%TO.P,J3,3,Pin_3*%
%TO.N,M1_nOCTW*%
X174460000Y-76380000D03*
%TO.P,J3,4,Pin_4*%
%TO.N,M1_nFAULT*%
X177000000Y-76380000D03*
%TO.P,J3,5,Pin_5*%
%TO.N,M1_DRIVER_NCS*%
X174460000Y-78920000D03*
%TO.P,J3,6,Pin_6*%
%TO.N,SPI3_MOSI*%
X177000000Y-78920000D03*
%TO.P,J3,7,Pin_7*%
%TO.N,SPI3_MISO*%
X174460000Y-81460000D03*
%TO.P,J3,8,Pin_8*%
%TO.N,SPI3_SCK*%
X177000000Y-81460000D03*
%TD*%
D13*
%TO.P,J15,1,Pin_1*%
%TO.N,GND*%
X173000000Y-111000000D03*
D14*
%TO.P,J15,2,Pin_2*%
%TO.N,M2_IOutA*%
X175000000Y-111000000D03*
%TO.P,J15,3,Pin_3*%
%TO.N,M2_IRef*%
X177000000Y-111000000D03*
%TO.P,J15,4,Pin_4*%
%TO.N,M2_IOutB*%
X179000000Y-111000000D03*
%TO.P,J15,5,Pin_5*%
%TO.N,M2_IRef*%
X181000000Y-111000000D03*
%TO.P,J15,6,Pin_6*%
%TO.N,M2_IOutC*%
X183000000Y-111000000D03*
%TO.P,J15,7,Pin_7*%
%TO.N,M2_IRef*%
X185000000Y-111000000D03*
%TO.P,J15,8,Pin_8*%
%TO.N,GND*%
X187000000Y-111000000D03*
%TD*%
D13*
%TO.P,J14,1,Pin_1*%
%TO.N,GND*%
X173000000Y-118000000D03*
D14*
%TO.P,J14,2,Pin_2*%
%TO.N,M1_IOutA*%
X175000000Y-118000000D03*
%TO.P,J14,3,Pin_3*%
%TO.N,M1_IRef*%
X177000000Y-118000000D03*
%TO.P,J14,4,Pin_4*%
%TO.N,M1_IOutB*%
X179000000Y-118000000D03*
%TO.P,J14,5,Pin_5*%
%TO.N,M1_IRef*%
X181000000Y-118000000D03*
%TO.P,J14,6,Pin_6*%
%TO.N,M1_IOutC*%
X183000000Y-118000000D03*
%TO.P,J14,7,Pin_7*%
%TO.N,M1_IRef*%
X185000000Y-118000000D03*
%TO.P,J14,8,Pin_8*%
%TO.N,GND*%
X187000000Y-118000000D03*
%TD*%
D15*
%TO.P,J4,1,Pin_1*%
%TO.N,unconnected-(J4-Pin_1-Pad1)*%
X174460000Y-85920000D03*
D10*
%TO.P,J4,2,Pin_2*%
%TO.N,M1_DRIVER_EN*%
X177000000Y-85920000D03*
%TO.P,J4,3,Pin_3*%
%TO.N,M1_INHA*%
X174460000Y-88460000D03*
%TO.P,J4,4,Pin_4*%
%TO.N,M1_INLA*%
X177000000Y-88460000D03*
%TO.P,J4,5,Pin_5*%
%TO.N,M1_INHB*%
X174460000Y-91000000D03*
%TO.P,J4,6,Pin_6*%
%TO.N,M1_INLB*%
X177000000Y-91000000D03*
%TO.P,J4,7,Pin_7*%
%TO.N,M1_INHC*%
X174460000Y-93540000D03*
%TO.P,J4,8,Pin_8*%
%TO.N,M1_INLC*%
X177000000Y-93540000D03*
%TO.P,J4,9,Pin_9*%
%TO.N,GND*%
X174460000Y-96080000D03*
%TO.P,J4,10,Pin_10*%
X177000000Y-96080000D03*
%TO.P,J4,11,Pin_11*%
X174460000Y-98620000D03*
%TO.P,J4,12,Pin_12*%
X177000000Y-98620000D03*
%TD*%
D11*
%TO.P,SW1,1,1*%
%TO.N,GND*%
X111000000Y-79000000D03*
D12*
%TO.P,SW1,2,2*%
%TO.N,Net-(R9-Pad2)*%
X111000000Y-77000000D03*
%TD*%
D13*
%TO.P,J8,1,Pin_1*%
%TO.N,GND*%
X172000000Y-65000000D03*
D14*
%TO.P,J8,2,Pin_2*%
%TO.N,+3V3*%
X174000000Y-65000000D03*
%TO.P,J8,3,Pin_3*%
%TO.N,GND*%
X176000000Y-65000000D03*
%TO.P,J8,4,Pin_4*%
%TO.N,I2C2_SDA*%
X178000000Y-65000000D03*
%TO.P,J8,5,Pin_5*%
%TO.N,GND*%
X180000000Y-65000000D03*
%TO.P,J8,6,Pin_6*%
%TO.N,I2C2_SCL*%
X182000000Y-65000000D03*
%TD*%
D15*
%TO.P,J19,1,Pin_1*%
%TO.N,+3V3*%
X114500000Y-84920000D03*
D10*
%TO.P,J19,2,Pin_2*%
%TO.N,unconnected-(J19-Pin_2-Pad2)*%
X114500000Y-87460000D03*
%TO.P,J19,3,Pin_3*%
%TO.N,GND*%
X114500000Y-90000000D03*
%TO.P,J19,4,Pin_4*%
%TO.N,CAN_RX*%
X114500000Y-92540000D03*
%TO.P,J19,5,Pin_5*%
%TO.N,CAN_TX*%
X114500000Y-95080000D03*
%TD*%
D11*
%TO.P,J2,1,Pin_1*%
%TO.N,E1_A*%
X119000000Y-132000000D03*
D12*
%TO.P,J2,2,Pin_2*%
%TO.N,GND*%
X119000000Y-130000000D03*
%TO.P,J2,3,Pin_3*%
%TO.N,E1_B*%
X119000000Y-128000000D03*
%TO.P,J2,4,Pin_4*%
%TO.N,GND*%
X119000000Y-126000000D03*
%TD*%
D11*
%TO.P,J13,1,Pin_1*%
%TO.N,+3V3*%
X112000000Y-118000000D03*
D12*
%TO.P,J13,2,Pin_2*%
%TO.N,GND*%
X112000000Y-116000000D03*
%TO.P,J13,3,Pin_3*%
%TO.N,SPI3_MOSI*%
X112000000Y-114000000D03*
%TO.P,J13,4,Pin_4*%
%TO.N,GND*%
X112000000Y-112000000D03*
%TO.P,J13,5,Pin_5*%
%TO.N,SPI3_MISO*%
X112000000Y-110000000D03*
%TO.P,J13,6,Pin_6*%
%TO.N,GND*%
X112000000Y-108000000D03*
%TO.P,J13,7,Pin_7*%
%TO.N,SPI3_SCK*%
X112000000Y-106000000D03*
%TO.P,J13,8,Pin_8*%
%TO.N,GND*%
X112000000Y-104000000D03*
%TO.P,J13,9,Pin_9*%
%TO.N,AUX_NCS*%
X112000000Y-102000000D03*
%TO.P,J13,10,Pin_10*%
%TO.N,AUX_INT*%
X112000000Y-100000000D03*
%TD*%
D11*
%TO.P,J11,1,Pin_1*%
%TO.N,+3V3*%
X126000000Y-89000000D03*
D12*
%TO.P,J11,2,Pin_2*%
%TO.N,GND*%
X126000000Y-87000000D03*
%TO.P,J11,3,Pin_3*%
%TO.N,SPI2_MOSI*%
X126000000Y-85000000D03*
%TO.P,J11,4,Pin_4*%
%TO.N,GND*%
X126000000Y-83000000D03*
%TO.P,J11,5,Pin_5*%
%TO.N,SPI2_MISO*%
X126000000Y-81000000D03*
%TO.P,J11,6,Pin_6*%
%TO.N,GND*%
X126000000Y-79000000D03*
%TO.P,J11,7,Pin_7*%
%TO.N,SPI2_SCK*%
X126000000Y-77000000D03*
%TO.P,J11,8,Pin_8*%
%TO.N,GND*%
X126000000Y-75000000D03*
%TO.P,J11,9,Pin_9*%
%TO.N,ADC2_NCS*%
X126000000Y-73000000D03*
%TO.P,J11,10,Pin_10*%
%TO.N,ADC2_DRDY*%
X126000000Y-71000000D03*
%TD*%
D15*
%TO.P,J16,1,Pin_1*%
%TO.N,PROBE_OUT*%
X153460000Y-128000000D03*
D10*
%TO.P,J16,2,Pin_2*%
%TO.N,+3V3*%
X156000000Y-128000000D03*
%TO.P,J16,3,Pin_3*%
%TO.N,GND*%
X158540000Y-128000000D03*
%TD*%
D11*
%TO.P,J10,1,Pin_1*%
%TO.N,E2_A*%
X126000000Y-132000000D03*
D12*
%TO.P,J10,2,Pin_2*%
%TO.N,GND*%
X126000000Y-130000000D03*
%TO.P,J10,3,Pin_3*%
%TO.N,E2_B*%
X126000000Y-128000000D03*
%TO.P,J10,4,Pin_4*%
%TO.N,GND*%
X126000000Y-126000000D03*
%TD*%
D11*
%TO.P,J1,1,Pin_1*%
%TO.N,+3V3*%
X126000000Y-118000000D03*
D12*
%TO.P,J1,2,Pin_2*%
%TO.N,GND*%
X126000000Y-116000000D03*
%TO.P,J1,3,Pin_3*%
%TO.N,SPI3_MOSI*%
X126000000Y-114000000D03*
%TO.P,J1,4,Pin_4*%
%TO.N,GND*%
X126000000Y-112000000D03*
%TO.P,J1,5,Pin_5*%
%TO.N,SPI3_MISO*%
X126000000Y-110000000D03*
%TO.P,J1,6,Pin_6*%
%TO.N,GND*%
X126000000Y-108000000D03*
%TO.P,J1,7,Pin_7*%
%TO.N,SPI3_SCK*%
X126000000Y-106000000D03*
%TO.P,J1,8,Pin_8*%
%TO.N,GND*%
X126000000Y-104000000D03*
%TO.P,J1,9,Pin_9*%
%TO.N,E2_NCS*%
X126000000Y-102000000D03*
%TD*%
D15*
%TO.P,J5,1,Pin_1*%
%TO.N,GND*%
X183003750Y-73760000D03*
D10*
%TO.P,J5,2,Pin_2*%
%TO.N,unconnected-(J5-Pin_2-Pad2)*%
X185543750Y-73760000D03*
%TO.P,J5,3,Pin_3*%
%TO.N,M2_nOCTW*%
X183003750Y-76300000D03*
%TO.P,J5,4,Pin_4*%
%TO.N,M2_nFAULT*%
X185543750Y-76300000D03*
%TO.P,J5,5,Pin_5*%
%TO.N,M2_DRIVER_NCS*%
X183003750Y-78840000D03*
%TO.P,J5,6,Pin_6*%
%TO.N,SPI3_MOSI*%
X185543750Y-78840000D03*
%TO.P,J5,7,Pin_7*%
%TO.N,SPI3_MISO*%
X183003750Y-81380000D03*
%TO.P,J5,8,Pin_8*%
%TO.N,SPI3_SCK*%
X185543750Y-81380000D03*
%TD*%
D16*
%TO.N,+3V3*%
X169000000Y-74000000D03*
X176000000Y-69000000D03*
X172000000Y-71000000D03*
X140012031Y-131725348D03*
X180543750Y-71000000D03*
X160912500Y-65000000D03*
X144000000Y-132000000D03*
X149000000Y-132500000D03*
%TO.N,GND*%
X116000000Y-121000000D03*
X122500000Y-92500000D03*
X122500000Y-121500000D03*
%TO.N,SPI3_SCK*%
X131000000Y-112000000D03*
X188939750Y-83000000D03*
%TO.N,E1_A*%
X147000000Y-87000000D03*
D17*
%TO.N,M1_DRIVER_EN*%
X169000000Y-86528000D03*
D16*
%TO.N,M2_DRIVER_NCS*%
X139000000Y-102000000D03*
%TO.N,M2_nOCTW*%
X172000000Y-79000000D03*
X180575890Y-79015110D03*
%TO.N,M2_INLA*%
X179000000Y-101000000D03*
%TO.N,I2C1_SCL*%
X131000000Y-133000000D03*
%TO.N,I2C1_SDA*%
X132000000Y-132000000D03*
%TO.N,I2C2_SCL*%
X161000000Y-82000000D03*
%TO.N,E2_A*%
X151000000Y-110011000D03*
%TO.N,E2_B*%
X147840193Y-110777494D03*
%TO.N,SPI2_SCK*%
X130000000Y-87500000D03*
%TO.N,ADC1_DRDY*%
X123000000Y-90000000D03*
%TO.N,PROBE_OUT*%
X143400003Y-122000000D03*
%TO.N,E_STOP*%
X116000000Y-79500000D03*
%TD*%
D18*
%TO.N,SPI3_MISO*%
X137271500Y-116081500D02*
X136030000Y-114840000D01*
X167717428Y-116081500D02*
X137271500Y-116081500D01*
X168000000Y-115798928D02*
X167717428Y-116081500D01*
X174743072Y-104000000D02*
X168000000Y-110743072D01*
X183295748Y-104000000D02*
X174743072Y-104000000D01*
X187775750Y-99519997D02*
X183295748Y-104000000D01*
X187775750Y-85367747D02*
X187775750Y-99519997D01*
X183788003Y-81380000D02*
X187775750Y-85367747D01*
X168000000Y-110743072D02*
X168000000Y-115798928D01*
X183003750Y-81380000D02*
X183788003Y-81380000D01*
%TO.N,SPI3_MOSI*%
X137556500Y-118906500D02*
X136030000Y-117380000D01*
X167093500Y-118906500D02*
X137556500Y-118906500D01*
X169918000Y-109648144D02*
X169918000Y-116082000D01*
X174566144Y-105000000D02*
X169918000Y-109648144D01*
X188357750Y-99761069D02*
X183118819Y-105000000D01*
X183118819Y-105000000D02*
X174566144Y-105000000D01*
X188357750Y-83820193D02*
X188357750Y-99761069D01*
X187948250Y-82589307D02*
X187948250Y-83410693D01*
X187948250Y-83410693D02*
X188357750Y-83820193D01*
X187949250Y-82588307D02*
X187948250Y-82589307D01*
X169918000Y-116082000D02*
X167093500Y-118906500D01*
X185543750Y-78840000D02*
X187949250Y-81245500D01*
X187949250Y-81245500D02*
X187949250Y-82588307D01*
%TO.N,SPI3_SCK*%
X134788500Y-117894247D02*
X134788500Y-116138500D01*
X131000000Y-112000000D02*
X131000000Y-112350000D01*
X188939750Y-83000000D02*
X188939750Y-100002141D01*
X182941891Y-106000000D02*
X174389216Y-106000000D01*
X188939750Y-100002141D02*
X182941891Y-106000000D01*
X174389216Y-106000000D02*
X170500000Y-109889216D01*
X170500000Y-109889216D02*
X170500000Y-118500000D01*
X134788500Y-116138500D02*
X133490000Y-114840000D01*
X170500000Y-118500000D02*
X169511500Y-119488500D01*
X136382753Y-119488500D02*
X134788500Y-117894247D01*
X169511500Y-119488500D02*
X136382753Y-119488500D01*
X131000000Y-112350000D02*
X133490000Y-114840000D01*
%TO.N,E1_A*%
X147000000Y-87000000D02*
X147000000Y-86874253D01*
X147000000Y-86874253D02*
X163455753Y-70418500D01*
X165268500Y-70418500D02*
X166510000Y-71660000D01*
X163455753Y-70418500D02*
X165268500Y-70418500D01*
%TO.N,M1_DRIVER_NCS*%
X163455753Y-75498500D02*
X155000000Y-83954253D01*
X171038500Y-75498500D02*
X163455753Y-75498500D01*
X155000000Y-83954253D02*
X155000000Y-88250000D01*
X155000000Y-88250000D02*
X136030000Y-107220000D01*
X174460000Y-78920000D02*
X171038500Y-75498500D01*
%TO.N,M1_DRIVER_EN*%
X169000000Y-86528000D02*
X166882000Y-86528000D01*
X166882000Y-86528000D02*
X166510000Y-86900000D01*
%TO.N,M1_INHC*%
X174460000Y-93540000D02*
X169061500Y-88141500D01*
X165211500Y-88141500D02*
X163970000Y-86900000D01*
X169061500Y-88141500D02*
X165211500Y-88141500D01*
%TO.N,M1_INHB*%
X174460000Y-91000000D02*
X174460000Y-90460000D01*
X162728500Y-86385753D02*
X162728500Y-88198500D01*
X162728500Y-88198500D02*
X163970000Y-89440000D01*
X174460000Y-90460000D02*
X169658500Y-85658500D01*
X169658500Y-85658500D02*
X163455753Y-85658500D01*
X163455753Y-85658500D02*
X162728500Y-86385753D01*
%TO.N,M1_INLC*%
X171908500Y-94838500D02*
X166510000Y-89440000D01*
X175701500Y-94838500D02*
X171908500Y-94838500D01*
X177000000Y-93540000D02*
X175701500Y-94838500D01*
%TO.N,M2_DRIVER_NCS*%
X170311247Y-72958500D02*
X163455753Y-72958500D01*
X179302250Y-75138500D02*
X183003750Y-78840000D01*
X172491247Y-75138500D02*
X170311247Y-72958500D01*
X172491247Y-75138500D02*
X179302250Y-75138500D01*
X139000000Y-97414253D02*
X139000000Y-102000000D01*
X163455753Y-72958500D02*
X139000000Y-97414253D01*
%TO.N,M2_nOCTW*%
X180575890Y-79015110D02*
X180492522Y-78931742D01*
X178838500Y-80161500D02*
X173161500Y-80161500D01*
X180068258Y-78931742D02*
X178838500Y-80161500D01*
X173161500Y-80161500D02*
X172000000Y-79000000D01*
X180492522Y-78931742D02*
X180068258Y-78931742D01*
%TO.N,M2_INHC*%
X174502000Y-103418000D02*
X169458500Y-108461500D01*
X181762250Y-94701500D02*
X181762250Y-101237750D01*
X179582000Y-103418000D02*
X174502000Y-103418000D01*
X169458500Y-108461500D02*
X139084247Y-108461500D01*
X181762250Y-101237750D02*
X179582000Y-103418000D01*
X139084247Y-108461500D02*
X136487247Y-111058500D01*
X136487247Y-111058500D02*
X134731500Y-111058500D01*
X134731500Y-111058500D02*
X133490000Y-112300000D01*
X183003750Y-93460000D02*
X181762250Y-94701500D01*
%TO.N,M2_DRIVER_EN*%
X134731500Y-108518500D02*
X136487248Y-108518500D01*
X157000000Y-84000000D02*
X160421500Y-80578500D01*
X157000000Y-88005748D02*
X157000000Y-84000000D01*
X133490000Y-109760000D02*
X134731500Y-108518500D01*
X136487248Y-108518500D02*
X157000000Y-88005748D01*
X184163623Y-84459873D02*
X185543750Y-85840000D01*
X169578500Y-80578500D02*
X173459873Y-84459873D01*
X184163623Y-84459873D02*
X173459873Y-84459873D01*
X160421500Y-80578500D02*
X169578500Y-80578500D01*
%TO.N,M2_INLA*%
X172000000Y-104000000D02*
X167190000Y-104000000D01*
X167190000Y-104000000D02*
X166510000Y-104680000D01*
X179000000Y-101000000D02*
X175000000Y-101000000D01*
X175000000Y-101000000D02*
X172000000Y-104000000D01*
%TO.N,M2_INLB*%
X165211500Y-98301500D02*
X163970000Y-97060000D01*
X167024247Y-98301500D02*
X165211500Y-98301500D01*
X185543750Y-90920000D02*
X184245250Y-92218500D01*
X167947247Y-97378500D02*
X167024247Y-98301500D01*
X178241500Y-96651247D02*
X177514247Y-97378500D01*
X178241500Y-95758500D02*
X178241500Y-96651247D01*
X184245250Y-92218500D02*
X181781500Y-92218500D01*
X177514247Y-97378500D02*
X167947247Y-97378500D01*
X181781500Y-92218500D02*
X178241500Y-95758500D01*
%TO.N,M2_INLC*%
X186785250Y-85325753D02*
X186785250Y-92218500D01*
X185337370Y-83877873D02*
X175122126Y-83877873D01*
X169282753Y-78038500D02*
X175122126Y-83877873D01*
X163970000Y-76740000D02*
X165268500Y-78038500D01*
X186785250Y-92218500D02*
X185543750Y-93460000D01*
X165268500Y-78038500D02*
X169282753Y-78038500D01*
X185337370Y-83877873D02*
X186785250Y-85325753D01*
%TO.N,I2C1_SCL*%
X129418000Y-101916253D02*
X133032753Y-98301500D01*
X133032753Y-98301500D02*
X134731500Y-98301500D01*
X130789697Y-131490793D02*
X129418000Y-130119096D01*
X134731500Y-98301500D02*
X136030000Y-99600000D01*
X129418000Y-130119096D02*
X129418000Y-101916253D01*
X131000000Y-133000000D02*
X130789697Y-132789697D01*
X130789697Y-132789697D02*
X130789697Y-131490793D01*
%TO.N,I2C1_SDA*%
X130000000Y-103090000D02*
X133490000Y-99600000D01*
X132000000Y-131000000D02*
X130000000Y-129000000D01*
X132000000Y-132000000D02*
X132000000Y-131000000D01*
X130000000Y-129000000D02*
X130000000Y-103090000D01*
%TO.N,I2C2_SCL*%
X162118500Y-83118500D02*
X165268500Y-83118500D01*
X165268500Y-83118500D02*
X166510000Y-84360000D01*
X161000000Y-82000000D02*
X162118500Y-83118500D01*
%TO.N,E2_A*%
X151251000Y-109760000D02*
X151000000Y-110011000D01*
X163970000Y-109760000D02*
X151251000Y-109760000D01*
%TO.N,E2_B*%
X149777494Y-110777494D02*
X150001500Y-111001500D01*
X150001500Y-111001500D02*
X165268500Y-111001500D01*
X165268500Y-111001500D02*
X166510000Y-109760000D01*
X147840193Y-110777494D02*
X149777494Y-110777494D01*
%TO.N,SPI2_SCK*%
X130000000Y-87500000D02*
X131550000Y-87500000D01*
X131550000Y-87500000D02*
X133490000Y-89440000D01*
%TO.N,SPI2_MOSI*%
X134788500Y-85601500D02*
X136030000Y-84360000D01*
X126000000Y-85000000D02*
X126601500Y-85601500D01*
X126601500Y-85601500D02*
X134788500Y-85601500D01*
%TO.N,ADC2_NCS*%
X138000000Y-100170000D02*
X136030000Y-102140000D01*
X127994253Y-73000000D02*
X133032753Y-78038500D01*
X138000000Y-79494253D02*
X138000000Y-100170000D01*
X136544247Y-78038500D02*
X138000000Y-79494253D01*
X133032753Y-78038500D02*
X136544247Y-78038500D01*
X126000000Y-73000000D02*
X127994253Y-73000000D01*
%TO.N,SPI2_MISO*%
X126000000Y-81000000D02*
X126820000Y-81820000D01*
X126820000Y-81820000D02*
X133490000Y-81820000D01*
%TO.N,ADC1_DRDY*%
X124000000Y-91000000D02*
X130000000Y-91000000D01*
X130000000Y-91000000D02*
X130261500Y-90738500D01*
X130261500Y-90738500D02*
X134731500Y-90738500D01*
X123000000Y-90000000D02*
X124000000Y-91000000D01*
X134731500Y-90738500D02*
X136030000Y-89440000D01*
%TO.N,ADC1_NCS*%
X134788500Y-80578500D02*
X133032753Y-80578500D01*
X132248500Y-79248500D02*
X126991500Y-73991500D01*
X132248500Y-79794247D02*
X132248500Y-79248500D01*
X126991500Y-73991500D02*
X119991500Y-73991500D01*
X119991500Y-73991500D02*
X119000000Y-73000000D01*
X133032753Y-80578500D02*
X132248500Y-79794247D01*
X136030000Y-81820000D02*
X134788500Y-80578500D01*
%TO.N,PROBE_OUT*%
X133490000Y-118582081D02*
X133490000Y-117380000D01*
X143400003Y-122000000D02*
X143000000Y-121599997D01*
X136507916Y-121599997D02*
X133490000Y-118582081D01*
X143000000Y-121599997D02*
X136507916Y-121599997D01*
%TO.N,USART_RX*%
X110500000Y-95080000D02*
X111741500Y-96321500D01*
X111741500Y-96321500D02*
X129875753Y-96321500D01*
X129875753Y-96321500D02*
X132975753Y-93221500D01*
X132975753Y-93221500D02*
X134788500Y-93221500D01*
X134788500Y-93221500D02*
X136030000Y-91980000D01*
%TO.N,E_STOP*%
X116000000Y-79500000D02*
X116000000Y-81677193D01*
X118322807Y-84000000D02*
X133130000Y-84000000D01*
X133130000Y-84000000D02*
X133490000Y-84360000D01*
X116000000Y-81677193D02*
X118322807Y-84000000D01*
%TD*%
M02*
