%TF.GenerationSoftware,KiCad,Pcbnew,9.0.2*%
%TF.CreationDate,2025-07-05T12:49:50-04:00*%
%TF.ProjectId,Mainboard H7,4d61696e-626f-4617-9264-2048372e6b69,rev?*%
%TF.SameCoordinates,Original*%
%TF.FileFunction,Copper,L1,Top*%
%TF.FilePolarity,Positive*%
%FSLAX46Y46*%
G04 Gerber Fmt 4.6, Leading zero omitted, Abs format (unit mm)*
G04 Created by KiCad (PCBNEW 9.0.2) date 2025-07-05 12:49:50*
%MOMM*%
%LPD*%
G01*
G04 APERTURE LIST*
G04 Aperture macros list*
%AMRoundRect*
0 Rectangle with rounded corners*
0 $1 Rounding radius*
0 $2 $3 $4 $5 $6 $7 $8 $9 X,Y pos of 4 corners*
0 Add a 4 corners polygon primitive as box body*
4,1,4,$2,$3,$4,$5,$6,$7,$8,$9,$2,$3,0*
0 Add four circle primitives for the rounded corners*
1,1,$1+$1,$2,$3*
1,1,$1+$1,$4,$5*
1,1,$1+$1,$6,$7*
1,1,$1+$1,$8,$9*
0 Add four rect primitives between the rounded corners*
20,1,$1+$1,$2,$3,$4,$5,0*
20,1,$1+$1,$4,$5,$6,$7,0*
20,1,$1+$1,$6,$7,$8,$9,0*
20,1,$1+$1,$8,$9,$2,$3,0*%
G04 Aperture macros list end*
%TA.AperFunction,ComponentPad*%
%ADD10C,1.700000*%
%TD*%
%TA.AperFunction,SMDPad,CuDef*%
%ADD11RoundRect,0.237500X-0.237500X0.250000X-0.237500X-0.250000X0.237500X-0.250000X0.237500X0.250000X0*%
%TD*%
%TA.AperFunction,ComponentPad*%
%ADD12RoundRect,0.250000X0.625000X-0.350000X0.625000X0.350000X-0.625000X0.350000X-0.625000X-0.350000X0*%
%TD*%
%TA.AperFunction,ComponentPad*%
%ADD13O,1.750000X1.200000*%
%TD*%
%TA.AperFunction,ComponentPad*%
%ADD14RoundRect,0.250000X-0.350000X-0.625000X0.350000X-0.625000X0.350000X0.625000X-0.350000X0.625000X0*%
%TD*%
%TA.AperFunction,ComponentPad*%
%ADD15O,1.200000X1.750000*%
%TD*%
%TA.AperFunction,ComponentPad*%
%ADD16R,1.700000X1.700000*%
%TD*%
%TA.AperFunction,SMDPad,CuDef*%
%ADD17RoundRect,0.237500X0.300000X0.237500X-0.300000X0.237500X-0.300000X-0.237500X0.300000X-0.237500X0*%
%TD*%
%TA.AperFunction,SMDPad,CuDef*%
%ADD18RoundRect,0.237500X-0.250000X-0.237500X0.250000X-0.237500X0.250000X0.237500X-0.250000X0.237500X0*%
%TD*%
%TA.AperFunction,SMDPad,CuDef*%
%ADD19RoundRect,0.237500X-0.300000X-0.237500X0.300000X-0.237500X0.300000X0.237500X-0.300000X0.237500X0*%
%TD*%
%TA.AperFunction,SMDPad,CuDef*%
%ADD20RoundRect,0.237500X0.250000X0.237500X-0.250000X0.237500X-0.250000X-0.237500X0.250000X-0.237500X0*%
%TD*%
%TA.AperFunction,SMDPad,CuDef*%
%ADD21RoundRect,0.237500X-0.237500X0.300000X-0.237500X-0.300000X0.237500X-0.300000X0.237500X0.300000X0*%
%TD*%
%TA.AperFunction,ViaPad*%
%ADD22C,1.200000*%
%TD*%
%TA.AperFunction,ViaPad*%
%ADD23C,0.600000*%
%TD*%
%TA.AperFunction,Conductor*%
%ADD24C,0.381000*%
%TD*%
%TA.AperFunction,Conductor*%
%ADD25C,0.508000*%
%TD*%
%TA.AperFunction,Conductor*%
%ADD26C,1.000000*%
%TD*%
G04 APERTURE END LIST*
D10*
%TO.P,U1,L1,5V*%
%TO.N,+5V*%
X133490000Y-69120000D03*
%TO.P,U1,L2,5V*%
X136030000Y-69120000D03*
%TO.P,U1,L3,3V3*%
%TO.N,+3V3*%
X133490000Y-71660000D03*
%TO.P,U1,L4,3V3*%
X136030000Y-71660000D03*
%TO.P,U1,L5,PA11*%
%TO.N,unconnected-(U1A-PA11-PadL5)*%
X133490000Y-74200000D03*
%TO.P,U1,L6,PA12*%
%TO.N,unconnected-(U1A-PA12-PadL6)*%
X136030000Y-74200000D03*
%TO.P,U1,L7,PC7*%
%TO.N,M2_INHB*%
X133490000Y-76740000D03*
%TO.P,U1,L8,PC6*%
%TO.N,M2_INHA*%
X136030000Y-76740000D03*
%TO.P,U1,L9,PA10*%
%TO.N,unconnected-(U1A-PA10-PadL9)*%
X133490000Y-79280000D03*
%TO.P,U1,L10,PA9*%
%TO.N,unconnected-(U1A-PA9-PadL10)*%
X136030000Y-79280000D03*
%TO.P,U1,L11,PC2*%
%TO.N,SPI2_MISO*%
X133490000Y-81820000D03*
%TO.P,U1,L12,PC3*%
%TO.N,ADC1_NCS*%
X136030000Y-81820000D03*
%TO.P,U1,L13,PC0*%
%TO.N,E_STOP*%
X133490000Y-84360000D03*
%TO.P,U1,L14,PC1*%
%TO.N,SPI2_MOSI*%
X136030000Y-84360000D03*
%TO.P,U1,L15,PD0*%
%TO.N,CAN_RX*%
X133490000Y-86900000D03*
%TO.P,U1,L16,PD1*%
%TO.N,CAN_TX*%
X136030000Y-86900000D03*
%TO.P,U1,L17,PD3*%
%TO.N,SPI2_SCK*%
X133490000Y-89440000D03*
%TO.P,U1,L18,PD4*%
%TO.N,ADC1_DRDY*%
X136030000Y-89440000D03*
%TO.P,U1,L19,PD5*%
%TO.N,USART_TX*%
X133490000Y-91980000D03*
%TO.P,U1,L20,PD6*%
%TO.N,USART_RX*%
X136030000Y-91980000D03*
%TO.P,U1,L21,PD7*%
%TO.N,ADC2_DRDY*%
X133490000Y-94520000D03*
%TO.P,U1,L22,PB3*%
%TO.N,E1_B*%
X136030000Y-94520000D03*
%TO.P,U1,L23,PB4*%
%TO.N,unconnected-(U1A-PB4-PadL23)*%
X133490000Y-97060000D03*
%TO.P,U1,L24,PB5*%
%TO.N,AUX_INT*%
X136030000Y-97060000D03*
%TO.P,U1,L25,PB7*%
%TO.N,I2C1_SDA*%
X133490000Y-99600000D03*
%TO.P,U1,L26,PB8*%
%TO.N,I2C1_SCL*%
X136030000Y-99600000D03*
%TO.P,U1,L27,PB9*%
%TO.N,unconnected-(U1A-PB9-PadL27)*%
X133490000Y-102140000D03*
%TO.P,U1,L28,PE0*%
%TO.N,ADC2_NCS*%
X136030000Y-102140000D03*
%TO.P,U1,L29,PE1*%
%TO.N,AUX_NCS*%
X133490000Y-104680000D03*
%TO.P,U1,L30,PA8*%
%TO.N,unconnected-(U1A-PA8-PadL30)*%
X136030000Y-104680000D03*
%TO.P,U1,L31,PE5*%
%TO.N,E2_NCS*%
X133490000Y-107220000D03*
%TO.P,U1,L32,PE6*%
%TO.N,M1_DRIVER_NCS*%
X136030000Y-107220000D03*
%TO.P,U1,L33,PE4*%
%TO.N,M2_DRIVER_EN*%
X133490000Y-109760000D03*
%TO.P,U1,L34,PE3*%
%TO.N,M2_DRIVER_NCS*%
X136030000Y-109760000D03*
%TO.P,U1,L35,PC8*%
%TO.N,M2_INHC*%
X133490000Y-112300000D03*
%TO.P,U1,L36,PC9*%
%TO.N,E1_NCS*%
X136030000Y-112300000D03*
%TO.P,U1,L37,PC10*%
%TO.N,SPI3_SCK*%
X133490000Y-114840000D03*
%TO.P,U1,L38,PC11*%
%TO.N,SPI3_MISO*%
X136030000Y-114840000D03*
%TO.P,U1,L39,PD2*%
%TO.N,PROBE_OUT*%
X133490000Y-117380000D03*
%TO.P,U1,L40,PC12*%
%TO.N,SPI3_MOSI*%
X136030000Y-117380000D03*
%TO.P,U1,R1,GND*%
%TO.N,GND*%
X163970000Y-69120000D03*
%TO.P,U1,R2,GND*%
X166510000Y-69120000D03*
%TO.P,U1,R3,PD14*%
%TO.N,unconnected-(U1B-PD14-PadR3)*%
X163970000Y-71660000D03*
%TO.P,U1,R4,PA15*%
%TO.N,E1_A*%
X166510000Y-71660000D03*
%TO.P,U1,R5,PD9*%
%TO.N,unconnected-(U1B-PD9-PadR5)*%
X163970000Y-74200000D03*
%TO.P,U1,R6,PD10*%
%TO.N,M1_nFAULT*%
X166510000Y-74200000D03*
%TO.P,U1,R7,PB15*%
%TO.N,M2_INLC*%
X163970000Y-76740000D03*
%TO.P,U1,R8,PD8*%
%TO.N,M1_nOCTW*%
X166510000Y-76740000D03*
%TO.P,U1,R9,PB13*%
%TO.N,M2_nFAULT*%
X163970000Y-79280000D03*
%TO.P,U1,R10,PB14*%
%TO.N,unconnected-(U1B-PB14-PadR10)*%
X166510000Y-79280000D03*
%TO.P,U1,R11,PB11*%
%TO.N,I2C2_SDA*%
X163970000Y-81820000D03*
%TO.P,U1,R12,PB12*%
%TO.N,M2_nOCTW*%
X166510000Y-81820000D03*
%TO.P,U1,R13,VBAT*%
%TO.N,unconnected-(U1B-VBAT-PadR13)*%
X163970000Y-84360000D03*
%TO.P,U1,R14,PB10*%
%TO.N,I2C2_SCL*%
X166510000Y-84360000D03*
%TO.P,U1,R15,PE13*%
%TO.N,M1_INHC*%
X163970000Y-86900000D03*
%TO.P,U1,R16,PE14*%
%TO.N,M1_DRIVER_EN*%
X166510000Y-86900000D03*
%TO.P,U1,R17,PE11*%
%TO.N,M1_INHB*%
X163970000Y-89440000D03*
%TO.P,U1,R18,PE12*%
%TO.N,M1_INLC*%
X166510000Y-89440000D03*
%TO.P,U1,R19,PE9*%
%TO.N,M1_INHA*%
X163970000Y-91980000D03*
%TO.P,U1,R20,PE10*%
%TO.N,M1_INLB*%
X166510000Y-91980000D03*
%TO.P,U1,R21,PE7*%
%TO.N,unconnected-(U1B-PE7-PadR21)*%
X163970000Y-94520000D03*
%TO.P,U1,R22,PE8*%
%TO.N,M1_INLA*%
X166510000Y-94520000D03*
%TO.P,U1,R23,PB0*%
%TO.N,M2_INLB*%
X163970000Y-97060000D03*
%TO.P,U1,R24,PB1*%
%TO.N,M2_IOutC*%
X166510000Y-97060000D03*
%TO.P,U1,R25,PC4*%
%TO.N,M1_IRef*%
X163970000Y-99600000D03*
%TO.P,U1,R26,PC5*%
%TO.N,M2_IOutB*%
X166510000Y-99600000D03*
%TO.P,U1,R27,PA6*%
%TO.N,M1_IOutA*%
X163970000Y-102140000D03*
%TO.P,U1,R28,PA7*%
%TO.N,M2_IOutA*%
X166510000Y-102140000D03*
%TO.P,U1,R29,PA4*%
%TO.N,M1_IOutB*%
X163970000Y-104680000D03*
%TO.P,U1,R30,PA5*%
%TO.N,M2_INLA*%
X166510000Y-104680000D03*
%TO.P,U1,R31,PA2*%
%TO.N,M1_IOutC*%
X163970000Y-107220000D03*
%TO.P,U1,R32,PA3*%
%TO.N,M2_IRef*%
X166510000Y-107220000D03*
%TO.P,U1,R33,PA0*%
%TO.N,E2_A*%
X163970000Y-109760000D03*
%TO.P,U1,R34,PA1*%
%TO.N,E2_B*%
X166510000Y-109760000D03*
%TO.P,U1,R35,PB2*%
%TO.N,unconnected-(U1B-PB2-PadR35)*%
X163970000Y-112300000D03*
%TO.P,U1,R36,PD13*%
%TO.N,unconnected-(U1B-PD13-PadR36)*%
X166510000Y-112300000D03*
%TO.P,U1,R37,PB6*%
%TO.N,unconnected-(U1B-PB6-PadR37)*%
X163970000Y-114840000D03*
%TO.P,U1,R38,PD11*%
%TO.N,unconnected-(U1B-PD11-PadR38)*%
X166510000Y-114840000D03*
%TO.P,U1,R39,PE2*%
%TO.N,unconnected-(U1B-PE2-PadR39)*%
X163970000Y-117380000D03*
%TO.P,U1,R40,PD12*%
%TO.N,unconnected-(U1B-PD12-PadR40)*%
X166510000Y-117380000D03*
%TD*%
D11*
%TO.P,R1,2*%
%TO.N,M1_nOCTW*%
X171000000Y-75840000D03*
%TO.P,R1,1*%
%TO.N,+3V3*%
X171000000Y-74015000D03*
%TD*%
D12*
%TO.P,J12,1,Pin_1*%
%TO.N,+3V3*%
X119000000Y-89000000D03*
D13*
%TO.P,J12,2,Pin_2*%
%TO.N,GND*%
X119000000Y-87000000D03*
%TO.P,J12,3,Pin_3*%
%TO.N,SPI2_MOSI*%
X119000000Y-85000000D03*
%TO.P,J12,4,Pin_4*%
%TO.N,GND*%
X119000000Y-83000000D03*
%TO.P,J12,5,Pin_5*%
%TO.N,SPI2_MISO*%
X119000000Y-81000000D03*
%TO.P,J12,6,Pin_6*%
%TO.N,GND*%
X119000000Y-79000000D03*
%TO.P,J12,7,Pin_7*%
%TO.N,SPI2_SCK*%
X119000000Y-77000000D03*
%TO.P,J12,8,Pin_8*%
%TO.N,GND*%
X119000000Y-75000000D03*
%TO.P,J12,9,Pin_9*%
%TO.N,ADC1_NCS*%
X119000000Y-73000000D03*
%TO.P,J12,10,Pin_10*%
%TO.N,ADC1_DRDY*%
X119000000Y-71000000D03*
%TD*%
D14*
%TO.P,J7,1,Pin_1*%
%TO.N,GND*%
X137100195Y-127899805D03*
D15*
%TO.P,J7,2,Pin_2*%
%TO.N,+3V3*%
X139100195Y-127899805D03*
%TO.P,J7,3,Pin_3*%
%TO.N,GND*%
X141100195Y-127899805D03*
%TO.P,J7,4,Pin_4*%
%TO.N,I2C1_SDA*%
X143100195Y-127899805D03*
%TO.P,J7,5,Pin_5*%
%TO.N,GND*%
X145100195Y-127899805D03*
%TO.P,J7,6,Pin_6*%
%TO.N,I2C1_SCL*%
X147100195Y-127899805D03*
%TD*%
D16*
%TO.P,J18,1,Pin_1*%
%TO.N,GND*%
X121460000Y-63000000D03*
D10*
%TO.P,J18,2,Pin_2*%
%TO.N,+5V*%
X124000000Y-63000000D03*
%TD*%
D16*
%TO.P,J17,1,Pin_1*%
%TO.N,unconnected-(J17-Pin_1-Pad1)*%
X110500000Y-87460000D03*
D10*
%TO.P,J17,2,Pin_2*%
%TO.N,GND*%
X110500000Y-90000000D03*
%TO.P,J17,3,Pin_3*%
%TO.N,USART_TX*%
X110500000Y-92540000D03*
%TO.P,J17,4,Pin_4*%
%TO.N,USART_RX*%
X110500000Y-95080000D03*
%TD*%
D17*
%TO.P,C1,1*%
%TO.N,+3V3*%
X138862500Y-132500000D03*
%TO.P,C1,2*%
%TO.N,GND*%
X137137500Y-132500000D03*
%TD*%
D18*
%TO.P,R7,1*%
%TO.N,+3V3*%
X163000000Y-65000000D03*
%TO.P,R7,2*%
%TO.N,I2C2_SCL*%
X164825000Y-65000000D03*
%TD*%
D12*
%TO.P,J9,1,Pin_1*%
%TO.N,+3V3*%
X119000000Y-118000000D03*
D13*
%TO.P,J9,2,Pin_2*%
%TO.N,GND*%
X119000000Y-116000000D03*
%TO.P,J9,3,Pin_3*%
%TO.N,SPI3_MOSI*%
X119000000Y-114000000D03*
%TO.P,J9,4,Pin_4*%
%TO.N,GND*%
X119000000Y-112000000D03*
%TO.P,J9,5,Pin_5*%
%TO.N,SPI3_MISO*%
X119000000Y-110000000D03*
%TO.P,J9,6,Pin_6*%
%TO.N,GND*%
X119000000Y-108000000D03*
%TO.P,J9,7,Pin_7*%
%TO.N,SPI3_SCK*%
X119000000Y-106000000D03*
%TO.P,J9,8,Pin_8*%
%TO.N,GND*%
X119000000Y-104000000D03*
%TO.P,J9,9,Pin_9*%
%TO.N,E1_NCS*%
X119000000Y-102000000D03*
%TD*%
D16*
%TO.P,J6,1,Pin_1*%
%TO.N,unconnected-(J6-Pin_1-Pad1)*%
X183003750Y-85840000D03*
D10*
%TO.P,J6,2,Pin_2*%
%TO.N,M2_DRIVER_EN*%
X185543750Y-85840000D03*
%TO.P,J6,3,Pin_3*%
%TO.N,M2_INHA*%
X183003750Y-88380000D03*
%TO.P,J6,4,Pin_4*%
%TO.N,M2_INLA*%
X185543750Y-88380000D03*
%TO.P,J6,5,Pin_5*%
%TO.N,M2_INHB*%
X183003750Y-90920000D03*
%TO.P,J6,6,Pin_6*%
%TO.N,M2_INLB*%
X185543750Y-90920000D03*
%TO.P,J6,7,Pin_7*%
%TO.N,M2_INHC*%
X183003750Y-93460000D03*
%TO.P,J6,8,Pin_8*%
%TO.N,M2_INLC*%
X185543750Y-93460000D03*
%TO.P,J6,9,Pin_9*%
%TO.N,GND*%
X183003750Y-96000000D03*
%TO.P,J6,10,Pin_10*%
X185543750Y-96000000D03*
%TO.P,J6,11,Pin_11*%
X183003750Y-98540000D03*
%TO.P,J6,12,Pin_12*%
X185543750Y-98540000D03*
%TD*%
D18*
%TO.P,R8,1*%
%TO.N,+3V3*%
X178087500Y-69500000D03*
%TO.P,R8,2*%
%TO.N,I2C2_SDA*%
X179912500Y-69500000D03*
%TD*%
D16*
%TO.P,J3,1,Pin_1*%
%TO.N,GND*%
X174460000Y-73840000D03*
D10*
%TO.P,J3,2,Pin_2*%
%TO.N,unconnected-(J3-Pin_2-Pad2)*%
X177000000Y-73840000D03*
%TO.P,J3,3,Pin_3*%
%TO.N,M1_nOCTW*%
X174460000Y-76380000D03*
%TO.P,J3,4,Pin_4*%
%TO.N,M1_nFAULT*%
X177000000Y-76380000D03*
%TO.P,J3,5,Pin_5*%
%TO.N,M1_DRIVER_NCS*%
X174460000Y-78920000D03*
%TO.P,J3,6,Pin_6*%
%TO.N,SPI3_MOSI*%
X177000000Y-78920000D03*
%TO.P,J3,7,Pin_7*%
%TO.N,SPI3_MISO*%
X174460000Y-81460000D03*
%TO.P,J3,8,Pin_8*%
%TO.N,SPI3_SCK*%
X177000000Y-81460000D03*
%TD*%
D17*
%TO.P,C8,1*%
%TO.N,+5V*%
X126725000Y-66000000D03*
%TO.P,C8,2*%
%TO.N,GND*%
X125000000Y-66000000D03*
%TD*%
D19*
%TO.P,C2,1*%
%TO.N,+3V3*%
X119137500Y-92500000D03*
%TO.P,C2,2*%
%TO.N,GND*%
X120862500Y-92500000D03*
%TD*%
D14*
%TO.P,J15,1,Pin_1*%
%TO.N,GND*%
X173000000Y-111000000D03*
D15*
%TO.P,J15,2,Pin_2*%
%TO.N,M2_IOutA*%
X175000000Y-111000000D03*
%TO.P,J15,3,Pin_3*%
%TO.N,M2_IRef*%
X177000000Y-111000000D03*
%TO.P,J15,4,Pin_4*%
%TO.N,M2_IOutB*%
X179000000Y-111000000D03*
%TO.P,J15,5,Pin_5*%
%TO.N,M2_IRef*%
X181000000Y-111000000D03*
%TO.P,J15,6,Pin_6*%
%TO.N,M2_IOutC*%
X183000000Y-111000000D03*
%TO.P,J15,7,Pin_7*%
%TO.N,M2_IRef*%
X185000000Y-111000000D03*
%TO.P,J15,8,Pin_8*%
%TO.N,GND*%
X187000000Y-111000000D03*
%TD*%
D18*
%TO.P,R4,1*%
%TO.N,+3V3*%
X182543750Y-70840000D03*
%TO.P,R4,2*%
%TO.N,M2_nFAULT*%
X184368750Y-70840000D03*
%TD*%
D14*
%TO.P,J14,1,Pin_1*%
%TO.N,GND*%
X173000000Y-118000000D03*
D15*
%TO.P,J14,2,Pin_2*%
%TO.N,M1_IOutA*%
X175000000Y-118000000D03*
%TO.P,J14,3,Pin_3*%
%TO.N,M1_IRef*%
X177000000Y-118000000D03*
%TO.P,J14,4,Pin_4*%
%TO.N,M1_IOutB*%
X179000000Y-118000000D03*
%TO.P,J14,5,Pin_5*%
%TO.N,M1_IRef*%
X181000000Y-118000000D03*
%TO.P,J14,6,Pin_6*%
%TO.N,M1_IOutC*%
X183000000Y-118000000D03*
%TO.P,J14,7,Pin_7*%
%TO.N,M1_IRef*%
X185000000Y-118000000D03*
%TO.P,J14,8,Pin_8*%
%TO.N,GND*%
X187000000Y-118000000D03*
%TD*%
D16*
%TO.P,J4,1,Pin_1*%
%TO.N,unconnected-(J4-Pin_1-Pad1)*%
X174460000Y-85920000D03*
D10*
%TO.P,J4,2,Pin_2*%
%TO.N,M1_DRIVER_EN*%
X177000000Y-85920000D03*
%TO.P,J4,3,Pin_3*%
%TO.N,M1_INHA*%
X174460000Y-88460000D03*
%TO.P,J4,4,Pin_4*%
%TO.N,M1_INLA*%
X177000000Y-88460000D03*
%TO.P,J4,5,Pin_5*%
%TO.N,M1_INHB*%
X174460000Y-91000000D03*
%TO.P,J4,6,Pin_6*%
%TO.N,M1_INLB*%
X177000000Y-91000000D03*
%TO.P,J4,7,Pin_7*%
%TO.N,M1_INHC*%
X174460000Y-93540000D03*
%TO.P,J4,8,Pin_8*%
%TO.N,M1_INLC*%
X177000000Y-93540000D03*
%TO.P,J4,9,Pin_9*%
%TO.N,GND*%
X174460000Y-96080000D03*
%TO.P,J4,10,Pin_10*%
X177000000Y-96080000D03*
%TO.P,J4,11,Pin_11*%
X174460000Y-98620000D03*
%TO.P,J4,12,Pin_12*%
X177000000Y-98620000D03*
%TD*%
D12*
%TO.P,SW1,1,1*%
%TO.N,GND*%
X111000000Y-79000000D03*
D13*
%TO.P,SW1,2,2*%
%TO.N,Net-(R9-Pad2)*%
X111000000Y-77000000D03*
%TD*%
D20*
%TO.P,R5,1*%
%TO.N,+3V3*%
X146956250Y-133500000D03*
%TO.P,R5,2*%
%TO.N,I2C1_SCL*%
X145131250Y-133500000D03*
%TD*%
D14*
%TO.P,J8,1,Pin_1*%
%TO.N,GND*%
X172000000Y-65000000D03*
D15*
%TO.P,J8,2,Pin_2*%
%TO.N,+3V3*%
X174000000Y-65000000D03*
%TO.P,J8,3,Pin_3*%
%TO.N,GND*%
X176000000Y-65000000D03*
%TO.P,J8,4,Pin_4*%
%TO.N,I2C2_SDA*%
X178000000Y-65000000D03*
%TO.P,J8,5,Pin_5*%
%TO.N,GND*%
X180000000Y-65000000D03*
%TO.P,J8,6,Pin_6*%
%TO.N,I2C2_SCL*%
X182000000Y-65000000D03*
%TD*%
D11*
%TO.P,R3,1*%
%TO.N,+3V3*%
X180000000Y-73927500D03*
%TO.P,R3,2*%
%TO.N,M2_nOCTW*%
X180000000Y-75752500D03*
%TD*%
D17*
%TO.P,C5,1*%
%TO.N,+3V3*%
X125862500Y-121500000D03*
%TO.P,C5,2*%
%TO.N,GND*%
X124137500Y-121500000D03*
%TD*%
D16*
%TO.P,J19,1,Pin_1*%
%TO.N,+3V3*%
X114500000Y-84920000D03*
D10*
%TO.P,J19,2,Pin_2*%
%TO.N,unconnected-(J19-Pin_2-Pad2)*%
X114500000Y-87460000D03*
%TO.P,J19,3,Pin_3*%
%TO.N,GND*%
X114500000Y-90000000D03*
%TO.P,J19,4,Pin_4*%
%TO.N,CAN_RX*%
X114500000Y-92540000D03*
%TO.P,J19,5,Pin_5*%
%TO.N,CAN_TX*%
X114500000Y-95080000D03*
%TD*%
D12*
%TO.P,J2,1,Pin_1*%
%TO.N,E1_A*%
X119000000Y-132000000D03*
D13*
%TO.P,J2,2,Pin_2*%
%TO.N,GND*%
X119000000Y-130000000D03*
%TO.P,J2,3,Pin_3*%
%TO.N,E1_B*%
X119000000Y-128000000D03*
%TO.P,J2,4,Pin_4*%
%TO.N,GND*%
X119000000Y-126000000D03*
%TD*%
D20*
%TO.P,R6,1*%
%TO.N,+3V3*%
X142825000Y-133000000D03*
%TO.P,R6,2*%
%TO.N,I2C1_SDA*%
X141000000Y-133000000D03*
%TD*%
D12*
%TO.P,J13,1,Pin_1*%
%TO.N,+3V3*%
X112000000Y-118000000D03*
D13*
%TO.P,J13,2,Pin_2*%
%TO.N,GND*%
X112000000Y-116000000D03*
%TO.P,J13,3,Pin_3*%
%TO.N,SPI3_MOSI*%
X112000000Y-114000000D03*
%TO.P,J13,4,Pin_4*%
%TO.N,GND*%
X112000000Y-112000000D03*
%TO.P,J13,5,Pin_5*%
%TO.N,SPI3_MISO*%
X112000000Y-110000000D03*
%TO.P,J13,6,Pin_6*%
%TO.N,GND*%
X112000000Y-108000000D03*
%TO.P,J13,7,Pin_7*%
%TO.N,SPI3_SCK*%
X112000000Y-106000000D03*
%TO.P,J13,8,Pin_8*%
%TO.N,GND*%
X112000000Y-104000000D03*
%TO.P,J13,9,Pin_9*%
%TO.N,AUX_NCS*%
X112000000Y-102000000D03*
%TO.P,J13,10,Pin_10*%
%TO.N,AUX_INT*%
X112000000Y-100000000D03*
%TD*%
D21*
%TO.P,C3,1*%
%TO.N,+3V3*%
X167000000Y-64775000D03*
%TO.P,C3,2*%
%TO.N,GND*%
X167000000Y-66500000D03*
%TD*%
D12*
%TO.P,J11,1,Pin_1*%
%TO.N,+3V3*%
X126000000Y-89000000D03*
D13*
%TO.P,J11,2,Pin_2*%
%TO.N,GND*%
X126000000Y-87000000D03*
%TO.P,J11,3,Pin_3*%
%TO.N,SPI2_MOSI*%
X126000000Y-85000000D03*
%TO.P,J11,4,Pin_4*%
%TO.N,GND*%
X126000000Y-83000000D03*
%TO.P,J11,5,Pin_5*%
%TO.N,SPI2_MISO*%
X126000000Y-81000000D03*
%TO.P,J11,6,Pin_6*%
%TO.N,GND*%
X126000000Y-79000000D03*
%TO.P,J11,7,Pin_7*%
%TO.N,SPI2_SCK*%
X126000000Y-77000000D03*
%TO.P,J11,8,Pin_8*%
%TO.N,GND*%
X126000000Y-75000000D03*
%TO.P,J11,9,Pin_9*%
%TO.N,ADC2_NCS*%
X126000000Y-73000000D03*
%TO.P,J11,10,Pin_10*%
%TO.N,ADC2_DRDY*%
X126000000Y-71000000D03*
%TD*%
D16*
%TO.P,J16,1,Pin_1*%
%TO.N,PROBE_OUT*%
X153460000Y-128000000D03*
D10*
%TO.P,J16,2,Pin_2*%
%TO.N,+3V3*%
X156000000Y-128000000D03*
%TO.P,J16,3,Pin_3*%
%TO.N,GND*%
X158540000Y-128000000D03*
%TD*%
D19*
%TO.P,C7,1*%
%TO.N,+3V3*%
X112275000Y-121500000D03*
%TO.P,C7,2*%
%TO.N,GND*%
X114000000Y-121500000D03*
%TD*%
D18*
%TO.P,R2,1*%
%TO.N,+3V3*%
X174175000Y-70840000D03*
%TO.P,R2,2*%
%TO.N,M1_nFAULT*%
X176000000Y-70840000D03*
%TD*%
D17*
%TO.P,C6,1*%
%TO.N,+3V3*%
X125862500Y-92500000D03*
%TO.P,C6,2*%
%TO.N,GND*%
X124137500Y-92500000D03*
%TD*%
D19*
%TO.P,C4,1*%
%TO.N,+3V3*%
X119137500Y-121500000D03*
%TO.P,C4,2*%
%TO.N,GND*%
X120862500Y-121500000D03*
%TD*%
D12*
%TO.P,J10,1,Pin_1*%
%TO.N,E2_A*%
X126000000Y-132000000D03*
D13*
%TO.P,J10,2,Pin_2*%
%TO.N,GND*%
X126000000Y-130000000D03*
%TO.P,J10,3,Pin_3*%
%TO.N,E2_B*%
X126000000Y-128000000D03*
%TO.P,J10,4,Pin_4*%
%TO.N,GND*%
X126000000Y-126000000D03*
%TD*%
D12*
%TO.P,J1,1,Pin_1*%
%TO.N,+3V3*%
X126000000Y-118000000D03*
D13*
%TO.P,J1,2,Pin_2*%
%TO.N,GND*%
X126000000Y-116000000D03*
%TO.P,J1,3,Pin_3*%
%TO.N,SPI3_MOSI*%
X126000000Y-114000000D03*
%TO.P,J1,4,Pin_4*%
%TO.N,GND*%
X126000000Y-112000000D03*
%TO.P,J1,5,Pin_5*%
%TO.N,SPI3_MISO*%
X126000000Y-110000000D03*
%TO.P,J1,6,Pin_6*%
%TO.N,GND*%
X126000000Y-108000000D03*
%TO.P,J1,7,Pin_7*%
%TO.N,SPI3_SCK*%
X126000000Y-106000000D03*
%TO.P,J1,8,Pin_8*%
%TO.N,GND*%
X126000000Y-104000000D03*
%TO.P,J1,9,Pin_9*%
%TO.N,E2_NCS*%
X126000000Y-102000000D03*
%TD*%
D20*
%TO.P,R9,1*%
%TO.N,E_STOP*%
X112825000Y-73000000D03*
%TO.P,R9,2*%
%TO.N,Net-(R9-Pad2)*%
X111000000Y-73000000D03*
%TD*%
D16*
%TO.P,J5,1,Pin_1*%
%TO.N,GND*%
X183003750Y-73760000D03*
D10*
%TO.P,J5,2,Pin_2*%
%TO.N,unconnected-(J5-Pin_2-Pad2)*%
X185543750Y-73760000D03*
%TO.P,J5,3,Pin_3*%
%TO.N,M2_nOCTW*%
X183003750Y-76300000D03*
%TO.P,J5,4,Pin_4*%
%TO.N,M2_nFAULT*%
X185543750Y-76300000D03*
%TO.P,J5,5,Pin_5*%
%TO.N,M2_DRIVER_NCS*%
X183003750Y-78840000D03*
%TO.P,J5,6,Pin_6*%
%TO.N,SPI3_MOSI*%
X185543750Y-78840000D03*
%TO.P,J5,7,Pin_7*%
%TO.N,SPI3_MISO*%
X183003750Y-81380000D03*
%TO.P,J5,8,Pin_8*%
%TO.N,SPI3_SCK*%
X185543750Y-81380000D03*
%TD*%
D22*
%TO.N,+3V3*%
X169000000Y-74000000D03*
X176000000Y-69000000D03*
X172000000Y-71000000D03*
X140012031Y-131725348D03*
X180543750Y-71000000D03*
X160912500Y-65000000D03*
X144000000Y-132000000D03*
X149000000Y-132500000D03*
%TO.N,GND*%
X116000000Y-121000000D03*
X122500000Y-92500000D03*
X122500000Y-121500000D03*
%TO.N,SPI3_SCK*%
X131000000Y-112000000D03*
X188939750Y-83000000D03*
%TO.N,E1_A*%
X147000000Y-87000000D03*
D23*
%TO.N,M1_DRIVER_EN*%
X169000000Y-86528000D03*
D22*
%TO.N,M2_DRIVER_NCS*%
X139000000Y-102000000D03*
%TO.N,M2_nOCTW*%
X172000000Y-79000000D03*
X180575890Y-79015110D03*
%TO.N,M2_INLA*%
X179000000Y-101000000D03*
%TO.N,I2C1_SCL*%
X131000000Y-133000000D03*
%TO.N,I2C1_SDA*%
X132000000Y-132000000D03*
%TO.N,I2C2_SCL*%
X161000000Y-82000000D03*
%TO.N,E2_A*%
X151000000Y-110011000D03*
%TO.N,E2_B*%
X147840193Y-110777494D03*
%TO.N,SPI2_SCK*%
X130000000Y-87500000D03*
%TO.N,ADC1_DRDY*%
X123000000Y-90000000D03*
%TO.N,PROBE_OUT*%
X143400003Y-122000000D03*
%TO.N,E_STOP*%
X116000000Y-79500000D03*
%TD*%
D24*
%TO.N,M1_IOutB*%
X167418000Y-120582000D02*
X162587356Y-120582000D01*
X160000000Y-117994644D02*
X160000000Y-108650000D01*
X172000000Y-116000000D02*
X167418000Y-120582000D01*
X177000000Y-116000000D02*
X172000000Y-116000000D01*
X162587356Y-120582000D02*
X160000000Y-117994644D01*
X179000000Y-118000000D02*
X177000000Y-116000000D01*
X160000000Y-108650000D02*
X163970000Y-104680000D01*
%TO.N,M1_IOutC*%
X161000000Y-110190000D02*
X163970000Y-107220000D01*
X166998661Y-119500000D02*
X163500000Y-119500000D01*
X180000000Y-115000000D02*
X171498661Y-115000000D01*
X163500000Y-119500000D02*
X161000000Y-117000000D01*
X161000000Y-117000000D02*
X161000000Y-110190000D01*
X183000000Y-118000000D02*
X180000000Y-115000000D01*
X171498661Y-115000000D02*
X166998661Y-119500000D01*
%TO.N,M2_IRef*%
X185000000Y-111500000D02*
X185000000Y-111000000D01*
X183500000Y-113000000D02*
X185000000Y-111500000D01*
X181000000Y-113000000D02*
X183500000Y-113000000D01*
D25*
X177000000Y-111000000D02*
X177000000Y-113000000D01*
D24*
X177000000Y-113000000D02*
X181000000Y-113000000D01*
D25*
X181000000Y-111000000D02*
X181000000Y-113000000D01*
D24*
X172290000Y-113000000D02*
X177000000Y-113000000D01*
X166510000Y-107220000D02*
X172290000Y-113000000D01*
%TO.N,M1_INLB*%
X175758500Y-92241500D02*
X172577000Y-92241500D01*
X177000000Y-91000000D02*
X175758500Y-92241500D01*
X172577000Y-92241500D02*
X169000000Y-95818500D01*
D25*
%TO.N,+3V3*%
X168579500Y-66354500D02*
X167000000Y-64775000D01*
X172645500Y-66354500D02*
X168579500Y-66354500D01*
X174000000Y-65000000D02*
X172645500Y-66354500D01*
%TO.N,GND*%
X167000000Y-68630000D02*
X166510000Y-69120000D01*
X167000000Y-66500000D02*
X167000000Y-68630000D01*
%TO.N,+3V3*%
X139100195Y-127899805D02*
X139100195Y-131500000D01*
D24*
X172160000Y-70840000D02*
X172000000Y-71000000D01*
X143000000Y-133000000D02*
X144000000Y-132000000D01*
D25*
X125862500Y-118137500D02*
X126000000Y-118000000D01*
D24*
X148000000Y-133500000D02*
X149000000Y-132500000D01*
X142825000Y-133000000D02*
X143000000Y-133000000D01*
D25*
X125862500Y-89137500D02*
X126000000Y-89000000D01*
D24*
X174175000Y-70840000D02*
X172160000Y-70840000D01*
D26*
X133490000Y-71660000D02*
X136030000Y-71660000D01*
D24*
X180543750Y-71000000D02*
X180703750Y-70840000D01*
D25*
X139100195Y-131500000D02*
X139786683Y-131500000D01*
X119000000Y-118000000D02*
X119000000Y-121362500D01*
X139786683Y-131500000D02*
X140012031Y-131725348D01*
X119000000Y-121362500D02*
X119137500Y-121500000D01*
X138825195Y-127624805D02*
X139100195Y-127899805D01*
D24*
X163000000Y-65000000D02*
X160912500Y-65000000D01*
D25*
X119000000Y-89000000D02*
X119000000Y-92362500D01*
X112000000Y-121225000D02*
X112275000Y-121500000D01*
D24*
X180703750Y-70840000D02*
X182543750Y-70840000D01*
X178087500Y-69500000D02*
X176500000Y-69500000D01*
D25*
X139100195Y-132262305D02*
X138862500Y-132500000D01*
X125862500Y-92500000D02*
X125862500Y-89137500D01*
D24*
X176500000Y-69500000D02*
X176000000Y-69000000D01*
X146956250Y-133500000D02*
X148000000Y-133500000D01*
D25*
X125862500Y-121500000D02*
X125862500Y-118137500D01*
X112000000Y-118000000D02*
X112000000Y-121225000D01*
D24*
X180000000Y-71543750D02*
X180543750Y-71000000D01*
D25*
X139100195Y-131500000D02*
X139100195Y-132262305D01*
X119000000Y-92362500D02*
X119137500Y-92500000D01*
%TO.N,GND*%
X115500000Y-121500000D02*
X116000000Y-121000000D01*
D26*
X166510000Y-69120000D02*
X163970000Y-69120000D01*
D25*
X114000000Y-121500000D02*
X115500000Y-121500000D01*
X122500000Y-121500000D02*
X124137500Y-121500000D01*
D26*
X125000000Y-66000000D02*
X124460000Y-66000000D01*
D25*
X137100195Y-127899805D02*
X137100195Y-132462695D01*
D26*
X124460000Y-66000000D02*
X121460000Y-63000000D01*
D25*
X122500000Y-92500000D02*
X124137500Y-92500000D01*
X137100195Y-132462695D02*
X137137500Y-132500000D01*
X120862500Y-121500000D02*
X122500000Y-121500000D01*
X120862500Y-92500000D02*
X122500000Y-92500000D01*
D24*
%TO.N,SPI3_MISO*%
X179555428Y-80218500D02*
X180716928Y-81380000D01*
X119000000Y-110000000D02*
X126000000Y-110000000D01*
X126000000Y-110000000D02*
X129541500Y-113541500D01*
X112000000Y-110000000D02*
X119000000Y-110000000D01*
X174460000Y-81460000D02*
X175701500Y-80218500D01*
X180716928Y-81380000D02*
X183003750Y-81380000D01*
X175701500Y-80218500D02*
X179555428Y-80218500D01*
X129541500Y-113541500D02*
X134731500Y-113541500D01*
X134731500Y-113541500D02*
X136030000Y-114840000D01*
%TO.N,E2_NCS*%
X126000000Y-102000000D02*
X128270000Y-102000000D01*
X128270000Y-102000000D02*
X133490000Y-107220000D01*
%TO.N,SPI3_SCK*%
X184302250Y-82621500D02*
X178161500Y-82621500D01*
X187163750Y-83000000D02*
X185543750Y-81380000D01*
X112000000Y-106000000D02*
X119000000Y-106000000D01*
X126000000Y-106000000D02*
X131000000Y-111000000D01*
X119000000Y-106000000D02*
X126000000Y-106000000D01*
X131000000Y-111000000D02*
X131000000Y-112000000D01*
X177000000Y-81460000D02*
X178161500Y-82621500D01*
X184302250Y-82621500D02*
X185543750Y-81380000D01*
X188939750Y-83000000D02*
X187163750Y-83000000D01*
%TO.N,SPI3_MOSI*%
X184302250Y-80081500D02*
X185543750Y-78840000D01*
X177000000Y-78920000D02*
X177080000Y-78840000D01*
X112000000Y-114000000D02*
X119000000Y-114000000D01*
X179000000Y-78840000D02*
X180241500Y-80081500D01*
X119000000Y-114000000D02*
X126000000Y-114000000D01*
X177080000Y-78840000D02*
X179000000Y-78840000D01*
X128138500Y-116138500D02*
X134788500Y-116138500D01*
X134788500Y-116138500D02*
X136030000Y-117380000D01*
X180241500Y-80081500D02*
X184302250Y-80081500D01*
X126000000Y-114000000D02*
X128138500Y-116138500D01*
%TO.N,E1_A*%
X125314307Y-124304887D02*
X130415694Y-119203500D01*
X147000000Y-108988819D02*
X147000000Y-87000000D01*
X130415694Y-119203500D02*
X136785319Y-119203500D01*
X136785319Y-119203500D02*
X147000000Y-108988819D01*
X124733500Y-126266501D02*
X124733500Y-125589307D01*
X124733500Y-125589307D02*
X125314307Y-125008500D01*
X119000000Y-132000000D02*
X124733500Y-126266501D01*
X125314307Y-125008500D02*
X125314307Y-124304887D01*
%TO.N,E1_B*%
X139991500Y-98481500D02*
X136030000Y-94520000D01*
X139991500Y-115174247D02*
X139991500Y-98481500D01*
X130174622Y-118621500D02*
X136544247Y-118621500D01*
X124732307Y-124063815D02*
X130174622Y-118621500D01*
X136544247Y-118621500D02*
X139991500Y-115174247D01*
X124732307Y-124165754D02*
X124732307Y-124063815D01*
X120898061Y-128000000D02*
X124732307Y-124165754D01*
X119000000Y-128000000D02*
X120898061Y-128000000D01*
%TO.N,M1_nFAULT*%
X175701500Y-75081500D02*
X175701500Y-72000000D01*
X168710000Y-72000000D02*
X166510000Y-74200000D01*
X177000000Y-76380000D02*
X175701500Y-75081500D01*
X175701500Y-71138500D02*
X176000000Y-70840000D01*
X175701500Y-72000000D02*
X168710000Y-72000000D01*
X175701500Y-72000000D02*
X175701500Y-71138500D01*
%TO.N,M1_nOCTW*%
X171000000Y-75840000D02*
X167410000Y-75840000D01*
X167410000Y-75840000D02*
X166510000Y-76740000D01*
X171000000Y-75840000D02*
X173920000Y-75840000D01*
X173920000Y-75840000D02*
X174460000Y-76380000D01*
%TO.N,M1_DRIVER_EN*%
X170849500Y-84678500D02*
X169000000Y-86528000D01*
X177000000Y-85920000D02*
X175758500Y-84678500D01*
X175758500Y-84678500D02*
X170849500Y-84678500D01*
%TO.N,M1_INHA*%
X169825747Y-88460000D02*
X167547247Y-90738500D01*
X165211500Y-90738500D02*
X163970000Y-91980000D01*
X167547247Y-90738500D02*
X165211500Y-90738500D01*
X174460000Y-88460000D02*
X169825747Y-88460000D01*
%TO.N,M1_INLA*%
X171271500Y-89758500D02*
X175701500Y-89758500D01*
X175701500Y-89758500D02*
X177000000Y-88460000D01*
X166510000Y-94520000D02*
X171271500Y-89758500D01*
%TO.N,M2_DRIVER_NCS*%
X139000000Y-106790000D02*
X136030000Y-109760000D01*
X139000000Y-102000000D02*
X139000000Y-106790000D01*
%TO.N,M2_nFAULT*%
X181819250Y-75058500D02*
X184302250Y-75058500D01*
X179000000Y-74873500D02*
X181634250Y-74873500D01*
X184302250Y-70906500D02*
X184302250Y-75058500D01*
X165211500Y-78038500D02*
X167024247Y-78038500D01*
X184302250Y-75058500D02*
X185543750Y-76300000D01*
X184368750Y-70840000D02*
X184302250Y-70906500D01*
X167384247Y-77678500D02*
X177457247Y-77678500D01*
X178241500Y-75632000D02*
X179000000Y-74873500D01*
X163970000Y-79280000D02*
X165211500Y-78038500D01*
X184245250Y-70963500D02*
X184368750Y-70840000D01*
X177457247Y-77678500D02*
X178241500Y-76894247D01*
X167024247Y-78038500D02*
X167384247Y-77678500D01*
X181634250Y-74873500D02*
X181819250Y-75058500D01*
X178241500Y-76894247D02*
X178241500Y-75632000D01*
%TO.N,M2_nOCTW*%
X180000000Y-75752500D02*
X182456250Y-75752500D01*
X180068258Y-78507478D02*
X180068258Y-75820758D01*
X172000000Y-79000000D02*
X169330000Y-79000000D01*
X169330000Y-79000000D02*
X166510000Y-81820000D01*
X180575890Y-79015110D02*
X180068258Y-78507478D01*
X182456250Y-75752500D02*
X183003750Y-76300000D01*
X180068258Y-75820758D02*
X180000000Y-75752500D01*
%TO.N,M2_INHA*%
X143206500Y-83061500D02*
X136885000Y-76740000D01*
X177778428Y-83154678D02*
X183003750Y-88380000D01*
X177778428Y-83061500D02*
X143206500Y-83061500D01*
X177778428Y-83061500D02*
X177778428Y-83154678D01*
X136885000Y-76740000D02*
X136030000Y-76740000D01*
%TO.N,M2_INHB*%
X167024247Y-85658500D02*
X168584247Y-87218500D01*
X168584247Y-87218500D02*
X179302250Y-87218500D01*
X137233464Y-78000000D02*
X144891964Y-85658500D01*
X133490000Y-76740000D02*
X134750000Y-78000000D01*
X144891964Y-85658500D02*
X167024247Y-85658500D01*
X179302250Y-87218500D02*
X183003750Y-90920000D01*
X134750000Y-78000000D02*
X137233464Y-78000000D01*
%TO.N,I2C1_SCL*%
X145131250Y-129868750D02*
X147100195Y-127899805D01*
X131948500Y-133948500D02*
X143682750Y-133948500D01*
X144131250Y-133500000D02*
X145131250Y-133500000D01*
X143682750Y-133948500D02*
X144131250Y-133500000D01*
X145131250Y-133500000D02*
X145131250Y-129868750D01*
X131000000Y-133000000D02*
X131948500Y-133948500D01*
%TO.N,I2C1_SDA*%
X141000000Y-133000000D02*
X141000000Y-131796122D01*
X139429622Y-133366500D02*
X139796122Y-133000000D01*
X132000000Y-132000000D02*
X133366500Y-133366500D01*
X141000000Y-131796122D02*
X143100195Y-129695927D01*
X133366500Y-133366500D02*
X139429622Y-133366500D01*
X139796122Y-133000000D02*
X141000000Y-133000000D01*
X143100195Y-129695927D02*
X143100195Y-127899805D01*
%TO.N,I2C2_SCL*%
X166266500Y-63733500D02*
X161000000Y-69000000D01*
X182000000Y-65000000D02*
X180733500Y-63733500D01*
X161000000Y-69000000D02*
X161000000Y-82000000D01*
X180733500Y-63733500D02*
X166266500Y-63733500D01*
%TO.N,I2C2_SDA*%
X170385747Y-67000000D02*
X167024247Y-70361500D01*
X179912500Y-66912500D02*
X178000000Y-65000000D01*
X162728500Y-80578500D02*
X163970000Y-81820000D01*
X179912500Y-69500000D02*
X179912500Y-66912500D01*
X178000000Y-65000000D02*
X176000000Y-67000000D01*
X163512753Y-70361500D02*
X162728500Y-71145753D01*
X162728500Y-71145753D02*
X162728500Y-80578500D01*
X167024247Y-70361500D02*
X163512753Y-70361500D01*
X176000000Y-67000000D02*
X170385747Y-67000000D01*
%TO.N,E1_NCS*%
X132735693Y-111058500D02*
X134788500Y-111058500D01*
X134788500Y-111058500D02*
X136030000Y-112300000D01*
X119000000Y-102000000D02*
X122000000Y-105000000D01*
X122000000Y-105000000D02*
X126677193Y-105000000D01*
X126677193Y-105000000D02*
X132735693Y-111058500D01*
%TO.N,E2_A*%
X128000000Y-132000000D02*
X126000000Y-132000000D01*
X148000000Y-112000000D02*
X128000000Y-132000000D01*
X148000000Y-112000000D02*
X149011000Y-112000000D01*
X149011000Y-112000000D02*
X151000000Y-110011000D01*
%TO.N,E2_B*%
X148000000Y-110937301D02*
X148000000Y-111000000D01*
X147840193Y-110777494D02*
X148000000Y-110937301D01*
X148000000Y-111000000D02*
X131000000Y-128000000D01*
X131000000Y-128000000D02*
X126000000Y-128000000D01*
%TO.N,SPI2_SCK*%
X126000000Y-77000000D02*
X130000000Y-81000000D01*
X126000000Y-77000000D02*
X119000000Y-77000000D01*
X130000000Y-81000000D02*
X130000000Y-87500000D01*
%TO.N,SPI2_MOSI*%
X126000000Y-85000000D02*
X119000000Y-85000000D01*
%TO.N,ADC2_DRDY*%
X126000000Y-71000000D02*
X131000000Y-76000000D01*
X138500000Y-81500000D02*
X138500000Y-91265747D01*
X137578500Y-80578500D02*
X138500000Y-81500000D01*
X131000000Y-79000000D02*
X132578500Y-80578500D01*
X136487247Y-93278500D02*
X134731500Y-93278500D01*
X138500000Y-91265747D02*
X136487247Y-93278500D01*
X131000000Y-76000000D02*
X131000000Y-79000000D01*
X134731500Y-93278500D02*
X133490000Y-94520000D01*
X132578500Y-80578500D02*
X137578500Y-80578500D01*
%TO.N,SPI2_MISO*%
X119000000Y-81000000D02*
X126000000Y-81000000D01*
%TO.N,ADC1_DRDY*%
X117000000Y-86906144D02*
X117000000Y-73000000D01*
X121008500Y-88008500D02*
X118102356Y-88008500D01*
X118102356Y-88008500D02*
X117000000Y-86906144D01*
X123000000Y-90000000D02*
X121008500Y-88008500D01*
X117000000Y-73000000D02*
X119000000Y-71000000D01*
%TO.N,AUX_NCS*%
X112000000Y-102000000D02*
X112991500Y-101008500D01*
X129818500Y-101008500D02*
X133490000Y-104680000D01*
X112991500Y-101008500D02*
X129818500Y-101008500D01*
%TO.N,AUX_INT*%
X134731500Y-98358500D02*
X136030000Y-97060000D01*
X132975753Y-98358500D02*
X134731500Y-98358500D01*
X112000000Y-100000000D02*
X131334253Y-100000000D01*
X131334253Y-100000000D02*
X132975753Y-98358500D01*
%TO.N,M1_IRef*%
X177000000Y-118000000D02*
X177000000Y-120000000D01*
X181000000Y-118000000D02*
X181000000Y-120000000D01*
X175000000Y-120000000D02*
X177000000Y-120000000D01*
X163970000Y-99600000D02*
X163900000Y-99600000D01*
X158000000Y-105500000D02*
X158000000Y-119250000D01*
X181000000Y-120000000D02*
X183000000Y-120000000D01*
X161750000Y-123000000D02*
X172000000Y-123000000D01*
X172000000Y-123000000D02*
X175000000Y-120000000D01*
X158000000Y-119250000D02*
X161750000Y-123000000D01*
X163900000Y-99600000D02*
X158000000Y-105500000D01*
X177000000Y-120000000D02*
X181000000Y-120000000D01*
X183000000Y-120000000D02*
X185000000Y-118000000D01*
%TO.N,M1_IOutA*%
X159000000Y-118500000D02*
X162500000Y-122000000D01*
X163970000Y-102140000D02*
X159000000Y-107110000D01*
X162500000Y-122000000D02*
X171000000Y-122000000D01*
X171000000Y-122000000D02*
X175000000Y-118000000D01*
X159000000Y-107110000D02*
X159000000Y-118500000D01*
%TO.N,M2_IOutA*%
X175000000Y-110630000D02*
X166510000Y-102140000D01*
X175000000Y-111000000D02*
X175000000Y-110630000D01*
%TO.N,M2_IOutC*%
X167060000Y-97060000D02*
X166510000Y-97060000D01*
X170500000Y-98500000D02*
X168500000Y-98500000D01*
X183000000Y-111000000D02*
X170500000Y-98500000D01*
X168500000Y-98500000D02*
X167060000Y-97060000D01*
%TO.N,M2_IOutB*%
X167600000Y-99600000D02*
X166510000Y-99600000D01*
X179000000Y-111000000D02*
X167600000Y-99600000D01*
%TO.N,PROBE_OUT*%
X149000000Y-122000000D02*
X153460000Y-126460000D01*
X143400003Y-122000000D02*
X149000000Y-122000000D01*
X153460000Y-126460000D02*
X153460000Y-128000000D01*
%TO.N,USART_TX*%
X118000000Y-97000000D02*
X114664253Y-97000000D01*
X110500000Y-92835747D02*
X110500000Y-92540000D01*
X118000000Y-97000000D02*
X128470000Y-97000000D01*
X128470000Y-97000000D02*
X133490000Y-91980000D01*
X114664253Y-97000000D02*
X110500000Y-92835747D01*
%TO.N,E_STOP*%
X116000000Y-76175000D02*
X112825000Y-73000000D01*
X133130000Y-84000000D02*
X133490000Y-84360000D01*
X116000000Y-79500000D02*
X116000000Y-76175000D01*
%TO.N,Net-(R9-Pad2)*%
X111000000Y-73000000D02*
X111000000Y-77000000D01*
%TO.N,CAN_TX*%
X133032753Y-88141500D02*
X134788500Y-88141500D01*
X134788500Y-88141500D02*
X136030000Y-86900000D01*
X126094253Y-95080000D02*
X133032753Y-88141500D01*
X126094253Y-95080000D02*
X114500000Y-95080000D01*
%TO.N,CAN_RX*%
X133490000Y-86900000D02*
X132896122Y-86900000D01*
X115960000Y-94000000D02*
X114500000Y-92540000D01*
X132896122Y-86900000D02*
X125796122Y-94000000D01*
X125796122Y-94000000D02*
X115960000Y-94000000D01*
D26*
%TO.N,+5V*%
X126725000Y-66000000D02*
X126725000Y-65725000D01*
X126725000Y-65725000D02*
X124000000Y-63000000D01*
X130120000Y-69120000D02*
X127000000Y-66000000D01*
X130120000Y-69120000D02*
X133490000Y-69120000D01*
X127000000Y-66000000D02*
X126725000Y-66000000D01*
X133490000Y-69120000D02*
X136030000Y-69120000D01*
D24*
%TO.N,+3V3*%
X180000000Y-71543750D02*
X180000000Y-73927500D01*
X171000000Y-74015000D02*
X169015000Y-74015000D01*
X169015000Y-74015000D02*
X169000000Y-74000000D01*
%TO.N,M1_INLB*%
X165818500Y-95818500D02*
X169000000Y-95818500D01*
X165268500Y-95268500D02*
X165818500Y-95818500D01*
X165268500Y-93221500D02*
X165268500Y-95268500D01*
X166510000Y-91980000D02*
X165268500Y-93221500D01*
%TO.N,M2_INLA*%
X187000000Y-99500000D02*
X185500000Y-101000000D01*
X187000000Y-89836250D02*
X187000000Y-99500000D01*
X185500000Y-101000000D02*
X179000000Y-101000000D01*
X185543750Y-88380000D02*
X187000000Y-89836250D01*
%TD*%
M02*
