%TF.GenerationSoftware,KiCad,Pcbnew,9.0.2*%
%TF.CreationDate,2025-07-05T12:49:50-04:00*%
%TF.ProjectId,Mainboard H7,4d61696e-626f-4617-9264-2048372e6b69,rev?*%
%TF.SameCoordinates,Original*%
%TF.FileFunction,Legend,Top*%
%TF.FilePolarity,Positive*%
%FSLAX46Y46*%
G04 Gerber Fmt 4.6, Leading zero omitted, Abs format (unit mm)*
G04 Created by KiCad (PCBNEW 9.0.2) date 2025-07-05 12:49:50*
%MOMM*%
%LPD*%
G01*
G04 APERTURE LIST*
%ADD10C,0.150000*%
%ADD11C,0.120000*%
G04 APERTURE END LIST*
D10*
X132000000Y-67500000D02*
X133500000Y-67500000D01*
X132000000Y-69000000D02*
X132000000Y-67500000D01*
X180774580Y-82591792D02*
X180822200Y-82639411D01*
X180822200Y-82639411D02*
X180869819Y-82782268D01*
X180869819Y-82782268D02*
X180869819Y-82877506D01*
X180869819Y-82877506D02*
X180822200Y-83020363D01*
X180822200Y-83020363D02*
X180726961Y-83115601D01*
X180726961Y-83115601D02*
X180631723Y-83163220D01*
X180631723Y-83163220D02*
X180441247Y-83210839D01*
X180441247Y-83210839D02*
X180298390Y-83210839D01*
X180298390Y-83210839D02*
X180107914Y-83163220D01*
X180107914Y-83163220D02*
X180012676Y-83115601D01*
X180012676Y-83115601D02*
X179917438Y-83020363D01*
X179917438Y-83020363D02*
X179869819Y-82877506D01*
X179869819Y-82877506D02*
X179869819Y-82782268D01*
X179869819Y-82782268D02*
X179917438Y-82639411D01*
X179917438Y-82639411D02*
X179965057Y-82591792D01*
X179869819Y-81972744D02*
X179869819Y-81782268D01*
X179869819Y-81782268D02*
X179917438Y-81687030D01*
X179917438Y-81687030D02*
X180012676Y-81591792D01*
X180012676Y-81591792D02*
X180203152Y-81544173D01*
X180203152Y-81544173D02*
X180536485Y-81544173D01*
X180536485Y-81544173D02*
X180726961Y-81591792D01*
X180726961Y-81591792D02*
X180822200Y-81687030D01*
X180822200Y-81687030D02*
X180869819Y-81782268D01*
X180869819Y-81782268D02*
X180869819Y-81972744D01*
X180869819Y-81972744D02*
X180822200Y-82067982D01*
X180822200Y-82067982D02*
X180726961Y-82163220D01*
X180726961Y-82163220D02*
X180536485Y-82210839D01*
X180536485Y-82210839D02*
X180203152Y-82210839D01*
X180203152Y-82210839D02*
X180012676Y-82163220D01*
X180012676Y-82163220D02*
X179917438Y-82067982D01*
X179917438Y-82067982D02*
X179869819Y-81972744D01*
X180869819Y-81115601D02*
X179869819Y-81115601D01*
X179869819Y-81115601D02*
X180584104Y-80782268D01*
X180584104Y-80782268D02*
X179869819Y-80448935D01*
X179869819Y-80448935D02*
X180869819Y-80448935D01*
X179965057Y-80020363D02*
X179917438Y-79972744D01*
X179917438Y-79972744D02*
X179869819Y-79877506D01*
X179869819Y-79877506D02*
X179869819Y-79639411D01*
X179869819Y-79639411D02*
X179917438Y-79544173D01*
X179917438Y-79544173D02*
X179965057Y-79496554D01*
X179965057Y-79496554D02*
X180060295Y-79448935D01*
X180060295Y-79448935D02*
X180155533Y-79448935D01*
X180155533Y-79448935D02*
X180298390Y-79496554D01*
X180298390Y-79496554D02*
X180869819Y-80067982D01*
X180869819Y-80067982D02*
X180869819Y-79448935D01*
X115846009Y-133904762D02*
X115846009Y-133571429D01*
X116369819Y-133428572D02*
X116369819Y-133904762D01*
X116369819Y-133904762D02*
X115369819Y-133904762D01*
X115369819Y-133904762D02*
X115369819Y-133428572D01*
X115703152Y-133000000D02*
X116369819Y-133000000D01*
X115798390Y-133000000D02*
X115750771Y-132952381D01*
X115750771Y-132952381D02*
X115703152Y-132857143D01*
X115703152Y-132857143D02*
X115703152Y-132714286D01*
X115703152Y-132714286D02*
X115750771Y-132619048D01*
X115750771Y-132619048D02*
X115846009Y-132571429D01*
X115846009Y-132571429D02*
X116369819Y-132571429D01*
X116322200Y-131666667D02*
X116369819Y-131761905D01*
X116369819Y-131761905D02*
X116369819Y-131952381D01*
X116369819Y-131952381D02*
X116322200Y-132047619D01*
X116322200Y-132047619D02*
X116274580Y-132095238D01*
X116274580Y-132095238D02*
X116179342Y-132142857D01*
X116179342Y-132142857D02*
X115893628Y-132142857D01*
X115893628Y-132142857D02*
X115798390Y-132095238D01*
X115798390Y-132095238D02*
X115750771Y-132047619D01*
X115750771Y-132047619D02*
X115703152Y-131952381D01*
X115703152Y-131952381D02*
X115703152Y-131761905D01*
X115703152Y-131761905D02*
X115750771Y-131666667D01*
X116369819Y-131095238D02*
X116322200Y-131190476D01*
X116322200Y-131190476D02*
X116274580Y-131238095D01*
X116274580Y-131238095D02*
X116179342Y-131285714D01*
X116179342Y-131285714D02*
X115893628Y-131285714D01*
X115893628Y-131285714D02*
X115798390Y-131238095D01*
X115798390Y-131238095D02*
X115750771Y-131190476D01*
X115750771Y-131190476D02*
X115703152Y-131095238D01*
X115703152Y-131095238D02*
X115703152Y-130952381D01*
X115703152Y-130952381D02*
X115750771Y-130857143D01*
X115750771Y-130857143D02*
X115798390Y-130809524D01*
X115798390Y-130809524D02*
X115893628Y-130761905D01*
X115893628Y-130761905D02*
X116179342Y-130761905D01*
X116179342Y-130761905D02*
X116274580Y-130809524D01*
X116274580Y-130809524D02*
X116322200Y-130857143D01*
X116322200Y-130857143D02*
X116369819Y-130952381D01*
X116369819Y-130952381D02*
X116369819Y-131095238D01*
X116369819Y-129904762D02*
X115369819Y-129904762D01*
X116322200Y-129904762D02*
X116369819Y-130000000D01*
X116369819Y-130000000D02*
X116369819Y-130190476D01*
X116369819Y-130190476D02*
X116322200Y-130285714D01*
X116322200Y-130285714D02*
X116274580Y-130333333D01*
X116274580Y-130333333D02*
X116179342Y-130380952D01*
X116179342Y-130380952D02*
X115893628Y-130380952D01*
X115893628Y-130380952D02*
X115798390Y-130333333D01*
X115798390Y-130333333D02*
X115750771Y-130285714D01*
X115750771Y-130285714D02*
X115703152Y-130190476D01*
X115703152Y-130190476D02*
X115703152Y-130000000D01*
X115703152Y-130000000D02*
X115750771Y-129904762D01*
X116322200Y-129047619D02*
X116369819Y-129142857D01*
X116369819Y-129142857D02*
X116369819Y-129333333D01*
X116369819Y-129333333D02*
X116322200Y-129428571D01*
X116322200Y-129428571D02*
X116226961Y-129476190D01*
X116226961Y-129476190D02*
X115846009Y-129476190D01*
X115846009Y-129476190D02*
X115750771Y-129428571D01*
X115750771Y-129428571D02*
X115703152Y-129333333D01*
X115703152Y-129333333D02*
X115703152Y-129142857D01*
X115703152Y-129142857D02*
X115750771Y-129047619D01*
X115750771Y-129047619D02*
X115846009Y-129000000D01*
X115846009Y-129000000D02*
X115941247Y-129000000D01*
X115941247Y-129000000D02*
X116036485Y-129476190D01*
X116369819Y-128571428D02*
X115703152Y-128571428D01*
X115893628Y-128571428D02*
X115798390Y-128523809D01*
X115798390Y-128523809D02*
X115750771Y-128476190D01*
X115750771Y-128476190D02*
X115703152Y-128380952D01*
X115703152Y-128380952D02*
X115703152Y-128285714D01*
X116369819Y-126666666D02*
X116369819Y-127238094D01*
X116369819Y-126952380D02*
X115369819Y-126952380D01*
X115369819Y-126952380D02*
X115512676Y-127047618D01*
X115512676Y-127047618D02*
X115607914Y-127142856D01*
X115607914Y-127142856D02*
X115655533Y-127238094D01*
X116084104Y-125523808D02*
X116084104Y-125047618D01*
X116369819Y-125619046D02*
X115369819Y-125285713D01*
X115369819Y-125285713D02*
X116369819Y-124952380D01*
X115846009Y-124285713D02*
X115893628Y-124142856D01*
X115893628Y-124142856D02*
X115941247Y-124095237D01*
X115941247Y-124095237D02*
X116036485Y-124047618D01*
X116036485Y-124047618D02*
X116179342Y-124047618D01*
X116179342Y-124047618D02*
X116274580Y-124095237D01*
X116274580Y-124095237D02*
X116322200Y-124142856D01*
X116322200Y-124142856D02*
X116369819Y-124238094D01*
X116369819Y-124238094D02*
X116369819Y-124619046D01*
X116369819Y-124619046D02*
X115369819Y-124619046D01*
X115369819Y-124619046D02*
X115369819Y-124285713D01*
X115369819Y-124285713D02*
X115417438Y-124190475D01*
X115417438Y-124190475D02*
X115465057Y-124142856D01*
X115465057Y-124142856D02*
X115560295Y-124095237D01*
X115560295Y-124095237D02*
X115655533Y-124095237D01*
X115655533Y-124095237D02*
X115750771Y-124142856D01*
X115750771Y-124142856D02*
X115798390Y-124190475D01*
X115798390Y-124190475D02*
X115846009Y-124285713D01*
X115846009Y-124285713D02*
X115846009Y-124619046D01*
X180869819Y-95285714D02*
X179869819Y-95285714D01*
X179869819Y-95285714D02*
X179869819Y-95047619D01*
X179869819Y-95047619D02*
X179917438Y-94904762D01*
X179917438Y-94904762D02*
X180012676Y-94809524D01*
X180012676Y-94809524D02*
X180107914Y-94761905D01*
X180107914Y-94761905D02*
X180298390Y-94714286D01*
X180298390Y-94714286D02*
X180441247Y-94714286D01*
X180441247Y-94714286D02*
X180631723Y-94761905D01*
X180631723Y-94761905D02*
X180726961Y-94809524D01*
X180726961Y-94809524D02*
X180822200Y-94904762D01*
X180822200Y-94904762D02*
X180869819Y-95047619D01*
X180869819Y-95047619D02*
X180869819Y-95285714D01*
X180869819Y-94285714D02*
X180203152Y-94285714D01*
X180393628Y-94285714D02*
X180298390Y-94238095D01*
X180298390Y-94238095D02*
X180250771Y-94190476D01*
X180250771Y-94190476D02*
X180203152Y-94095238D01*
X180203152Y-94095238D02*
X180203152Y-94000000D01*
X180869819Y-93666666D02*
X180203152Y-93666666D01*
X179869819Y-93666666D02*
X179917438Y-93714285D01*
X179917438Y-93714285D02*
X179965057Y-93666666D01*
X179965057Y-93666666D02*
X179917438Y-93619047D01*
X179917438Y-93619047D02*
X179869819Y-93666666D01*
X179869819Y-93666666D02*
X179965057Y-93666666D01*
X180203152Y-93285714D02*
X180869819Y-93047619D01*
X180869819Y-93047619D02*
X180203152Y-92809524D01*
X180822200Y-92047619D02*
X180869819Y-92142857D01*
X180869819Y-92142857D02*
X180869819Y-92333333D01*
X180869819Y-92333333D02*
X180822200Y-92428571D01*
X180822200Y-92428571D02*
X180726961Y-92476190D01*
X180726961Y-92476190D02*
X180346009Y-92476190D01*
X180346009Y-92476190D02*
X180250771Y-92428571D01*
X180250771Y-92428571D02*
X180203152Y-92333333D01*
X180203152Y-92333333D02*
X180203152Y-92142857D01*
X180203152Y-92142857D02*
X180250771Y-92047619D01*
X180250771Y-92047619D02*
X180346009Y-92000000D01*
X180346009Y-92000000D02*
X180441247Y-92000000D01*
X180441247Y-92000000D02*
X180536485Y-92476190D01*
X180869819Y-91571428D02*
X180203152Y-91571428D01*
X180393628Y-91571428D02*
X180298390Y-91523809D01*
X180298390Y-91523809D02*
X180250771Y-91476190D01*
X180250771Y-91476190D02*
X180203152Y-91380952D01*
X180203152Y-91380952D02*
X180203152Y-91285714D01*
X179965057Y-90238094D02*
X179917438Y-90190475D01*
X179917438Y-90190475D02*
X179869819Y-90095237D01*
X179869819Y-90095237D02*
X179869819Y-89857142D01*
X179869819Y-89857142D02*
X179917438Y-89761904D01*
X179917438Y-89761904D02*
X179965057Y-89714285D01*
X179965057Y-89714285D02*
X180060295Y-89666666D01*
X180060295Y-89666666D02*
X180155533Y-89666666D01*
X180155533Y-89666666D02*
X180298390Y-89714285D01*
X180298390Y-89714285D02*
X180869819Y-90285713D01*
X180869819Y-90285713D02*
X180869819Y-89666666D01*
X108904762Y-84369819D02*
X108904762Y-85179342D01*
X108904762Y-85179342D02*
X108952381Y-85274580D01*
X108952381Y-85274580D02*
X109000000Y-85322200D01*
X109000000Y-85322200D02*
X109095238Y-85369819D01*
X109095238Y-85369819D02*
X109285714Y-85369819D01*
X109285714Y-85369819D02*
X109380952Y-85322200D01*
X109380952Y-85322200D02*
X109428571Y-85274580D01*
X109428571Y-85274580D02*
X109476190Y-85179342D01*
X109476190Y-85179342D02*
X109476190Y-84369819D01*
X109904762Y-85084104D02*
X110380952Y-85084104D01*
X109809524Y-85369819D02*
X110142857Y-84369819D01*
X110142857Y-84369819D02*
X110476190Y-85369819D01*
X111380952Y-85369819D02*
X111047619Y-84893628D01*
X110809524Y-85369819D02*
X110809524Y-84369819D01*
X110809524Y-84369819D02*
X111190476Y-84369819D01*
X111190476Y-84369819D02*
X111285714Y-84417438D01*
X111285714Y-84417438D02*
X111333333Y-84465057D01*
X111333333Y-84465057D02*
X111380952Y-84560295D01*
X111380952Y-84560295D02*
X111380952Y-84703152D01*
X111380952Y-84703152D02*
X111333333Y-84798390D01*
X111333333Y-84798390D02*
X111285714Y-84846009D01*
X111285714Y-84846009D02*
X111190476Y-84893628D01*
X111190476Y-84893628D02*
X110809524Y-84893628D01*
X111666667Y-84369819D02*
X112238095Y-84369819D01*
X111952381Y-85369819D02*
X111952381Y-84369819D01*
X107417438Y-90761904D02*
X107369819Y-90857142D01*
X107369819Y-90857142D02*
X107369819Y-90999999D01*
X107369819Y-90999999D02*
X107417438Y-91142856D01*
X107417438Y-91142856D02*
X107512676Y-91238094D01*
X107512676Y-91238094D02*
X107607914Y-91285713D01*
X107607914Y-91285713D02*
X107798390Y-91333332D01*
X107798390Y-91333332D02*
X107941247Y-91333332D01*
X107941247Y-91333332D02*
X108131723Y-91285713D01*
X108131723Y-91285713D02*
X108226961Y-91238094D01*
X108226961Y-91238094D02*
X108322200Y-91142856D01*
X108322200Y-91142856D02*
X108369819Y-90999999D01*
X108369819Y-90999999D02*
X108369819Y-90904761D01*
X108369819Y-90904761D02*
X108322200Y-90761904D01*
X108322200Y-90761904D02*
X108274580Y-90714285D01*
X108274580Y-90714285D02*
X107941247Y-90714285D01*
X107941247Y-90714285D02*
X107941247Y-90904761D01*
X108369819Y-90285713D02*
X107369819Y-90285713D01*
X107369819Y-90285713D02*
X108369819Y-89714285D01*
X108369819Y-89714285D02*
X107369819Y-89714285D01*
X108369819Y-89238094D02*
X107369819Y-89238094D01*
X107369819Y-89238094D02*
X107369819Y-88999999D01*
X107369819Y-88999999D02*
X107417438Y-88857142D01*
X107417438Y-88857142D02*
X107512676Y-88761904D01*
X107512676Y-88761904D02*
X107607914Y-88714285D01*
X107607914Y-88714285D02*
X107798390Y-88666666D01*
X107798390Y-88666666D02*
X107941247Y-88666666D01*
X107941247Y-88666666D02*
X108131723Y-88714285D01*
X108131723Y-88714285D02*
X108226961Y-88761904D01*
X108226961Y-88761904D02*
X108322200Y-88857142D01*
X108322200Y-88857142D02*
X108369819Y-88999999D01*
X108369819Y-88999999D02*
X108369819Y-89238094D01*
X107846009Y-80261904D02*
X107846009Y-79928571D01*
X108369819Y-79785714D02*
X108369819Y-80261904D01*
X108369819Y-80261904D02*
X107369819Y-80261904D01*
X107369819Y-80261904D02*
X107369819Y-79785714D01*
X108322200Y-78642856D02*
X108369819Y-78499999D01*
X108369819Y-78499999D02*
X108369819Y-78261904D01*
X108369819Y-78261904D02*
X108322200Y-78166666D01*
X108322200Y-78166666D02*
X108274580Y-78119047D01*
X108274580Y-78119047D02*
X108179342Y-78071428D01*
X108179342Y-78071428D02*
X108084104Y-78071428D01*
X108084104Y-78071428D02*
X107988866Y-78119047D01*
X107988866Y-78119047D02*
X107941247Y-78166666D01*
X107941247Y-78166666D02*
X107893628Y-78261904D01*
X107893628Y-78261904D02*
X107846009Y-78452380D01*
X107846009Y-78452380D02*
X107798390Y-78547618D01*
X107798390Y-78547618D02*
X107750771Y-78595237D01*
X107750771Y-78595237D02*
X107655533Y-78642856D01*
X107655533Y-78642856D02*
X107560295Y-78642856D01*
X107560295Y-78642856D02*
X107465057Y-78595237D01*
X107465057Y-78595237D02*
X107417438Y-78547618D01*
X107417438Y-78547618D02*
X107369819Y-78452380D01*
X107369819Y-78452380D02*
X107369819Y-78214285D01*
X107369819Y-78214285D02*
X107417438Y-78071428D01*
X107703152Y-77785713D02*
X107703152Y-77404761D01*
X107369819Y-77642856D02*
X108226961Y-77642856D01*
X108226961Y-77642856D02*
X108322200Y-77595237D01*
X108322200Y-77595237D02*
X108369819Y-77499999D01*
X108369819Y-77499999D02*
X108369819Y-77404761D01*
X108369819Y-76928570D02*
X108322200Y-77023808D01*
X108322200Y-77023808D02*
X108274580Y-77071427D01*
X108274580Y-77071427D02*
X108179342Y-77119046D01*
X108179342Y-77119046D02*
X107893628Y-77119046D01*
X107893628Y-77119046D02*
X107798390Y-77071427D01*
X107798390Y-77071427D02*
X107750771Y-77023808D01*
X107750771Y-77023808D02*
X107703152Y-76928570D01*
X107703152Y-76928570D02*
X107703152Y-76785713D01*
X107703152Y-76785713D02*
X107750771Y-76690475D01*
X107750771Y-76690475D02*
X107798390Y-76642856D01*
X107798390Y-76642856D02*
X107893628Y-76595237D01*
X107893628Y-76595237D02*
X108179342Y-76595237D01*
X108179342Y-76595237D02*
X108274580Y-76642856D01*
X108274580Y-76642856D02*
X108322200Y-76690475D01*
X108322200Y-76690475D02*
X108369819Y-76785713D01*
X108369819Y-76785713D02*
X108369819Y-76928570D01*
X107703152Y-76166665D02*
X108703152Y-76166665D01*
X107750771Y-76166665D02*
X107703152Y-76071427D01*
X107703152Y-76071427D02*
X107703152Y-75880951D01*
X107703152Y-75880951D02*
X107750771Y-75785713D01*
X107750771Y-75785713D02*
X107798390Y-75738094D01*
X107798390Y-75738094D02*
X107893628Y-75690475D01*
X107893628Y-75690475D02*
X108179342Y-75690475D01*
X108179342Y-75690475D02*
X108274580Y-75738094D01*
X108274580Y-75738094D02*
X108322200Y-75785713D01*
X108322200Y-75785713D02*
X108369819Y-75880951D01*
X108369819Y-75880951D02*
X108369819Y-76071427D01*
X108369819Y-76071427D02*
X108322200Y-76166665D01*
X126571428Y-67846009D02*
X126714285Y-67893628D01*
X126714285Y-67893628D02*
X126761904Y-67941247D01*
X126761904Y-67941247D02*
X126809523Y-68036485D01*
X126809523Y-68036485D02*
X126809523Y-68179342D01*
X126809523Y-68179342D02*
X126761904Y-68274580D01*
X126761904Y-68274580D02*
X126714285Y-68322200D01*
X126714285Y-68322200D02*
X126619047Y-68369819D01*
X126619047Y-68369819D02*
X126238095Y-68369819D01*
X126238095Y-68369819D02*
X126238095Y-67369819D01*
X126238095Y-67369819D02*
X126571428Y-67369819D01*
X126571428Y-67369819D02*
X126666666Y-67417438D01*
X126666666Y-67417438D02*
X126714285Y-67465057D01*
X126714285Y-67465057D02*
X126761904Y-67560295D01*
X126761904Y-67560295D02*
X126761904Y-67655533D01*
X126761904Y-67655533D02*
X126714285Y-67750771D01*
X126714285Y-67750771D02*
X126666666Y-67798390D01*
X126666666Y-67798390D02*
X126571428Y-67846009D01*
X126571428Y-67846009D02*
X126238095Y-67846009D01*
X171619046Y-115369819D02*
X171619046Y-114369819D01*
X171619046Y-114369819D02*
X171952379Y-115084104D01*
X171952379Y-115084104D02*
X172285712Y-114369819D01*
X172285712Y-114369819D02*
X172285712Y-115369819D01*
X172904760Y-115369819D02*
X172809522Y-115322200D01*
X172809522Y-115322200D02*
X172761903Y-115274580D01*
X172761903Y-115274580D02*
X172714284Y-115179342D01*
X172714284Y-115179342D02*
X172714284Y-114893628D01*
X172714284Y-114893628D02*
X172761903Y-114798390D01*
X172761903Y-114798390D02*
X172809522Y-114750771D01*
X172809522Y-114750771D02*
X172904760Y-114703152D01*
X172904760Y-114703152D02*
X173047617Y-114703152D01*
X173047617Y-114703152D02*
X173142855Y-114750771D01*
X173142855Y-114750771D02*
X173190474Y-114798390D01*
X173190474Y-114798390D02*
X173238093Y-114893628D01*
X173238093Y-114893628D02*
X173238093Y-115179342D01*
X173238093Y-115179342D02*
X173190474Y-115274580D01*
X173190474Y-115274580D02*
X173142855Y-115322200D01*
X173142855Y-115322200D02*
X173047617Y-115369819D01*
X173047617Y-115369819D02*
X172904760Y-115369819D01*
X173523808Y-114703152D02*
X173904760Y-114703152D01*
X173666665Y-114369819D02*
X173666665Y-115226961D01*
X173666665Y-115226961D02*
X173714284Y-115322200D01*
X173714284Y-115322200D02*
X173809522Y-115369819D01*
X173809522Y-115369819D02*
X173904760Y-115369819D01*
X174380951Y-115369819D02*
X174285713Y-115322200D01*
X174285713Y-115322200D02*
X174238094Y-115274580D01*
X174238094Y-115274580D02*
X174190475Y-115179342D01*
X174190475Y-115179342D02*
X174190475Y-114893628D01*
X174190475Y-114893628D02*
X174238094Y-114798390D01*
X174238094Y-114798390D02*
X174285713Y-114750771D01*
X174285713Y-114750771D02*
X174380951Y-114703152D01*
X174380951Y-114703152D02*
X174523808Y-114703152D01*
X174523808Y-114703152D02*
X174619046Y-114750771D01*
X174619046Y-114750771D02*
X174666665Y-114798390D01*
X174666665Y-114798390D02*
X174714284Y-114893628D01*
X174714284Y-114893628D02*
X174714284Y-115179342D01*
X174714284Y-115179342D02*
X174666665Y-115274580D01*
X174666665Y-115274580D02*
X174619046Y-115322200D01*
X174619046Y-115322200D02*
X174523808Y-115369819D01*
X174523808Y-115369819D02*
X174380951Y-115369819D01*
X175142856Y-115369819D02*
X175142856Y-114703152D01*
X175142856Y-114893628D02*
X175190475Y-114798390D01*
X175190475Y-114798390D02*
X175238094Y-114750771D01*
X175238094Y-114750771D02*
X175333332Y-114703152D01*
X175333332Y-114703152D02*
X175428570Y-114703152D01*
X176476190Y-114465057D02*
X176523809Y-114417438D01*
X176523809Y-114417438D02*
X176619047Y-114369819D01*
X176619047Y-114369819D02*
X176857142Y-114369819D01*
X176857142Y-114369819D02*
X176952380Y-114417438D01*
X176952380Y-114417438D02*
X176999999Y-114465057D01*
X176999999Y-114465057D02*
X177047618Y-114560295D01*
X177047618Y-114560295D02*
X177047618Y-114655533D01*
X177047618Y-114655533D02*
X176999999Y-114798390D01*
X176999999Y-114798390D02*
X176428571Y-115369819D01*
X176428571Y-115369819D02*
X177047618Y-115369819D01*
X178809523Y-115274580D02*
X178761904Y-115322200D01*
X178761904Y-115322200D02*
X178619047Y-115369819D01*
X178619047Y-115369819D02*
X178523809Y-115369819D01*
X178523809Y-115369819D02*
X178380952Y-115322200D01*
X178380952Y-115322200D02*
X178285714Y-115226961D01*
X178285714Y-115226961D02*
X178238095Y-115131723D01*
X178238095Y-115131723D02*
X178190476Y-114941247D01*
X178190476Y-114941247D02*
X178190476Y-114798390D01*
X178190476Y-114798390D02*
X178238095Y-114607914D01*
X178238095Y-114607914D02*
X178285714Y-114512676D01*
X178285714Y-114512676D02*
X178380952Y-114417438D01*
X178380952Y-114417438D02*
X178523809Y-114369819D01*
X178523809Y-114369819D02*
X178619047Y-114369819D01*
X178619047Y-114369819D02*
X178761904Y-114417438D01*
X178761904Y-114417438D02*
X178809523Y-114465057D01*
X179666666Y-114703152D02*
X179666666Y-115369819D01*
X179238095Y-114703152D02*
X179238095Y-115226961D01*
X179238095Y-115226961D02*
X179285714Y-115322200D01*
X179285714Y-115322200D02*
X179380952Y-115369819D01*
X179380952Y-115369819D02*
X179523809Y-115369819D01*
X179523809Y-115369819D02*
X179619047Y-115322200D01*
X179619047Y-115322200D02*
X179666666Y-115274580D01*
X180142857Y-115369819D02*
X180142857Y-114703152D01*
X180142857Y-114893628D02*
X180190476Y-114798390D01*
X180190476Y-114798390D02*
X180238095Y-114750771D01*
X180238095Y-114750771D02*
X180333333Y-114703152D01*
X180333333Y-114703152D02*
X180428571Y-114703152D01*
X180761905Y-115369819D02*
X180761905Y-114703152D01*
X180761905Y-114893628D02*
X180809524Y-114798390D01*
X180809524Y-114798390D02*
X180857143Y-114750771D01*
X180857143Y-114750771D02*
X180952381Y-114703152D01*
X180952381Y-114703152D02*
X181047619Y-114703152D01*
X181761905Y-115322200D02*
X181666667Y-115369819D01*
X181666667Y-115369819D02*
X181476191Y-115369819D01*
X181476191Y-115369819D02*
X181380953Y-115322200D01*
X181380953Y-115322200D02*
X181333334Y-115226961D01*
X181333334Y-115226961D02*
X181333334Y-114846009D01*
X181333334Y-114846009D02*
X181380953Y-114750771D01*
X181380953Y-114750771D02*
X181476191Y-114703152D01*
X181476191Y-114703152D02*
X181666667Y-114703152D01*
X181666667Y-114703152D02*
X181761905Y-114750771D01*
X181761905Y-114750771D02*
X181809524Y-114846009D01*
X181809524Y-114846009D02*
X181809524Y-114941247D01*
X181809524Y-114941247D02*
X181333334Y-115036485D01*
X182238096Y-114703152D02*
X182238096Y-115369819D01*
X182238096Y-114798390D02*
X182285715Y-114750771D01*
X182285715Y-114750771D02*
X182380953Y-114703152D01*
X182380953Y-114703152D02*
X182523810Y-114703152D01*
X182523810Y-114703152D02*
X182619048Y-114750771D01*
X182619048Y-114750771D02*
X182666667Y-114846009D01*
X182666667Y-114846009D02*
X182666667Y-115369819D01*
X183000001Y-114703152D02*
X183380953Y-114703152D01*
X183142858Y-114369819D02*
X183142858Y-115226961D01*
X183142858Y-115226961D02*
X183190477Y-115322200D01*
X183190477Y-115322200D02*
X183285715Y-115369819D01*
X183285715Y-115369819D02*
X183380953Y-115369819D01*
X184428573Y-115322200D02*
X184571430Y-115369819D01*
X184571430Y-115369819D02*
X184809525Y-115369819D01*
X184809525Y-115369819D02*
X184904763Y-115322200D01*
X184904763Y-115322200D02*
X184952382Y-115274580D01*
X184952382Y-115274580D02*
X185000001Y-115179342D01*
X185000001Y-115179342D02*
X185000001Y-115084104D01*
X185000001Y-115084104D02*
X184952382Y-114988866D01*
X184952382Y-114988866D02*
X184904763Y-114941247D01*
X184904763Y-114941247D02*
X184809525Y-114893628D01*
X184809525Y-114893628D02*
X184619049Y-114846009D01*
X184619049Y-114846009D02*
X184523811Y-114798390D01*
X184523811Y-114798390D02*
X184476192Y-114750771D01*
X184476192Y-114750771D02*
X184428573Y-114655533D01*
X184428573Y-114655533D02*
X184428573Y-114560295D01*
X184428573Y-114560295D02*
X184476192Y-114465057D01*
X184476192Y-114465057D02*
X184523811Y-114417438D01*
X184523811Y-114417438D02*
X184619049Y-114369819D01*
X184619049Y-114369819D02*
X184857144Y-114369819D01*
X184857144Y-114369819D02*
X185000001Y-114417438D01*
X185809525Y-115322200D02*
X185714287Y-115369819D01*
X185714287Y-115369819D02*
X185523811Y-115369819D01*
X185523811Y-115369819D02*
X185428573Y-115322200D01*
X185428573Y-115322200D02*
X185380954Y-115226961D01*
X185380954Y-115226961D02*
X185380954Y-114846009D01*
X185380954Y-114846009D02*
X185428573Y-114750771D01*
X185428573Y-114750771D02*
X185523811Y-114703152D01*
X185523811Y-114703152D02*
X185714287Y-114703152D01*
X185714287Y-114703152D02*
X185809525Y-114750771D01*
X185809525Y-114750771D02*
X185857144Y-114846009D01*
X185857144Y-114846009D02*
X185857144Y-114941247D01*
X185857144Y-114941247D02*
X185380954Y-115036485D01*
X186285716Y-114703152D02*
X186285716Y-115369819D01*
X186285716Y-114798390D02*
X186333335Y-114750771D01*
X186333335Y-114750771D02*
X186428573Y-114703152D01*
X186428573Y-114703152D02*
X186571430Y-114703152D01*
X186571430Y-114703152D02*
X186666668Y-114750771D01*
X186666668Y-114750771D02*
X186714287Y-114846009D01*
X186714287Y-114846009D02*
X186714287Y-115369819D01*
X187142859Y-115322200D02*
X187238097Y-115369819D01*
X187238097Y-115369819D02*
X187428573Y-115369819D01*
X187428573Y-115369819D02*
X187523811Y-115322200D01*
X187523811Y-115322200D02*
X187571430Y-115226961D01*
X187571430Y-115226961D02*
X187571430Y-115179342D01*
X187571430Y-115179342D02*
X187523811Y-115084104D01*
X187523811Y-115084104D02*
X187428573Y-115036485D01*
X187428573Y-115036485D02*
X187285716Y-115036485D01*
X187285716Y-115036485D02*
X187190478Y-114988866D01*
X187190478Y-114988866D02*
X187142859Y-114893628D01*
X187142859Y-114893628D02*
X187142859Y-114846009D01*
X187142859Y-114846009D02*
X187190478Y-114750771D01*
X187190478Y-114750771D02*
X187285716Y-114703152D01*
X187285716Y-114703152D02*
X187428573Y-114703152D01*
X187428573Y-114703152D02*
X187523811Y-114750771D01*
X188380954Y-115322200D02*
X188285716Y-115369819D01*
X188285716Y-115369819D02*
X188095240Y-115369819D01*
X188095240Y-115369819D02*
X188000002Y-115322200D01*
X188000002Y-115322200D02*
X187952383Y-115226961D01*
X187952383Y-115226961D02*
X187952383Y-114846009D01*
X187952383Y-114846009D02*
X188000002Y-114750771D01*
X188000002Y-114750771D02*
X188095240Y-114703152D01*
X188095240Y-114703152D02*
X188285716Y-114703152D01*
X188285716Y-114703152D02*
X188380954Y-114750771D01*
X188380954Y-114750771D02*
X188428573Y-114846009D01*
X188428573Y-114846009D02*
X188428573Y-114941247D01*
X188428573Y-114941247D02*
X187952383Y-115036485D01*
X153914819Y-134146303D02*
X152914819Y-134146303D01*
X152914819Y-134146303D02*
X152914819Y-133765351D01*
X152914819Y-133765351D02*
X152962438Y-133670113D01*
X152962438Y-133670113D02*
X153010057Y-133622494D01*
X153010057Y-133622494D02*
X153105295Y-133574875D01*
X153105295Y-133574875D02*
X153248152Y-133574875D01*
X153248152Y-133574875D02*
X153343390Y-133622494D01*
X153343390Y-133622494D02*
X153391009Y-133670113D01*
X153391009Y-133670113D02*
X153438628Y-133765351D01*
X153438628Y-133765351D02*
X153438628Y-134146303D01*
X153914819Y-133146303D02*
X153248152Y-133146303D01*
X153438628Y-133146303D02*
X153343390Y-133098684D01*
X153343390Y-133098684D02*
X153295771Y-133051065D01*
X153295771Y-133051065D02*
X153248152Y-132955827D01*
X153248152Y-132955827D02*
X153248152Y-132860589D01*
X153914819Y-132384398D02*
X153867200Y-132479636D01*
X153867200Y-132479636D02*
X153819580Y-132527255D01*
X153819580Y-132527255D02*
X153724342Y-132574874D01*
X153724342Y-132574874D02*
X153438628Y-132574874D01*
X153438628Y-132574874D02*
X153343390Y-132527255D01*
X153343390Y-132527255D02*
X153295771Y-132479636D01*
X153295771Y-132479636D02*
X153248152Y-132384398D01*
X153248152Y-132384398D02*
X153248152Y-132241541D01*
X153248152Y-132241541D02*
X153295771Y-132146303D01*
X153295771Y-132146303D02*
X153343390Y-132098684D01*
X153343390Y-132098684D02*
X153438628Y-132051065D01*
X153438628Y-132051065D02*
X153724342Y-132051065D01*
X153724342Y-132051065D02*
X153819580Y-132098684D01*
X153819580Y-132098684D02*
X153867200Y-132146303D01*
X153867200Y-132146303D02*
X153914819Y-132241541D01*
X153914819Y-132241541D02*
X153914819Y-132384398D01*
X153914819Y-131622493D02*
X152914819Y-131622493D01*
X153295771Y-131622493D02*
X153248152Y-131527255D01*
X153248152Y-131527255D02*
X153248152Y-131336779D01*
X153248152Y-131336779D02*
X153295771Y-131241541D01*
X153295771Y-131241541D02*
X153343390Y-131193922D01*
X153343390Y-131193922D02*
X153438628Y-131146303D01*
X153438628Y-131146303D02*
X153724342Y-131146303D01*
X153724342Y-131146303D02*
X153819580Y-131193922D01*
X153819580Y-131193922D02*
X153867200Y-131241541D01*
X153867200Y-131241541D02*
X153914819Y-131336779D01*
X153914819Y-131336779D02*
X153914819Y-131527255D01*
X153914819Y-131527255D02*
X153867200Y-131622493D01*
X153867200Y-130336779D02*
X153914819Y-130432017D01*
X153914819Y-130432017D02*
X153914819Y-130622493D01*
X153914819Y-130622493D02*
X153867200Y-130717731D01*
X153867200Y-130717731D02*
X153771961Y-130765350D01*
X153771961Y-130765350D02*
X153391009Y-130765350D01*
X153391009Y-130765350D02*
X153295771Y-130717731D01*
X153295771Y-130717731D02*
X153248152Y-130622493D01*
X153248152Y-130622493D02*
X153248152Y-130432017D01*
X153248152Y-130432017D02*
X153295771Y-130336779D01*
X153295771Y-130336779D02*
X153391009Y-130289160D01*
X153391009Y-130289160D02*
X153486247Y-130289160D01*
X153486247Y-130289160D02*
X153581485Y-130765350D01*
X108369819Y-95246666D02*
X107893628Y-95579999D01*
X108369819Y-95818094D02*
X107369819Y-95818094D01*
X107369819Y-95818094D02*
X107369819Y-95437142D01*
X107369819Y-95437142D02*
X107417438Y-95341904D01*
X107417438Y-95341904D02*
X107465057Y-95294285D01*
X107465057Y-95294285D02*
X107560295Y-95246666D01*
X107560295Y-95246666D02*
X107703152Y-95246666D01*
X107703152Y-95246666D02*
X107798390Y-95294285D01*
X107798390Y-95294285D02*
X107846009Y-95341904D01*
X107846009Y-95341904D02*
X107893628Y-95437142D01*
X107893628Y-95437142D02*
X107893628Y-95818094D01*
X107369819Y-94913332D02*
X108369819Y-94246666D01*
X107369819Y-94246666D02*
X108369819Y-94913332D01*
X172274580Y-82591792D02*
X172322200Y-82639411D01*
X172322200Y-82639411D02*
X172369819Y-82782268D01*
X172369819Y-82782268D02*
X172369819Y-82877506D01*
X172369819Y-82877506D02*
X172322200Y-83020363D01*
X172322200Y-83020363D02*
X172226961Y-83115601D01*
X172226961Y-83115601D02*
X172131723Y-83163220D01*
X172131723Y-83163220D02*
X171941247Y-83210839D01*
X171941247Y-83210839D02*
X171798390Y-83210839D01*
X171798390Y-83210839D02*
X171607914Y-83163220D01*
X171607914Y-83163220D02*
X171512676Y-83115601D01*
X171512676Y-83115601D02*
X171417438Y-83020363D01*
X171417438Y-83020363D02*
X171369819Y-82877506D01*
X171369819Y-82877506D02*
X171369819Y-82782268D01*
X171369819Y-82782268D02*
X171417438Y-82639411D01*
X171417438Y-82639411D02*
X171465057Y-82591792D01*
X171369819Y-81972744D02*
X171369819Y-81782268D01*
X171369819Y-81782268D02*
X171417438Y-81687030D01*
X171417438Y-81687030D02*
X171512676Y-81591792D01*
X171512676Y-81591792D02*
X171703152Y-81544173D01*
X171703152Y-81544173D02*
X172036485Y-81544173D01*
X172036485Y-81544173D02*
X172226961Y-81591792D01*
X172226961Y-81591792D02*
X172322200Y-81687030D01*
X172322200Y-81687030D02*
X172369819Y-81782268D01*
X172369819Y-81782268D02*
X172369819Y-81972744D01*
X172369819Y-81972744D02*
X172322200Y-82067982D01*
X172322200Y-82067982D02*
X172226961Y-82163220D01*
X172226961Y-82163220D02*
X172036485Y-82210839D01*
X172036485Y-82210839D02*
X171703152Y-82210839D01*
X171703152Y-82210839D02*
X171512676Y-82163220D01*
X171512676Y-82163220D02*
X171417438Y-82067982D01*
X171417438Y-82067982D02*
X171369819Y-81972744D01*
X172369819Y-81115601D02*
X171369819Y-81115601D01*
X171369819Y-81115601D02*
X172084104Y-80782268D01*
X172084104Y-80782268D02*
X171369819Y-80448935D01*
X171369819Y-80448935D02*
X172369819Y-80448935D01*
X172369819Y-79448935D02*
X172369819Y-80020363D01*
X172369819Y-79734649D02*
X171369819Y-79734649D01*
X171369819Y-79734649D02*
X171512676Y-79829887D01*
X171512676Y-79829887D02*
X171607914Y-79925125D01*
X171607914Y-79925125D02*
X171655533Y-80020363D01*
X126812969Y-62454819D02*
X126336779Y-62454819D01*
X126336779Y-62454819D02*
X126289160Y-62931009D01*
X126289160Y-62931009D02*
X126336779Y-62883390D01*
X126336779Y-62883390D02*
X126432017Y-62835771D01*
X126432017Y-62835771D02*
X126670112Y-62835771D01*
X126670112Y-62835771D02*
X126765350Y-62883390D01*
X126765350Y-62883390D02*
X126812969Y-62931009D01*
X126812969Y-62931009D02*
X126860588Y-63026247D01*
X126860588Y-63026247D02*
X126860588Y-63264342D01*
X126860588Y-63264342D02*
X126812969Y-63359580D01*
X126812969Y-63359580D02*
X126765350Y-63407200D01*
X126765350Y-63407200D02*
X126670112Y-63454819D01*
X126670112Y-63454819D02*
X126432017Y-63454819D01*
X126432017Y-63454819D02*
X126336779Y-63407200D01*
X126336779Y-63407200D02*
X126289160Y-63359580D01*
X127146303Y-62454819D02*
X127479636Y-63454819D01*
X127479636Y-63454819D02*
X127812969Y-62454819D01*
X134369819Y-129902185D02*
X133369819Y-129902185D01*
X133465057Y-129473614D02*
X133417438Y-129425995D01*
X133417438Y-129425995D02*
X133369819Y-129330757D01*
X133369819Y-129330757D02*
X133369819Y-129092662D01*
X133369819Y-129092662D02*
X133417438Y-128997424D01*
X133417438Y-128997424D02*
X133465057Y-128949805D01*
X133465057Y-128949805D02*
X133560295Y-128902186D01*
X133560295Y-128902186D02*
X133655533Y-128902186D01*
X133655533Y-128902186D02*
X133798390Y-128949805D01*
X133798390Y-128949805D02*
X134369819Y-129521233D01*
X134369819Y-129521233D02*
X134369819Y-128902186D01*
X134274580Y-127902186D02*
X134322200Y-127949805D01*
X134322200Y-127949805D02*
X134369819Y-128092662D01*
X134369819Y-128092662D02*
X134369819Y-128187900D01*
X134369819Y-128187900D02*
X134322200Y-128330757D01*
X134322200Y-128330757D02*
X134226961Y-128425995D01*
X134226961Y-128425995D02*
X134131723Y-128473614D01*
X134131723Y-128473614D02*
X133941247Y-128521233D01*
X133941247Y-128521233D02*
X133798390Y-128521233D01*
X133798390Y-128521233D02*
X133607914Y-128473614D01*
X133607914Y-128473614D02*
X133512676Y-128425995D01*
X133512676Y-128425995D02*
X133417438Y-128330757D01*
X133417438Y-128330757D02*
X133369819Y-128187900D01*
X133369819Y-128187900D02*
X133369819Y-128092662D01*
X133369819Y-128092662D02*
X133417438Y-127949805D01*
X133417438Y-127949805D02*
X133465057Y-127902186D01*
X134369819Y-126949805D02*
X134369819Y-127521233D01*
X134369819Y-127235519D02*
X133369819Y-127235519D01*
X133369819Y-127235519D02*
X133512676Y-127330757D01*
X133512676Y-127330757D02*
X133607914Y-127425995D01*
X133607914Y-127425995D02*
X133655533Y-127521233D01*
X158002438Y-132384398D02*
X157954819Y-132479636D01*
X157954819Y-132479636D02*
X157954819Y-132622493D01*
X157954819Y-132622493D02*
X158002438Y-132765350D01*
X158002438Y-132765350D02*
X158097676Y-132860588D01*
X158097676Y-132860588D02*
X158192914Y-132908207D01*
X158192914Y-132908207D02*
X158383390Y-132955826D01*
X158383390Y-132955826D02*
X158526247Y-132955826D01*
X158526247Y-132955826D02*
X158716723Y-132908207D01*
X158716723Y-132908207D02*
X158811961Y-132860588D01*
X158811961Y-132860588D02*
X158907200Y-132765350D01*
X158907200Y-132765350D02*
X158954819Y-132622493D01*
X158954819Y-132622493D02*
X158954819Y-132527255D01*
X158954819Y-132527255D02*
X158907200Y-132384398D01*
X158907200Y-132384398D02*
X158859580Y-132336779D01*
X158859580Y-132336779D02*
X158526247Y-132336779D01*
X158526247Y-132336779D02*
X158526247Y-132527255D01*
X158954819Y-131908207D02*
X157954819Y-131908207D01*
X157954819Y-131908207D02*
X158954819Y-131336779D01*
X158954819Y-131336779D02*
X157954819Y-131336779D01*
X158954819Y-130860588D02*
X157954819Y-130860588D01*
X157954819Y-130860588D02*
X157954819Y-130622493D01*
X157954819Y-130622493D02*
X158002438Y-130479636D01*
X158002438Y-130479636D02*
X158097676Y-130384398D01*
X158097676Y-130384398D02*
X158192914Y-130336779D01*
X158192914Y-130336779D02*
X158383390Y-130289160D01*
X158383390Y-130289160D02*
X158526247Y-130289160D01*
X158526247Y-130289160D02*
X158716723Y-130336779D01*
X158716723Y-130336779D02*
X158811961Y-130384398D01*
X158811961Y-130384398D02*
X158907200Y-130479636D01*
X158907200Y-130479636D02*
X158954819Y-130622493D01*
X158954819Y-130622493D02*
X158954819Y-130860588D01*
X175547619Y-62369819D02*
X175547619Y-61369819D01*
X175976190Y-61465057D02*
X176023809Y-61417438D01*
X176023809Y-61417438D02*
X176119047Y-61369819D01*
X176119047Y-61369819D02*
X176357142Y-61369819D01*
X176357142Y-61369819D02*
X176452380Y-61417438D01*
X176452380Y-61417438D02*
X176499999Y-61465057D01*
X176499999Y-61465057D02*
X176547618Y-61560295D01*
X176547618Y-61560295D02*
X176547618Y-61655533D01*
X176547618Y-61655533D02*
X176499999Y-61798390D01*
X176499999Y-61798390D02*
X175928571Y-62369819D01*
X175928571Y-62369819D02*
X176547618Y-62369819D01*
X177547618Y-62274580D02*
X177499999Y-62322200D01*
X177499999Y-62322200D02*
X177357142Y-62369819D01*
X177357142Y-62369819D02*
X177261904Y-62369819D01*
X177261904Y-62369819D02*
X177119047Y-62322200D01*
X177119047Y-62322200D02*
X177023809Y-62226961D01*
X177023809Y-62226961D02*
X176976190Y-62131723D01*
X176976190Y-62131723D02*
X176928571Y-61941247D01*
X176928571Y-61941247D02*
X176928571Y-61798390D01*
X176928571Y-61798390D02*
X176976190Y-61607914D01*
X176976190Y-61607914D02*
X177023809Y-61512676D01*
X177023809Y-61512676D02*
X177119047Y-61417438D01*
X177119047Y-61417438D02*
X177261904Y-61369819D01*
X177261904Y-61369819D02*
X177357142Y-61369819D01*
X177357142Y-61369819D02*
X177499999Y-61417438D01*
X177499999Y-61417438D02*
X177547618Y-61465057D01*
X177928571Y-61465057D02*
X177976190Y-61417438D01*
X177976190Y-61417438D02*
X178071428Y-61369819D01*
X178071428Y-61369819D02*
X178309523Y-61369819D01*
X178309523Y-61369819D02*
X178404761Y-61417438D01*
X178404761Y-61417438D02*
X178452380Y-61465057D01*
X178452380Y-61465057D02*
X178499999Y-61560295D01*
X178499999Y-61560295D02*
X178499999Y-61655533D01*
X178499999Y-61655533D02*
X178452380Y-61798390D01*
X178452380Y-61798390D02*
X177880952Y-62369819D01*
X177880952Y-62369819D02*
X178499999Y-62369819D01*
X116322200Y-72229159D02*
X116369819Y-72086302D01*
X116369819Y-72086302D02*
X116369819Y-71848207D01*
X116369819Y-71848207D02*
X116322200Y-71752969D01*
X116322200Y-71752969D02*
X116274580Y-71705350D01*
X116274580Y-71705350D02*
X116179342Y-71657731D01*
X116179342Y-71657731D02*
X116084104Y-71657731D01*
X116084104Y-71657731D02*
X115988866Y-71705350D01*
X115988866Y-71705350D02*
X115941247Y-71752969D01*
X115941247Y-71752969D02*
X115893628Y-71848207D01*
X115893628Y-71848207D02*
X115846009Y-72038683D01*
X115846009Y-72038683D02*
X115798390Y-72133921D01*
X115798390Y-72133921D02*
X115750771Y-72181540D01*
X115750771Y-72181540D02*
X115655533Y-72229159D01*
X115655533Y-72229159D02*
X115560295Y-72229159D01*
X115560295Y-72229159D02*
X115465057Y-72181540D01*
X115465057Y-72181540D02*
X115417438Y-72133921D01*
X115417438Y-72133921D02*
X115369819Y-72038683D01*
X115369819Y-72038683D02*
X115369819Y-71800588D01*
X115369819Y-71800588D02*
X115417438Y-71657731D01*
X116369819Y-71229159D02*
X115369819Y-71229159D01*
X115369819Y-71229159D02*
X115369819Y-70848207D01*
X115369819Y-70848207D02*
X115417438Y-70752969D01*
X115417438Y-70752969D02*
X115465057Y-70705350D01*
X115465057Y-70705350D02*
X115560295Y-70657731D01*
X115560295Y-70657731D02*
X115703152Y-70657731D01*
X115703152Y-70657731D02*
X115798390Y-70705350D01*
X115798390Y-70705350D02*
X115846009Y-70752969D01*
X115846009Y-70752969D02*
X115893628Y-70848207D01*
X115893628Y-70848207D02*
X115893628Y-71229159D01*
X116369819Y-70229159D02*
X115369819Y-70229159D01*
X115465057Y-69800588D02*
X115417438Y-69752969D01*
X115417438Y-69752969D02*
X115369819Y-69657731D01*
X115369819Y-69657731D02*
X115369819Y-69419636D01*
X115369819Y-69419636D02*
X115417438Y-69324398D01*
X115417438Y-69324398D02*
X115465057Y-69276779D01*
X115465057Y-69276779D02*
X115560295Y-69229160D01*
X115560295Y-69229160D02*
X115655533Y-69229160D01*
X115655533Y-69229160D02*
X115798390Y-69276779D01*
X115798390Y-69276779D02*
X116369819Y-69848207D01*
X116369819Y-69848207D02*
X116369819Y-69229160D01*
X113857142Y-82774580D02*
X113809523Y-82822200D01*
X113809523Y-82822200D02*
X113666666Y-82869819D01*
X113666666Y-82869819D02*
X113571428Y-82869819D01*
X113571428Y-82869819D02*
X113428571Y-82822200D01*
X113428571Y-82822200D02*
X113333333Y-82726961D01*
X113333333Y-82726961D02*
X113285714Y-82631723D01*
X113285714Y-82631723D02*
X113238095Y-82441247D01*
X113238095Y-82441247D02*
X113238095Y-82298390D01*
X113238095Y-82298390D02*
X113285714Y-82107914D01*
X113285714Y-82107914D02*
X113333333Y-82012676D01*
X113333333Y-82012676D02*
X113428571Y-81917438D01*
X113428571Y-81917438D02*
X113571428Y-81869819D01*
X113571428Y-81869819D02*
X113666666Y-81869819D01*
X113666666Y-81869819D02*
X113809523Y-81917438D01*
X113809523Y-81917438D02*
X113857142Y-81965057D01*
X114238095Y-82584104D02*
X114714285Y-82584104D01*
X114142857Y-82869819D02*
X114476190Y-81869819D01*
X114476190Y-81869819D02*
X114809523Y-82869819D01*
X115142857Y-82869819D02*
X115142857Y-81869819D01*
X115142857Y-81869819D02*
X115714285Y-82869819D01*
X115714285Y-82869819D02*
X115714285Y-81869819D01*
X115846009Y-113595238D02*
X115846009Y-113261905D01*
X116369819Y-113119048D02*
X116369819Y-113595238D01*
X116369819Y-113595238D02*
X115369819Y-113595238D01*
X115369819Y-113595238D02*
X115369819Y-113119048D01*
X115703152Y-112690476D02*
X116369819Y-112690476D01*
X115798390Y-112690476D02*
X115750771Y-112642857D01*
X115750771Y-112642857D02*
X115703152Y-112547619D01*
X115703152Y-112547619D02*
X115703152Y-112404762D01*
X115703152Y-112404762D02*
X115750771Y-112309524D01*
X115750771Y-112309524D02*
X115846009Y-112261905D01*
X115846009Y-112261905D02*
X116369819Y-112261905D01*
X116322200Y-111357143D02*
X116369819Y-111452381D01*
X116369819Y-111452381D02*
X116369819Y-111642857D01*
X116369819Y-111642857D02*
X116322200Y-111738095D01*
X116322200Y-111738095D02*
X116274580Y-111785714D01*
X116274580Y-111785714D02*
X116179342Y-111833333D01*
X116179342Y-111833333D02*
X115893628Y-111833333D01*
X115893628Y-111833333D02*
X115798390Y-111785714D01*
X115798390Y-111785714D02*
X115750771Y-111738095D01*
X115750771Y-111738095D02*
X115703152Y-111642857D01*
X115703152Y-111642857D02*
X115703152Y-111452381D01*
X115703152Y-111452381D02*
X115750771Y-111357143D01*
X116369819Y-110785714D02*
X116322200Y-110880952D01*
X116322200Y-110880952D02*
X116274580Y-110928571D01*
X116274580Y-110928571D02*
X116179342Y-110976190D01*
X116179342Y-110976190D02*
X115893628Y-110976190D01*
X115893628Y-110976190D02*
X115798390Y-110928571D01*
X115798390Y-110928571D02*
X115750771Y-110880952D01*
X115750771Y-110880952D02*
X115703152Y-110785714D01*
X115703152Y-110785714D02*
X115703152Y-110642857D01*
X115703152Y-110642857D02*
X115750771Y-110547619D01*
X115750771Y-110547619D02*
X115798390Y-110500000D01*
X115798390Y-110500000D02*
X115893628Y-110452381D01*
X115893628Y-110452381D02*
X116179342Y-110452381D01*
X116179342Y-110452381D02*
X116274580Y-110500000D01*
X116274580Y-110500000D02*
X116322200Y-110547619D01*
X116322200Y-110547619D02*
X116369819Y-110642857D01*
X116369819Y-110642857D02*
X116369819Y-110785714D01*
X116369819Y-109595238D02*
X115369819Y-109595238D01*
X116322200Y-109595238D02*
X116369819Y-109690476D01*
X116369819Y-109690476D02*
X116369819Y-109880952D01*
X116369819Y-109880952D02*
X116322200Y-109976190D01*
X116322200Y-109976190D02*
X116274580Y-110023809D01*
X116274580Y-110023809D02*
X116179342Y-110071428D01*
X116179342Y-110071428D02*
X115893628Y-110071428D01*
X115893628Y-110071428D02*
X115798390Y-110023809D01*
X115798390Y-110023809D02*
X115750771Y-109976190D01*
X115750771Y-109976190D02*
X115703152Y-109880952D01*
X115703152Y-109880952D02*
X115703152Y-109690476D01*
X115703152Y-109690476D02*
X115750771Y-109595238D01*
X116322200Y-108738095D02*
X116369819Y-108833333D01*
X116369819Y-108833333D02*
X116369819Y-109023809D01*
X116369819Y-109023809D02*
X116322200Y-109119047D01*
X116322200Y-109119047D02*
X116226961Y-109166666D01*
X116226961Y-109166666D02*
X115846009Y-109166666D01*
X115846009Y-109166666D02*
X115750771Y-109119047D01*
X115750771Y-109119047D02*
X115703152Y-109023809D01*
X115703152Y-109023809D02*
X115703152Y-108833333D01*
X115703152Y-108833333D02*
X115750771Y-108738095D01*
X115750771Y-108738095D02*
X115846009Y-108690476D01*
X115846009Y-108690476D02*
X115941247Y-108690476D01*
X115941247Y-108690476D02*
X116036485Y-109166666D01*
X116369819Y-108261904D02*
X115703152Y-108261904D01*
X115893628Y-108261904D02*
X115798390Y-108214285D01*
X115798390Y-108214285D02*
X115750771Y-108166666D01*
X115750771Y-108166666D02*
X115703152Y-108071428D01*
X115703152Y-108071428D02*
X115703152Y-107976190D01*
X116369819Y-106357142D02*
X116369819Y-106928570D01*
X116369819Y-106642856D02*
X115369819Y-106642856D01*
X115369819Y-106642856D02*
X115512676Y-106738094D01*
X115512676Y-106738094D02*
X115607914Y-106833332D01*
X115607914Y-106833332D02*
X115655533Y-106928570D01*
X163027255Y-127954819D02*
X163122493Y-127954819D01*
X163122493Y-127954819D02*
X163217731Y-128002438D01*
X163217731Y-128002438D02*
X163265350Y-128050057D01*
X163265350Y-128050057D02*
X163312969Y-128145295D01*
X163312969Y-128145295D02*
X163360588Y-128335771D01*
X163360588Y-128335771D02*
X163360588Y-128573866D01*
X163360588Y-128573866D02*
X163312969Y-128764342D01*
X163312969Y-128764342D02*
X163265350Y-128859580D01*
X163265350Y-128859580D02*
X163217731Y-128907200D01*
X163217731Y-128907200D02*
X163122493Y-128954819D01*
X163122493Y-128954819D02*
X163027255Y-128954819D01*
X163027255Y-128954819D02*
X162932017Y-128907200D01*
X162932017Y-128907200D02*
X162884398Y-128859580D01*
X162884398Y-128859580D02*
X162836779Y-128764342D01*
X162836779Y-128764342D02*
X162789160Y-128573866D01*
X162789160Y-128573866D02*
X162789160Y-128335771D01*
X162789160Y-128335771D02*
X162836779Y-128145295D01*
X162836779Y-128145295D02*
X162884398Y-128050057D01*
X162884398Y-128050057D02*
X162932017Y-128002438D01*
X162932017Y-128002438D02*
X163027255Y-127954819D01*
X164265350Y-127954819D02*
X163789160Y-127954819D01*
X163789160Y-127954819D02*
X163741541Y-128431009D01*
X163741541Y-128431009D02*
X163789160Y-128383390D01*
X163789160Y-128383390D02*
X163884398Y-128335771D01*
X163884398Y-128335771D02*
X164122493Y-128335771D01*
X164122493Y-128335771D02*
X164217731Y-128383390D01*
X164217731Y-128383390D02*
X164265350Y-128431009D01*
X164265350Y-128431009D02*
X164312969Y-128526247D01*
X164312969Y-128526247D02*
X164312969Y-128764342D01*
X164312969Y-128764342D02*
X164265350Y-128859580D01*
X164265350Y-128859580D02*
X164217731Y-128907200D01*
X164217731Y-128907200D02*
X164122493Y-128954819D01*
X164122493Y-128954819D02*
X163884398Y-128954819D01*
X163884398Y-128954819D02*
X163789160Y-128907200D01*
X163789160Y-128907200D02*
X163741541Y-128859580D01*
X164741541Y-128573866D02*
X165503446Y-128573866D01*
X166170112Y-127954819D02*
X166265350Y-127954819D01*
X166265350Y-127954819D02*
X166360588Y-128002438D01*
X166360588Y-128002438D02*
X166408207Y-128050057D01*
X166408207Y-128050057D02*
X166455826Y-128145295D01*
X166455826Y-128145295D02*
X166503445Y-128335771D01*
X166503445Y-128335771D02*
X166503445Y-128573866D01*
X166503445Y-128573866D02*
X166455826Y-128764342D01*
X166455826Y-128764342D02*
X166408207Y-128859580D01*
X166408207Y-128859580D02*
X166360588Y-128907200D01*
X166360588Y-128907200D02*
X166265350Y-128954819D01*
X166265350Y-128954819D02*
X166170112Y-128954819D01*
X166170112Y-128954819D02*
X166074874Y-128907200D01*
X166074874Y-128907200D02*
X166027255Y-128859580D01*
X166027255Y-128859580D02*
X165979636Y-128764342D01*
X165979636Y-128764342D02*
X165932017Y-128573866D01*
X165932017Y-128573866D02*
X165932017Y-128335771D01*
X165932017Y-128335771D02*
X165979636Y-128145295D01*
X165979636Y-128145295D02*
X166027255Y-128050057D01*
X166027255Y-128050057D02*
X166074874Y-128002438D01*
X166074874Y-128002438D02*
X166170112Y-127954819D01*
X166836779Y-127954819D02*
X167503445Y-127954819D01*
X167503445Y-127954819D02*
X167074874Y-128954819D01*
X167884398Y-128573866D02*
X168646303Y-128573866D01*
X169074874Y-128050057D02*
X169122493Y-128002438D01*
X169122493Y-128002438D02*
X169217731Y-127954819D01*
X169217731Y-127954819D02*
X169455826Y-127954819D01*
X169455826Y-127954819D02*
X169551064Y-128002438D01*
X169551064Y-128002438D02*
X169598683Y-128050057D01*
X169598683Y-128050057D02*
X169646302Y-128145295D01*
X169646302Y-128145295D02*
X169646302Y-128240533D01*
X169646302Y-128240533D02*
X169598683Y-128383390D01*
X169598683Y-128383390D02*
X169027255Y-128954819D01*
X169027255Y-128954819D02*
X169646302Y-128954819D01*
X170265350Y-127954819D02*
X170360588Y-127954819D01*
X170360588Y-127954819D02*
X170455826Y-128002438D01*
X170455826Y-128002438D02*
X170503445Y-128050057D01*
X170503445Y-128050057D02*
X170551064Y-128145295D01*
X170551064Y-128145295D02*
X170598683Y-128335771D01*
X170598683Y-128335771D02*
X170598683Y-128573866D01*
X170598683Y-128573866D02*
X170551064Y-128764342D01*
X170551064Y-128764342D02*
X170503445Y-128859580D01*
X170503445Y-128859580D02*
X170455826Y-128907200D01*
X170455826Y-128907200D02*
X170360588Y-128954819D01*
X170360588Y-128954819D02*
X170265350Y-128954819D01*
X170265350Y-128954819D02*
X170170112Y-128907200D01*
X170170112Y-128907200D02*
X170122493Y-128859580D01*
X170122493Y-128859580D02*
X170074874Y-128764342D01*
X170074874Y-128764342D02*
X170027255Y-128573866D01*
X170027255Y-128573866D02*
X170027255Y-128335771D01*
X170027255Y-128335771D02*
X170074874Y-128145295D01*
X170074874Y-128145295D02*
X170122493Y-128050057D01*
X170122493Y-128050057D02*
X170170112Y-128002438D01*
X170170112Y-128002438D02*
X170265350Y-127954819D01*
X170979636Y-128050057D02*
X171027255Y-128002438D01*
X171027255Y-128002438D02*
X171122493Y-127954819D01*
X171122493Y-127954819D02*
X171360588Y-127954819D01*
X171360588Y-127954819D02*
X171455826Y-128002438D01*
X171455826Y-128002438D02*
X171503445Y-128050057D01*
X171503445Y-128050057D02*
X171551064Y-128145295D01*
X171551064Y-128145295D02*
X171551064Y-128240533D01*
X171551064Y-128240533D02*
X171503445Y-128383390D01*
X171503445Y-128383390D02*
X170932017Y-128954819D01*
X170932017Y-128954819D02*
X171551064Y-128954819D01*
X172455826Y-127954819D02*
X171979636Y-127954819D01*
X171979636Y-127954819D02*
X171932017Y-128431009D01*
X171932017Y-128431009D02*
X171979636Y-128383390D01*
X171979636Y-128383390D02*
X172074874Y-128335771D01*
X172074874Y-128335771D02*
X172312969Y-128335771D01*
X172312969Y-128335771D02*
X172408207Y-128383390D01*
X172408207Y-128383390D02*
X172455826Y-128431009D01*
X172455826Y-128431009D02*
X172503445Y-128526247D01*
X172503445Y-128526247D02*
X172503445Y-128764342D01*
X172503445Y-128764342D02*
X172455826Y-128859580D01*
X172455826Y-128859580D02*
X172408207Y-128907200D01*
X172408207Y-128907200D02*
X172312969Y-128954819D01*
X172312969Y-128954819D02*
X172074874Y-128954819D01*
X172074874Y-128954819D02*
X171979636Y-128907200D01*
X171979636Y-128907200D02*
X171932017Y-128859580D01*
X116615601Y-62502438D02*
X116520363Y-62454819D01*
X116520363Y-62454819D02*
X116377506Y-62454819D01*
X116377506Y-62454819D02*
X116234649Y-62502438D01*
X116234649Y-62502438D02*
X116139411Y-62597676D01*
X116139411Y-62597676D02*
X116091792Y-62692914D01*
X116091792Y-62692914D02*
X116044173Y-62883390D01*
X116044173Y-62883390D02*
X116044173Y-63026247D01*
X116044173Y-63026247D02*
X116091792Y-63216723D01*
X116091792Y-63216723D02*
X116139411Y-63311961D01*
X116139411Y-63311961D02*
X116234649Y-63407200D01*
X116234649Y-63407200D02*
X116377506Y-63454819D01*
X116377506Y-63454819D02*
X116472744Y-63454819D01*
X116472744Y-63454819D02*
X116615601Y-63407200D01*
X116615601Y-63407200D02*
X116663220Y-63359580D01*
X116663220Y-63359580D02*
X116663220Y-63026247D01*
X116663220Y-63026247D02*
X116472744Y-63026247D01*
X117091792Y-63454819D02*
X117091792Y-62454819D01*
X117091792Y-62454819D02*
X117663220Y-63454819D01*
X117663220Y-63454819D02*
X117663220Y-62454819D01*
X118139411Y-63454819D02*
X118139411Y-62454819D01*
X118139411Y-62454819D02*
X118377506Y-62454819D01*
X118377506Y-62454819D02*
X118520363Y-62502438D01*
X118520363Y-62502438D02*
X118615601Y-62597676D01*
X118615601Y-62597676D02*
X118663220Y-62692914D01*
X118663220Y-62692914D02*
X118710839Y-62883390D01*
X118710839Y-62883390D02*
X118710839Y-63026247D01*
X118710839Y-63026247D02*
X118663220Y-63216723D01*
X118663220Y-63216723D02*
X118615601Y-63311961D01*
X118615601Y-63311961D02*
X118520363Y-63407200D01*
X118520363Y-63407200D02*
X118377506Y-63454819D01*
X118377506Y-63454819D02*
X118139411Y-63454819D01*
X122846009Y-113595238D02*
X122846009Y-113261905D01*
X123369819Y-113119048D02*
X123369819Y-113595238D01*
X123369819Y-113595238D02*
X122369819Y-113595238D01*
X122369819Y-113595238D02*
X122369819Y-113119048D01*
X122703152Y-112690476D02*
X123369819Y-112690476D01*
X122798390Y-112690476D02*
X122750771Y-112642857D01*
X122750771Y-112642857D02*
X122703152Y-112547619D01*
X122703152Y-112547619D02*
X122703152Y-112404762D01*
X122703152Y-112404762D02*
X122750771Y-112309524D01*
X122750771Y-112309524D02*
X122846009Y-112261905D01*
X122846009Y-112261905D02*
X123369819Y-112261905D01*
X123322200Y-111357143D02*
X123369819Y-111452381D01*
X123369819Y-111452381D02*
X123369819Y-111642857D01*
X123369819Y-111642857D02*
X123322200Y-111738095D01*
X123322200Y-111738095D02*
X123274580Y-111785714D01*
X123274580Y-111785714D02*
X123179342Y-111833333D01*
X123179342Y-111833333D02*
X122893628Y-111833333D01*
X122893628Y-111833333D02*
X122798390Y-111785714D01*
X122798390Y-111785714D02*
X122750771Y-111738095D01*
X122750771Y-111738095D02*
X122703152Y-111642857D01*
X122703152Y-111642857D02*
X122703152Y-111452381D01*
X122703152Y-111452381D02*
X122750771Y-111357143D01*
X123369819Y-110785714D02*
X123322200Y-110880952D01*
X123322200Y-110880952D02*
X123274580Y-110928571D01*
X123274580Y-110928571D02*
X123179342Y-110976190D01*
X123179342Y-110976190D02*
X122893628Y-110976190D01*
X122893628Y-110976190D02*
X122798390Y-110928571D01*
X122798390Y-110928571D02*
X122750771Y-110880952D01*
X122750771Y-110880952D02*
X122703152Y-110785714D01*
X122703152Y-110785714D02*
X122703152Y-110642857D01*
X122703152Y-110642857D02*
X122750771Y-110547619D01*
X122750771Y-110547619D02*
X122798390Y-110500000D01*
X122798390Y-110500000D02*
X122893628Y-110452381D01*
X122893628Y-110452381D02*
X123179342Y-110452381D01*
X123179342Y-110452381D02*
X123274580Y-110500000D01*
X123274580Y-110500000D02*
X123322200Y-110547619D01*
X123322200Y-110547619D02*
X123369819Y-110642857D01*
X123369819Y-110642857D02*
X123369819Y-110785714D01*
X123369819Y-109595238D02*
X122369819Y-109595238D01*
X123322200Y-109595238D02*
X123369819Y-109690476D01*
X123369819Y-109690476D02*
X123369819Y-109880952D01*
X123369819Y-109880952D02*
X123322200Y-109976190D01*
X123322200Y-109976190D02*
X123274580Y-110023809D01*
X123274580Y-110023809D02*
X123179342Y-110071428D01*
X123179342Y-110071428D02*
X122893628Y-110071428D01*
X122893628Y-110071428D02*
X122798390Y-110023809D01*
X122798390Y-110023809D02*
X122750771Y-109976190D01*
X122750771Y-109976190D02*
X122703152Y-109880952D01*
X122703152Y-109880952D02*
X122703152Y-109690476D01*
X122703152Y-109690476D02*
X122750771Y-109595238D01*
X123322200Y-108738095D02*
X123369819Y-108833333D01*
X123369819Y-108833333D02*
X123369819Y-109023809D01*
X123369819Y-109023809D02*
X123322200Y-109119047D01*
X123322200Y-109119047D02*
X123226961Y-109166666D01*
X123226961Y-109166666D02*
X122846009Y-109166666D01*
X122846009Y-109166666D02*
X122750771Y-109119047D01*
X122750771Y-109119047D02*
X122703152Y-109023809D01*
X122703152Y-109023809D02*
X122703152Y-108833333D01*
X122703152Y-108833333D02*
X122750771Y-108738095D01*
X122750771Y-108738095D02*
X122846009Y-108690476D01*
X122846009Y-108690476D02*
X122941247Y-108690476D01*
X122941247Y-108690476D02*
X123036485Y-109166666D01*
X123369819Y-108261904D02*
X122703152Y-108261904D01*
X122893628Y-108261904D02*
X122798390Y-108214285D01*
X122798390Y-108214285D02*
X122750771Y-108166666D01*
X122750771Y-108166666D02*
X122703152Y-108071428D01*
X122703152Y-108071428D02*
X122703152Y-107976190D01*
X122465057Y-106928570D02*
X122417438Y-106880951D01*
X122417438Y-106880951D02*
X122369819Y-106785713D01*
X122369819Y-106785713D02*
X122369819Y-106547618D01*
X122369819Y-106547618D02*
X122417438Y-106452380D01*
X122417438Y-106452380D02*
X122465057Y-106404761D01*
X122465057Y-106404761D02*
X122560295Y-106357142D01*
X122560295Y-106357142D02*
X122655533Y-106357142D01*
X122655533Y-106357142D02*
X122798390Y-106404761D01*
X122798390Y-106404761D02*
X123369819Y-106976189D01*
X123369819Y-106976189D02*
X123369819Y-106357142D01*
X109084104Y-113309523D02*
X109084104Y-112833333D01*
X109369819Y-113404761D02*
X108369819Y-113071428D01*
X108369819Y-113071428D02*
X109369819Y-112738095D01*
X108369819Y-112404761D02*
X109179342Y-112404761D01*
X109179342Y-112404761D02*
X109274580Y-112357142D01*
X109274580Y-112357142D02*
X109322200Y-112309523D01*
X109322200Y-112309523D02*
X109369819Y-112214285D01*
X109369819Y-112214285D02*
X109369819Y-112023809D01*
X109369819Y-112023809D02*
X109322200Y-111928571D01*
X109322200Y-111928571D02*
X109274580Y-111880952D01*
X109274580Y-111880952D02*
X109179342Y-111833333D01*
X109179342Y-111833333D02*
X108369819Y-111833333D01*
X108369819Y-111452380D02*
X109369819Y-110785714D01*
X108369819Y-110785714D02*
X109369819Y-111452380D01*
X109322200Y-109690475D02*
X109369819Y-109547618D01*
X109369819Y-109547618D02*
X109369819Y-109309523D01*
X109369819Y-109309523D02*
X109322200Y-109214285D01*
X109322200Y-109214285D02*
X109274580Y-109166666D01*
X109274580Y-109166666D02*
X109179342Y-109119047D01*
X109179342Y-109119047D02*
X109084104Y-109119047D01*
X109084104Y-109119047D02*
X108988866Y-109166666D01*
X108988866Y-109166666D02*
X108941247Y-109214285D01*
X108941247Y-109214285D02*
X108893628Y-109309523D01*
X108893628Y-109309523D02*
X108846009Y-109499999D01*
X108846009Y-109499999D02*
X108798390Y-109595237D01*
X108798390Y-109595237D02*
X108750771Y-109642856D01*
X108750771Y-109642856D02*
X108655533Y-109690475D01*
X108655533Y-109690475D02*
X108560295Y-109690475D01*
X108560295Y-109690475D02*
X108465057Y-109642856D01*
X108465057Y-109642856D02*
X108417438Y-109595237D01*
X108417438Y-109595237D02*
X108369819Y-109499999D01*
X108369819Y-109499999D02*
X108369819Y-109261904D01*
X108369819Y-109261904D02*
X108417438Y-109119047D01*
X109369819Y-108690475D02*
X108369819Y-108690475D01*
X108369819Y-108690475D02*
X108369819Y-108309523D01*
X108369819Y-108309523D02*
X108417438Y-108214285D01*
X108417438Y-108214285D02*
X108465057Y-108166666D01*
X108465057Y-108166666D02*
X108560295Y-108119047D01*
X108560295Y-108119047D02*
X108703152Y-108119047D01*
X108703152Y-108119047D02*
X108798390Y-108166666D01*
X108798390Y-108166666D02*
X108846009Y-108214285D01*
X108846009Y-108214285D02*
X108893628Y-108309523D01*
X108893628Y-108309523D02*
X108893628Y-108690475D01*
X109369819Y-107690475D02*
X108369819Y-107690475D01*
X108369819Y-107309523D02*
X108369819Y-106690476D01*
X108369819Y-106690476D02*
X108750771Y-107023809D01*
X108750771Y-107023809D02*
X108750771Y-106880952D01*
X108750771Y-106880952D02*
X108798390Y-106785714D01*
X108798390Y-106785714D02*
X108846009Y-106738095D01*
X108846009Y-106738095D02*
X108941247Y-106690476D01*
X108941247Y-106690476D02*
X109179342Y-106690476D01*
X109179342Y-106690476D02*
X109274580Y-106738095D01*
X109274580Y-106738095D02*
X109322200Y-106785714D01*
X109322200Y-106785714D02*
X109369819Y-106880952D01*
X109369819Y-106880952D02*
X109369819Y-107166666D01*
X109369819Y-107166666D02*
X109322200Y-107261904D01*
X109322200Y-107261904D02*
X109274580Y-107309523D01*
X155454819Y-132717731D02*
X155454819Y-132098684D01*
X155454819Y-132098684D02*
X155835771Y-132432017D01*
X155835771Y-132432017D02*
X155835771Y-132289160D01*
X155835771Y-132289160D02*
X155883390Y-132193922D01*
X155883390Y-132193922D02*
X155931009Y-132146303D01*
X155931009Y-132146303D02*
X156026247Y-132098684D01*
X156026247Y-132098684D02*
X156264342Y-132098684D01*
X156264342Y-132098684D02*
X156359580Y-132146303D01*
X156359580Y-132146303D02*
X156407200Y-132193922D01*
X156407200Y-132193922D02*
X156454819Y-132289160D01*
X156454819Y-132289160D02*
X156454819Y-132574874D01*
X156454819Y-132574874D02*
X156407200Y-132670112D01*
X156407200Y-132670112D02*
X156359580Y-132717731D01*
X155454819Y-131812969D02*
X156454819Y-131479636D01*
X156454819Y-131479636D02*
X155454819Y-131146303D01*
X155454819Y-130908207D02*
X155454819Y-130289160D01*
X155454819Y-130289160D02*
X155835771Y-130622493D01*
X155835771Y-130622493D02*
X155835771Y-130479636D01*
X155835771Y-130479636D02*
X155883390Y-130384398D01*
X155883390Y-130384398D02*
X155931009Y-130336779D01*
X155931009Y-130336779D02*
X156026247Y-130289160D01*
X156026247Y-130289160D02*
X156264342Y-130289160D01*
X156264342Y-130289160D02*
X156359580Y-130336779D01*
X156359580Y-130336779D02*
X156407200Y-130384398D01*
X156407200Y-130384398D02*
X156454819Y-130479636D01*
X156454819Y-130479636D02*
X156454819Y-130765350D01*
X156454819Y-130765350D02*
X156407200Y-130860588D01*
X156407200Y-130860588D02*
X156359580Y-130908207D01*
X163122493Y-129454819D02*
X163122493Y-130169104D01*
X163122493Y-130169104D02*
X163074874Y-130311961D01*
X163074874Y-130311961D02*
X162979636Y-130407200D01*
X162979636Y-130407200D02*
X162836779Y-130454819D01*
X162836779Y-130454819D02*
X162741541Y-130454819D01*
X163979636Y-130407200D02*
X163884398Y-130454819D01*
X163884398Y-130454819D02*
X163693922Y-130454819D01*
X163693922Y-130454819D02*
X163598684Y-130407200D01*
X163598684Y-130407200D02*
X163551065Y-130311961D01*
X163551065Y-130311961D02*
X163551065Y-129931009D01*
X163551065Y-129931009D02*
X163598684Y-129835771D01*
X163598684Y-129835771D02*
X163693922Y-129788152D01*
X163693922Y-129788152D02*
X163884398Y-129788152D01*
X163884398Y-129788152D02*
X163979636Y-129835771D01*
X163979636Y-129835771D02*
X164027255Y-129931009D01*
X164027255Y-129931009D02*
X164027255Y-130026247D01*
X164027255Y-130026247D02*
X163551065Y-130121485D01*
X164455827Y-129788152D02*
X164455827Y-130454819D01*
X164455827Y-129883390D02*
X164503446Y-129835771D01*
X164503446Y-129835771D02*
X164598684Y-129788152D01*
X164598684Y-129788152D02*
X164741541Y-129788152D01*
X164741541Y-129788152D02*
X164836779Y-129835771D01*
X164836779Y-129835771D02*
X164884398Y-129931009D01*
X164884398Y-129931009D02*
X164884398Y-130454819D01*
X165360589Y-129788152D02*
X165360589Y-130454819D01*
X165360589Y-129883390D02*
X165408208Y-129835771D01*
X165408208Y-129835771D02*
X165503446Y-129788152D01*
X165503446Y-129788152D02*
X165646303Y-129788152D01*
X165646303Y-129788152D02*
X165741541Y-129835771D01*
X165741541Y-129835771D02*
X165789160Y-129931009D01*
X165789160Y-129931009D02*
X165789160Y-130454819D01*
X166170113Y-129788152D02*
X166408208Y-130454819D01*
X166646303Y-129788152D02*
X166408208Y-130454819D01*
X166408208Y-130454819D02*
X166312970Y-130692914D01*
X166312970Y-130692914D02*
X166265351Y-130740533D01*
X166265351Y-130740533D02*
X166170113Y-130788152D01*
X166979637Y-130407200D02*
X167074875Y-130454819D01*
X167074875Y-130454819D02*
X167265351Y-130454819D01*
X167265351Y-130454819D02*
X167360589Y-130407200D01*
X167360589Y-130407200D02*
X167408208Y-130311961D01*
X167408208Y-130311961D02*
X167408208Y-130264342D01*
X167408208Y-130264342D02*
X167360589Y-130169104D01*
X167360589Y-130169104D02*
X167265351Y-130121485D01*
X167265351Y-130121485D02*
X167122494Y-130121485D01*
X167122494Y-130121485D02*
X167027256Y-130073866D01*
X167027256Y-130073866D02*
X166979637Y-129978628D01*
X166979637Y-129978628D02*
X166979637Y-129931009D01*
X166979637Y-129931009D02*
X167027256Y-129835771D01*
X167027256Y-129835771D02*
X167122494Y-129788152D01*
X167122494Y-129788152D02*
X167265351Y-129788152D01*
X167265351Y-129788152D02*
X167360589Y-129835771D01*
X167693923Y-129788152D02*
X168074875Y-129788152D01*
X167836780Y-129454819D02*
X167836780Y-130311961D01*
X167836780Y-130311961D02*
X167884399Y-130407200D01*
X167884399Y-130407200D02*
X167979637Y-130454819D01*
X167979637Y-130454819D02*
X168074875Y-130454819D01*
X168551066Y-130454819D02*
X168455828Y-130407200D01*
X168455828Y-130407200D02*
X168408209Y-130359580D01*
X168408209Y-130359580D02*
X168360590Y-130264342D01*
X168360590Y-130264342D02*
X168360590Y-129978628D01*
X168360590Y-129978628D02*
X168408209Y-129883390D01*
X168408209Y-129883390D02*
X168455828Y-129835771D01*
X168455828Y-129835771D02*
X168551066Y-129788152D01*
X168551066Y-129788152D02*
X168693923Y-129788152D01*
X168693923Y-129788152D02*
X168789161Y-129835771D01*
X168789161Y-129835771D02*
X168836780Y-129883390D01*
X168836780Y-129883390D02*
X168884399Y-129978628D01*
X168884399Y-129978628D02*
X168884399Y-130264342D01*
X168884399Y-130264342D02*
X168836780Y-130359580D01*
X168836780Y-130359580D02*
X168789161Y-130407200D01*
X168789161Y-130407200D02*
X168693923Y-130454819D01*
X168693923Y-130454819D02*
X168551066Y-130454819D01*
X169312971Y-129788152D02*
X169312971Y-130454819D01*
X169312971Y-129883390D02*
X169360590Y-129835771D01*
X169360590Y-129835771D02*
X169455828Y-129788152D01*
X169455828Y-129788152D02*
X169598685Y-129788152D01*
X169598685Y-129788152D02*
X169693923Y-129835771D01*
X169693923Y-129835771D02*
X169741542Y-129931009D01*
X169741542Y-129931009D02*
X169741542Y-130454819D01*
X171265352Y-129454819D02*
X171265352Y-130169104D01*
X171265352Y-130169104D02*
X171217733Y-130311961D01*
X171217733Y-130311961D02*
X171122495Y-130407200D01*
X171122495Y-130407200D02*
X170979638Y-130454819D01*
X170979638Y-130454819D02*
X170884400Y-130454819D01*
X108369819Y-88245713D02*
X107369819Y-88245713D01*
X107369819Y-88245713D02*
X108369819Y-87674285D01*
X108369819Y-87674285D02*
X107369819Y-87674285D01*
X108274580Y-86626666D02*
X108322200Y-86674285D01*
X108322200Y-86674285D02*
X108369819Y-86817142D01*
X108369819Y-86817142D02*
X108369819Y-86912380D01*
X108369819Y-86912380D02*
X108322200Y-87055237D01*
X108322200Y-87055237D02*
X108226961Y-87150475D01*
X108226961Y-87150475D02*
X108131723Y-87198094D01*
X108131723Y-87198094D02*
X107941247Y-87245713D01*
X107941247Y-87245713D02*
X107798390Y-87245713D01*
X107798390Y-87245713D02*
X107607914Y-87198094D01*
X107607914Y-87198094D02*
X107512676Y-87150475D01*
X107512676Y-87150475D02*
X107417438Y-87055237D01*
X107417438Y-87055237D02*
X107369819Y-86912380D01*
X107369819Y-86912380D02*
X107369819Y-86817142D01*
X107369819Y-86817142D02*
X107417438Y-86674285D01*
X107417438Y-86674285D02*
X107465057Y-86626666D01*
X107369819Y-93301904D02*
X107369819Y-92730476D01*
X108369819Y-93016190D02*
X107369819Y-93016190D01*
X107369819Y-92492380D02*
X108369819Y-91825714D01*
X107369819Y-91825714D02*
X108369819Y-92492380D01*
X163170112Y-126931009D02*
X162836779Y-126931009D01*
X162836779Y-127454819D02*
X162836779Y-126454819D01*
X162836779Y-126454819D02*
X163312969Y-126454819D01*
X163836779Y-127454819D02*
X163741541Y-127407200D01*
X163741541Y-127407200D02*
X163693922Y-127359580D01*
X163693922Y-127359580D02*
X163646303Y-127264342D01*
X163646303Y-127264342D02*
X163646303Y-126978628D01*
X163646303Y-126978628D02*
X163693922Y-126883390D01*
X163693922Y-126883390D02*
X163741541Y-126835771D01*
X163741541Y-126835771D02*
X163836779Y-126788152D01*
X163836779Y-126788152D02*
X163979636Y-126788152D01*
X163979636Y-126788152D02*
X164074874Y-126835771D01*
X164074874Y-126835771D02*
X164122493Y-126883390D01*
X164122493Y-126883390D02*
X164170112Y-126978628D01*
X164170112Y-126978628D02*
X164170112Y-127264342D01*
X164170112Y-127264342D02*
X164122493Y-127359580D01*
X164122493Y-127359580D02*
X164074874Y-127407200D01*
X164074874Y-127407200D02*
X163979636Y-127454819D01*
X163979636Y-127454819D02*
X163836779Y-127454819D01*
X164598684Y-127454819D02*
X164598684Y-126788152D01*
X164598684Y-126978628D02*
X164646303Y-126883390D01*
X164646303Y-126883390D02*
X164693922Y-126835771D01*
X164693922Y-126835771D02*
X164789160Y-126788152D01*
X164789160Y-126788152D02*
X164884398Y-126788152D01*
X165646303Y-127407200D02*
X165551065Y-127454819D01*
X165551065Y-127454819D02*
X165360589Y-127454819D01*
X165360589Y-127454819D02*
X165265351Y-127407200D01*
X165265351Y-127407200D02*
X165217732Y-127359580D01*
X165217732Y-127359580D02*
X165170113Y-127264342D01*
X165170113Y-127264342D02*
X165170113Y-126978628D01*
X165170113Y-126978628D02*
X165217732Y-126883390D01*
X165217732Y-126883390D02*
X165265351Y-126835771D01*
X165265351Y-126835771D02*
X165360589Y-126788152D01*
X165360589Y-126788152D02*
X165551065Y-126788152D01*
X165551065Y-126788152D02*
X165646303Y-126835771D01*
X166455827Y-127407200D02*
X166360589Y-127454819D01*
X166360589Y-127454819D02*
X166170113Y-127454819D01*
X166170113Y-127454819D02*
X166074875Y-127407200D01*
X166074875Y-127407200D02*
X166027256Y-127311961D01*
X166027256Y-127311961D02*
X166027256Y-126931009D01*
X166027256Y-126931009D02*
X166074875Y-126835771D01*
X166074875Y-126835771D02*
X166170113Y-126788152D01*
X166170113Y-126788152D02*
X166360589Y-126788152D01*
X166360589Y-126788152D02*
X166455827Y-126835771D01*
X166455827Y-126835771D02*
X166503446Y-126931009D01*
X166503446Y-126931009D02*
X166503446Y-127026247D01*
X166503446Y-127026247D02*
X166027256Y-127121485D01*
X168027256Y-126931009D02*
X167693923Y-126931009D01*
X167693923Y-127454819D02*
X167693923Y-126454819D01*
X167693923Y-126454819D02*
X168170113Y-126454819D01*
X168932018Y-127407200D02*
X168836780Y-127454819D01*
X168836780Y-127454819D02*
X168646304Y-127454819D01*
X168646304Y-127454819D02*
X168551066Y-127407200D01*
X168551066Y-127407200D02*
X168503447Y-127311961D01*
X168503447Y-127311961D02*
X168503447Y-126931009D01*
X168503447Y-126931009D02*
X168551066Y-126835771D01*
X168551066Y-126835771D02*
X168646304Y-126788152D01*
X168646304Y-126788152D02*
X168836780Y-126788152D01*
X168836780Y-126788152D02*
X168932018Y-126835771D01*
X168932018Y-126835771D02*
X168979637Y-126931009D01*
X168979637Y-126931009D02*
X168979637Y-127026247D01*
X168979637Y-127026247D02*
X168503447Y-127121485D01*
X169789161Y-127407200D02*
X169693923Y-127454819D01*
X169693923Y-127454819D02*
X169503447Y-127454819D01*
X169503447Y-127454819D02*
X169408209Y-127407200D01*
X169408209Y-127407200D02*
X169360590Y-127311961D01*
X169360590Y-127311961D02*
X169360590Y-126931009D01*
X169360590Y-126931009D02*
X169408209Y-126835771D01*
X169408209Y-126835771D02*
X169503447Y-126788152D01*
X169503447Y-126788152D02*
X169693923Y-126788152D01*
X169693923Y-126788152D02*
X169789161Y-126835771D01*
X169789161Y-126835771D02*
X169836780Y-126931009D01*
X169836780Y-126931009D02*
X169836780Y-127026247D01*
X169836780Y-127026247D02*
X169360590Y-127121485D01*
X170693923Y-127454819D02*
X170693923Y-126454819D01*
X170693923Y-127407200D02*
X170598685Y-127454819D01*
X170598685Y-127454819D02*
X170408209Y-127454819D01*
X170408209Y-127454819D02*
X170312971Y-127407200D01*
X170312971Y-127407200D02*
X170265352Y-127359580D01*
X170265352Y-127359580D02*
X170217733Y-127264342D01*
X170217733Y-127264342D02*
X170217733Y-126978628D01*
X170217733Y-126978628D02*
X170265352Y-126883390D01*
X170265352Y-126883390D02*
X170312971Y-126835771D01*
X170312971Y-126835771D02*
X170408209Y-126788152D01*
X170408209Y-126788152D02*
X170598685Y-126788152D01*
X170598685Y-126788152D02*
X170693923Y-126835771D01*
X171170114Y-127454819D02*
X171170114Y-126454819D01*
X171170114Y-126835771D02*
X171265352Y-126788152D01*
X171265352Y-126788152D02*
X171455828Y-126788152D01*
X171455828Y-126788152D02*
X171551066Y-126835771D01*
X171551066Y-126835771D02*
X171598685Y-126883390D01*
X171598685Y-126883390D02*
X171646304Y-126978628D01*
X171646304Y-126978628D02*
X171646304Y-127264342D01*
X171646304Y-127264342D02*
X171598685Y-127359580D01*
X171598685Y-127359580D02*
X171551066Y-127407200D01*
X171551066Y-127407200D02*
X171455828Y-127454819D01*
X171455828Y-127454819D02*
X171265352Y-127454819D01*
X171265352Y-127454819D02*
X171170114Y-127407200D01*
X172503447Y-127454819D02*
X172503447Y-126931009D01*
X172503447Y-126931009D02*
X172455828Y-126835771D01*
X172455828Y-126835771D02*
X172360590Y-126788152D01*
X172360590Y-126788152D02*
X172170114Y-126788152D01*
X172170114Y-126788152D02*
X172074876Y-126835771D01*
X172503447Y-127407200D02*
X172408209Y-127454819D01*
X172408209Y-127454819D02*
X172170114Y-127454819D01*
X172170114Y-127454819D02*
X172074876Y-127407200D01*
X172074876Y-127407200D02*
X172027257Y-127311961D01*
X172027257Y-127311961D02*
X172027257Y-127216723D01*
X172027257Y-127216723D02*
X172074876Y-127121485D01*
X172074876Y-127121485D02*
X172170114Y-127073866D01*
X172170114Y-127073866D02*
X172408209Y-127073866D01*
X172408209Y-127073866D02*
X172503447Y-127026247D01*
X173408209Y-127407200D02*
X173312971Y-127454819D01*
X173312971Y-127454819D02*
X173122495Y-127454819D01*
X173122495Y-127454819D02*
X173027257Y-127407200D01*
X173027257Y-127407200D02*
X172979638Y-127359580D01*
X172979638Y-127359580D02*
X172932019Y-127264342D01*
X172932019Y-127264342D02*
X172932019Y-126978628D01*
X172932019Y-126978628D02*
X172979638Y-126883390D01*
X172979638Y-126883390D02*
X173027257Y-126835771D01*
X173027257Y-126835771D02*
X173122495Y-126788152D01*
X173122495Y-126788152D02*
X173312971Y-126788152D01*
X173312971Y-126788152D02*
X173408209Y-126835771D01*
X173836781Y-127454819D02*
X173836781Y-126454819D01*
X173932019Y-127073866D02*
X174217733Y-127454819D01*
X174217733Y-126788152D02*
X173836781Y-127169104D01*
X175598686Y-126978628D02*
X175598686Y-127454819D01*
X175265353Y-126454819D02*
X175598686Y-126978628D01*
X175598686Y-126978628D02*
X175932019Y-126454819D01*
X176408210Y-127454819D02*
X176312972Y-127407200D01*
X176312972Y-127407200D02*
X176265353Y-127359580D01*
X176265353Y-127359580D02*
X176217734Y-127264342D01*
X176217734Y-127264342D02*
X176217734Y-126978628D01*
X176217734Y-126978628D02*
X176265353Y-126883390D01*
X176265353Y-126883390D02*
X176312972Y-126835771D01*
X176312972Y-126835771D02*
X176408210Y-126788152D01*
X176408210Y-126788152D02*
X176551067Y-126788152D01*
X176551067Y-126788152D02*
X176646305Y-126835771D01*
X176646305Y-126835771D02*
X176693924Y-126883390D01*
X176693924Y-126883390D02*
X176741543Y-126978628D01*
X176741543Y-126978628D02*
X176741543Y-127264342D01*
X176741543Y-127264342D02*
X176693924Y-127359580D01*
X176693924Y-127359580D02*
X176646305Y-127407200D01*
X176646305Y-127407200D02*
X176551067Y-127454819D01*
X176551067Y-127454819D02*
X176408210Y-127454819D01*
X177170115Y-127454819D02*
X177170115Y-126454819D01*
X177265353Y-127073866D02*
X177551067Y-127454819D01*
X177551067Y-126788152D02*
X177170115Y-127169104D01*
X178360591Y-127407200D02*
X178265353Y-127454819D01*
X178265353Y-127454819D02*
X178074877Y-127454819D01*
X178074877Y-127454819D02*
X177979639Y-127407200D01*
X177979639Y-127407200D02*
X177932020Y-127311961D01*
X177932020Y-127311961D02*
X177932020Y-126931009D01*
X177932020Y-126931009D02*
X177979639Y-126835771D01*
X177979639Y-126835771D02*
X178074877Y-126788152D01*
X178074877Y-126788152D02*
X178265353Y-126788152D01*
X178265353Y-126788152D02*
X178360591Y-126835771D01*
X178360591Y-126835771D02*
X178408210Y-126931009D01*
X178408210Y-126931009D02*
X178408210Y-127026247D01*
X178408210Y-127026247D02*
X177932020Y-127121485D01*
X180170115Y-127359580D02*
X180122496Y-127407200D01*
X180122496Y-127407200D02*
X179979639Y-127454819D01*
X179979639Y-127454819D02*
X179884401Y-127454819D01*
X179884401Y-127454819D02*
X179741544Y-127407200D01*
X179741544Y-127407200D02*
X179646306Y-127311961D01*
X179646306Y-127311961D02*
X179598687Y-127216723D01*
X179598687Y-127216723D02*
X179551068Y-127026247D01*
X179551068Y-127026247D02*
X179551068Y-126883390D01*
X179551068Y-126883390D02*
X179598687Y-126692914D01*
X179598687Y-126692914D02*
X179646306Y-126597676D01*
X179646306Y-126597676D02*
X179741544Y-126502438D01*
X179741544Y-126502438D02*
X179884401Y-126454819D01*
X179884401Y-126454819D02*
X179979639Y-126454819D01*
X179979639Y-126454819D02*
X180122496Y-126502438D01*
X180122496Y-126502438D02*
X180170115Y-126550057D01*
X180741544Y-127454819D02*
X180646306Y-127407200D01*
X180646306Y-127407200D02*
X180598687Y-127359580D01*
X180598687Y-127359580D02*
X180551068Y-127264342D01*
X180551068Y-127264342D02*
X180551068Y-126978628D01*
X180551068Y-126978628D02*
X180598687Y-126883390D01*
X180598687Y-126883390D02*
X180646306Y-126835771D01*
X180646306Y-126835771D02*
X180741544Y-126788152D01*
X180741544Y-126788152D02*
X180884401Y-126788152D01*
X180884401Y-126788152D02*
X180979639Y-126835771D01*
X180979639Y-126835771D02*
X181027258Y-126883390D01*
X181027258Y-126883390D02*
X181074877Y-126978628D01*
X181074877Y-126978628D02*
X181074877Y-127264342D01*
X181074877Y-127264342D02*
X181027258Y-127359580D01*
X181027258Y-127359580D02*
X180979639Y-127407200D01*
X180979639Y-127407200D02*
X180884401Y-127454819D01*
X180884401Y-127454819D02*
X180741544Y-127454819D01*
X181503449Y-126788152D02*
X181503449Y-127454819D01*
X181503449Y-126883390D02*
X181551068Y-126835771D01*
X181551068Y-126835771D02*
X181646306Y-126788152D01*
X181646306Y-126788152D02*
X181789163Y-126788152D01*
X181789163Y-126788152D02*
X181884401Y-126835771D01*
X181884401Y-126835771D02*
X181932020Y-126931009D01*
X181932020Y-126931009D02*
X181932020Y-127454819D01*
X182265354Y-126788152D02*
X182646306Y-126788152D01*
X182408211Y-126454819D02*
X182408211Y-127311961D01*
X182408211Y-127311961D02*
X182455830Y-127407200D01*
X182455830Y-127407200D02*
X182551068Y-127454819D01*
X182551068Y-127454819D02*
X182646306Y-127454819D01*
X182979640Y-127454819D02*
X182979640Y-126788152D01*
X182979640Y-126978628D02*
X183027259Y-126883390D01*
X183027259Y-126883390D02*
X183074878Y-126835771D01*
X183074878Y-126835771D02*
X183170116Y-126788152D01*
X183170116Y-126788152D02*
X183265354Y-126788152D01*
X183741545Y-127454819D02*
X183646307Y-127407200D01*
X183646307Y-127407200D02*
X183598688Y-127359580D01*
X183598688Y-127359580D02*
X183551069Y-127264342D01*
X183551069Y-127264342D02*
X183551069Y-126978628D01*
X183551069Y-126978628D02*
X183598688Y-126883390D01*
X183598688Y-126883390D02*
X183646307Y-126835771D01*
X183646307Y-126835771D02*
X183741545Y-126788152D01*
X183741545Y-126788152D02*
X183884402Y-126788152D01*
X183884402Y-126788152D02*
X183979640Y-126835771D01*
X183979640Y-126835771D02*
X184027259Y-126883390D01*
X184027259Y-126883390D02*
X184074878Y-126978628D01*
X184074878Y-126978628D02*
X184074878Y-127264342D01*
X184074878Y-127264342D02*
X184027259Y-127359580D01*
X184027259Y-127359580D02*
X183979640Y-127407200D01*
X183979640Y-127407200D02*
X183884402Y-127454819D01*
X183884402Y-127454819D02*
X183741545Y-127454819D01*
X184646307Y-127454819D02*
X184551069Y-127407200D01*
X184551069Y-127407200D02*
X184503450Y-127311961D01*
X184503450Y-127311961D02*
X184503450Y-126454819D01*
X185170117Y-127454819D02*
X185074879Y-127407200D01*
X185074879Y-127407200D02*
X185027260Y-127311961D01*
X185027260Y-127311961D02*
X185027260Y-126454819D01*
X185932022Y-127407200D02*
X185836784Y-127454819D01*
X185836784Y-127454819D02*
X185646308Y-127454819D01*
X185646308Y-127454819D02*
X185551070Y-127407200D01*
X185551070Y-127407200D02*
X185503451Y-127311961D01*
X185503451Y-127311961D02*
X185503451Y-126931009D01*
X185503451Y-126931009D02*
X185551070Y-126835771D01*
X185551070Y-126835771D02*
X185646308Y-126788152D01*
X185646308Y-126788152D02*
X185836784Y-126788152D01*
X185836784Y-126788152D02*
X185932022Y-126835771D01*
X185932022Y-126835771D02*
X185979641Y-126931009D01*
X185979641Y-126931009D02*
X185979641Y-127026247D01*
X185979641Y-127026247D02*
X185503451Y-127121485D01*
X186408213Y-127454819D02*
X186408213Y-126788152D01*
X186408213Y-126978628D02*
X186455832Y-126883390D01*
X186455832Y-126883390D02*
X186503451Y-126835771D01*
X186503451Y-126835771D02*
X186598689Y-126788152D01*
X186598689Y-126788152D02*
X186693927Y-126788152D01*
X119311905Y-68084104D02*
X119788095Y-68084104D01*
X119216667Y-68369819D02*
X119550000Y-67369819D01*
X119550000Y-67369819D02*
X119883333Y-68369819D01*
X122846009Y-133904762D02*
X122846009Y-133571429D01*
X123369819Y-133428572D02*
X123369819Y-133904762D01*
X123369819Y-133904762D02*
X122369819Y-133904762D01*
X122369819Y-133904762D02*
X122369819Y-133428572D01*
X122703152Y-133000000D02*
X123369819Y-133000000D01*
X122798390Y-133000000D02*
X122750771Y-132952381D01*
X122750771Y-132952381D02*
X122703152Y-132857143D01*
X122703152Y-132857143D02*
X122703152Y-132714286D01*
X122703152Y-132714286D02*
X122750771Y-132619048D01*
X122750771Y-132619048D02*
X122846009Y-132571429D01*
X122846009Y-132571429D02*
X123369819Y-132571429D01*
X123322200Y-131666667D02*
X123369819Y-131761905D01*
X123369819Y-131761905D02*
X123369819Y-131952381D01*
X123369819Y-131952381D02*
X123322200Y-132047619D01*
X123322200Y-132047619D02*
X123274580Y-132095238D01*
X123274580Y-132095238D02*
X123179342Y-132142857D01*
X123179342Y-132142857D02*
X122893628Y-132142857D01*
X122893628Y-132142857D02*
X122798390Y-132095238D01*
X122798390Y-132095238D02*
X122750771Y-132047619D01*
X122750771Y-132047619D02*
X122703152Y-131952381D01*
X122703152Y-131952381D02*
X122703152Y-131761905D01*
X122703152Y-131761905D02*
X122750771Y-131666667D01*
X123369819Y-131095238D02*
X123322200Y-131190476D01*
X123322200Y-131190476D02*
X123274580Y-131238095D01*
X123274580Y-131238095D02*
X123179342Y-131285714D01*
X123179342Y-131285714D02*
X122893628Y-131285714D01*
X122893628Y-131285714D02*
X122798390Y-131238095D01*
X122798390Y-131238095D02*
X122750771Y-131190476D01*
X122750771Y-131190476D02*
X122703152Y-131095238D01*
X122703152Y-131095238D02*
X122703152Y-130952381D01*
X122703152Y-130952381D02*
X122750771Y-130857143D01*
X122750771Y-130857143D02*
X122798390Y-130809524D01*
X122798390Y-130809524D02*
X122893628Y-130761905D01*
X122893628Y-130761905D02*
X123179342Y-130761905D01*
X123179342Y-130761905D02*
X123274580Y-130809524D01*
X123274580Y-130809524D02*
X123322200Y-130857143D01*
X123322200Y-130857143D02*
X123369819Y-130952381D01*
X123369819Y-130952381D02*
X123369819Y-131095238D01*
X123369819Y-129904762D02*
X122369819Y-129904762D01*
X123322200Y-129904762D02*
X123369819Y-130000000D01*
X123369819Y-130000000D02*
X123369819Y-130190476D01*
X123369819Y-130190476D02*
X123322200Y-130285714D01*
X123322200Y-130285714D02*
X123274580Y-130333333D01*
X123274580Y-130333333D02*
X123179342Y-130380952D01*
X123179342Y-130380952D02*
X122893628Y-130380952D01*
X122893628Y-130380952D02*
X122798390Y-130333333D01*
X122798390Y-130333333D02*
X122750771Y-130285714D01*
X122750771Y-130285714D02*
X122703152Y-130190476D01*
X122703152Y-130190476D02*
X122703152Y-130000000D01*
X122703152Y-130000000D02*
X122750771Y-129904762D01*
X123322200Y-129047619D02*
X123369819Y-129142857D01*
X123369819Y-129142857D02*
X123369819Y-129333333D01*
X123369819Y-129333333D02*
X123322200Y-129428571D01*
X123322200Y-129428571D02*
X123226961Y-129476190D01*
X123226961Y-129476190D02*
X122846009Y-129476190D01*
X122846009Y-129476190D02*
X122750771Y-129428571D01*
X122750771Y-129428571D02*
X122703152Y-129333333D01*
X122703152Y-129333333D02*
X122703152Y-129142857D01*
X122703152Y-129142857D02*
X122750771Y-129047619D01*
X122750771Y-129047619D02*
X122846009Y-129000000D01*
X122846009Y-129000000D02*
X122941247Y-129000000D01*
X122941247Y-129000000D02*
X123036485Y-129476190D01*
X123369819Y-128571428D02*
X122703152Y-128571428D01*
X122893628Y-128571428D02*
X122798390Y-128523809D01*
X122798390Y-128523809D02*
X122750771Y-128476190D01*
X122750771Y-128476190D02*
X122703152Y-128380952D01*
X122703152Y-128380952D02*
X122703152Y-128285714D01*
X122465057Y-127238094D02*
X122417438Y-127190475D01*
X122417438Y-127190475D02*
X122369819Y-127095237D01*
X122369819Y-127095237D02*
X122369819Y-126857142D01*
X122369819Y-126857142D02*
X122417438Y-126761904D01*
X122417438Y-126761904D02*
X122465057Y-126714285D01*
X122465057Y-126714285D02*
X122560295Y-126666666D01*
X122560295Y-126666666D02*
X122655533Y-126666666D01*
X122655533Y-126666666D02*
X122798390Y-126714285D01*
X122798390Y-126714285D02*
X123369819Y-127285713D01*
X123369819Y-127285713D02*
X123369819Y-126666666D01*
X123084104Y-125523808D02*
X123084104Y-125047618D01*
X123369819Y-125619046D02*
X122369819Y-125285713D01*
X122369819Y-125285713D02*
X123369819Y-124952380D01*
X122846009Y-124285713D02*
X122893628Y-124142856D01*
X122893628Y-124142856D02*
X122941247Y-124095237D01*
X122941247Y-124095237D02*
X123036485Y-124047618D01*
X123036485Y-124047618D02*
X123179342Y-124047618D01*
X123179342Y-124047618D02*
X123274580Y-124095237D01*
X123274580Y-124095237D02*
X123322200Y-124142856D01*
X123322200Y-124142856D02*
X123369819Y-124238094D01*
X123369819Y-124238094D02*
X123369819Y-124619046D01*
X123369819Y-124619046D02*
X122369819Y-124619046D01*
X122369819Y-124619046D02*
X122369819Y-124285713D01*
X122369819Y-124285713D02*
X122417438Y-124190475D01*
X122417438Y-124190475D02*
X122465057Y-124142856D01*
X122465057Y-124142856D02*
X122560295Y-124095237D01*
X122560295Y-124095237D02*
X122655533Y-124095237D01*
X122655533Y-124095237D02*
X122750771Y-124142856D01*
X122750771Y-124142856D02*
X122798390Y-124190475D01*
X122798390Y-124190475D02*
X122846009Y-124285713D01*
X122846009Y-124285713D02*
X122846009Y-124619046D01*
X171619046Y-108369819D02*
X171619046Y-107369819D01*
X171619046Y-107369819D02*
X171952379Y-108084104D01*
X171952379Y-108084104D02*
X172285712Y-107369819D01*
X172285712Y-107369819D02*
X172285712Y-108369819D01*
X172904760Y-108369819D02*
X172809522Y-108322200D01*
X172809522Y-108322200D02*
X172761903Y-108274580D01*
X172761903Y-108274580D02*
X172714284Y-108179342D01*
X172714284Y-108179342D02*
X172714284Y-107893628D01*
X172714284Y-107893628D02*
X172761903Y-107798390D01*
X172761903Y-107798390D02*
X172809522Y-107750771D01*
X172809522Y-107750771D02*
X172904760Y-107703152D01*
X172904760Y-107703152D02*
X173047617Y-107703152D01*
X173047617Y-107703152D02*
X173142855Y-107750771D01*
X173142855Y-107750771D02*
X173190474Y-107798390D01*
X173190474Y-107798390D02*
X173238093Y-107893628D01*
X173238093Y-107893628D02*
X173238093Y-108179342D01*
X173238093Y-108179342D02*
X173190474Y-108274580D01*
X173190474Y-108274580D02*
X173142855Y-108322200D01*
X173142855Y-108322200D02*
X173047617Y-108369819D01*
X173047617Y-108369819D02*
X172904760Y-108369819D01*
X173523808Y-107703152D02*
X173904760Y-107703152D01*
X173666665Y-107369819D02*
X173666665Y-108226961D01*
X173666665Y-108226961D02*
X173714284Y-108322200D01*
X173714284Y-108322200D02*
X173809522Y-108369819D01*
X173809522Y-108369819D02*
X173904760Y-108369819D01*
X174380951Y-108369819D02*
X174285713Y-108322200D01*
X174285713Y-108322200D02*
X174238094Y-108274580D01*
X174238094Y-108274580D02*
X174190475Y-108179342D01*
X174190475Y-108179342D02*
X174190475Y-107893628D01*
X174190475Y-107893628D02*
X174238094Y-107798390D01*
X174238094Y-107798390D02*
X174285713Y-107750771D01*
X174285713Y-107750771D02*
X174380951Y-107703152D01*
X174380951Y-107703152D02*
X174523808Y-107703152D01*
X174523808Y-107703152D02*
X174619046Y-107750771D01*
X174619046Y-107750771D02*
X174666665Y-107798390D01*
X174666665Y-107798390D02*
X174714284Y-107893628D01*
X174714284Y-107893628D02*
X174714284Y-108179342D01*
X174714284Y-108179342D02*
X174666665Y-108274580D01*
X174666665Y-108274580D02*
X174619046Y-108322200D01*
X174619046Y-108322200D02*
X174523808Y-108369819D01*
X174523808Y-108369819D02*
X174380951Y-108369819D01*
X175142856Y-108369819D02*
X175142856Y-107703152D01*
X175142856Y-107893628D02*
X175190475Y-107798390D01*
X175190475Y-107798390D02*
X175238094Y-107750771D01*
X175238094Y-107750771D02*
X175333332Y-107703152D01*
X175333332Y-107703152D02*
X175428570Y-107703152D01*
X177047618Y-108369819D02*
X176476190Y-108369819D01*
X176761904Y-108369819D02*
X176761904Y-107369819D01*
X176761904Y-107369819D02*
X176666666Y-107512676D01*
X176666666Y-107512676D02*
X176571428Y-107607914D01*
X176571428Y-107607914D02*
X176476190Y-107655533D01*
X178809523Y-108274580D02*
X178761904Y-108322200D01*
X178761904Y-108322200D02*
X178619047Y-108369819D01*
X178619047Y-108369819D02*
X178523809Y-108369819D01*
X178523809Y-108369819D02*
X178380952Y-108322200D01*
X178380952Y-108322200D02*
X178285714Y-108226961D01*
X178285714Y-108226961D02*
X178238095Y-108131723D01*
X178238095Y-108131723D02*
X178190476Y-107941247D01*
X178190476Y-107941247D02*
X178190476Y-107798390D01*
X178190476Y-107798390D02*
X178238095Y-107607914D01*
X178238095Y-107607914D02*
X178285714Y-107512676D01*
X178285714Y-107512676D02*
X178380952Y-107417438D01*
X178380952Y-107417438D02*
X178523809Y-107369819D01*
X178523809Y-107369819D02*
X178619047Y-107369819D01*
X178619047Y-107369819D02*
X178761904Y-107417438D01*
X178761904Y-107417438D02*
X178809523Y-107465057D01*
X179666666Y-107703152D02*
X179666666Y-108369819D01*
X179238095Y-107703152D02*
X179238095Y-108226961D01*
X179238095Y-108226961D02*
X179285714Y-108322200D01*
X179285714Y-108322200D02*
X179380952Y-108369819D01*
X179380952Y-108369819D02*
X179523809Y-108369819D01*
X179523809Y-108369819D02*
X179619047Y-108322200D01*
X179619047Y-108322200D02*
X179666666Y-108274580D01*
X180142857Y-108369819D02*
X180142857Y-107703152D01*
X180142857Y-107893628D02*
X180190476Y-107798390D01*
X180190476Y-107798390D02*
X180238095Y-107750771D01*
X180238095Y-107750771D02*
X180333333Y-107703152D01*
X180333333Y-107703152D02*
X180428571Y-107703152D01*
X180761905Y-108369819D02*
X180761905Y-107703152D01*
X180761905Y-107893628D02*
X180809524Y-107798390D01*
X180809524Y-107798390D02*
X180857143Y-107750771D01*
X180857143Y-107750771D02*
X180952381Y-107703152D01*
X180952381Y-107703152D02*
X181047619Y-107703152D01*
X181761905Y-108322200D02*
X181666667Y-108369819D01*
X181666667Y-108369819D02*
X181476191Y-108369819D01*
X181476191Y-108369819D02*
X181380953Y-108322200D01*
X181380953Y-108322200D02*
X181333334Y-108226961D01*
X181333334Y-108226961D02*
X181333334Y-107846009D01*
X181333334Y-107846009D02*
X181380953Y-107750771D01*
X181380953Y-107750771D02*
X181476191Y-107703152D01*
X181476191Y-107703152D02*
X181666667Y-107703152D01*
X181666667Y-107703152D02*
X181761905Y-107750771D01*
X181761905Y-107750771D02*
X181809524Y-107846009D01*
X181809524Y-107846009D02*
X181809524Y-107941247D01*
X181809524Y-107941247D02*
X181333334Y-108036485D01*
X182238096Y-107703152D02*
X182238096Y-108369819D01*
X182238096Y-107798390D02*
X182285715Y-107750771D01*
X182285715Y-107750771D02*
X182380953Y-107703152D01*
X182380953Y-107703152D02*
X182523810Y-107703152D01*
X182523810Y-107703152D02*
X182619048Y-107750771D01*
X182619048Y-107750771D02*
X182666667Y-107846009D01*
X182666667Y-107846009D02*
X182666667Y-108369819D01*
X183000001Y-107703152D02*
X183380953Y-107703152D01*
X183142858Y-107369819D02*
X183142858Y-108226961D01*
X183142858Y-108226961D02*
X183190477Y-108322200D01*
X183190477Y-108322200D02*
X183285715Y-108369819D01*
X183285715Y-108369819D02*
X183380953Y-108369819D01*
X184428573Y-108322200D02*
X184571430Y-108369819D01*
X184571430Y-108369819D02*
X184809525Y-108369819D01*
X184809525Y-108369819D02*
X184904763Y-108322200D01*
X184904763Y-108322200D02*
X184952382Y-108274580D01*
X184952382Y-108274580D02*
X185000001Y-108179342D01*
X185000001Y-108179342D02*
X185000001Y-108084104D01*
X185000001Y-108084104D02*
X184952382Y-107988866D01*
X184952382Y-107988866D02*
X184904763Y-107941247D01*
X184904763Y-107941247D02*
X184809525Y-107893628D01*
X184809525Y-107893628D02*
X184619049Y-107846009D01*
X184619049Y-107846009D02*
X184523811Y-107798390D01*
X184523811Y-107798390D02*
X184476192Y-107750771D01*
X184476192Y-107750771D02*
X184428573Y-107655533D01*
X184428573Y-107655533D02*
X184428573Y-107560295D01*
X184428573Y-107560295D02*
X184476192Y-107465057D01*
X184476192Y-107465057D02*
X184523811Y-107417438D01*
X184523811Y-107417438D02*
X184619049Y-107369819D01*
X184619049Y-107369819D02*
X184857144Y-107369819D01*
X184857144Y-107369819D02*
X185000001Y-107417438D01*
X185809525Y-108322200D02*
X185714287Y-108369819D01*
X185714287Y-108369819D02*
X185523811Y-108369819D01*
X185523811Y-108369819D02*
X185428573Y-108322200D01*
X185428573Y-108322200D02*
X185380954Y-108226961D01*
X185380954Y-108226961D02*
X185380954Y-107846009D01*
X185380954Y-107846009D02*
X185428573Y-107750771D01*
X185428573Y-107750771D02*
X185523811Y-107703152D01*
X185523811Y-107703152D02*
X185714287Y-107703152D01*
X185714287Y-107703152D02*
X185809525Y-107750771D01*
X185809525Y-107750771D02*
X185857144Y-107846009D01*
X185857144Y-107846009D02*
X185857144Y-107941247D01*
X185857144Y-107941247D02*
X185380954Y-108036485D01*
X186285716Y-107703152D02*
X186285716Y-108369819D01*
X186285716Y-107798390D02*
X186333335Y-107750771D01*
X186333335Y-107750771D02*
X186428573Y-107703152D01*
X186428573Y-107703152D02*
X186571430Y-107703152D01*
X186571430Y-107703152D02*
X186666668Y-107750771D01*
X186666668Y-107750771D02*
X186714287Y-107846009D01*
X186714287Y-107846009D02*
X186714287Y-108369819D01*
X187142859Y-108322200D02*
X187238097Y-108369819D01*
X187238097Y-108369819D02*
X187428573Y-108369819D01*
X187428573Y-108369819D02*
X187523811Y-108322200D01*
X187523811Y-108322200D02*
X187571430Y-108226961D01*
X187571430Y-108226961D02*
X187571430Y-108179342D01*
X187571430Y-108179342D02*
X187523811Y-108084104D01*
X187523811Y-108084104D02*
X187428573Y-108036485D01*
X187428573Y-108036485D02*
X187285716Y-108036485D01*
X187285716Y-108036485D02*
X187190478Y-107988866D01*
X187190478Y-107988866D02*
X187142859Y-107893628D01*
X187142859Y-107893628D02*
X187142859Y-107846009D01*
X187142859Y-107846009D02*
X187190478Y-107750771D01*
X187190478Y-107750771D02*
X187285716Y-107703152D01*
X187285716Y-107703152D02*
X187428573Y-107703152D01*
X187428573Y-107703152D02*
X187523811Y-107750771D01*
X188380954Y-108322200D02*
X188285716Y-108369819D01*
X188285716Y-108369819D02*
X188095240Y-108369819D01*
X188095240Y-108369819D02*
X188000002Y-108322200D01*
X188000002Y-108322200D02*
X187952383Y-108226961D01*
X187952383Y-108226961D02*
X187952383Y-107846009D01*
X187952383Y-107846009D02*
X188000002Y-107750771D01*
X188000002Y-107750771D02*
X188095240Y-107703152D01*
X188095240Y-107703152D02*
X188285716Y-107703152D01*
X188285716Y-107703152D02*
X188380954Y-107750771D01*
X188380954Y-107750771D02*
X188428573Y-107846009D01*
X188428573Y-107846009D02*
X188428573Y-107941247D01*
X188428573Y-107941247D02*
X187952383Y-108036485D01*
X172369819Y-95285714D02*
X171369819Y-95285714D01*
X171369819Y-95285714D02*
X171369819Y-95047619D01*
X171369819Y-95047619D02*
X171417438Y-94904762D01*
X171417438Y-94904762D02*
X171512676Y-94809524D01*
X171512676Y-94809524D02*
X171607914Y-94761905D01*
X171607914Y-94761905D02*
X171798390Y-94714286D01*
X171798390Y-94714286D02*
X171941247Y-94714286D01*
X171941247Y-94714286D02*
X172131723Y-94761905D01*
X172131723Y-94761905D02*
X172226961Y-94809524D01*
X172226961Y-94809524D02*
X172322200Y-94904762D01*
X172322200Y-94904762D02*
X172369819Y-95047619D01*
X172369819Y-95047619D02*
X172369819Y-95285714D01*
X172369819Y-94285714D02*
X171703152Y-94285714D01*
X171893628Y-94285714D02*
X171798390Y-94238095D01*
X171798390Y-94238095D02*
X171750771Y-94190476D01*
X171750771Y-94190476D02*
X171703152Y-94095238D01*
X171703152Y-94095238D02*
X171703152Y-94000000D01*
X172369819Y-93666666D02*
X171703152Y-93666666D01*
X171369819Y-93666666D02*
X171417438Y-93714285D01*
X171417438Y-93714285D02*
X171465057Y-93666666D01*
X171465057Y-93666666D02*
X171417438Y-93619047D01*
X171417438Y-93619047D02*
X171369819Y-93666666D01*
X171369819Y-93666666D02*
X171465057Y-93666666D01*
X171703152Y-93285714D02*
X172369819Y-93047619D01*
X172369819Y-93047619D02*
X171703152Y-92809524D01*
X172322200Y-92047619D02*
X172369819Y-92142857D01*
X172369819Y-92142857D02*
X172369819Y-92333333D01*
X172369819Y-92333333D02*
X172322200Y-92428571D01*
X172322200Y-92428571D02*
X172226961Y-92476190D01*
X172226961Y-92476190D02*
X171846009Y-92476190D01*
X171846009Y-92476190D02*
X171750771Y-92428571D01*
X171750771Y-92428571D02*
X171703152Y-92333333D01*
X171703152Y-92333333D02*
X171703152Y-92142857D01*
X171703152Y-92142857D02*
X171750771Y-92047619D01*
X171750771Y-92047619D02*
X171846009Y-92000000D01*
X171846009Y-92000000D02*
X171941247Y-92000000D01*
X171941247Y-92000000D02*
X172036485Y-92476190D01*
X172369819Y-91571428D02*
X171703152Y-91571428D01*
X171893628Y-91571428D02*
X171798390Y-91523809D01*
X171798390Y-91523809D02*
X171750771Y-91476190D01*
X171750771Y-91476190D02*
X171703152Y-91380952D01*
X171703152Y-91380952D02*
X171703152Y-91285714D01*
X172369819Y-89666666D02*
X172369819Y-90238094D01*
X172369819Y-89952380D02*
X171369819Y-89952380D01*
X171369819Y-89952380D02*
X171512676Y-90047618D01*
X171512676Y-90047618D02*
X171607914Y-90142856D01*
X171607914Y-90142856D02*
X171655533Y-90238094D01*
D11*
%TO.C,R1*%
X171522500Y-74672776D02*
X171522500Y-75182224D01*
X170477500Y-74672776D02*
X170477500Y-75182224D01*
%TO.C,J12*%
X116890000Y-90110000D02*
X116890000Y-91360000D01*
X116890000Y-91360000D02*
X118140000Y-91360000D01*
X116990000Y-89300000D02*
X116990000Y-89600000D01*
X116990000Y-89600000D02*
X117190000Y-89600000D01*
X117090000Y-89300000D02*
X117090000Y-89600000D01*
X117190000Y-68940000D02*
X117190000Y-91060000D01*
X117190000Y-88500000D02*
X117800000Y-88500000D01*
X117190000Y-89300000D02*
X116990000Y-89300000D01*
X117190000Y-91060000D02*
X121910000Y-91060000D01*
X117800000Y-69550000D02*
X117800000Y-71500000D01*
X117800000Y-71500000D02*
X117190000Y-71500000D01*
X117800000Y-88500000D02*
X117800000Y-90450000D01*
X117800000Y-90450000D02*
X121300000Y-90450000D01*
X118500000Y-68940000D02*
X118500000Y-69550000D01*
X118500000Y-91060000D02*
X118500000Y-90450000D01*
X119800000Y-68940000D02*
X119800000Y-69550000D01*
X119800000Y-91060000D02*
X119800000Y-90450000D01*
X120800000Y-71900000D02*
X121300000Y-71900000D01*
X120800000Y-72100000D02*
X120800000Y-71900000D01*
X120800000Y-73900000D02*
X121300000Y-73900000D01*
X120800000Y-74100000D02*
X120800000Y-73900000D01*
X120800000Y-75900000D02*
X121300000Y-75900000D01*
X120800000Y-76100000D02*
X120800000Y-75900000D01*
X120800000Y-77900000D02*
X121300000Y-77900000D01*
X120800000Y-78100000D02*
X120800000Y-77900000D01*
X120800000Y-79900000D02*
X121300000Y-79900000D01*
X120800000Y-80100000D02*
X120800000Y-79900000D01*
X120800000Y-81900000D02*
X121300000Y-81900000D01*
X120800000Y-82100000D02*
X120800000Y-81900000D01*
X120800000Y-83900000D02*
X121300000Y-83900000D01*
X120800000Y-84100000D02*
X120800000Y-83900000D01*
X120800000Y-85900000D02*
X121300000Y-85900000D01*
X120800000Y-86100000D02*
X120800000Y-85900000D01*
X120800000Y-87900000D02*
X121300000Y-87900000D01*
X120800000Y-88100000D02*
X120800000Y-87900000D01*
X121300000Y-69550000D02*
X117800000Y-69550000D01*
X121300000Y-72000000D02*
X120800000Y-72000000D01*
X121300000Y-72100000D02*
X120800000Y-72100000D01*
X121300000Y-74000000D02*
X120800000Y-74000000D01*
X121300000Y-74100000D02*
X120800000Y-74100000D01*
X121300000Y-76000000D02*
X120800000Y-76000000D01*
X121300000Y-76100000D02*
X120800000Y-76100000D01*
X121300000Y-78000000D02*
X120800000Y-78000000D01*
X121300000Y-78100000D02*
X120800000Y-78100000D01*
X121300000Y-80000000D02*
X120800000Y-80000000D01*
X121300000Y-80100000D02*
X120800000Y-80100000D01*
X121300000Y-82000000D02*
X120800000Y-82000000D01*
X121300000Y-82100000D02*
X120800000Y-82100000D01*
X121300000Y-84000000D02*
X120800000Y-84000000D01*
X121300000Y-84100000D02*
X120800000Y-84100000D01*
X121300000Y-86000000D02*
X120800000Y-86000000D01*
X121300000Y-86100000D02*
X120800000Y-86100000D01*
X121300000Y-88000000D02*
X120800000Y-88000000D01*
X121300000Y-88100000D02*
X120800000Y-88100000D01*
X121300000Y-90450000D02*
X121300000Y-69550000D01*
X121910000Y-68940000D02*
X117190000Y-68940000D01*
X121910000Y-91060000D02*
X121910000Y-68940000D01*
%TO.C,J7*%
X134740195Y-125789805D02*
X134740195Y-127039805D01*
X135040195Y-126089805D02*
X135040195Y-130809805D01*
X135040195Y-127399805D02*
X135650195Y-127399805D01*
X135040195Y-128699805D02*
X135650195Y-128699805D01*
X135040195Y-130809805D02*
X149160195Y-130809805D01*
X135650195Y-126699805D02*
X135650195Y-130199805D01*
X135650195Y-130199805D02*
X148550195Y-130199805D01*
X135990195Y-125789805D02*
X134740195Y-125789805D01*
X136500195Y-125889805D02*
X136500195Y-126089805D01*
X136800195Y-125889805D02*
X136500195Y-125889805D01*
X136800195Y-125989805D02*
X136500195Y-125989805D01*
X136800195Y-126089805D02*
X136800195Y-125889805D01*
X137600195Y-126089805D02*
X137600195Y-126699805D01*
X137600195Y-126699805D02*
X135650195Y-126699805D01*
X138000195Y-129699805D02*
X138200195Y-129699805D01*
X138000195Y-130199805D02*
X138000195Y-129699805D01*
X138100195Y-130199805D02*
X138100195Y-129699805D01*
X138200195Y-129699805D02*
X138200195Y-130199805D01*
X140000195Y-129699805D02*
X140200195Y-129699805D01*
X140000195Y-130199805D02*
X140000195Y-129699805D01*
X140100195Y-130199805D02*
X140100195Y-129699805D01*
X140200195Y-129699805D02*
X140200195Y-130199805D01*
X142000195Y-129699805D02*
X142200195Y-129699805D01*
X142000195Y-130199805D02*
X142000195Y-129699805D01*
X142100195Y-130199805D02*
X142100195Y-129699805D01*
X142200195Y-129699805D02*
X142200195Y-130199805D01*
X144000195Y-129699805D02*
X144200195Y-129699805D01*
X144000195Y-130199805D02*
X144000195Y-129699805D01*
X144100195Y-130199805D02*
X144100195Y-129699805D01*
X144200195Y-129699805D02*
X144200195Y-130199805D01*
X146000195Y-129699805D02*
X146200195Y-129699805D01*
X146000195Y-130199805D02*
X146000195Y-129699805D01*
X146100195Y-130199805D02*
X146100195Y-129699805D01*
X146200195Y-129699805D02*
X146200195Y-130199805D01*
X146600195Y-126699805D02*
X146600195Y-126089805D01*
X148550195Y-126699805D02*
X146600195Y-126699805D01*
X148550195Y-130199805D02*
X148550195Y-126699805D01*
X149160195Y-126089805D02*
X135040195Y-126089805D01*
X149160195Y-127399805D02*
X148550195Y-127399805D01*
X149160195Y-128699805D02*
X148550195Y-128699805D01*
X149160195Y-130809805D02*
X149160195Y-126089805D01*
%TO.C,J18*%
X120080000Y-64380000D02*
X120080000Y-63000000D01*
X121460000Y-64380000D02*
X120080000Y-64380000D01*
X122730000Y-61620000D02*
X125380000Y-61620000D01*
X122730000Y-64380000D02*
X122730000Y-61620000D01*
X122730000Y-64380000D02*
X125380000Y-64380000D01*
X125380000Y-64380000D02*
X125380000Y-61620000D01*
%TO.C,J17*%
X109120000Y-86080000D02*
X110500000Y-86080000D01*
X109120000Y-87460000D02*
X109120000Y-86080000D01*
X109120000Y-88730000D02*
X109120000Y-96460000D01*
X109120000Y-88730000D02*
X111880000Y-88730000D01*
X109120000Y-96460000D02*
X111880000Y-96460000D01*
X111880000Y-88730000D02*
X111880000Y-96460000D01*
%TO.C,C1*%
X138146267Y-131990000D02*
X137853733Y-131990000D01*
X138146267Y-133010000D02*
X137853733Y-133010000D01*
%TO.C,R7*%
X163657776Y-64477500D02*
X164167224Y-64477500D01*
X163657776Y-65522500D02*
X164167224Y-65522500D01*
%TO.C,J9*%
X116890000Y-119110000D02*
X116890000Y-120360000D01*
X116890000Y-120360000D02*
X118140000Y-120360000D01*
X116990000Y-118300000D02*
X116990000Y-118600000D01*
X116990000Y-118600000D02*
X117190000Y-118600000D01*
X117090000Y-118300000D02*
X117090000Y-118600000D01*
X117190000Y-99940000D02*
X117190000Y-120060000D01*
X117190000Y-117500000D02*
X117800000Y-117500000D01*
X117190000Y-118300000D02*
X116990000Y-118300000D01*
X117190000Y-120060000D02*
X121910000Y-120060000D01*
X117800000Y-100550000D02*
X117800000Y-102500000D01*
X117800000Y-102500000D02*
X117190000Y-102500000D01*
X117800000Y-117500000D02*
X117800000Y-119450000D01*
X117800000Y-119450000D02*
X121300000Y-119450000D01*
X118500000Y-99940000D02*
X118500000Y-100550000D01*
X118500000Y-120060000D02*
X118500000Y-119450000D01*
X119800000Y-99940000D02*
X119800000Y-100550000D01*
X119800000Y-120060000D02*
X119800000Y-119450000D01*
X120800000Y-102900000D02*
X121300000Y-102900000D01*
X120800000Y-103100000D02*
X120800000Y-102900000D01*
X120800000Y-104900000D02*
X121300000Y-104900000D01*
X120800000Y-105100000D02*
X120800000Y-104900000D01*
X120800000Y-106900000D02*
X121300000Y-106900000D01*
X120800000Y-107100000D02*
X120800000Y-106900000D01*
X120800000Y-108900000D02*
X121300000Y-108900000D01*
X120800000Y-109100000D02*
X120800000Y-108900000D01*
X120800000Y-110900000D02*
X121300000Y-110900000D01*
X120800000Y-111100000D02*
X120800000Y-110900000D01*
X120800000Y-112900000D02*
X121300000Y-112900000D01*
X120800000Y-113100000D02*
X120800000Y-112900000D01*
X120800000Y-114900000D02*
X121300000Y-114900000D01*
X120800000Y-115100000D02*
X120800000Y-114900000D01*
X120800000Y-116900000D02*
X121300000Y-116900000D01*
X120800000Y-117100000D02*
X120800000Y-116900000D01*
X121300000Y-100550000D02*
X117800000Y-100550000D01*
X121300000Y-103000000D02*
X120800000Y-103000000D01*
X121300000Y-103100000D02*
X120800000Y-103100000D01*
X121300000Y-105000000D02*
X120800000Y-105000000D01*
X121300000Y-105100000D02*
X120800000Y-105100000D01*
X121300000Y-107000000D02*
X120800000Y-107000000D01*
X121300000Y-107100000D02*
X120800000Y-107100000D01*
X121300000Y-109000000D02*
X120800000Y-109000000D01*
X121300000Y-109100000D02*
X120800000Y-109100000D01*
X121300000Y-111000000D02*
X120800000Y-111000000D01*
X121300000Y-111100000D02*
X120800000Y-111100000D01*
X121300000Y-113000000D02*
X120800000Y-113000000D01*
X121300000Y-113100000D02*
X120800000Y-113100000D01*
X121300000Y-115000000D02*
X120800000Y-115000000D01*
X121300000Y-115100000D02*
X120800000Y-115100000D01*
X121300000Y-117000000D02*
X120800000Y-117000000D01*
X121300000Y-117100000D02*
X120800000Y-117100000D01*
X121300000Y-119450000D02*
X121300000Y-100550000D01*
X121910000Y-99940000D02*
X117190000Y-99940000D01*
X121910000Y-120060000D02*
X121910000Y-99940000D01*
%TO.C,J6*%
X181623750Y-84460000D02*
X183003750Y-84460000D01*
X181623750Y-85840000D02*
X181623750Y-84460000D01*
X181623750Y-87110000D02*
X181623750Y-99920000D01*
X181623750Y-87110000D02*
X184273750Y-87110000D01*
X181623750Y-99920000D02*
X186923750Y-99920000D01*
X184273750Y-84460000D02*
X186923750Y-84460000D01*
X184273750Y-87110000D02*
X184273750Y-84460000D01*
X186923750Y-84460000D02*
X186923750Y-99920000D01*
%TO.C,R8*%
X178745276Y-68977500D02*
X179254724Y-68977500D01*
X178745276Y-70022500D02*
X179254724Y-70022500D01*
%TO.C,J3*%
X173080000Y-72460000D02*
X174460000Y-72460000D01*
X173080000Y-73840000D02*
X173080000Y-72460000D01*
X173080000Y-75110000D02*
X173080000Y-82840000D01*
X173080000Y-75110000D02*
X175730000Y-75110000D01*
X173080000Y-82840000D02*
X178380000Y-82840000D01*
X175730000Y-72460000D02*
X178380000Y-72460000D01*
X175730000Y-75110000D02*
X175730000Y-72460000D01*
X178380000Y-72460000D02*
X178380000Y-82840000D01*
%TO.C,C8*%
X126008767Y-65490000D02*
X125716233Y-65490000D01*
X126008767Y-66510000D02*
X125716233Y-66510000D01*
%TO.C,C2*%
X119853733Y-91990000D02*
X120146267Y-91990000D01*
X119853733Y-93010000D02*
X120146267Y-93010000D01*
%TO.C,J15*%
X170640000Y-108890000D02*
X170640000Y-110140000D01*
X170940000Y-109190000D02*
X170940000Y-113910000D01*
X170940000Y-110500000D02*
X171550000Y-110500000D01*
X170940000Y-111800000D02*
X171550000Y-111800000D01*
X170940000Y-113910000D02*
X189060000Y-113910000D01*
X171550000Y-109800000D02*
X171550000Y-113300000D01*
X171550000Y-113300000D02*
X188450000Y-113300000D01*
X171890000Y-108890000D02*
X170640000Y-108890000D01*
X172400000Y-108990000D02*
X172400000Y-109190000D01*
X172700000Y-108990000D02*
X172400000Y-108990000D01*
X172700000Y-109090000D02*
X172400000Y-109090000D01*
X172700000Y-109190000D02*
X172700000Y-108990000D01*
X173500000Y-109190000D02*
X173500000Y-109800000D01*
X173500000Y-109800000D02*
X171550000Y-109800000D01*
X173900000Y-112800000D02*
X174100000Y-112800000D01*
X173900000Y-113300000D02*
X173900000Y-112800000D01*
X174000000Y-113300000D02*
X174000000Y-112800000D01*
X174100000Y-112800000D02*
X174100000Y-113300000D01*
X175900000Y-112800000D02*
X176100000Y-112800000D01*
X175900000Y-113300000D02*
X175900000Y-112800000D01*
X176000000Y-113300000D02*
X176000000Y-112800000D01*
X176100000Y-112800000D02*
X176100000Y-113300000D01*
X177900000Y-112800000D02*
X178100000Y-112800000D01*
X177900000Y-113300000D02*
X177900000Y-112800000D01*
X178000000Y-113300000D02*
X178000000Y-112800000D01*
X178100000Y-112800000D02*
X178100000Y-113300000D01*
X179900000Y-112800000D02*
X180100000Y-112800000D01*
X179900000Y-113300000D02*
X179900000Y-112800000D01*
X180000000Y-113300000D02*
X180000000Y-112800000D01*
X180100000Y-112800000D02*
X180100000Y-113300000D01*
X181900000Y-112800000D02*
X182100000Y-112800000D01*
X181900000Y-113300000D02*
X181900000Y-112800000D01*
X182000000Y-113300000D02*
X182000000Y-112800000D01*
X182100000Y-112800000D02*
X182100000Y-113300000D01*
X183900000Y-112800000D02*
X184100000Y-112800000D01*
X183900000Y-113300000D02*
X183900000Y-112800000D01*
X184000000Y-113300000D02*
X184000000Y-112800000D01*
X184100000Y-112800000D02*
X184100000Y-113300000D01*
X185900000Y-112800000D02*
X186100000Y-112800000D01*
X185900000Y-113300000D02*
X185900000Y-112800000D01*
X186000000Y-113300000D02*
X186000000Y-112800000D01*
X186100000Y-112800000D02*
X186100000Y-113300000D01*
X186500000Y-109800000D02*
X186500000Y-109190000D01*
X188450000Y-109800000D02*
X186500000Y-109800000D01*
X188450000Y-113300000D02*
X188450000Y-109800000D01*
X189060000Y-109190000D02*
X170940000Y-109190000D01*
X189060000Y-110500000D02*
X188450000Y-110500000D01*
X189060000Y-111800000D02*
X188450000Y-111800000D01*
X189060000Y-113910000D02*
X189060000Y-109190000D01*
%TO.C,R4*%
X183201526Y-70317500D02*
X183710974Y-70317500D01*
X183201526Y-71362500D02*
X183710974Y-71362500D01*
%TO.C,J14*%
X170640000Y-115890000D02*
X170640000Y-117140000D01*
X170940000Y-116190000D02*
X170940000Y-120910000D01*
X170940000Y-117500000D02*
X171550000Y-117500000D01*
X170940000Y-118800000D02*
X171550000Y-118800000D01*
X170940000Y-120910000D02*
X189060000Y-120910000D01*
X171550000Y-116800000D02*
X171550000Y-120300000D01*
X171550000Y-120300000D02*
X188450000Y-120300000D01*
X171890000Y-115890000D02*
X170640000Y-115890000D01*
X172400000Y-115990000D02*
X172400000Y-116190000D01*
X172700000Y-115990000D02*
X172400000Y-115990000D01*
X172700000Y-116090000D02*
X172400000Y-116090000D01*
X172700000Y-116190000D02*
X172700000Y-115990000D01*
X173500000Y-116190000D02*
X173500000Y-116800000D01*
X173500000Y-116800000D02*
X171550000Y-116800000D01*
X173900000Y-119800000D02*
X174100000Y-119800000D01*
X173900000Y-120300000D02*
X173900000Y-119800000D01*
X174000000Y-120300000D02*
X174000000Y-119800000D01*
X174100000Y-119800000D02*
X174100000Y-120300000D01*
X175900000Y-119800000D02*
X176100000Y-119800000D01*
X175900000Y-120300000D02*
X175900000Y-119800000D01*
X176000000Y-120300000D02*
X176000000Y-119800000D01*
X176100000Y-119800000D02*
X176100000Y-120300000D01*
X177900000Y-119800000D02*
X178100000Y-119800000D01*
X177900000Y-120300000D02*
X177900000Y-119800000D01*
X178000000Y-120300000D02*
X178000000Y-119800000D01*
X178100000Y-119800000D02*
X178100000Y-120300000D01*
X179900000Y-119800000D02*
X180100000Y-119800000D01*
X179900000Y-120300000D02*
X179900000Y-119800000D01*
X180000000Y-120300000D02*
X180000000Y-119800000D01*
X180100000Y-119800000D02*
X180100000Y-120300000D01*
X181900000Y-119800000D02*
X182100000Y-119800000D01*
X181900000Y-120300000D02*
X181900000Y-119800000D01*
X182000000Y-120300000D02*
X182000000Y-119800000D01*
X182100000Y-119800000D02*
X182100000Y-120300000D01*
X183900000Y-119800000D02*
X184100000Y-119800000D01*
X183900000Y-120300000D02*
X183900000Y-119800000D01*
X184000000Y-120300000D02*
X184000000Y-119800000D01*
X184100000Y-119800000D02*
X184100000Y-120300000D01*
X185900000Y-119800000D02*
X186100000Y-119800000D01*
X185900000Y-120300000D02*
X185900000Y-119800000D01*
X186000000Y-120300000D02*
X186000000Y-119800000D01*
X186100000Y-119800000D02*
X186100000Y-120300000D01*
X186500000Y-116800000D02*
X186500000Y-116190000D01*
X188450000Y-116800000D02*
X186500000Y-116800000D01*
X188450000Y-120300000D02*
X188450000Y-116800000D01*
X189060000Y-116190000D02*
X170940000Y-116190000D01*
X189060000Y-117500000D02*
X188450000Y-117500000D01*
X189060000Y-118800000D02*
X188450000Y-118800000D01*
X189060000Y-120910000D02*
X189060000Y-116190000D01*
%TO.C,J4*%
X173080000Y-84540000D02*
X174460000Y-84540000D01*
X173080000Y-85920000D02*
X173080000Y-84540000D01*
X173080000Y-87190000D02*
X173080000Y-100000000D01*
X173080000Y-87190000D02*
X175730000Y-87190000D01*
X173080000Y-100000000D02*
X178380000Y-100000000D01*
X175730000Y-84540000D02*
X178380000Y-84540000D01*
X175730000Y-87190000D02*
X175730000Y-84540000D01*
X178380000Y-84540000D02*
X178380000Y-100000000D01*
%TO.C,SW1*%
X108890000Y-80110000D02*
X108890000Y-81360000D01*
X108890000Y-81360000D02*
X110140000Y-81360000D01*
X108990000Y-79300000D02*
X108990000Y-79600000D01*
X108990000Y-79600000D02*
X109190000Y-79600000D01*
X109090000Y-79300000D02*
X109090000Y-79600000D01*
X109190000Y-74940000D02*
X109190000Y-81060000D01*
X109190000Y-78500000D02*
X109800000Y-78500000D01*
X109190000Y-79300000D02*
X108990000Y-79300000D01*
X109190000Y-81060000D02*
X113910000Y-81060000D01*
X109800000Y-75550000D02*
X109800000Y-77500000D01*
X109800000Y-77500000D02*
X109190000Y-77500000D01*
X109800000Y-78500000D02*
X109800000Y-80450000D01*
X109800000Y-80450000D02*
X113300000Y-80450000D01*
X110500000Y-74940000D02*
X110500000Y-75550000D01*
X110500000Y-81060000D02*
X110500000Y-80450000D01*
X111800000Y-74940000D02*
X111800000Y-75550000D01*
X111800000Y-81060000D02*
X111800000Y-80450000D01*
X112800000Y-77900000D02*
X113300000Y-77900000D01*
X112800000Y-78100000D02*
X112800000Y-77900000D01*
X113300000Y-75550000D02*
X109800000Y-75550000D01*
X113300000Y-78000000D02*
X112800000Y-78000000D01*
X113300000Y-78100000D02*
X112800000Y-78100000D01*
X113300000Y-80450000D02*
X113300000Y-75550000D01*
X113910000Y-74940000D02*
X109190000Y-74940000D01*
X113910000Y-81060000D02*
X113910000Y-74940000D01*
%TO.C,R5*%
X146298474Y-132977500D02*
X145789026Y-132977500D01*
X146298474Y-134022500D02*
X145789026Y-134022500D01*
%TO.C,J8*%
X169640000Y-62890000D02*
X169640000Y-64140000D01*
X169940000Y-63190000D02*
X169940000Y-67910000D01*
X169940000Y-64500000D02*
X170550000Y-64500000D01*
X169940000Y-65800000D02*
X170550000Y-65800000D01*
X169940000Y-67910000D02*
X184060000Y-67910000D01*
X170550000Y-63800000D02*
X170550000Y-67300000D01*
X170550000Y-67300000D02*
X183450000Y-67300000D01*
X170890000Y-62890000D02*
X169640000Y-62890000D01*
X171400000Y-62990000D02*
X171400000Y-63190000D01*
X171700000Y-62990000D02*
X171400000Y-62990000D01*
X171700000Y-63090000D02*
X171400000Y-63090000D01*
X171700000Y-63190000D02*
X171700000Y-62990000D01*
X172500000Y-63190000D02*
X172500000Y-63800000D01*
X172500000Y-63800000D02*
X170550000Y-63800000D01*
X172900000Y-66800000D02*
X173100000Y-66800000D01*
X172900000Y-67300000D02*
X172900000Y-66800000D01*
X173000000Y-67300000D02*
X173000000Y-66800000D01*
X173100000Y-66800000D02*
X173100000Y-67300000D01*
X174900000Y-66800000D02*
X175100000Y-66800000D01*
X174900000Y-67300000D02*
X174900000Y-66800000D01*
X175000000Y-67300000D02*
X175000000Y-66800000D01*
X175100000Y-66800000D02*
X175100000Y-67300000D01*
X176900000Y-66800000D02*
X177100000Y-66800000D01*
X176900000Y-67300000D02*
X176900000Y-66800000D01*
X177000000Y-67300000D02*
X177000000Y-66800000D01*
X177100000Y-66800000D02*
X177100000Y-67300000D01*
X178900000Y-66800000D02*
X179100000Y-66800000D01*
X178900000Y-67300000D02*
X178900000Y-66800000D01*
X179000000Y-67300000D02*
X179000000Y-66800000D01*
X179100000Y-66800000D02*
X179100000Y-67300000D01*
X180900000Y-66800000D02*
X181100000Y-66800000D01*
X180900000Y-67300000D02*
X180900000Y-66800000D01*
X181000000Y-67300000D02*
X181000000Y-66800000D01*
X181100000Y-66800000D02*
X181100000Y-67300000D01*
X181500000Y-63800000D02*
X181500000Y-63190000D01*
X183450000Y-63800000D02*
X181500000Y-63800000D01*
X183450000Y-67300000D02*
X183450000Y-63800000D01*
X184060000Y-63190000D02*
X169940000Y-63190000D01*
X184060000Y-64500000D02*
X183450000Y-64500000D01*
X184060000Y-65800000D02*
X183450000Y-65800000D01*
X184060000Y-67910000D02*
X184060000Y-63190000D01*
%TO.C,R3*%
X179477500Y-74585276D02*
X179477500Y-75094724D01*
X180522500Y-74585276D02*
X180522500Y-75094724D01*
%TO.C,C5*%
X125146267Y-120990000D02*
X124853733Y-120990000D01*
X125146267Y-122010000D02*
X124853733Y-122010000D01*
%TO.C,J19*%
X113120000Y-83540000D02*
X114500000Y-83540000D01*
X113120000Y-84920000D02*
X113120000Y-83540000D01*
X113120000Y-86190000D02*
X113120000Y-96460000D01*
X113120000Y-86190000D02*
X115880000Y-86190000D01*
X113120000Y-96460000D02*
X115880000Y-96460000D01*
X115880000Y-86190000D02*
X115880000Y-96460000D01*
%TO.C,J2*%
X116890000Y-133110000D02*
X116890000Y-134360000D01*
X116890000Y-134360000D02*
X118140000Y-134360000D01*
X116990000Y-132300000D02*
X116990000Y-132600000D01*
X116990000Y-132600000D02*
X117190000Y-132600000D01*
X117090000Y-132300000D02*
X117090000Y-132600000D01*
X117190000Y-123940000D02*
X117190000Y-134060000D01*
X117190000Y-131500000D02*
X117800000Y-131500000D01*
X117190000Y-132300000D02*
X116990000Y-132300000D01*
X117190000Y-134060000D02*
X121910000Y-134060000D01*
X117800000Y-124550000D02*
X117800000Y-126500000D01*
X117800000Y-126500000D02*
X117190000Y-126500000D01*
X117800000Y-131500000D02*
X117800000Y-133450000D01*
X117800000Y-133450000D02*
X121300000Y-133450000D01*
X118500000Y-123940000D02*
X118500000Y-124550000D01*
X118500000Y-134060000D02*
X118500000Y-133450000D01*
X119800000Y-123940000D02*
X119800000Y-124550000D01*
X119800000Y-134060000D02*
X119800000Y-133450000D01*
X120800000Y-126900000D02*
X121300000Y-126900000D01*
X120800000Y-127100000D02*
X120800000Y-126900000D01*
X120800000Y-128900000D02*
X121300000Y-128900000D01*
X120800000Y-129100000D02*
X120800000Y-128900000D01*
X120800000Y-130900000D02*
X121300000Y-130900000D01*
X120800000Y-131100000D02*
X120800000Y-130900000D01*
X121300000Y-124550000D02*
X117800000Y-124550000D01*
X121300000Y-127000000D02*
X120800000Y-127000000D01*
X121300000Y-127100000D02*
X120800000Y-127100000D01*
X121300000Y-129000000D02*
X120800000Y-129000000D01*
X121300000Y-129100000D02*
X120800000Y-129100000D01*
X121300000Y-131000000D02*
X120800000Y-131000000D01*
X121300000Y-131100000D02*
X120800000Y-131100000D01*
X121300000Y-133450000D02*
X121300000Y-124550000D01*
X121910000Y-123940000D02*
X117190000Y-123940000D01*
X121910000Y-134060000D02*
X121910000Y-123940000D01*
%TO.C,R6*%
X142167224Y-132477500D02*
X141657776Y-132477500D01*
X142167224Y-133522500D02*
X141657776Y-133522500D01*
%TO.C,J13*%
X109890000Y-119110000D02*
X109890000Y-120360000D01*
X109890000Y-120360000D02*
X111140000Y-120360000D01*
X109990000Y-118300000D02*
X109990000Y-118600000D01*
X109990000Y-118600000D02*
X110190000Y-118600000D01*
X110090000Y-118300000D02*
X110090000Y-118600000D01*
X110190000Y-97940000D02*
X110190000Y-120060000D01*
X110190000Y-117500000D02*
X110800000Y-117500000D01*
X110190000Y-118300000D02*
X109990000Y-118300000D01*
X110190000Y-120060000D02*
X114910000Y-120060000D01*
X110800000Y-98550000D02*
X110800000Y-100500000D01*
X110800000Y-100500000D02*
X110190000Y-100500000D01*
X110800000Y-117500000D02*
X110800000Y-119450000D01*
X110800000Y-119450000D02*
X114300000Y-119450000D01*
X111500000Y-97940000D02*
X111500000Y-98550000D01*
X111500000Y-120060000D02*
X111500000Y-119450000D01*
X112800000Y-97940000D02*
X112800000Y-98550000D01*
X112800000Y-120060000D02*
X112800000Y-119450000D01*
X113800000Y-100900000D02*
X114300000Y-100900000D01*
X113800000Y-101100000D02*
X113800000Y-100900000D01*
X113800000Y-102900000D02*
X114300000Y-102900000D01*
X113800000Y-103100000D02*
X113800000Y-102900000D01*
X113800000Y-104900000D02*
X114300000Y-104900000D01*
X113800000Y-105100000D02*
X113800000Y-104900000D01*
X113800000Y-106900000D02*
X114300000Y-106900000D01*
X113800000Y-107100000D02*
X113800000Y-106900000D01*
X113800000Y-108900000D02*
X114300000Y-108900000D01*
X113800000Y-109100000D02*
X113800000Y-108900000D01*
X113800000Y-110900000D02*
X114300000Y-110900000D01*
X113800000Y-111100000D02*
X113800000Y-110900000D01*
X113800000Y-112900000D02*
X114300000Y-112900000D01*
X113800000Y-113100000D02*
X113800000Y-112900000D01*
X113800000Y-114900000D02*
X114300000Y-114900000D01*
X113800000Y-115100000D02*
X113800000Y-114900000D01*
X113800000Y-116900000D02*
X114300000Y-116900000D01*
X113800000Y-117100000D02*
X113800000Y-116900000D01*
X114300000Y-98550000D02*
X110800000Y-98550000D01*
X114300000Y-101000000D02*
X113800000Y-101000000D01*
X114300000Y-101100000D02*
X113800000Y-101100000D01*
X114300000Y-103000000D02*
X113800000Y-103000000D01*
X114300000Y-103100000D02*
X113800000Y-103100000D01*
X114300000Y-105000000D02*
X113800000Y-105000000D01*
X114300000Y-105100000D02*
X113800000Y-105100000D01*
X114300000Y-107000000D02*
X113800000Y-107000000D01*
X114300000Y-107100000D02*
X113800000Y-107100000D01*
X114300000Y-109000000D02*
X113800000Y-109000000D01*
X114300000Y-109100000D02*
X113800000Y-109100000D01*
X114300000Y-111000000D02*
X113800000Y-111000000D01*
X114300000Y-111100000D02*
X113800000Y-111100000D01*
X114300000Y-113000000D02*
X113800000Y-113000000D01*
X114300000Y-113100000D02*
X113800000Y-113100000D01*
X114300000Y-115000000D02*
X113800000Y-115000000D01*
X114300000Y-115100000D02*
X113800000Y-115100000D01*
X114300000Y-117000000D02*
X113800000Y-117000000D01*
X114300000Y-117100000D02*
X113800000Y-117100000D01*
X114300000Y-119450000D02*
X114300000Y-98550000D01*
X114910000Y-97940000D02*
X110190000Y-97940000D01*
X114910000Y-120060000D02*
X114910000Y-97940000D01*
%TO.C,C3*%
X166490000Y-65491233D02*
X166490000Y-65783767D01*
X167510000Y-65491233D02*
X167510000Y-65783767D01*
%TO.C,J11*%
X123890000Y-90110000D02*
X123890000Y-91360000D01*
X123890000Y-91360000D02*
X125140000Y-91360000D01*
X123990000Y-89300000D02*
X123990000Y-89600000D01*
X123990000Y-89600000D02*
X124190000Y-89600000D01*
X124090000Y-89300000D02*
X124090000Y-89600000D01*
X124190000Y-68940000D02*
X124190000Y-91060000D01*
X124190000Y-88500000D02*
X124800000Y-88500000D01*
X124190000Y-89300000D02*
X123990000Y-89300000D01*
X124190000Y-91060000D02*
X128910000Y-91060000D01*
X124800000Y-69550000D02*
X124800000Y-71500000D01*
X124800000Y-71500000D02*
X124190000Y-71500000D01*
X124800000Y-88500000D02*
X124800000Y-90450000D01*
X124800000Y-90450000D02*
X128300000Y-90450000D01*
X125500000Y-68940000D02*
X125500000Y-69550000D01*
X125500000Y-91060000D02*
X125500000Y-90450000D01*
X126800000Y-68940000D02*
X126800000Y-69550000D01*
X126800000Y-91060000D02*
X126800000Y-90450000D01*
X127800000Y-71900000D02*
X128300000Y-71900000D01*
X127800000Y-72100000D02*
X127800000Y-71900000D01*
X127800000Y-73900000D02*
X128300000Y-73900000D01*
X127800000Y-74100000D02*
X127800000Y-73900000D01*
X127800000Y-75900000D02*
X128300000Y-75900000D01*
X127800000Y-76100000D02*
X127800000Y-75900000D01*
X127800000Y-77900000D02*
X128300000Y-77900000D01*
X127800000Y-78100000D02*
X127800000Y-77900000D01*
X127800000Y-79900000D02*
X128300000Y-79900000D01*
X127800000Y-80100000D02*
X127800000Y-79900000D01*
X127800000Y-81900000D02*
X128300000Y-81900000D01*
X127800000Y-82100000D02*
X127800000Y-81900000D01*
X127800000Y-83900000D02*
X128300000Y-83900000D01*
X127800000Y-84100000D02*
X127800000Y-83900000D01*
X127800000Y-85900000D02*
X128300000Y-85900000D01*
X127800000Y-86100000D02*
X127800000Y-85900000D01*
X127800000Y-87900000D02*
X128300000Y-87900000D01*
X127800000Y-88100000D02*
X127800000Y-87900000D01*
X128300000Y-69550000D02*
X124800000Y-69550000D01*
X128300000Y-72000000D02*
X127800000Y-72000000D01*
X128300000Y-72100000D02*
X127800000Y-72100000D01*
X128300000Y-74000000D02*
X127800000Y-74000000D01*
X128300000Y-74100000D02*
X127800000Y-74100000D01*
X128300000Y-76000000D02*
X127800000Y-76000000D01*
X128300000Y-76100000D02*
X127800000Y-76100000D01*
X128300000Y-78000000D02*
X127800000Y-78000000D01*
X128300000Y-78100000D02*
X127800000Y-78100000D01*
X128300000Y-80000000D02*
X127800000Y-80000000D01*
X128300000Y-80100000D02*
X127800000Y-80100000D01*
X128300000Y-82000000D02*
X127800000Y-82000000D01*
X128300000Y-82100000D02*
X127800000Y-82100000D01*
X128300000Y-84000000D02*
X127800000Y-84000000D01*
X128300000Y-84100000D02*
X127800000Y-84100000D01*
X128300000Y-86000000D02*
X127800000Y-86000000D01*
X128300000Y-86100000D02*
X127800000Y-86100000D01*
X128300000Y-88000000D02*
X127800000Y-88000000D01*
X128300000Y-88100000D02*
X127800000Y-88100000D01*
X128300000Y-90450000D02*
X128300000Y-69550000D01*
X128910000Y-68940000D02*
X124190000Y-68940000D01*
X128910000Y-91060000D02*
X128910000Y-68940000D01*
%TO.C,J16*%
X152080000Y-129380000D02*
X152080000Y-128000000D01*
X153460000Y-129380000D02*
X152080000Y-129380000D01*
X154730000Y-126620000D02*
X159920000Y-126620000D01*
X154730000Y-129380000D02*
X154730000Y-126620000D01*
X154730000Y-129380000D02*
X159920000Y-129380000D01*
X159920000Y-129380000D02*
X159920000Y-126620000D01*
%TO.C,C7*%
X112991233Y-120990000D02*
X113283767Y-120990000D01*
X112991233Y-122010000D02*
X113283767Y-122010000D01*
%TO.C,R2*%
X174832776Y-70317500D02*
X175342224Y-70317500D01*
X174832776Y-71362500D02*
X175342224Y-71362500D01*
%TO.C,C6*%
X125146267Y-91990000D02*
X124853733Y-91990000D01*
X125146267Y-93010000D02*
X124853733Y-93010000D01*
%TO.C,C4*%
X119853733Y-120990000D02*
X120146267Y-120990000D01*
X119853733Y-122010000D02*
X120146267Y-122010000D01*
%TO.C,J10*%
X123890000Y-133110000D02*
X123890000Y-134360000D01*
X123890000Y-134360000D02*
X125140000Y-134360000D01*
X123990000Y-132300000D02*
X123990000Y-132600000D01*
X123990000Y-132600000D02*
X124190000Y-132600000D01*
X124090000Y-132300000D02*
X124090000Y-132600000D01*
X124190000Y-123940000D02*
X124190000Y-134060000D01*
X124190000Y-131500000D02*
X124800000Y-131500000D01*
X124190000Y-132300000D02*
X123990000Y-132300000D01*
X124190000Y-134060000D02*
X128910000Y-134060000D01*
X124800000Y-124550000D02*
X124800000Y-126500000D01*
X124800000Y-126500000D02*
X124190000Y-126500000D01*
X124800000Y-131500000D02*
X124800000Y-133450000D01*
X124800000Y-133450000D02*
X128300000Y-133450000D01*
X125500000Y-123940000D02*
X125500000Y-124550000D01*
X125500000Y-134060000D02*
X125500000Y-133450000D01*
X126800000Y-123940000D02*
X126800000Y-124550000D01*
X126800000Y-134060000D02*
X126800000Y-133450000D01*
X127800000Y-126900000D02*
X128300000Y-126900000D01*
X127800000Y-127100000D02*
X127800000Y-126900000D01*
X127800000Y-128900000D02*
X128300000Y-128900000D01*
X127800000Y-129100000D02*
X127800000Y-128900000D01*
X127800000Y-130900000D02*
X128300000Y-130900000D01*
X127800000Y-131100000D02*
X127800000Y-130900000D01*
X128300000Y-124550000D02*
X124800000Y-124550000D01*
X128300000Y-127000000D02*
X127800000Y-127000000D01*
X128300000Y-127100000D02*
X127800000Y-127100000D01*
X128300000Y-129000000D02*
X127800000Y-129000000D01*
X128300000Y-129100000D02*
X127800000Y-129100000D01*
X128300000Y-131000000D02*
X127800000Y-131000000D01*
X128300000Y-131100000D02*
X127800000Y-131100000D01*
X128300000Y-133450000D02*
X128300000Y-124550000D01*
X128910000Y-123940000D02*
X124190000Y-123940000D01*
X128910000Y-134060000D02*
X128910000Y-123940000D01*
%TO.C,J1*%
X123890000Y-119110000D02*
X123890000Y-120360000D01*
X123890000Y-120360000D02*
X125140000Y-120360000D01*
X123990000Y-118300000D02*
X123990000Y-118600000D01*
X123990000Y-118600000D02*
X124190000Y-118600000D01*
X124090000Y-118300000D02*
X124090000Y-118600000D01*
X124190000Y-99940000D02*
X124190000Y-120060000D01*
X124190000Y-117500000D02*
X124800000Y-117500000D01*
X124190000Y-118300000D02*
X123990000Y-118300000D01*
X124190000Y-120060000D02*
X128910000Y-120060000D01*
X124800000Y-100550000D02*
X124800000Y-102500000D01*
X124800000Y-102500000D02*
X124190000Y-102500000D01*
X124800000Y-117500000D02*
X124800000Y-119450000D01*
X124800000Y-119450000D02*
X128300000Y-119450000D01*
X125500000Y-99940000D02*
X125500000Y-100550000D01*
X125500000Y-120060000D02*
X125500000Y-119450000D01*
X126800000Y-99940000D02*
X126800000Y-100550000D01*
X126800000Y-120060000D02*
X126800000Y-119450000D01*
X127800000Y-102900000D02*
X128300000Y-102900000D01*
X127800000Y-103100000D02*
X127800000Y-102900000D01*
X127800000Y-104900000D02*
X128300000Y-104900000D01*
X127800000Y-105100000D02*
X127800000Y-104900000D01*
X127800000Y-106900000D02*
X128300000Y-106900000D01*
X127800000Y-107100000D02*
X127800000Y-106900000D01*
X127800000Y-108900000D02*
X128300000Y-108900000D01*
X127800000Y-109100000D02*
X127800000Y-108900000D01*
X127800000Y-110900000D02*
X128300000Y-110900000D01*
X127800000Y-111100000D02*
X127800000Y-110900000D01*
X127800000Y-112900000D02*
X128300000Y-112900000D01*
X127800000Y-113100000D02*
X127800000Y-112900000D01*
X127800000Y-114900000D02*
X128300000Y-114900000D01*
X127800000Y-115100000D02*
X127800000Y-114900000D01*
X127800000Y-116900000D02*
X128300000Y-116900000D01*
X127800000Y-117100000D02*
X127800000Y-116900000D01*
X128300000Y-100550000D02*
X124800000Y-100550000D01*
X128300000Y-103000000D02*
X127800000Y-103000000D01*
X128300000Y-103100000D02*
X127800000Y-103100000D01*
X128300000Y-105000000D02*
X127800000Y-105000000D01*
X128300000Y-105100000D02*
X127800000Y-105100000D01*
X128300000Y-107000000D02*
X127800000Y-107000000D01*
X128300000Y-107100000D02*
X127800000Y-107100000D01*
X128300000Y-109000000D02*
X127800000Y-109000000D01*
X128300000Y-109100000D02*
X127800000Y-109100000D01*
X128300000Y-111000000D02*
X127800000Y-111000000D01*
X128300000Y-111100000D02*
X127800000Y-111100000D01*
X128300000Y-113000000D02*
X127800000Y-113000000D01*
X128300000Y-113100000D02*
X127800000Y-113100000D01*
X128300000Y-115000000D02*
X127800000Y-115000000D01*
X128300000Y-115100000D02*
X127800000Y-115100000D01*
X128300000Y-117000000D02*
X127800000Y-117000000D01*
X128300000Y-117100000D02*
X127800000Y-117100000D01*
X128300000Y-119450000D02*
X128300000Y-100550000D01*
X128910000Y-99940000D02*
X124190000Y-99940000D01*
X128910000Y-120060000D02*
X128910000Y-99940000D01*
%TO.C,R9*%
X112167224Y-72477500D02*
X111657776Y-72477500D01*
X112167224Y-73522500D02*
X111657776Y-73522500D01*
%TO.C,J5*%
X181623750Y-72380000D02*
X183003750Y-72380000D01*
X181623750Y-73760000D02*
X181623750Y-72380000D01*
X181623750Y-75030000D02*
X181623750Y-82760000D01*
X181623750Y-75030000D02*
X184273750Y-75030000D01*
X181623750Y-82760000D02*
X186923750Y-82760000D01*
X184273750Y-72380000D02*
X186923750Y-72380000D01*
X184273750Y-75030000D02*
X184273750Y-72380000D01*
X186923750Y-72380000D02*
X186923750Y-82760000D01*
%TD*%
M02*
