M48
; DRILL file {KiCad 9.0.2} date 2025-07-05T12:49:34-0400
; FORMAT={-:-/ absolute / inch / decimal}
; #@! TF.CreationDate,2025-07-05T12:49:34-04:00
; #@! TF.GenerationSoftware,Kicad,Pcbnew,9.0.2
; #@! TF.FileFunction,MixedPlating,1,4
FMAT,2
INCH
; #@! TA.AperFunction,Plated,PTH,ViaDrill
T1C0.0118
; #@! TA.AperFunction,Plated,PTH,ViaDrill
T2C0.0236
; #@! TA.AperFunction,Plated,PTH,ComponentDrill
T3C0.0295
; #@! TA.AperFunction,Plated,PTH,ComponentDrill
T4C0.0394
; #@! TA.AperFunction,NonPlated,NPTH,ComponentDrill
T5C0.0866
%
G90
G05
T1
X6.6535Y-3.4066
T2
X4.5669Y-3.1299
X4.5669Y-4.7638
X4.8228Y-3.6417
X4.8228Y-4.7835
X4.8425Y-3.5433
X5.1181Y-3.4449
X5.1575Y-4.4094
X5.1575Y-5.2362
X5.1969Y-5.1969
X5.4724Y-4.0157
X5.5123Y-5.186
X5.6457Y-4.8031
X5.6693Y-5.1969
X5.7874Y-3.4252
X5.8205Y-4.3613
X5.8661Y-5.2165
X5.9449Y-4.3311
X6.3351Y-2.5591
X6.3386Y-3.2283
X6.6535Y-2.9134
X6.7717Y-2.7953
X6.7717Y-3.1102
X6.9291Y-2.7165
X7.0472Y-3.9764
X7.108Y-2.7953
X7.1093Y-3.1108
X7.4386Y-3.2677
T3
X4.3701Y-3.0315
X4.3701Y-3.1102
X4.4094Y-3.937
X4.4094Y-4.0157
X4.4094Y-4.0945
X4.4094Y-4.1732
X4.4094Y-4.252
X4.4094Y-4.3307
X4.4094Y-4.4094
X4.4094Y-4.4882
X4.4094Y-4.5669
X4.4094Y-4.6457
X4.685Y-2.7953
X4.685Y-2.874
X4.685Y-2.9528
X4.685Y-3.0315
X4.685Y-3.1102
X4.685Y-3.189
X4.685Y-3.2677
X4.685Y-3.3465
X4.685Y-3.4252
X4.685Y-3.5039
X4.685Y-4.0157
X4.685Y-4.0945
X4.685Y-4.1732
X4.685Y-4.252
X4.685Y-4.3307
X4.685Y-4.4094
X4.685Y-4.4882
X4.685Y-4.5669
X4.685Y-4.6457
X4.685Y-4.9606
X4.685Y-5.0394
X4.685Y-5.1181
X4.685Y-5.1969
X4.9606Y-2.7953
X4.9606Y-2.874
X4.9606Y-2.9528
X4.9606Y-3.0315
X4.9606Y-3.1102
X4.9606Y-3.189
X4.9606Y-3.2677
X4.9606Y-3.3465
X4.9606Y-3.4252
X4.9606Y-3.5039
X4.9606Y-4.0157
X4.9606Y-4.0945
X4.9606Y-4.1732
X4.9606Y-4.252
X4.9606Y-4.3307
X4.9606Y-4.4094
X4.9606Y-4.4882
X4.9606Y-4.5669
X4.9606Y-4.6457
X4.9606Y-4.9606
X4.9606Y-5.0394
X4.9606Y-5.1181
X4.9606Y-5.1969
X5.3976Y-5.0354
X5.4764Y-5.0354
X5.5551Y-5.0354
X5.6339Y-5.0354
X5.7126Y-5.0354
X5.7913Y-5.0354
X6.7717Y-2.5591
X6.811Y-4.3701
X6.811Y-4.6457
X6.8504Y-2.5591
X6.8898Y-4.3701
X6.8898Y-4.6457
X6.9291Y-2.5591
X6.9685Y-4.3701
X6.9685Y-4.6457
X7.0079Y-2.5591
X7.0472Y-4.3701
X7.0472Y-4.6457
X7.0866Y-2.5591
X7.126Y-4.3701
X7.126Y-4.6457
X7.1654Y-2.5591
X7.2047Y-4.3701
X7.2047Y-4.6457
X7.2835Y-4.3701
X7.2835Y-4.6457
X7.3622Y-4.3701
X7.3622Y-4.6457
T4
X4.3504Y-3.4433
X4.3504Y-3.5433
X4.3504Y-3.6433
X4.3504Y-3.7433
X4.5079Y-3.3433
X4.5079Y-3.4433
X4.5079Y-3.5433
X4.5079Y-3.6433
X4.5079Y-3.7433
X4.7819Y-2.4803
X4.8819Y-2.4803
X5.2555Y-2.7213
X5.2555Y-2.8213
X5.2555Y-2.9213
X5.2555Y-3.0213
X5.2555Y-3.1213
X5.2555Y-3.2213
X5.2555Y-3.3213
X5.2555Y-3.4213
X5.2555Y-3.5213
X5.2555Y-3.6213
X5.2555Y-3.7213
X5.2555Y-3.8213
X5.2555Y-3.9213
X5.2555Y-4.0213
X5.2555Y-4.1213
X5.2555Y-4.2213
X5.2555Y-4.3213
X5.2555Y-4.4213
X5.2555Y-4.5213
X5.2555Y-4.6213
X5.3555Y-2.7213
X5.3555Y-2.8213
X5.3555Y-2.9213
X5.3555Y-3.0213
X5.3555Y-3.1213
X5.3555Y-3.2213
X5.3555Y-3.3213
X5.3555Y-3.4213
X5.3555Y-3.5213
X5.3555Y-3.6213
X5.3555Y-3.7213
X5.3555Y-3.8213
X5.3555Y-3.9213
X5.3555Y-4.0213
X5.3555Y-4.1213
X5.3555Y-4.2213
X5.3555Y-4.3213
X5.3555Y-4.4213
X5.3555Y-4.5213
X5.3555Y-4.6213
X6.0417Y-5.0394
X6.1417Y-5.0394
X6.2417Y-5.0394
X6.4555Y-2.7213
X6.4555Y-2.8213
X6.4555Y-2.9213
X6.4555Y-3.0213
X6.4555Y-3.1213
X6.4555Y-3.2213
X6.4555Y-3.3213
X6.4555Y-3.4213
X6.4555Y-3.5213
X6.4555Y-3.6213
X6.4555Y-3.7213
X6.4555Y-3.8213
X6.4555Y-3.9213
X6.4555Y-4.0213
X6.4555Y-4.1213
X6.4555Y-4.2213
X6.4555Y-4.3213
X6.4555Y-4.4213
X6.4555Y-4.5213
X6.4555Y-4.6213
X6.5555Y-2.7213
X6.5555Y-2.8213
X6.5555Y-2.9213
X6.5555Y-3.0213
X6.5555Y-3.1213
X6.5555Y-3.2213
X6.5555Y-3.3213
X6.5555Y-3.4213
X6.5555Y-3.5213
X6.5555Y-3.6213
X6.5555Y-3.7213
X6.5555Y-3.8213
X6.5555Y-3.9213
X6.5555Y-4.0213
X6.5555Y-4.1213
X6.5555Y-4.2213
X6.5555Y-4.3213
X6.5555Y-4.4213
X6.5555Y-4.5213
X6.5555Y-4.6213
X6.8685Y-2.9071
X6.8685Y-3.0071
X6.8685Y-3.1071
X6.8685Y-3.2071
X6.8685Y-3.3827
X6.8685Y-3.4827
X6.8685Y-3.5827
X6.8685Y-3.6827
X6.8685Y-3.7827
X6.8685Y-3.8827
X6.9685Y-2.9071
X6.9685Y-3.0071
X6.9685Y-3.1071
X6.9685Y-3.2071
X6.9685Y-3.3827
X6.9685Y-3.4827
X6.9685Y-3.5827
X6.9685Y-3.6827
X6.9685Y-3.7827
X6.9685Y-3.8827
X7.2049Y-2.9039
X7.2049Y-3.0039
X7.2049Y-3.1039
X7.2049Y-3.2039
X7.2049Y-3.3795
X7.2049Y-3.4795
X7.2049Y-3.5795
X7.2049Y-3.6795
X7.2049Y-3.7795
X7.2049Y-3.8795
X7.3049Y-2.9039
X7.3049Y-3.0039
X7.3049Y-3.1039
X7.3049Y-3.2039
X7.3049Y-3.3795
X7.3049Y-3.4795
X7.3049Y-3.5795
X7.3049Y-3.6795
X7.3049Y-3.7795
X7.3049Y-3.8795
T5
X4.3307Y-2.5591
X4.3307Y-5.1575
X7.3622Y-2.5591
X7.3622Y-5.1575
M30
