%TF.GenerationSoftware,KiCad,Pcbnew,9.0.2*%
%TF.CreationDate,2025-07-05T12:49:50-04:00*%
%TF.ProjectId,Mainboard H7,4d61696e-626f-4617-9264-2048372e6b69,rev?*%
%TF.SameCoordinates,Original*%
%TF.FileFunction,Soldermask,Top*%
%TF.FilePolarity,Negative*%
%FSLAX46Y46*%
G04 Gerber Fmt 4.6, Leading zero omitted, Abs format (unit mm)*
G04 Created by KiCad (PCBNEW 9.0.2) date 2025-07-05 12:49:50*
%MOMM*%
%LPD*%
G01*
G04 APERTURE LIST*
G04 Aperture macros list*
%AMRoundRect*
0 Rectangle with rounded corners*
0 $1 Rounding radius*
0 $2 $3 $4 $5 $6 $7 $8 $9 X,Y pos of 4 corners*
0 Add a 4 corners polygon primitive as box body*
4,1,4,$2,$3,$4,$5,$6,$7,$8,$9,$2,$3,0*
0 Add four circle primitives for the rounded corners*
1,1,$1+$1,$2,$3*
1,1,$1+$1,$4,$5*
1,1,$1+$1,$6,$7*
1,1,$1+$1,$8,$9*
0 Add four rect primitives between the rounded corners*
20,1,$1+$1,$2,$3,$4,$5,0*
20,1,$1+$1,$4,$5,$6,$7,0*
20,1,$1+$1,$6,$7,$8,$9,0*
20,1,$1+$1,$8,$9,$2,$3,0*%
G04 Aperture macros list end*
%ADD10C,1.700000*%
%ADD11RoundRect,0.237500X-0.237500X0.250000X-0.237500X-0.250000X0.237500X-0.250000X0.237500X0.250000X0*%
%ADD12RoundRect,0.250000X0.625000X-0.350000X0.625000X0.350000X-0.625000X0.350000X-0.625000X-0.350000X0*%
%ADD13O,1.750000X1.200000*%
%ADD14RoundRect,0.250000X-0.350000X-0.625000X0.350000X-0.625000X0.350000X0.625000X-0.350000X0.625000X0*%
%ADD15O,1.200000X1.750000*%
%ADD16R,1.700000X1.700000*%
%ADD17C,2.200000*%
%ADD18RoundRect,0.237500X0.300000X0.237500X-0.300000X0.237500X-0.300000X-0.237500X0.300000X-0.237500X0*%
%ADD19RoundRect,0.237500X-0.250000X-0.237500X0.250000X-0.237500X0.250000X0.237500X-0.250000X0.237500X0*%
%ADD20RoundRect,0.237500X-0.300000X-0.237500X0.300000X-0.237500X0.300000X0.237500X-0.300000X0.237500X0*%
%ADD21RoundRect,0.237500X0.250000X0.237500X-0.250000X0.237500X-0.250000X-0.237500X0.250000X-0.237500X0*%
%ADD22RoundRect,0.237500X-0.237500X0.300000X-0.237500X-0.300000X0.237500X-0.300000X0.237500X0.300000X0*%
G04 APERTURE END LIST*
D10*
%TO.C,U1*%
X133490000Y-69120000D03*
X136030000Y-69120000D03*
X133490000Y-71660000D03*
X136030000Y-71660000D03*
X133490000Y-74200000D03*
X136030000Y-74200000D03*
X133490000Y-76740000D03*
X136030000Y-76740000D03*
X133490000Y-79280000D03*
X136030000Y-79280000D03*
X133490000Y-81820000D03*
X136030000Y-81820000D03*
X133490000Y-84360000D03*
X136030000Y-84360000D03*
X133490000Y-86900000D03*
X136030000Y-86900000D03*
X133490000Y-89440000D03*
X136030000Y-89440000D03*
X133490000Y-91980000D03*
X136030000Y-91980000D03*
X133490000Y-94520000D03*
X136030000Y-94520000D03*
X133490000Y-97060000D03*
X136030000Y-97060000D03*
X133490000Y-99600000D03*
X136030000Y-99600000D03*
X133490000Y-102140000D03*
X136030000Y-102140000D03*
X133490000Y-104680000D03*
X136030000Y-104680000D03*
X133490000Y-107220000D03*
X136030000Y-107220000D03*
X133490000Y-109760000D03*
X136030000Y-109760000D03*
X133490000Y-112300000D03*
X136030000Y-112300000D03*
X133490000Y-114840000D03*
X136030000Y-114840000D03*
X133490000Y-117380000D03*
X136030000Y-117380000D03*
X163970000Y-69120000D03*
X166510000Y-69120000D03*
X163970000Y-71660000D03*
X166510000Y-71660000D03*
X163970000Y-74200000D03*
X166510000Y-74200000D03*
X163970000Y-76740000D03*
X166510000Y-76740000D03*
X163970000Y-79280000D03*
X166510000Y-79280000D03*
X163970000Y-81820000D03*
X166510000Y-81820000D03*
X163970000Y-84360000D03*
X166510000Y-84360000D03*
X163970000Y-86900000D03*
X166510000Y-86900000D03*
X163970000Y-89440000D03*
X166510000Y-89440000D03*
X163970000Y-91980000D03*
X166510000Y-91980000D03*
X163970000Y-94520000D03*
X166510000Y-94520000D03*
X163970000Y-97060000D03*
X166510000Y-97060000D03*
X163970000Y-99600000D03*
X166510000Y-99600000D03*
X163970000Y-102140000D03*
X166510000Y-102140000D03*
X163970000Y-104680000D03*
X166510000Y-104680000D03*
X163970000Y-107220000D03*
X166510000Y-107220000D03*
X163970000Y-109760000D03*
X166510000Y-109760000D03*
X163970000Y-112300000D03*
X166510000Y-112300000D03*
X163970000Y-114840000D03*
X166510000Y-114840000D03*
X163970000Y-117380000D03*
X166510000Y-117380000D03*
%TD*%
D11*
%TO.C,R1*%
X171000000Y-75840000D03*
X171000000Y-74015000D03*
%TD*%
D12*
%TO.C,J12*%
X119000000Y-89000000D03*
D13*
X119000000Y-87000000D03*
X119000000Y-85000000D03*
X119000000Y-83000000D03*
X119000000Y-81000000D03*
X119000000Y-79000000D03*
X119000000Y-77000000D03*
X119000000Y-75000000D03*
X119000000Y-73000000D03*
X119000000Y-71000000D03*
%TD*%
D14*
%TO.C,J7*%
X137100195Y-127899805D03*
D15*
X139100195Y-127899805D03*
X141100195Y-127899805D03*
X143100195Y-127899805D03*
X145100195Y-127899805D03*
X147100195Y-127899805D03*
%TD*%
D16*
%TO.C,J18*%
X121460000Y-63000000D03*
D10*
X124000000Y-63000000D03*
%TD*%
D16*
%TO.C,J17*%
X110500000Y-87460000D03*
D10*
X110500000Y-90000000D03*
X110500000Y-92540000D03*
X110500000Y-95080000D03*
%TD*%
D17*
%TO.C,REF\u002A\u002A*%
X187000000Y-65000000D03*
%TD*%
D18*
%TO.C,C1*%
X138862500Y-132500000D03*
X137137500Y-132500000D03*
%TD*%
D19*
%TO.C,R7*%
X163000000Y-65000000D03*
X164825000Y-65000000D03*
%TD*%
D12*
%TO.C,J9*%
X119000000Y-118000000D03*
D13*
X119000000Y-116000000D03*
X119000000Y-114000000D03*
X119000000Y-112000000D03*
X119000000Y-110000000D03*
X119000000Y-108000000D03*
X119000000Y-106000000D03*
X119000000Y-104000000D03*
X119000000Y-102000000D03*
%TD*%
D16*
%TO.C,J6*%
X183003750Y-85840000D03*
D10*
X185543750Y-85840000D03*
X183003750Y-88380000D03*
X185543750Y-88380000D03*
X183003750Y-90920000D03*
X185543750Y-90920000D03*
X183003750Y-93460000D03*
X185543750Y-93460000D03*
X183003750Y-96000000D03*
X185543750Y-96000000D03*
X183003750Y-98540000D03*
X185543750Y-98540000D03*
%TD*%
D19*
%TO.C,R8*%
X178087500Y-69500000D03*
X179912500Y-69500000D03*
%TD*%
D16*
%TO.C,J3*%
X174460000Y-73840000D03*
D10*
X177000000Y-73840000D03*
X174460000Y-76380000D03*
X177000000Y-76380000D03*
X174460000Y-78920000D03*
X177000000Y-78920000D03*
X174460000Y-81460000D03*
X177000000Y-81460000D03*
%TD*%
D18*
%TO.C,C8*%
X126725000Y-66000000D03*
X125000000Y-66000000D03*
%TD*%
D20*
%TO.C,C2*%
X119137500Y-92500000D03*
X120862500Y-92500000D03*
%TD*%
D14*
%TO.C,J15*%
X173000000Y-111000000D03*
D15*
X175000000Y-111000000D03*
X177000000Y-111000000D03*
X179000000Y-111000000D03*
X181000000Y-111000000D03*
X183000000Y-111000000D03*
X185000000Y-111000000D03*
X187000000Y-111000000D03*
%TD*%
D19*
%TO.C,R4*%
X182543750Y-70840000D03*
X184368750Y-70840000D03*
%TD*%
D17*
%TO.C,REF\u002A\u002A*%
X187000000Y-131000000D03*
%TD*%
D14*
%TO.C,J14*%
X173000000Y-118000000D03*
D15*
X175000000Y-118000000D03*
X177000000Y-118000000D03*
X179000000Y-118000000D03*
X181000000Y-118000000D03*
X183000000Y-118000000D03*
X185000000Y-118000000D03*
X187000000Y-118000000D03*
%TD*%
D16*
%TO.C,J4*%
X174460000Y-85920000D03*
D10*
X177000000Y-85920000D03*
X174460000Y-88460000D03*
X177000000Y-88460000D03*
X174460000Y-91000000D03*
X177000000Y-91000000D03*
X174460000Y-93540000D03*
X177000000Y-93540000D03*
X174460000Y-96080000D03*
X177000000Y-96080000D03*
X174460000Y-98620000D03*
X177000000Y-98620000D03*
%TD*%
D12*
%TO.C,SW1*%
X111000000Y-79000000D03*
D13*
X111000000Y-77000000D03*
%TD*%
D21*
%TO.C,R5*%
X146956250Y-133500000D03*
X145131250Y-133500000D03*
%TD*%
D14*
%TO.C,J8*%
X172000000Y-65000000D03*
D15*
X174000000Y-65000000D03*
X176000000Y-65000000D03*
X178000000Y-65000000D03*
X180000000Y-65000000D03*
X182000000Y-65000000D03*
%TD*%
D11*
%TO.C,R3*%
X180000000Y-73927500D03*
X180000000Y-75752500D03*
%TD*%
D18*
%TO.C,C5*%
X125862500Y-121500000D03*
X124137500Y-121500000D03*
%TD*%
D17*
%TO.C,REF\u002A\u002A*%
X110000000Y-131000000D03*
%TD*%
D16*
%TO.C,J19*%
X114500000Y-84920000D03*
D10*
X114500000Y-87460000D03*
X114500000Y-90000000D03*
X114500000Y-92540000D03*
X114500000Y-95080000D03*
%TD*%
D12*
%TO.C,J2*%
X119000000Y-132000000D03*
D13*
X119000000Y-130000000D03*
X119000000Y-128000000D03*
X119000000Y-126000000D03*
%TD*%
D21*
%TO.C,R6*%
X142825000Y-133000000D03*
X141000000Y-133000000D03*
%TD*%
D17*
%TO.C,REF\u002A\u002A*%
X110000000Y-65000000D03*
%TD*%
D12*
%TO.C,J13*%
X112000000Y-118000000D03*
D13*
X112000000Y-116000000D03*
X112000000Y-114000000D03*
X112000000Y-112000000D03*
X112000000Y-110000000D03*
X112000000Y-108000000D03*
X112000000Y-106000000D03*
X112000000Y-104000000D03*
X112000000Y-102000000D03*
X112000000Y-100000000D03*
%TD*%
D22*
%TO.C,C3*%
X167000000Y-64775000D03*
X167000000Y-66500000D03*
%TD*%
D12*
%TO.C,J11*%
X126000000Y-89000000D03*
D13*
X126000000Y-87000000D03*
X126000000Y-85000000D03*
X126000000Y-83000000D03*
X126000000Y-81000000D03*
X126000000Y-79000000D03*
X126000000Y-77000000D03*
X126000000Y-75000000D03*
X126000000Y-73000000D03*
X126000000Y-71000000D03*
%TD*%
D16*
%TO.C,J16*%
X153460000Y-128000000D03*
D10*
X156000000Y-128000000D03*
X158540000Y-128000000D03*
%TD*%
D20*
%TO.C,C7*%
X112275000Y-121500000D03*
X114000000Y-121500000D03*
%TD*%
D19*
%TO.C,R2*%
X174175000Y-70840000D03*
X176000000Y-70840000D03*
%TD*%
D18*
%TO.C,C6*%
X125862500Y-92500000D03*
X124137500Y-92500000D03*
%TD*%
D20*
%TO.C,C4*%
X119137500Y-121500000D03*
X120862500Y-121500000D03*
%TD*%
D12*
%TO.C,J10*%
X126000000Y-132000000D03*
D13*
X126000000Y-130000000D03*
X126000000Y-128000000D03*
X126000000Y-126000000D03*
%TD*%
D12*
%TO.C,J1*%
X126000000Y-118000000D03*
D13*
X126000000Y-116000000D03*
X126000000Y-114000000D03*
X126000000Y-112000000D03*
X126000000Y-110000000D03*
X126000000Y-108000000D03*
X126000000Y-106000000D03*
X126000000Y-104000000D03*
X126000000Y-102000000D03*
%TD*%
D21*
%TO.C,R9*%
X112825000Y-73000000D03*
X111000000Y-73000000D03*
%TD*%
D16*
%TO.C,J5*%
X183003750Y-73760000D03*
D10*
X185543750Y-73760000D03*
X183003750Y-76300000D03*
X185543750Y-76300000D03*
X183003750Y-78840000D03*
X185543750Y-78840000D03*
X183003750Y-81380000D03*
X185543750Y-81380000D03*
%TD*%
M02*
