M48
; DRILL file {KiCad 9.0.2} date 2025-07-05T20:04:57-0400
; FORMAT={-:-/ absolute / inch / decimal}
; #@! TF.CreationDate,2025-07-05T20:04:57-04:00
; #@! TF.GenerationSoftware,Kicad,Pcbnew,9.0.2
; #@! TF.FileFunction,MixedPlating,1,2
FMAT,2
INCH
; #@! TA.AperFunction,Plated,PTH,ComponentDrill
T1C0.0295
; #@! TA.AperFunction,Plated,PTH,ComponentDrill
T2C0.0394
; #@! TA.AperFunction,NonPlated,NPTH,ComponentDrill
T3C0.0866
%
G90
G05
T1
X5.1575Y-3.5039
X5.2362Y-3.5039
X5.315Y-3.5039
X5.3937Y-3.5039
X5.4724Y-3.5039
X5.5512Y-3.5039
X5.5512Y-3.9764
X5.6299Y-3.5039
X5.6299Y-3.9764
X5.7087Y-3.5039
X5.7087Y-3.9764
X5.7874Y-3.5039
X5.7874Y-3.9764
T2
X5.1969Y-3.2874
X5.2709Y-4.1929
X5.2756Y-3.937
X5.2969Y-3.2874
X5.3709Y-4.1929
X5.3756Y-3.937
X5.3969Y-3.2874
X5.4709Y-4.1929
X5.4969Y-3.2874
X5.5709Y-4.1929
X5.5969Y-3.2874
X5.6709Y-4.1929
X5.6969Y-3.2874
X5.7969Y-3.2874
X5.9843Y-3.563
X5.9843Y-3.663
X5.9843Y-3.763
T3
X5.2362Y-3.7402
X5.7087Y-3.7402
M30
