%TF.GenerationSoftware,KiCad,Pcbnew,9.0.2*%
%TF.CreationDate,2025-07-05T20:05:03-04:00*%
%TF.ProjectId,MT6835 Breakout,4d543638-3335-4204-9272-65616b6f7574,rev?*%
%TF.SameCoordinates,Original*%
%TF.FileFunction,Copper,L1,Top*%
%TF.FilePolarity,Positive*%
%FSLAX46Y46*%
G04 Gerber Fmt 4.6, Leading zero omitted, Abs format (unit mm)*
G04 Created by KiCad (PCBNEW 9.0.2) date 2025-07-05 20:05:03*
%MOMM*%
%LPD*%
G01*
G04 APERTURE LIST*
G04 Aperture macros list*
%AMRoundRect*
0 Rectangle with rounded corners*
0 $1 Rounding radius*
0 $2 $3 $4 $5 $6 $7 $8 $9 X,Y pos of 4 corners*
0 Add a 4 corners polygon primitive as box body*
4,1,4,$2,$3,$4,$5,$6,$7,$8,$9,$2,$3,0*
0 Add four circle primitives for the rounded corners*
1,1,$1+$1,$2,$3*
1,1,$1+$1,$4,$5*
1,1,$1+$1,$6,$7*
1,1,$1+$1,$8,$9*
0 Add four rect primitives between the rounded corners*
20,1,$1+$1,$2,$3,$4,$5,0*
20,1,$1+$1,$4,$5,$6,$7,0*
20,1,$1+$1,$6,$7,$8,$9,0*
20,1,$1+$1,$8,$9,$2,$3,0*%
G04 Aperture macros list end*
%TA.AperFunction,ComponentPad*%
%ADD10O,1.200000X1.750000*%
%TD*%
%TA.AperFunction,ComponentPad*%
%ADD11RoundRect,0.250000X0.350000X0.625000X-0.350000X0.625000X-0.350000X-0.625000X0.350000X-0.625000X0*%
%TD*%
%TA.AperFunction,ComponentPad*%
%ADD12R,1.700000X1.700000*%
%TD*%
%TA.AperFunction,ComponentPad*%
%ADD13C,1.700000*%
%TD*%
%TA.AperFunction,Conductor*%
%ADD14C,0.508000*%
%TD*%
G04 APERTURE END LIST*
D10*
%TO.P,J1,9,Pin_9*%
%TO.N,NCS*%
X131000000Y-89000000D03*
%TO.P,J1,8,Pin_8*%
%TO.N,GND*%
X133000000Y-89000000D03*
%TO.P,J1,7,Pin_7*%
%TO.N,SCK*%
X135000000Y-89000000D03*
%TO.P,J1,6,Pin_6*%
%TO.N,GND*%
X137000000Y-89000000D03*
%TO.P,J1,5,Pin_5*%
%TO.N,MISO*%
X139000000Y-89000000D03*
%TO.P,J1,4,Pin_4*%
%TO.N,GND*%
X141000000Y-89000000D03*
%TO.P,J1,3,Pin_3*%
%TO.N,MOSI*%
X143000000Y-89000000D03*
%TO.P,J1,2,Pin_2*%
%TO.N,GND*%
X145000000Y-89000000D03*
D11*
%TO.P,J1,1,Pin_1*%
%TO.N,+3V3*%
X147000000Y-89000000D03*
%TD*%
D12*
%TO.P,J6,1,Pin_1*%
%TO.N,GND*%
X133880000Y-106500000D03*
D13*
%TO.P,J6,2,Pin_2*%
%TO.N,PWM*%
X136420000Y-106500000D03*
%TO.P,J6,3,Pin_3*%
%TO.N,B*%
X138960000Y-106500000D03*
%TO.P,J6,4,Pin_4*%
%TO.N,A*%
X141500000Y-106500000D03*
%TO.P,J6,5,Pin_5*%
%TO.N,+3V3*%
X144040000Y-106500000D03*
%TD*%
%TO.P,J5,7,Pin_7*%
%TO.N,CAL*%
X147240000Y-83500000D03*
%TO.P,J5,6,Pin_6*%
%TO.N,+3V3*%
X144700000Y-83500000D03*
%TO.P,J5,5,Pin_5*%
%TO.N,MISO*%
X142160000Y-83500000D03*
%TO.P,J5,4,Pin_4*%
%TO.N,MOSI*%
X139620000Y-83500000D03*
%TO.P,J5,3,Pin_3*%
%TO.N,SCK*%
X137080000Y-83500000D03*
%TO.P,J5,2,Pin_2*%
%TO.N,NCS*%
X134540000Y-83500000D03*
D12*
%TO.P,J5,1,Pin_1*%
%TO.N,GND*%
X132000000Y-83500000D03*
%TD*%
%TO.P,J4,1,Pin_1*%
%TO.N,GND*%
X134000000Y-100000000D03*
D13*
%TO.P,J4,2,Pin_2*%
%TO.N,PWM*%
X136540000Y-100000000D03*
%TD*%
D12*
%TO.P,J3,1,Pin_1*%
%TO.N,GND*%
X152000000Y-95580000D03*
D13*
%TO.P,J3,2,Pin_2*%
%TO.N,CAL*%
X152000000Y-93040000D03*
%TO.P,J3,3,Pin_3*%
%TO.N,+3V3*%
X152000000Y-90500000D03*
%TD*%
D11*
%TO.P,J2,1,Pin_1*%
%TO.N,A*%
X147000000Y-101000000D03*
D10*
%TO.P,J2,2,Pin_2*%
%TO.N,GND*%
X145000000Y-101000000D03*
%TO.P,J2,3,Pin_3*%
%TO.N,B*%
X143000000Y-101000000D03*
%TO.P,J2,4,Pin_4*%
%TO.N,GND*%
X141000000Y-101000000D03*
%TD*%
D14*
%TO.N,NCS*%
X131000000Y-87040000D02*
X131000000Y-89000000D01*
X134540000Y-83500000D02*
X131000000Y-87040000D01*
%TO.N,SCK*%
X137080000Y-83500000D02*
X135000000Y-85580000D01*
X135000000Y-85580000D02*
X135000000Y-89000000D01*
%TO.N,MOSI*%
X143000000Y-86880000D02*
X143000000Y-89000000D01*
X139620000Y-83500000D02*
X143000000Y-86880000D01*
%TO.N,+3V3*%
X147000000Y-85800000D02*
X147000000Y-89000000D01*
X144700000Y-83500000D02*
X147000000Y-85800000D01*
%TO.N,CAL*%
X153305000Y-89565000D02*
X147240000Y-83500000D01*
X153305000Y-91735000D02*
X153305000Y-89565000D01*
X152000000Y-93040000D02*
X153305000Y-91735000D01*
%TO.N,+3V3*%
X147000000Y-89000000D02*
X149500000Y-89000000D01*
%TO.N,PWM*%
X136420000Y-106500000D02*
X136420000Y-100120000D01*
X136420000Y-100120000D02*
X136540000Y-100000000D01*
%TO.N,B*%
X143000000Y-102460000D02*
X138960000Y-106500000D01*
X143000000Y-101000000D02*
X143000000Y-102460000D01*
%TO.N,+3V3*%
X150000000Y-89500000D02*
X149500000Y-89000000D01*
X150000000Y-103020000D02*
X150000000Y-89500000D01*
X146520000Y-106500000D02*
X150000000Y-103020000D01*
X144040000Y-106500000D02*
X146520000Y-106500000D01*
X149500000Y-89000000D02*
X150500000Y-89000000D01*
X150500000Y-89000000D02*
X152000000Y-90500000D01*
%TO.N,A*%
X147000000Y-101000000D02*
X141500000Y-106500000D01*
%TD*%
M02*
