%TF.GenerationSoftware,KiCad,Pcbnew,9.0.2*%
%TF.CreationDate,2025-07-05T20:05:03-04:00*%
%TF.ProjectId,MT6835 Breakout,4d543638-3335-4204-9272-65616b6f7574,rev?*%
%TF.SameCoordinates,Original*%
%TF.FileFunction,Legend,Bot*%
%TF.FilePolarity,Positive*%
%FSLAX46Y46*%
G04 Gerber Fmt 4.6, Leading zero omitted, Abs format (unit mm)*
G04 Created by KiCad (PCBNEW 9.0.2) date 2025-07-05 20:05:03*
%MOMM*%
%LPD*%
G01*
G04 APERTURE LIST*
%ADD10C,0.150000*%
G04 APERTURE END LIST*
D10*
X133618095Y-103417438D02*
X133713333Y-103369819D01*
X133713333Y-103369819D02*
X133856190Y-103369819D01*
X133856190Y-103369819D02*
X133999047Y-103417438D01*
X133999047Y-103417438D02*
X134094285Y-103512676D01*
X134094285Y-103512676D02*
X134141904Y-103607914D01*
X134141904Y-103607914D02*
X134189523Y-103798390D01*
X134189523Y-103798390D02*
X134189523Y-103941247D01*
X134189523Y-103941247D02*
X134141904Y-104131723D01*
X134141904Y-104131723D02*
X134094285Y-104226961D01*
X134094285Y-104226961D02*
X133999047Y-104322200D01*
X133999047Y-104322200D02*
X133856190Y-104369819D01*
X133856190Y-104369819D02*
X133760952Y-104369819D01*
X133760952Y-104369819D02*
X133618095Y-104322200D01*
X133618095Y-104322200D02*
X133570476Y-104274580D01*
X133570476Y-104274580D02*
X133570476Y-103941247D01*
X133570476Y-103941247D02*
X133760952Y-103941247D01*
X131628095Y-85417438D02*
X131723333Y-85369819D01*
X131723333Y-85369819D02*
X131866190Y-85369819D01*
X131866190Y-85369819D02*
X132009047Y-85417438D01*
X132009047Y-85417438D02*
X132104285Y-85512676D01*
X132104285Y-85512676D02*
X132151904Y-85607914D01*
X132151904Y-85607914D02*
X132199523Y-85798390D01*
X132199523Y-85798390D02*
X132199523Y-85941247D01*
X132199523Y-85941247D02*
X132151904Y-86131723D01*
X132151904Y-86131723D02*
X132104285Y-86226961D01*
X132104285Y-86226961D02*
X132009047Y-86322200D01*
X132009047Y-86322200D02*
X131866190Y-86369819D01*
X131866190Y-86369819D02*
X131770952Y-86369819D01*
X131770952Y-86369819D02*
X131628095Y-86322200D01*
X131628095Y-86322200D02*
X131580476Y-86274580D01*
X131580476Y-86274580D02*
X131580476Y-85941247D01*
X131580476Y-85941247D02*
X131770952Y-85941247D01*
X148023809Y-86274580D02*
X148071428Y-86322200D01*
X148071428Y-86322200D02*
X148214285Y-86369819D01*
X148214285Y-86369819D02*
X148309523Y-86369819D01*
X148309523Y-86369819D02*
X148452380Y-86322200D01*
X148452380Y-86322200D02*
X148547618Y-86226961D01*
X148547618Y-86226961D02*
X148595237Y-86131723D01*
X148595237Y-86131723D02*
X148642856Y-85941247D01*
X148642856Y-85941247D02*
X148642856Y-85798390D01*
X148642856Y-85798390D02*
X148595237Y-85607914D01*
X148595237Y-85607914D02*
X148547618Y-85512676D01*
X148547618Y-85512676D02*
X148452380Y-85417438D01*
X148452380Y-85417438D02*
X148309523Y-85369819D01*
X148309523Y-85369819D02*
X148214285Y-85369819D01*
X148214285Y-85369819D02*
X148071428Y-85417438D01*
X148071428Y-85417438D02*
X148023809Y-85465057D01*
X147642856Y-86084104D02*
X147166666Y-86084104D01*
X147738094Y-86369819D02*
X147404761Y-85369819D01*
X147404761Y-85369819D02*
X147071428Y-86369819D01*
X146261904Y-86369819D02*
X146738094Y-86369819D01*
X146738094Y-86369819D02*
X146738094Y-85369819D01*
X145923332Y-85369819D02*
X145589999Y-86369819D01*
X145589999Y-86369819D02*
X145256666Y-85369819D01*
X144923332Y-86369819D02*
X144923332Y-85369819D01*
X144923332Y-85369819D02*
X144685237Y-85369819D01*
X144685237Y-85369819D02*
X144542380Y-85417438D01*
X144542380Y-85417438D02*
X144447142Y-85512676D01*
X144447142Y-85512676D02*
X144399523Y-85607914D01*
X144399523Y-85607914D02*
X144351904Y-85798390D01*
X144351904Y-85798390D02*
X144351904Y-85941247D01*
X144351904Y-85941247D02*
X144399523Y-86131723D01*
X144399523Y-86131723D02*
X144447142Y-86226961D01*
X144447142Y-86226961D02*
X144542380Y-86322200D01*
X144542380Y-86322200D02*
X144685237Y-86369819D01*
X144685237Y-86369819D02*
X144923332Y-86369819D01*
X143923332Y-86369819D02*
X143923332Y-85369819D01*
X143923332Y-85369819D02*
X143685237Y-85369819D01*
X143685237Y-85369819D02*
X143542380Y-85417438D01*
X143542380Y-85417438D02*
X143447142Y-85512676D01*
X143447142Y-85512676D02*
X143399523Y-85607914D01*
X143399523Y-85607914D02*
X143351904Y-85798390D01*
X143351904Y-85798390D02*
X143351904Y-85941247D01*
X143351904Y-85941247D02*
X143399523Y-86131723D01*
X143399523Y-86131723D02*
X143447142Y-86226961D01*
X143447142Y-86226961D02*
X143542380Y-86322200D01*
X143542380Y-86322200D02*
X143685237Y-86369819D01*
X143685237Y-86369819D02*
X143923332Y-86369819D01*
X142621427Y-86369819D02*
X142621427Y-85369819D01*
X142621427Y-85369819D02*
X142288094Y-86084104D01*
X142288094Y-86084104D02*
X141954761Y-85369819D01*
X141954761Y-85369819D02*
X141954761Y-86369819D01*
X141478570Y-86369819D02*
X141478570Y-85369819D01*
X140367142Y-86369819D02*
X140367142Y-85369819D01*
X140367142Y-85369819D02*
X140033809Y-86084104D01*
X140033809Y-86084104D02*
X139700476Y-85369819D01*
X139700476Y-85369819D02*
X139700476Y-86369819D01*
X139033809Y-85369819D02*
X138843333Y-85369819D01*
X138843333Y-85369819D02*
X138748095Y-85417438D01*
X138748095Y-85417438D02*
X138652857Y-85512676D01*
X138652857Y-85512676D02*
X138605238Y-85703152D01*
X138605238Y-85703152D02*
X138605238Y-86036485D01*
X138605238Y-86036485D02*
X138652857Y-86226961D01*
X138652857Y-86226961D02*
X138748095Y-86322200D01*
X138748095Y-86322200D02*
X138843333Y-86369819D01*
X138843333Y-86369819D02*
X139033809Y-86369819D01*
X139033809Y-86369819D02*
X139129047Y-86322200D01*
X139129047Y-86322200D02*
X139224285Y-86226961D01*
X139224285Y-86226961D02*
X139271904Y-86036485D01*
X139271904Y-86036485D02*
X139271904Y-85703152D01*
X139271904Y-85703152D02*
X139224285Y-85512676D01*
X139224285Y-85512676D02*
X139129047Y-85417438D01*
X139129047Y-85417438D02*
X139033809Y-85369819D01*
X137160476Y-86274580D02*
X137208095Y-86322200D01*
X137208095Y-86322200D02*
X137350952Y-86369819D01*
X137350952Y-86369819D02*
X137446190Y-86369819D01*
X137446190Y-86369819D02*
X137589047Y-86322200D01*
X137589047Y-86322200D02*
X137684285Y-86226961D01*
X137684285Y-86226961D02*
X137731904Y-86131723D01*
X137731904Y-86131723D02*
X137779523Y-85941247D01*
X137779523Y-85941247D02*
X137779523Y-85798390D01*
X137779523Y-85798390D02*
X137731904Y-85607914D01*
X137731904Y-85607914D02*
X137684285Y-85512676D01*
X137684285Y-85512676D02*
X137589047Y-85417438D01*
X137589047Y-85417438D02*
X137446190Y-85369819D01*
X137446190Y-85369819D02*
X137350952Y-85369819D01*
X137350952Y-85369819D02*
X137208095Y-85417438D01*
X137208095Y-85417438D02*
X137160476Y-85465057D01*
X136731904Y-86369819D02*
X136731904Y-85369819D01*
X136160476Y-86369819D02*
X136589047Y-85798390D01*
X136160476Y-85369819D02*
X136731904Y-85941247D01*
X134596666Y-86274580D02*
X134644285Y-86322200D01*
X134644285Y-86322200D02*
X134787142Y-86369819D01*
X134787142Y-86369819D02*
X134882380Y-86369819D01*
X134882380Y-86369819D02*
X135025237Y-86322200D01*
X135025237Y-86322200D02*
X135120475Y-86226961D01*
X135120475Y-86226961D02*
X135168094Y-86131723D01*
X135168094Y-86131723D02*
X135215713Y-85941247D01*
X135215713Y-85941247D02*
X135215713Y-85798390D01*
X135215713Y-85798390D02*
X135168094Y-85607914D01*
X135168094Y-85607914D02*
X135120475Y-85512676D01*
X135120475Y-85512676D02*
X135025237Y-85417438D01*
X135025237Y-85417438D02*
X134882380Y-85369819D01*
X134882380Y-85369819D02*
X134787142Y-85369819D01*
X134787142Y-85369819D02*
X134644285Y-85417438D01*
X134644285Y-85417438D02*
X134596666Y-85465057D01*
X134215713Y-86322200D02*
X134072856Y-86369819D01*
X134072856Y-86369819D02*
X133834761Y-86369819D01*
X133834761Y-86369819D02*
X133739523Y-86322200D01*
X133739523Y-86322200D02*
X133691904Y-86274580D01*
X133691904Y-86274580D02*
X133644285Y-86179342D01*
X133644285Y-86179342D02*
X133644285Y-86084104D01*
X133644285Y-86084104D02*
X133691904Y-85988866D01*
X133691904Y-85988866D02*
X133739523Y-85941247D01*
X133739523Y-85941247D02*
X133834761Y-85893628D01*
X133834761Y-85893628D02*
X134025237Y-85846009D01*
X134025237Y-85846009D02*
X134120475Y-85798390D01*
X134120475Y-85798390D02*
X134168094Y-85750771D01*
X134168094Y-85750771D02*
X134215713Y-85655533D01*
X134215713Y-85655533D02*
X134215713Y-85560295D01*
X134215713Y-85560295D02*
X134168094Y-85465057D01*
X134168094Y-85465057D02*
X134120475Y-85417438D01*
X134120475Y-85417438D02*
X134025237Y-85369819D01*
X134025237Y-85369819D02*
X133787142Y-85369819D01*
X133787142Y-85369819D02*
X133644285Y-85417438D01*
X145333332Y-103369819D02*
X144999999Y-104369819D01*
X144999999Y-104369819D02*
X144666666Y-103369819D01*
X144333332Y-104369819D02*
X144333332Y-103369819D01*
X144333332Y-103369819D02*
X144095237Y-103369819D01*
X144095237Y-103369819D02*
X143952380Y-103417438D01*
X143952380Y-103417438D02*
X143857142Y-103512676D01*
X143857142Y-103512676D02*
X143809523Y-103607914D01*
X143809523Y-103607914D02*
X143761904Y-103798390D01*
X143761904Y-103798390D02*
X143761904Y-103941247D01*
X143761904Y-103941247D02*
X143809523Y-104131723D01*
X143809523Y-104131723D02*
X143857142Y-104226961D01*
X143857142Y-104226961D02*
X143952380Y-104322200D01*
X143952380Y-104322200D02*
X144095237Y-104369819D01*
X144095237Y-104369819D02*
X144333332Y-104369819D01*
X143333332Y-104369819D02*
X143333332Y-103369819D01*
X143333332Y-103369819D02*
X143095237Y-103369819D01*
X143095237Y-103369819D02*
X142952380Y-103417438D01*
X142952380Y-103417438D02*
X142857142Y-103512676D01*
X142857142Y-103512676D02*
X142809523Y-103607914D01*
X142809523Y-103607914D02*
X142761904Y-103798390D01*
X142761904Y-103798390D02*
X142761904Y-103941247D01*
X142761904Y-103941247D02*
X142809523Y-104131723D01*
X142809523Y-104131723D02*
X142857142Y-104226961D01*
X142857142Y-104226961D02*
X142952380Y-104322200D01*
X142952380Y-104322200D02*
X143095237Y-104369819D01*
X143095237Y-104369819D02*
X143333332Y-104369819D01*
X141738094Y-104084104D02*
X141261904Y-104084104D01*
X141833332Y-104369819D02*
X141499999Y-103369819D01*
X141499999Y-103369819D02*
X141166666Y-104369819D01*
X138928571Y-103846009D02*
X138785714Y-103893628D01*
X138785714Y-103893628D02*
X138738095Y-103941247D01*
X138738095Y-103941247D02*
X138690476Y-104036485D01*
X138690476Y-104036485D02*
X138690476Y-104179342D01*
X138690476Y-104179342D02*
X138738095Y-104274580D01*
X138738095Y-104274580D02*
X138785714Y-104322200D01*
X138785714Y-104322200D02*
X138880952Y-104369819D01*
X138880952Y-104369819D02*
X139261904Y-104369819D01*
X139261904Y-104369819D02*
X139261904Y-103369819D01*
X139261904Y-103369819D02*
X138928571Y-103369819D01*
X138928571Y-103369819D02*
X138833333Y-103417438D01*
X138833333Y-103417438D02*
X138785714Y-103465057D01*
X138785714Y-103465057D02*
X138738095Y-103560295D01*
X138738095Y-103560295D02*
X138738095Y-103655533D01*
X138738095Y-103655533D02*
X138785714Y-103750771D01*
X138785714Y-103750771D02*
X138833333Y-103798390D01*
X138833333Y-103798390D02*
X138928571Y-103846009D01*
X138928571Y-103846009D02*
X139261904Y-103846009D01*
X137904761Y-104369819D02*
X137904761Y-103369819D01*
X137904761Y-103369819D02*
X137523809Y-103369819D01*
X137523809Y-103369819D02*
X137428571Y-103417438D01*
X137428571Y-103417438D02*
X137380952Y-103465057D01*
X137380952Y-103465057D02*
X137333333Y-103560295D01*
X137333333Y-103560295D02*
X137333333Y-103703152D01*
X137333333Y-103703152D02*
X137380952Y-103798390D01*
X137380952Y-103798390D02*
X137428571Y-103846009D01*
X137428571Y-103846009D02*
X137523809Y-103893628D01*
X137523809Y-103893628D02*
X137904761Y-103893628D01*
X136999999Y-103369819D02*
X136761904Y-104369819D01*
X136761904Y-104369819D02*
X136571428Y-103655533D01*
X136571428Y-103655533D02*
X136380952Y-104369819D01*
X136380952Y-104369819D02*
X136142857Y-103369819D01*
X135761904Y-104369819D02*
X135761904Y-103369819D01*
X135761904Y-103369819D02*
X135428571Y-104084104D01*
X135428571Y-104084104D02*
X135095238Y-103369819D01*
X135095238Y-103369819D02*
X135095238Y-104369819D01*
M02*
